<svg width="55" height="77" viewBox="0 0 55 77" fill="none" xmlns="http://www.w3.org/2000/svg">
<path d="M3.33149 5.30249H4.08149H46.3545H47.0704L47.1037 6.01762C47.1071 6.09127 47.1114 6.16895 47.1159 6.24904C47.1275 6.45888 47.1401 6.6853 47.1401 6.89945L3.33149 5.30249ZM3.33149 5.30249V6.05249M3.33149 5.30249V6.05249M3.33149 6.05249V6.05462V6.05676V6.05889V6.06102V6.06315V6.06528V6.0674V6.06953V6.07166V6.07378V6.07591V6.07803V6.08015V6.08228V6.0844V6.08652V6.08864V6.09076V6.09288V6.09499V6.09711V6.09922V6.10134V6.10345V6.10557V6.10768V6.10979V6.1119V6.11401V6.11612V6.11823V6.12034V6.12244V6.12455V6.12665V6.12876V6.13086V6.13297V6.13507V6.13717V6.13927V6.14137V6.14347V6.14557V6.14766V6.14976V6.15186V6.15395V6.15605V6.15814V6.16023V6.16232V6.16441V6.1665V6.16859V6.17068V6.17277V6.17486V6.17695V6.17903V6.18112V6.1832V6.18528V6.18737V6.18945V6.19153V6.19361V6.19569V6.19777V6.19985V6.20193V6.204V6.20608V6.20816V6.21023V6.2123V6.21438V6.21645V6.21852V6.22059V6.22266V6.22473V6.2268V6.22887V6.23094V6.233V6.23507V6.23714V6.2392V6.24126V6.24333V6.24539V6.24745V6.24951V6.25157V6.25363V6.25569V6.25775V6.25981V6.26187V6.26392V6.26598V6.26803V6.27009V6.27214V6.27419V6.27625V6.2783V6.28035V6.2824V6.28445V6.2865V6.28855V6.29059V6.29264V6.29469V6.29673V6.29878V6.30082V6.30286V6.30491V6.30695V6.30899V6.31103V6.31307V6.31511V6.31715V6.31919V6.32123V6.32326V6.3253V6.32734V6.32937V6.33141V6.33344V6.33547V6.33751V6.33954V6.34157V6.3436V6.34563V6.34766V6.34969V6.35172V6.35374V6.35577V6.3578V6.35982V6.36185V6.36387V6.3659V6.36792V6.36994V6.37196V6.37399V6.37601V6.37803V6.38005V6.38207V6.38408V6.3861V6.38812V6.39014V6.39215V6.39417V6.39618V6.3982V6.40021V6.40222V6.40424V6.40625V6.40826V6.41027V6.41228V6.41429V6.4163V6.41831V6.42032V6.42232V6.42433V6.42634V6.42834V6.43035V6.43235V6.43436V6.43636V6.43836V6.44037V6.44237V6.44437V6.44637V6.44837V6.45037V6.45237V6.45437V6.45637V6.45836V6.46036V6.46236V6.46435V6.46635V6.46834V6.47034V6.47233V6.47433V6.47632V6.47831V6.4803V6.48229V6.48428V6.48627V6.48826V6.49025V6.49224V6.49423V6.49622V6.49821V6.50019V6.50218V6.50416V6.50615V6.50813V6.51012V6.5121V6.51408V6.51607V6.51805V6.52003V6.52201V6.52399V6.52597V6.52795V6.52993V6.53191V6.53389V6.53587V6.53785V6.53982V6.5418V6.54377V6.54575V6.54773V6.5497V6.55167V6.55365V6.55562V6.55759V6.55957V6.56154V6.56351V6.56548V6.56745V6.56942V6.57139V6.57336V6.57533V6.5773V6.57926V6.58123V6.5832V6.58517V6.58713V6.5891V6.59106V6.59303V6.59499V6.59696V6.59892V6.60088V6.60285V6.60481V6.60677V6.60873V6.61069V6.61265V6.61461V6.61657V6.61853V6.62049V6.62245V6.62441V6.62637V6.62832V6.63028V6.63224V6.63419V6.63615V6.6381V6.64006V6.64201V6.64397V6.64592V6.64787V6.64983V6.65178V6.65373V6.65568V6.65764V6.65959V6.66154V6.66349V6.66544V6.66739V6.66934V6.67129V6.67324V6.67518V6.67713V6.67908V6.68103V6.68297V6.68492V6.68687V6.68881V6.69076V6.6927V6.69465V6.69659V6.69853V6.70048V6.70242V6.70436V6.70631V6.70825V6.71019V6.71213V6.71407V6.71602V6.71796V6.7199V6.72184V6.72378V6.72572V6.72766V6.72959V6.73153V6.73347V6.73541V6.73735V6.73928V6.74122V6.74316V6.74509V6.74703V6.74896V6.7509V6.75283V6.75477V6.7567V6.75864V6.76057V6.76251V6.76444V6.76637V6.7683V6.77024V6.77217V6.7741V6.77603V6.77796V6.77989V6.78183V6.78376V6.78569V6.78762V6.78955V6.79148V6.7934V6.79533V6.79726V6.79919V6.80112V6.80305V6.80497V6.8069V6.80883V6.81076V6.81268V6.81461V6.81653V6.81846V6.82039V6.82231V6.82424V6.82616V6.82809V6.83001V6.83193V6.83386V6.83578V6.83771V6.83963V6.84155V6.84347V6.8454V6.84732V6.84924V6.85116V6.85309V6.85501V6.85693V6.85885V6.86077V6.86269V6.86461V6.86653V6.86845V6.87037V6.87229V6.87421V6.87613V6.87805V6.87997V6.88189V6.8838V6.88572V6.88764V6.88956V6.89148V6.89339V6.89531V6.89723V6.89915V6.90106V6.90298V6.9049V6.90681V6.90873V6.91064V6.91256V6.91448V6.91639V6.91831V6.92022V6.92214V6.92405V6.92597V6.92788V6.92979V6.93171V6.93362V6.93554V6.93745V6.93936V6.94128V6.94319V6.9451V6.94702V6.94893V6.95084V6.95276V6.95467V6.95658V6.95849V6.96041V6.96232V6.96423V6.96614V6.96805V6.96996V6.97188V6.97379V6.9757V6.97761V6.97952V6.98143V6.98334V6.98525V6.98716V6.98907V6.99098V6.99289V6.9948V6.99671V6.99862V7.00053V7.00244V7.00435V7.00626V7.00817V7.01008V7.01199V7.0139V7.01581V7.01772V7.01963V7.02154V7.02344V7.02535V7.02726V7.02917V7.03108V7.03299V7.0349V7.0368V7.03871V7.04062V7.04253V7.04444V7.04635V7.04825V7.05016V7.05207V7.05398V7.05589V7.05779V7.0597V7.06161V7.06352V7.06542V7.06733V7.06924C3.33149 9.83533 3.33168 12.6013 3.33187 15.3673M3.33149 6.05249L3.33187 15.3673M46.1284 56.8493C46.1286 56.8492 46.1287 56.8491 46.1289 56.8491L45.925 56.522C46.1872 56.3323 46.4091 56.1028 46.5643 55.8071C46.7025 55.544 46.7664 55.269 46.7898 54.9937C46.7898 54.9936 46.7898 54.9934 46.7898 54.9933C46.798 54.8974 46.8013 54.8015 46.801 54.706C46.801 54.7056 46.801 54.7052 46.801 54.7048L46.4053 54.7058L4.88806 56.3036C11.3785 60.3547 17.8509 64.4374 24.3156 68.5293L24.1164 68.8432C24.1164 68.8432 24.1164 68.8432 24.1165 68.8432C24.2078 68.9011 24.3025 68.9556 24.401 69.0038C24.4012 69.0039 24.4014 69.004 24.4016 69.0041C24.6456 69.1234 24.9127 69.204 25.2091 69.2029C25.5015 69.2018 25.7643 69.1214 26.0028 69.0054L26.2125 69.338M46.1284 56.8493C46.1283 56.8494 46.1281 56.8495 46.1279 56.8496L45.9246 56.5223C45.8676 56.5636 45.8087 56.6029 45.7482 56.6407L45.748 56.6408C39.2502 60.6901 32.7648 64.7578 26.2902 68.8441L26.2897 68.8444C26.1981 68.9021 26.1027 68.9568 26.003 69.0053L26.213 69.3377C26.2128 69.3378 26.2127 69.3379 26.2125 69.338M46.1284 56.8493C39.4791 60.9942 32.8404 65.1591 26.2125 69.338M46.1284 56.8493C46.4438 56.6533 46.7258 56.41 46.9147 56.0653C47.1029 55.7218 47.1556 55.3557 47.1556 54.9937V54.9929C47.1417 41.9667 47.1412 28.9416 47.1406 15.9154C47.1405 12.9101 47.1404 9.90488 47.1401 6.89952L4.49094 56.9398M26.2125 69.338C25.9253 69.5194 25.5918 69.6698 25.2004 69.6694C24.8092 69.669 24.4764 69.518 24.191 69.338L24.1898 69.3373C17.6341 65.1874 11.0716 61.0473 4.49094 56.9398M4.49094 56.9398C4.10887 56.7014 3.78795 56.4137 3.57816 56.0171C3.37077 55.6249 3.3136 55.2043 3.31446 54.7782L4.49094 56.9398ZM3.33187 15.3673C3.33276 28.5046 3.33365 41.6406 3.31446 54.7777L3.33187 15.3673ZM44.9546 55.3678C38.4544 59.4186 31.9666 63.4879 25.4896 67.5757C25.2913 67.7005 25.2186 67.7029 25.2037 67.7029C25.1903 67.703 25.1178 67.7021 24.92 67.5766L24.92 67.5766C18.4521 63.4732 11.9705 59.3932 5.48502 55.3213L5.48428 55.3208C5.31035 55.2119 5.26124 55.1559 5.24406 55.1304L5.2435 55.1296C5.23746 55.1208 5.21082 55.0824 5.21078 54.94C5.22497 40.3145 5.22485 25.6903 5.22474 11.0654C5.22473 9.77556 5.22471 8.48575 5.22471 7.19592H45.2887V7.19705V7.19882V7.20059V7.20236V7.20413V7.2059V7.20767V7.20944V7.21121V7.21298V7.21475V7.21652V7.21829V7.22006V7.22183V7.2236V7.22537V7.22714V7.22891V7.23067V7.23244V7.23421V7.23598V7.23775V7.23952V7.24128V7.24305V7.24482V7.24659V7.24835V7.25012V7.25189V7.25365V7.25542V7.25719V7.25895V7.26072V7.26249V7.26425V7.26602V7.26779V7.26955V7.27132V7.27308V7.27485V7.27661V7.27838V7.28015V7.28191V7.28368V7.28544V7.28721V7.28897V7.29074V7.2925V7.29427V7.29603V7.2978V7.29956V7.30132V7.30309V7.30485V7.30662V7.30838V7.31015V7.31191V7.31367V7.31544V7.3172V7.31897V7.32073V7.32249V7.32426V7.32602V7.32778V7.32955V7.33131V7.33307V7.33484V7.3366V7.33836V7.34013V7.34189V7.34365V7.34542V7.34718V7.34894V7.35071V7.35247V7.35423V7.356V7.35776V7.35952V7.36129V7.36305V7.36481V7.36657V7.36834V7.3701V7.37186V7.37363V7.37539V7.37715V7.37891V7.38068V7.38244C45.2887 9.63663 45.2886 11.8909 45.2885 14.1451C45.2882 27.6655 45.2878 41.187 45.301 54.7075L45.301 54.7087C45.3016 54.9435 45.2676 55.0502 45.2362 55.1099C45.2074 55.1648 45.1447 55.2492 44.9546 55.3678Z" stroke="#9BBEBB" stroke-width="1.5"/>
<path d="M9.06243 21.8221C9.86436 21.8221 10.6059 21.8638 11.3413 21.8098C12.0658 21.7573 12.5488 21.3006 12.6339 20.5955C12.7501 19.6143 12.9033 18.5867 11.9528 17.8708C12.603 17.0114 12.8213 15.6167 12.3088 14.9841C11.4264 13.8949 10.1957 14.4595 9.06398 14.3407V21.8206L9.06243 21.8221ZM24.8115 21.9255C25.3069 21.9255 25.6784 21.8792 26.0345 21.9332C27.2652 22.1199 28.1136 21.4719 28.1616 20.2407C28.1895 19.5263 28.1972 18.8089 28.1693 18.093C28.1167 16.7384 28.0331 15.3868 27.9696 14.1849C27.5346 14.2374 27.211 14.3469 26.9092 14.3022C25.4323 14.0846 24.6396 14.7295 24.6226 16.2138C24.6164 16.7769 24.6025 17.3401 24.6241 17.9017C24.6783 19.3041 24.7511 20.7051 24.8084 21.9239L24.8115 21.9255ZM20.3142 17.5422V14.3685H19.2723V21.8005H20.3575V18.6608H21.7973V21.802H22.8361V14.3793H21.7493V17.5437H20.3142V17.5422ZM33.1852 16.2724C33.1233 14.7187 32.4607 14.1232 31.1015 14.2991C30.0906 14.4302 29.479 15.3991 29.7918 16.5794C29.9357 17.121 30.3042 17.6224 30.6432 18.0899C30.9111 18.4586 31.3616 18.7009 31.6015 19.0804C31.8337 19.4476 31.9731 19.9136 32.004 20.3456C32.0164 20.5199 31.6433 20.8362 31.4126 20.8717C31.2377 20.8995 30.9498 20.6187 30.8228 20.4088C30.7052 20.2144 30.7346 19.9321 30.6943 19.6513C30.3398 19.6683 30.0472 19.6806 29.7159 19.696C29.7159 19.9629 29.7082 20.1388 29.7159 20.3163C29.767 21.3021 30.3414 21.89 31.3074 21.9563C32.2873 22.0227 32.953 21.5382 33.1512 20.594C33.354 19.6297 33.0165 18.832 32.3493 18.1485C31.956 17.7443 31.4622 17.3972 31.1959 16.922C30.9854 16.5455 31.0194 16.0163 31.021 15.5534C31.021 15.4717 31.4993 15.2665 31.5845 15.3343C31.8724 15.5658 32.0845 15.8929 32.4004 16.274H33.1791L33.1852 16.2724ZM40.4475 28.1833C40.4475 28.117 40.4444 28.0491 40.4428 27.9828H9.05469C9.05469 28.0491 9.05469 28.117 9.05469 28.1833H40.4475ZM13.7455 14.4055C14.2595 16.868 15.5707 19.1776 15.1667 21.799H16.3788C15.9562 19.1437 17.2427 16.851 17.7722 14.4055C17.0322 14.171 16.6529 14.3716 16.5182 15.1461C16.3819 15.9314 16.111 16.6936 15.9005 17.465C15.5134 16.7168 15.2534 15.9762 15.1295 15.2125C14.9917 14.3654 14.5552 14.1633 13.7455 14.4025V14.4055ZM36.7397 21.8036V15.4038C37.2042 15.3683 37.5525 15.3405 37.9132 15.3127V14.3762H34.3866V15.3205C34.7891 15.3544 35.1591 15.3837 35.5972 15.4207V21.8036H36.7397ZM40.4661 14.3191C41.316 14.3191 42.0002 13.6727 42.0219 12.8472C42.0436 12.0187 41.3113 11.2643 40.4769 11.2581C39.6223 11.2519 38.9334 11.9616 38.9443 12.8349C38.9551 13.6866 39.6038 14.3176 40.4661 14.3176V14.3191Z" fill="white"/>
<path d="M9.0621 21.8221V14.3423C10.1938 14.4626 11.4245 13.8964 12.307 14.9857C12.8194 15.6183 12.6011 17.013 11.9509 17.8724C12.903 18.5883 12.7497 19.6174 12.6321 20.5971C12.5485 21.3022 12.0639 21.7589 11.3394 21.8113C10.604 21.8638 9.86247 21.8237 9.06055 21.8237L9.0621 21.8221ZM10.248 20.9581C10.7186 20.7791 11.3595 20.6989 11.4059 20.4875C11.5298 19.9244 11.4834 19.2795 11.3193 18.721C11.262 18.5281 10.6567 18.4972 10.248 18.3754V20.9581ZM10.2418 17.5329C10.6629 17.3663 11.1985 17.3031 11.262 17.0979C11.3998 16.6458 11.3951 16.0919 11.2511 15.6414C11.1892 15.447 10.6396 15.4084 10.2418 15.2742V17.5329Z" fill="#9BBEBB"/>
<path d="M24.8116 21.9255C24.7543 20.7067 24.6816 19.3058 24.6274 17.9033C24.6057 17.3417 24.6181 16.7785 24.6258 16.2154C24.6429 14.7312 25.4355 14.0878 26.9124 14.3038C27.2143 14.3485 27.5379 14.239 27.9729 14.1865C28.0363 15.3869 28.1199 16.74 28.1726 18.0946C28.2004 18.8089 28.1927 19.5264 28.1648 20.2423C28.1153 21.4735 27.2669 22.1215 26.0377 21.9348C25.6817 21.8808 25.3101 21.9271 24.8147 21.9271L24.8116 21.9255ZM25.7885 18.721L25.951 18.775C26.2761 17.8925 26.609 17.0131 26.9248 16.1274C27.0657 15.734 27.0007 15.3329 26.5223 15.3468C26.273 15.3545 25.8396 15.6893 25.8225 15.9037C25.7451 16.8372 25.7885 17.7814 25.7885 18.7225V18.721ZM27.0672 17.4404C27.0022 17.4265 26.9387 17.4127 26.8737 17.3988C26.5687 18.2227 26.2421 19.0404 25.9712 19.8766C25.8876 20.1358 25.8907 20.466 25.982 20.7175C26.0238 20.8332 26.4743 20.9504 26.5672 20.8702C26.7886 20.6774 27.027 20.375 27.0456 20.1019C27.1044 19.2178 27.0672 18.3276 27.0672 17.4404Z" fill="#9BBEBB"/>
<path d="M20.3143 17.5422H21.7495V14.3777H22.8362V21.8005H21.7974V18.6592H20.3577V21.7989H19.2725V14.3669H20.3143V17.5406V17.5422Z" fill="#9BBEBB"/>
<path d="M33.1852 16.2723H32.4065C32.0907 15.8896 31.8786 15.5641 31.5906 15.3326C31.507 15.2648 31.0287 15.47 31.0271 15.5517C31.024 16.013 30.99 16.5438 31.2021 16.9203C31.4683 17.3955 31.9622 17.7426 32.3554 18.1468C33.0227 18.8319 33.3601 19.628 33.1573 20.5923C32.9592 21.5365 32.2935 22.021 31.3135 21.9546C30.346 21.8883 29.7732 21.3004 29.7221 20.3146C29.7128 20.1387 29.7221 19.9612 29.7221 19.6943C30.0534 19.6789 30.346 19.665 30.7005 19.6496C30.7407 19.9304 30.7113 20.2127 30.829 20.4071C30.9559 20.617 31.2439 20.8962 31.4188 20.87C31.6495 20.8345 32.021 20.5182 32.0102 20.3439C31.9808 19.9119 31.8399 19.4459 31.6077 19.0787C31.3677 18.6992 30.9172 18.4554 30.6494 18.0882C30.3088 17.6223 29.9419 17.1208 29.7979 16.5777C29.4852 15.3974 30.0967 14.4285 31.1076 14.2974C32.4669 14.1215 33.1279 14.717 33.1914 16.2707L33.1852 16.2723Z" fill="#9BBEBB"/>
<path d="M40.4475 28.6832H40.9593L40.9473 28.1716C40.9466 28.1409 40.9458 28.1151 40.9451 28.0917C40.9439 28.0524 40.9428 28.0199 40.9428 27.9827V27.4827H40.4428H9.05469H8.55469V27.9827V27.9831V27.9834V27.9838V27.9842V27.9846V27.985V27.9854V27.9858V27.9862V27.9866V27.9869V27.9873V27.9877V27.9881V27.9885V27.9889V27.9893V27.9897V27.9901V27.9904V27.9908V27.9912V27.9916V27.992V27.9924V27.9928V27.9932V27.9936V27.994V27.9943V27.9947V27.9951V27.9955V27.9959V27.9963V27.9967V27.9971V27.9975V27.9979V27.9982V27.9986V27.999V27.9994V27.9998V28.0002V28.0006V28.001V28.0014V28.0018V28.0021V28.0025V28.0029V28.0033V28.0037V28.0041V28.0045V28.0049V28.0053V28.0057V28.006V28.0064V28.0068V28.0072V28.0076V28.008V28.0084V28.0088V28.0092V28.0096V28.01V28.0103V28.0107V28.0111V28.0115V28.0119V28.0123V28.0127V28.0131V28.0135V28.0139V28.0143V28.0146V28.015V28.0154V28.0158V28.0162V28.0166V28.017V28.0174V28.0178V28.0182V28.0186V28.019V28.0193V28.0197V28.0201V28.0205V28.0209V28.0213V28.0217V28.0221V28.0225V28.0229V28.0233V28.0237V28.024V28.0244V28.0248V28.0252V28.0256V28.026V28.0264V28.0268V28.0272V28.0276V28.028V28.0284V28.0287V28.0291V28.0295V28.0299V28.0303V28.0307V28.0311V28.0315V28.0319V28.0323V28.0327V28.0331V28.0334V28.0338V28.0342V28.0346V28.035V28.0354V28.0358V28.0362V28.0366V28.037V28.0374V28.0378V28.0382V28.0385V28.0389V28.0393V28.0397V28.0401V28.0405V28.0409V28.0413V28.0417V28.0421V28.0425V28.0429V28.0433V28.0437V28.044V28.0444V28.0448V28.0452V28.0456V28.046V28.0464V28.0468V28.0472V28.0476V28.048V28.0484V28.0488V28.0491V28.0495V28.0499V28.0503V28.0507V28.0511V28.0515V28.0519V28.0523V28.0527V28.0531V28.0535V28.0539V28.0543V28.0546V28.055V28.0554V28.0558V28.0562V28.0566V28.057V28.0574V28.0578V28.0582V28.0586V28.059V28.0594V28.0598V28.0601V28.0605V28.0609V28.0613V28.0617V28.0621V28.0625V28.0629V28.0633V28.0637V28.0641V28.0645V28.0649V28.0653V28.0657V28.066V28.0664V28.0668V28.0672V28.0676V28.068V28.0684V28.0688V28.0692V28.0696V28.07V28.0704V28.0708V28.0712V28.0715V28.0719V28.0723V28.0727V28.0731V28.0735V28.0739V28.0743V28.0747V28.0751V28.0755V28.0759V28.0763V28.0767V28.0771V28.0774V28.0778V28.0782V28.0786V28.079V28.0794V28.0798V28.0802V28.0806V28.081V28.0814V28.0818V28.0822V28.0826V28.083V28.0833V28.0837V28.0841V28.0845V28.0849V28.0853V28.0857V28.0861V28.0865V28.0869V28.0873V28.0877V28.0881V28.0885V28.0889V28.0892V28.0896V28.09V28.0904V28.0908V28.0912V28.0916V28.092V28.0924V28.0928V28.0932V28.0936V28.094V28.0944V28.0947V28.0951V28.0955V28.0959V28.0963V28.0967V28.0971V28.0975V28.0979V28.0983V28.0987V28.0991V28.0995V28.0999V28.1003V28.1006V28.101V28.1014V28.1018V28.1022V28.1026V28.103V28.1034V28.1038V28.1042V28.1046V28.105V28.1054V28.1058V28.1061V28.1065V28.1069V28.1073V28.1077V28.1081V28.1085V28.1089V28.1093V28.1097V28.1101V28.1105V28.1109V28.1113V28.1117V28.112V28.1124V28.1128V28.1132V28.1136V28.114V28.1144V28.1148V28.1152V28.1156V28.116V28.1164V28.1168V28.1172V28.1175V28.1179V28.1183V28.1187V28.1191V28.1195V28.1199V28.1203V28.1207V28.1211V28.1215V28.1219V28.1223V28.1226V28.123V28.1234V28.1238V28.1242V28.1246V28.125V28.1254V28.1258V28.1262V28.1266V28.127V28.1274V28.1277V28.1281V28.1285V28.1289V28.1293V28.1297V28.1301V28.1305V28.1309V28.1313V28.1317V28.1321V28.1325V28.1328V28.1332V28.1336V28.134V28.1344V28.1348V28.1352V28.1356V28.136V28.1364V28.1368V28.1372V28.1376V28.1379V28.1383V28.1387V28.1391V28.1395V28.1399V28.1403V28.1407V28.1411V28.1415V28.1419V28.1423V28.1426V28.143V28.1434V28.1438V28.1442V28.1446V28.145V28.1454V28.1458V28.1462V28.1466V28.147V28.1473V28.1477V28.1481V28.1485V28.1489V28.1493V28.1497V28.1501V28.1505V28.1509V28.1513V28.1516V28.152V28.1524V28.1528V28.1532V28.1536V28.154V28.1544V28.1548V28.1552V28.1556V28.1559V28.1563V28.1567V28.1571V28.1575V28.1579V28.1583V28.1587V28.1591V28.1595V28.1599V28.1602V28.1606V28.161V28.1614V28.1618V28.1622V28.1626V28.163V28.1634V28.1638V28.1642V28.1645V28.1649V28.1653V28.1657V28.1661V28.1665V28.1669V28.1673V28.1677V28.1681V28.1684V28.1688V28.1692V28.1696V28.17V28.1704V28.1708V28.1712V28.1716V28.172V28.1723V28.1727V28.1731V28.1735V28.1739V28.1743V28.1747V28.1751V28.1755V28.1758V28.1762V28.1766V28.177V28.1774V28.1778V28.1782V28.1786V28.179V28.1793V28.1797V28.1801V28.1805V28.1809V28.1813V28.1817V28.1821V28.1825V28.1829V28.1832V28.6832H9.05469H40.4475Z" fill="#9BBEBB" stroke="#9BBEBB"/>
<path d="M13.7451 14.4055C14.5548 14.1664 14.9914 14.3685 15.1291 15.2155C15.253 15.9777 15.5131 16.7198 15.9001 17.4681C16.1122 16.6967 16.3816 15.9345 16.5178 15.1492C16.6525 14.3746 17.0318 14.1725 17.7718 14.4086C17.2423 16.8525 15.9558 19.1467 16.3785 21.802H15.1663C15.5704 19.1807 14.2591 16.871 13.7451 14.4086V14.4055Z" fill="#9BBEBB"/>
<path d="M36.7399 21.8036H35.5974V15.4207C35.1592 15.3853 34.7892 15.3544 34.3867 15.3205V14.3762H37.9133V15.3127C37.5542 15.3405 37.2058 15.3667 36.7399 15.4038V21.8036Z" fill="#9BBEBB"/>
<path d="M40.4663 14.3191C39.6024 14.3191 38.9553 13.6865 38.9445 12.8364C38.9336 11.9631 39.6225 11.2534 40.4771 11.2596C41.3115 11.2657 42.0438 12.0202 42.0221 12.8487C42.0005 13.6741 41.3146 14.3206 40.4663 14.3206V14.3191ZM40.4848 13.8763C40.8192 13.3656 41.1722 13.0632 41.1397 12.8101C41.1072 12.5479 40.6938 12.1405 40.4585 12.1483C40.2108 12.156 39.8083 12.5633 39.7835 12.8256C39.7603 13.0817 40.1272 13.3733 40.4848 13.8778V13.8763Z" fill="#9BBEBB"/>
<path d="M25.7881 18.7209C25.7881 17.7797 25.7432 16.837 25.8222 15.9021C25.8407 15.6876 26.2727 15.3528 26.5219 15.3451C27.0018 15.3312 27.0653 15.7323 26.9244 16.1258C26.6086 17.0114 26.2758 17.8923 25.9507 18.7733L25.7881 18.7193V18.7209Z" fill="white"/>
<path d="M40.4847 13.8764C40.1271 13.3734 39.7586 13.0803 39.7834 12.8242C39.8082 12.5619 40.2107 12.1546 40.4584 12.1468C40.6937 12.1391 41.1071 12.5464 41.1396 12.8087C41.1721 13.0633 40.8191 13.3642 40.4847 13.8748V13.8764Z" fill="white"/>
</svg>
