<svg width="54" height="76" viewBox="0 0 54 76" fill="none" xmlns="http://www.w3.org/2000/svg">
<path d="M3.29633 4.36157H4.04633H46.3193H47.0352L47.0685 5.0767C47.0719 5.15035 47.0762 5.22801 47.0807 5.3081C47.0924 5.51794 47.1049 5.74437 47.1049 5.95853L3.29633 4.36157ZM3.29633 4.36157V5.11157M3.29633 4.36157V5.11157M3.29633 5.11157V5.11371V5.11584V5.11797V5.1201V5.12223V5.12436V5.12649V5.12861V5.13074V5.13287V5.13499V5.13711V5.13924V5.14136V5.14348V5.1456V5.14772V5.14984V5.15196V5.15407V5.15619V5.15831V5.16042V5.16254V5.16465V5.16676V5.16887V5.17098V5.17309V5.1752V5.17731V5.17942V5.18153V5.18363V5.18574V5.18784V5.18994V5.19205V5.19415V5.19625V5.19835V5.20045V5.20255V5.20465V5.20675V5.20884V5.21094V5.21303V5.21513V5.21722V5.21931V5.22141V5.2235V5.22559V5.22768V5.22977V5.23185V5.23394V5.23603V5.23811V5.2402V5.24228V5.24437V5.24645V5.24853V5.25061V5.25269V5.25477V5.25685V5.25893V5.26101V5.26309V5.26516V5.26724V5.26931V5.27139V5.27346V5.27553V5.2776V5.27968V5.28175V5.28382V5.28588V5.28795V5.29002V5.29209V5.29415V5.29622V5.29828V5.30035V5.30241V5.30447V5.30653V5.3086V5.31066V5.31272V5.31478V5.31683V5.31889V5.32095V5.323V5.32506V5.32712V5.32917V5.33122V5.33328V5.33533V5.33738V5.33943V5.34148V5.34353V5.34558V5.34763V5.34968V5.35172V5.35377V5.35581V5.35786V5.3599V5.36195V5.36399V5.36603V5.36807V5.37011V5.37215V5.37419V5.37623V5.37827V5.38031V5.38235V5.38438V5.38642V5.38845V5.39049V5.39252V5.39455V5.39659V5.39862V5.40065V5.40268V5.40471V5.40674V5.40877V5.4108V5.41283V5.41485V5.41688V5.4189V5.42093V5.42295V5.42498V5.427V5.42902V5.43105V5.43307V5.43509V5.43711V5.43913V5.44115V5.44317V5.44518V5.4472V5.44922V5.45123V5.45325V5.45526V5.45728V5.45929V5.46131V5.46332V5.46533V5.46734V5.46935V5.47136V5.47337V5.47538V5.47739V5.4794V5.48141V5.48341V5.48542V5.48743V5.48943V5.49144V5.49344V5.49544V5.49745V5.49945V5.50145V5.50345V5.50545V5.50745V5.50945V5.51145V5.51345V5.51545V5.51745V5.51944V5.52144V5.52344V5.52543V5.52743V5.52942V5.53141V5.53341V5.5354V5.53739V5.53938V5.54138V5.54337V5.54536V5.54735V5.54934V5.55132V5.55331V5.5553V5.55729V5.55927V5.56126V5.56325V5.56523V5.56722V5.5692V5.57118V5.57317V5.57515V5.57713V5.57911V5.58109V5.58308V5.58506V5.58704V5.58902V5.59099V5.59297V5.59495V5.59693V5.5989V5.60088V5.60286V5.60483V5.60681V5.60878V5.61076V5.61273V5.6147V5.61668V5.61865V5.62062V5.62259V5.62456V5.62653V5.6285V5.63047V5.63244V5.63441V5.63638V5.63835V5.64031V5.64228V5.64425V5.64621V5.64818V5.65014V5.65211V5.65407V5.65604V5.658V5.65996V5.66193V5.66389V5.66585V5.66781V5.66977V5.67173V5.67369V5.67565V5.67761V5.67957V5.68153V5.68349V5.68545V5.6874V5.68936V5.69132V5.69327V5.69523V5.69719V5.69914V5.7011V5.70305V5.705V5.70696V5.70891V5.71086V5.71281V5.71477V5.71672V5.71867V5.72062V5.72257V5.72452V5.72647V5.72842V5.73037V5.73232V5.73427V5.73621V5.73816V5.74011V5.74206V5.744V5.74595V5.74789V5.74984V5.75178V5.75373V5.75567V5.75762V5.75956V5.7615V5.76345V5.76539V5.76733V5.76927V5.77122V5.77316V5.7751V5.77704V5.77898V5.78092V5.78286V5.7848V5.78674V5.78868V5.79061V5.79255V5.79449V5.79643V5.79836V5.8003V5.80224V5.80417V5.80611V5.80805V5.80998V5.81192V5.81385V5.81579V5.81772V5.81965V5.82159V5.82352V5.82545V5.82739V5.82932V5.83125V5.83318V5.83511V5.83705V5.83898V5.84091V5.84284V5.84477V5.8467V5.84863V5.85056V5.85249V5.85442V5.85634V5.85827V5.8602V5.86213V5.86406V5.86598V5.86791V5.86984V5.87176V5.87369V5.87562V5.87754V5.87947V5.88139V5.88332V5.88524V5.88717V5.88909V5.89102V5.89294V5.89486V5.89679V5.89871V5.90063V5.90256V5.90448V5.9064V5.90832V5.91025V5.91217V5.91409V5.91601V5.91793V5.91985V5.92177V5.92369V5.92561V5.92753V5.92945V5.93137V5.93329V5.93521V5.93713V5.93905V5.94097V5.94289V5.94481V5.94672V5.94864V5.95056V5.95248V5.95439V5.95631V5.95823V5.96014V5.96206V5.96398V5.96589V5.96781V5.96973V5.97164V5.97356V5.97547V5.97739V5.9793V5.98122V5.98313V5.98505V5.98696V5.98888V5.99079V5.99271V5.99462V5.99653V5.99845V6.00036V6.00227V6.00419V6.0061V6.00801V6.00993V6.01184V6.01375V6.01566V6.01758V6.01949V6.0214V6.02331V6.02522V6.02713V6.02905V6.03096V6.03287V6.03478V6.03669V6.0386V6.04051V6.04242V6.04433V6.04624V6.04816V6.05007V6.05198V6.05389V6.0558V6.05771V6.05962V6.06153V6.06344V6.06534V6.06725V6.06916V6.07107V6.07298V6.07489V6.0768V6.07871V6.08062V6.08253V6.08444V6.08634V6.08825V6.09016V6.09207V6.09398V6.09589V6.0978V6.0997V6.10161V6.10352V6.10543V6.10734V6.10924V6.11115V6.11306V6.11497V6.11687V6.11878V6.12069V6.1226V6.12451V6.12641V6.12832C3.29633 8.89441 3.29652 11.6604 3.29671 14.4264C3.2976 27.5637 3.29849 40.6997 3.27931 53.8367L3.29633 5.11157ZM46.0928 55.9087C46.0931 55.9085 46.0934 55.9083 46.0937 55.9081L45.8899 55.5811C46.1521 55.3914 46.374 55.1619 46.5292 54.8662C46.6673 54.6031 46.7312 54.328 46.7547 54.0528C46.7547 54.0527 46.7547 54.0525 46.7547 54.0524C46.7628 53.9565 46.7661 53.8606 46.7659 53.7651C46.7659 53.7647 46.7659 53.7643 46.7659 53.7639L46.3701 53.7649L24.2804 67.5884L24.0813 67.9023C24.0813 67.9023 24.0813 67.9023 24.0813 67.9023C24.1726 67.9602 24.2673 68.0147 24.3658 68.0629C24.366 68.063 24.3662 68.0631 24.3664 68.0632C24.6104 68.1824 24.8776 68.263 25.1739 68.262C25.4663 68.2609 25.7291 68.1805 25.9676 68.0645L26.1773 68.3971M46.0928 55.9087L45.8894 55.5814C45.8324 55.6227 45.7735 55.662 45.713 55.6998L45.7128 55.6999C39.215 59.7491 32.7296 63.8169 26.255 67.9032L26.2545 67.9035C26.163 67.9612 26.0676 68.0159 25.9679 68.0644L26.1779 68.3968C26.1777 68.3969 26.1775 68.397 26.1773 68.3971M46.0928 55.9087C39.4436 60.0534 32.8051 64.2183 26.1773 68.3971M46.0928 55.9087C46.4083 55.7127 46.6906 55.4693 46.8795 55.1244C47.0677 54.7809 47.1204 54.4148 47.1204 54.0528V54.052C47.1066 41.0258 47.106 28.0007 47.1055 14.9744C47.1053 11.9692 47.1052 8.96396 47.1049 5.9586L4.45579 55.9989C11.0364 60.1064 17.599 64.2465 24.1547 68.3964L24.1558 68.3971C24.4413 68.5771 24.774 68.7281 25.1652 68.7285C25.5566 68.7289 25.8901 68.5785 26.1773 68.3971M5.18956 6.255H45.2535V6.25613V6.2579V6.25967V6.26144V6.26321V6.26498V6.26675V6.26853V6.2703V6.27207V6.27383V6.2756V6.27737V6.27914V6.28091V6.28268V6.28445V6.28622V6.28799V6.28976V6.29152V6.29329V6.29506V6.29683V6.2986V6.30036V6.30213V6.3039V6.30567V6.30743V6.3092V6.31097V6.31274V6.3145V6.31627V6.31804V6.3198V6.32157V6.32334V6.3251V6.32687V6.32863V6.3304V6.33217V6.33393V6.3357V6.33746V6.33923V6.34099V6.34276V6.34452V6.34629V6.34805V6.34982V6.35158V6.35335V6.35511V6.35688V6.35864V6.36041V6.36217V6.36394V6.3657V6.36746V6.36923V6.37099V6.37276V6.37452V6.37628V6.37805V6.37981V6.38158V6.38334V6.3851V6.38687V6.38863V6.39039V6.39216V6.39392V6.39568V6.39745V6.39921V6.40097V6.40274V6.4045V6.40626V6.40803V6.40979V6.41155V6.41332V6.41508V6.41684V6.4186V6.42037V6.42213V6.42389V6.42566V6.42742V6.42918V6.43094V6.43271V6.43447V6.43623V6.438V6.43976V6.44152C45.2535 8.69571 45.2534 10.95 45.2534 13.2042C45.253 26.7246 45.2526 40.2461 45.2659 53.7666L45.2659 53.7677C45.2665 54.0026 45.2324 54.1093 45.2011 54.169C45.1722 54.2239 45.1095 54.3084 44.9193 54.427C38.4191 58.4777 31.9313 62.547 25.4544 66.6347C25.2562 66.7596 25.1834 66.7619 25.1685 66.762C25.1551 66.762 25.0826 66.7612 24.8849 66.6357L24.8849 66.6357C18.4169 62.5323 11.9354 58.4523 5.44986 54.3804L5.44912 54.3799C5.2752 54.271 5.22608 54.215 5.2089 54.1895L5.20834 54.1887C5.2023 54.1799 5.17566 54.1414 5.17562 53.9991C5.18982 39.3736 5.1897 24.7493 5.18958 10.1245C5.18957 8.83465 5.18956 7.54483 5.18956 6.255Z" fill="#E9F35A" stroke="#E9F35A" stroke-width="1.5"/>
<path d="M9.02727 20.8812C9.8292 20.8812 10.5707 20.9228 11.3061 20.8688C12.0306 20.8164 12.5136 20.3597 12.5988 19.6546C12.7149 18.6733 12.8682 17.6458 11.9176 16.9299C12.5678 16.0705 12.7861 14.6758 12.2737 14.0432C11.3913 12.9539 10.1605 13.5186 9.02882 13.3998V20.8796L9.02727 20.8812ZM24.7763 20.9845C25.2717 20.9845 25.6433 20.9383 25.9993 20.9923C27.2301 21.1789 28.0784 20.5309 28.1264 19.2997C28.1543 18.5854 28.162 17.868 28.1342 17.1521C28.0815 15.7974 27.9979 14.4459 27.9345 13.244C27.4995 13.2965 27.1759 13.406 26.874 13.3613C25.3971 13.1437 24.6045 13.7886 24.5874 15.2729C24.5812 15.836 24.5673 16.3992 24.589 16.9608C24.6432 18.3632 24.7159 19.7641 24.7732 20.983L24.7763 20.9845ZM20.279 16.6013V13.4276H19.2371V20.8596H20.3224V17.7198H21.7621V20.8611H22.8009V13.4384H21.7141V16.6028H20.279V16.6013ZM33.1501 15.3315C33.0882 13.7778 32.4256 13.1823 31.0663 13.3582C30.0554 13.4893 29.4439 14.4582 29.7566 15.6385C29.9006 16.1801 30.269 16.6815 30.6081 17.149C30.8759 17.5177 31.3264 17.76 31.5664 18.1395C31.7986 18.5067 31.9379 18.9727 31.9689 19.4047C31.9813 19.579 31.6082 19.8953 31.3775 19.9308C31.2026 19.9585 30.9146 19.6777 30.7877 19.4679C30.67 19.2735 30.6994 18.9912 30.6592 18.7104C30.3046 18.7273 30.0121 18.7397 29.6808 18.7551C29.6808 19.022 29.673 19.1979 29.6808 19.3753C29.7318 20.3612 30.3062 20.9491 31.2722 21.0154C32.2522 21.0817 32.9179 20.5973 33.116 19.6531C33.3188 18.6888 32.9813 17.8911 32.3141 17.2076C31.9209 16.8034 31.427 16.4562 31.1608 15.981C30.9502 15.6046 30.9843 15.0754 30.9858 14.6125C30.9858 14.5307 31.4642 14.3255 31.5493 14.3934C31.8373 14.6249 32.0494 14.9519 32.3652 15.333H33.1439L33.1501 15.3315ZM40.4123 27.2424C40.4123 27.1761 40.4092 27.1082 40.4077 27.0418H9.01953C9.01953 27.1082 9.01953 27.1761 9.01953 27.2424H40.4123ZM13.7103 13.4646C14.2243 15.927 15.5356 18.2367 15.1315 20.858H16.3437C15.9211 18.2028 17.2075 15.9101 17.737 13.4646C16.997 13.2301 16.6177 13.4307 16.483 14.2052C16.3468 14.9905 16.0759 15.7527 15.8653 16.5241C15.4783 15.7758 15.2182 15.0353 15.0944 14.2715C14.9566 13.4245 14.52 13.2224 13.7103 13.4615V13.4646ZM36.7046 20.8627V14.4629C37.169 14.4274 37.5173 14.3996 37.8781 14.3718V13.4353H34.3514V14.3795C34.7539 14.4135 35.1239 14.4428 35.5621 14.4798V20.8627H36.7046ZM40.4309 13.3782C41.2808 13.3782 41.9651 12.7318 41.9868 11.9063C42.0084 11.0778 41.2762 10.3234 40.4417 10.3172C39.5872 10.311 38.8983 11.0207 38.9091 11.894C38.9199 12.7456 39.5686 13.3767 40.4309 13.3767V13.3782Z" fill="white"/>
<path d="M9.02694 20.8812V13.4014C10.1586 13.5217 11.3894 12.9555 12.2718 14.0448C12.7842 14.6773 12.5659 16.0721 11.9157 16.9315C12.8678 17.6473 12.7146 18.6764 12.5969 19.6562C12.5133 20.3612 12.0287 20.8179 11.3042 20.8704C10.5689 20.9229 9.82732 20.8827 9.02539 20.8827L9.02694 20.8812ZM10.2128 20.0172C10.6834 19.8382 11.3243 19.758 11.3708 19.5466C11.4946 18.9835 11.4482 18.3386 11.2841 17.78C11.2268 17.5872 10.6215 17.5563 10.2128 17.4344V20.0172ZM10.2066 16.592C10.6277 16.4254 11.1633 16.3621 11.2268 16.1569C11.3646 15.7049 11.36 15.151 11.216 14.7005C11.1541 14.5061 10.6045 14.4675 10.2066 14.3333V16.592Z" fill="#E9F35A"/>
<path d="M24.7765 20.9845C24.7192 19.7656 24.6464 18.3647 24.5922 16.9622C24.5706 16.4006 24.5829 15.8375 24.5907 15.2744C24.6077 13.7901 25.4003 13.1467 26.8773 13.3627C27.1791 13.4075 27.5027 13.2979 27.9377 13.2455C28.0012 14.4458 28.0848 15.7989 28.1374 17.1536C28.1653 17.8679 28.1576 18.5853 28.1297 19.3012C28.0801 20.5324 27.2318 21.1804 26.0026 20.9938C25.6465 20.9398 25.275 20.986 24.7796 20.986L24.7765 20.9845ZM25.7533 17.78L25.9159 17.834C26.241 16.9514 26.5738 16.072 26.8896 15.1864C27.0305 14.793 26.9655 14.3918 26.4871 14.4057C26.2379 14.4134 25.8044 14.7482 25.7874 14.9627C25.71 15.8961 25.7533 16.8404 25.7533 17.7815V17.78ZM27.0321 16.4994C26.967 16.4855 26.9036 16.4716 26.8386 16.4577C26.5336 17.2816 26.2069 18.0993 25.936 18.9356C25.8524 19.1948 25.8555 19.5249 25.9468 19.7764C25.9886 19.8921 26.4391 20.0094 26.532 19.9292C26.7534 19.7363 26.9918 19.4339 27.0104 19.1608C27.0692 18.2768 27.0321 17.3865 27.0321 16.4994Z" fill="#E9F35A"/>
<path d="M20.2792 16.6012H21.7143V13.4368H22.8011V20.8596H21.7623V17.7183H20.3225V20.858H19.2373V13.426H20.2792V16.5997V16.6012Z" fill="#E9F35A"/>
<path d="M33.1501 15.3315H32.3714C32.0555 14.9488 31.8434 14.6233 31.5555 14.3919C31.4719 14.324 30.9935 14.5292 30.992 14.6109C30.9889 15.0723 30.9548 15.603 31.1669 15.9795C31.4332 16.4547 31.927 16.8018 32.3203 17.206C32.9875 17.8911 33.325 18.6872 33.1222 19.6515C32.924 20.5957 32.2583 21.0802 31.2784 21.0138C30.3108 20.9475 29.738 20.3597 29.6869 19.3738C29.6776 19.1979 29.6869 19.0204 29.6869 18.7535C30.0182 18.7381 30.3108 18.7242 30.6653 18.7088C30.7056 18.9896 30.6762 19.2719 30.7938 19.4663C30.9208 19.6762 31.2087 19.9554 31.3836 19.9292C31.6143 19.8937 31.9859 19.5774 31.975 19.4031C31.9456 18.9711 31.8047 18.5051 31.5725 18.1379C31.3326 17.7584 30.8821 17.5146 30.6142 17.1474C30.2736 16.6815 29.9067 16.18 29.7628 15.6369C29.45 14.4567 30.0616 13.4877 31.0725 13.3566C32.4317 13.1807 33.0928 13.7762 33.1562 15.3299L33.1501 15.3315Z" fill="#E9F35A"/>
<path d="M40.4123 27.7423H40.9241L40.9122 27.2307C40.9115 27.2 40.9107 27.1742 40.9099 27.1508C40.9087 27.1115 40.9077 27.079 40.9077 27.0417V26.5417H40.4077H9.01953H8.51953V27.0417V27.0421V27.0425V27.0429V27.0433V27.0437V27.0441V27.0445V27.0449V27.0452V27.0456V27.046V27.0464V27.0468V27.0472V27.0476V27.048V27.0484V27.0488V27.0491V27.0495V27.0499V27.0503V27.0507V27.0511V27.0515V27.0519V27.0523V27.0526V27.053V27.0534V27.0538V27.0542V27.0546V27.055V27.0554V27.0558V27.0562V27.0565V27.0569V27.0573V27.0577V27.0581V27.0585V27.0589V27.0593V27.0597V27.0601V27.0604V27.0608V27.0612V27.0616V27.062V27.0624V27.0628V27.0632V27.0636V27.064V27.0643V27.0647V27.0651V27.0655V27.0659V27.0663V27.0667V27.0671V27.0675V27.0679V27.0683V27.0686V27.069V27.0694V27.0698V27.0702V27.0706V27.071V27.0714V27.0718V27.0722V27.0726V27.0729V27.0733V27.0737V27.0741V27.0745V27.0749V27.0753V27.0757V27.0761V27.0765V27.0769V27.0773V27.0776V27.078V27.0784V27.0788V27.0792V27.0796V27.08V27.0804V27.0808V27.0812V27.0816V27.0819V27.0823V27.0827V27.0831V27.0835V27.0839V27.0843V27.0847V27.0851V27.0855V27.0859V27.0863V27.0867V27.087V27.0874V27.0878V27.0882V27.0886V27.089V27.0894V27.0898V27.0902V27.0906V27.091V27.0914V27.0917V27.0921V27.0925V27.0929V27.0933V27.0937V27.0941V27.0945V27.0949V27.0953V27.0957V27.0961V27.0965V27.0968V27.0972V27.0976V27.098V27.0984V27.0988V27.0992V27.0996V27.1V27.1004V27.1008V27.1012V27.1016V27.1019V27.1023V27.1027V27.1031V27.1035V27.1039V27.1043V27.1047V27.1051V27.1055V27.1059V27.1063V27.1067V27.1071V27.1074V27.1078V27.1082V27.1086V27.109V27.1094V27.1098V27.1102V27.1106V27.111V27.1114V27.1118V27.1122V27.1126V27.1129V27.1133V27.1137V27.1141V27.1145V27.1149V27.1153V27.1157V27.1161V27.1165V27.1169V27.1173V27.1177V27.1181V27.1184V27.1188V27.1192V27.1196V27.12V27.1204V27.1208V27.1212V27.1216V27.122V27.1224V27.1228V27.1232V27.1236V27.1239V27.1243V27.1247V27.1251V27.1255V27.1259V27.1263V27.1267V27.1271V27.1275V27.1279V27.1283V27.1287V27.1291V27.1295V27.1298V27.1302V27.1306V27.131V27.1314V27.1318V27.1322V27.1326V27.133V27.1334V27.1338V27.1342V27.1346V27.135V27.1353V27.1357V27.1361V27.1365V27.1369V27.1373V27.1377V27.1381V27.1385V27.1389V27.1393V27.1397V27.1401V27.1405V27.1409V27.1412V27.1416V27.142V27.1424V27.1428V27.1432V27.1436V27.144V27.1444V27.1448V27.1452V27.1456V27.146V27.1464V27.1468V27.1471V27.1475V27.1479V27.1483V27.1487V27.1491V27.1495V27.1499V27.1503V27.1507V27.1511V27.1515V27.1519V27.1523V27.1527V27.153V27.1534V27.1538V27.1542V27.1546V27.155V27.1554V27.1558V27.1562V27.1566V27.157V27.1574V27.1578V27.1582V27.1585V27.1589V27.1593V27.1597V27.1601V27.1605V27.1609V27.1613V27.1617V27.1621V27.1625V27.1629V27.1633V27.1637V27.1641V27.1644V27.1648V27.1652V27.1656V27.166V27.1664V27.1668V27.1672V27.1676V27.168V27.1684V27.1688V27.1692V27.1696V27.1699V27.1703V27.1707V27.1711V27.1715V27.1719V27.1723V27.1727V27.1731V27.1735V27.1739V27.1743V27.1747V27.1751V27.1754V27.1758V27.1762V27.1766V27.177V27.1774V27.1778V27.1782V27.1786V27.179V27.1794V27.1798V27.1802V27.1806V27.1809V27.1813V27.1817V27.1821V27.1825V27.1829V27.1833V27.1837V27.1841V27.1845V27.1849V27.1853V27.1857V27.186V27.1864V27.1868V27.1872V27.1876V27.188V27.1884V27.1888V27.1892V27.1896V27.19V27.1904V27.1908V27.1911V27.1915V27.1919V27.1923V27.1927V27.1931V27.1935V27.1939V27.1943V27.1947V27.1951V27.1955V27.1959V27.1962V27.1966V27.197V27.1974V27.1978V27.1982V27.1986V27.199V27.1994V27.1998V27.2002V27.2006V27.2009V27.2013V27.2017V27.2021V27.2025V27.2029V27.2033V27.2037V27.2041V27.2045V27.2049V27.2053V27.2056V27.206V27.2064V27.2068V27.2072V27.2076V27.208V27.2084V27.2088V27.2092V27.2096V27.2099V27.2103V27.2107V27.2111V27.2115V27.2119V27.2123V27.2127V27.2131V27.2135V27.2139V27.2142V27.2146V27.215V27.2154V27.2158V27.2162V27.2166V27.217V27.2174V27.2178V27.2182V27.2185V27.2189V27.2193V27.2197V27.2201V27.2205V27.2209V27.2213V27.2217V27.2221V27.2225V27.2228V27.2232V27.2236V27.224V27.2244V27.2248V27.2252V27.2256V27.226V27.2264V27.2267V27.2271V27.2275V27.2279V27.2283V27.2287V27.2291V27.2295V27.2299V27.2303V27.2306V27.231V27.2314V27.2318V27.2322V27.2326V27.233V27.2334V27.2338V27.2342V27.2345V27.2349V27.2353V27.2357V27.2361V27.2365V27.2369V27.2373V27.2377V27.238V27.2384V27.2388V27.2392V27.2396V27.24V27.2404V27.2408V27.2412V27.2415V27.2419V27.2423V27.7423H9.01953H40.4123Z" fill="#E9F35A" stroke="#E9F35A"/>
<path d="M13.71 13.4646C14.5196 13.2254 14.9562 13.4276 15.094 14.2746C15.2178 15.0368 15.4779 15.7789 15.8649 16.5272C16.077 15.7557 16.3464 14.9936 16.4826 14.2082C16.6173 13.4337 16.9966 13.2316 17.7366 13.4677C17.2072 15.9116 15.9207 18.2058 16.3433 20.8611H15.1311C15.5352 18.2398 14.2239 15.9301 13.71 13.4677V13.4646Z" fill="#E9F35A"/>
<path d="M36.7047 20.8627H35.5622V14.4798C35.1241 14.4443 34.7541 14.4135 34.3516 14.3795V13.4353H37.8782V14.3718C37.519 14.3996 37.1707 14.4258 36.7047 14.4629V20.8627Z" fill="#E9F35A"/>
<path d="M40.4311 13.3781C39.5673 13.3781 38.9201 12.7456 38.9093 11.8955C38.8985 11.0222 39.5874 10.3125 40.4419 10.3186C41.2764 10.3248 42.0086 11.0793 41.987 11.9078C41.9653 12.7332 41.2795 13.3797 40.4311 13.3797V13.3781ZM40.4497 12.9353C40.7841 12.4247 41.1371 12.1223 41.1045 11.8692C41.072 11.6069 40.6587 11.1996 40.4234 11.2073C40.1757 11.215 39.7732 11.6224 39.7484 11.8847C39.7252 12.1408 40.0921 12.4324 40.4497 12.9369V12.9353Z" fill="#E9F35A"/>
<path d="M25.7529 17.7799C25.7529 16.8388 25.7081 15.8961 25.787 14.9611C25.8056 14.7467 26.2375 14.4119 26.4868 14.4042C26.9667 14.3903 27.0301 14.7914 26.8893 15.1848C26.5734 16.0705 26.2406 16.9514 25.9155 17.8324L25.7529 17.7784V17.7799Z" fill="white"/>
<path d="M40.4496 12.9353C40.0919 12.4324 39.7235 12.1392 39.7483 11.8831C39.773 11.6208 40.1755 11.2135 40.4232 11.2058C40.6585 11.1981 41.0719 11.6054 41.1044 11.8677C41.1369 12.1223 40.7839 12.4231 40.4496 12.9338V12.9353Z" fill="white"/>
</svg>
