<?xml version="1.0" encoding="UTF-8"?>
<svg id="Layer_2" data-name="Layer 2" xmlns="http://www.w3.org/2000/svg" viewBox="0 0 230.89 227.08">
  <defs>
    <style>
      .cls-1 {
        fill: none;
        stroke: #f9d2e5;
        stroke-miterlimit: 10;
      }

      .cls-2 {
        fill: #f9d2e5;
      }

      .cls-2, .cls-3, .cls-4, .cls-5, .cls-6, .cls-7, .cls-8 {
        stroke-width: 0px;
      }

      .cls-3 {
        fill: #75ba5a;
      }

      .cls-4 {
        fill: #76bd79;
      }

      .cls-5 {
        fill: #cae7ea;
      }

      .cls-6 {
        fill: #fed488;
      }

      .cls-7 {
        fill: #fffffb;
      }

      .cls-8 {
        fill: #fefbe3;
      }
    </style>
  </defs>
  <g id="Layer_7" data-name="Layer 7">
    <g>
      <path class="cls-1" d="M10.1,114.2c0-9.27,1.13-40.15,23.94-67.65C65.02,9.19,110.39,8.99,117.29,9.08c34.63.44,74.16,17.92,92.63,54.12,12.08,23.69,10.7,46.7,9.37,57.24"/>
      <path class="cls-1" d="M.5,115.01c0-10.1,1.23-43.74,26.2-73.69C60.62.63,110.27.41,117.83.51c37.9.48,81.17,19.52,101.38,58.95,13.23,25.81,11.71,50.87,10.25,62.35"/>
      <g>
        <path class="cls-2" d="M44.42,180.51c2.09,1.37,3.14,2.02,5.28,3.28-3.21,5.45-4.81,8.18-8.02,13.63-1.35,2.29-3.52,3.67-6.6,4-3.08.33-6.13-.52-9.01-2.54-3.19-2.24-4.75-3.42-7.83-5.88,6.38-7.96,9.57-11.94,15.94-19.9,1.99,1.6,3,2.37,5.05,3.85-5.32,7.35-7.98,11.02-13.31,18.36,1.19.87,1.79,1.29,3,2.12.85.59,1.74.84,2.65.77.91-.08,1.57-.44,1.99-1.09,4.34-6.64,6.51-9.95,10.85-16.59Z"/>
        <path class="cls-2" d="M46.54,211.08c4.54-9.14,6.81-13.7,11.35-22.84,2.2,1.09,3.31,1.61,5.54,2.6-4.11,9.34-6.16,14.01-10.27,23.34-2.67-1.17-3.99-1.79-6.62-3.1Z"/>
        <path class="cls-2" d="M63.32,218.23c3.45-9.6,5.17-14.4,8.62-24,2.3.83,3.46,1.21,5.78,1.92-2.67,8.67-4,13.01-6.67,21.68,4.08,1.25,6.15,1.81,10.29,2.77-.26,1.1-.38,1.65-.64,2.75-7.04-1.64-10.53-2.66-17.38-5.12Z"/>
        <path class="cls-2" d="M87.74,224.82c1.86-10.03,2.79-15.04,4.65-25.07,4.76.88,7.16,1.21,11.96,1.65,1.63.15,2.99.81,4.11,2,1.13,1.19,1.68,2.54,1.61,4.08-.26,5.65-.39,8.48-.65,14.13-.07,1.54-.81,2.84-2.27,3.88-1.46,1.04-3.18,1.48-5.13,1.3-5.74-.52-8.6-.92-14.28-1.97ZM95.25,223.18c1.39.19,2.09.28,3.49.44.98.11,1.85-.08,2.59-.58.74-.5,1.14-1.13,1.21-1.9.52-5.63.78-8.45,1.29-14.08.07-.79-.17-1.49-.72-2.1-.55-.61-1.25-.96-2.1-1.06-1.22-.14-1.83-.22-3.04-.38-1.09,7.87-1.63,11.8-2.72,19.67Z"/>
        <path class="cls-2" d="M127.13,227.08c-.7-10.18-1.05-15.26-1.75-25.44.56-.04.84-.06,1.4-.1,5.51,4.41,8.5,6.48,14.89,10.24,4.68-5.74,6.76-8.72,10.42-14.77,1.18-.33,1.76-.5,2.93-.86,3,9.75,4.5,14.62,7.5,24.37-2.78.85-4.18,1.25-6.98,1.97-1.56-6.03-2.33-9.05-3.89-15.08-3.43,4.98-5.32,7.43-9.44,12.17-5.46-3.09-8.05-4.76-12.92-8.3.57,6.2.86,9.3,1.43,15.51-1.44.13-2.17.19-3.61.29Z"/>
        <path class="cls-2" d="M169.4,218.23c-2.68-7.46-4.02-11.19-6.7-18.66-.53-1.47-.39-2.94.37-4.41.76-1.47,1.88-2.5,3.42-3.14,2.27-.94,3.39-1.43,5.62-2.48,1.51-.71,3.05-.84,4.65-.4,1.6.44,2.78,1.33,3.49,2.69,3.69,7.02,5.54,10.52,9.24,17.54-2.6,1.37-3.91,2.02-6.56,3.26-1.92-4.1-2.88-6.15-4.8-10.25-2.47,1.16-3.72,1.71-6.23,2.74,1.73,4.19,2.59,6.28,4.32,10.47-2.71,1.12-4.07,1.64-6.82,2.63ZM170.81,202.5c2.46-1.02,3.68-1.55,6.11-2.69-.96-2.04-1.44-3.07-2.39-5.11-.34-.72-.91-1.2-1.7-1.44-.79-.25-1.59-.19-2.39.16-.78.34-1.34.89-1.7,1.64-.35.75-.38,1.49-.08,2.23.86,2.09,1.29,3.13,2.15,5.22Z"/>
        <path class="cls-2" d="M195.97,205.77c-5.17-8.79-7.76-13.19-12.93-21.98,4.29-2.53,6.4-3.91,10.49-6.88,1.39-1.01,2.9-1.45,4.59-1.34,1.68.11,3.02.74,3.98,1.94,3.54,4.42,5.31,6.62,8.84,11.04.96,1.2,1.24,2.7.77,4.49-.47,1.79-1.55,3.31-3.21,4.52-4.89,3.55-7.4,5.19-12.53,8.21ZM200.76,199.47c1.22-.8,1.83-1.21,3.04-2.04.85-.59,1.4-1.32,1.66-2.21.26-.88.15-1.63-.3-2.26-3.32-4.58-4.98-6.87-8.3-11.45-.47-.64-1.12-1-1.96-1.08-.84-.08-1.62.13-2.36.64-1.05.73-1.58,1.08-2.65,1.78,4.35,6.65,6.52,9.97,10.87,16.62Z"/>
      </g>
      <g>
        <path class="cls-5" d="M157.51,28.17c2.52,8.15,2.39,16.14,4.83,24.61,1.86,6.46,5.19,12.29,8.14,18.28,2.19-11.72,4.63-20.81,1.91-32.88,3.4,2.82,6.32,5.67,9.25,8.98l-.8,13.58.5.31,7.64-2.65c-1.06,5.41-.57,4.1,4.93,6.74l.8.71c4.86,9.7,8.35,20.26,9.25,31.14-.55,5.32-12,18.24-16.89,27.67-3.3,6.35-5.34,13.27-8.24,19.81,10.88-4.41,20.09-10.67,24.53-22.36-1.11,6.28-2.73,12.55-5.03,18.48-.77,1.98-1.73,3.19-1.81,3.37-12.3,3.79-35.02,17.72-44.74,25.93-4.44,3.75-8.32,8.19-12.77,11.95,14.32.62,25.32-1.3,37.6-9.29-20.25,19.36-45.81,27.6-73.39,23.28,9.65-3.88,18.25-13.56,26.24-18.58,4.54-2.86,9.88-4.29,13.77-8.17,42.2-21.66,47.22-76.4,14.58-106.18-15.58-14.21-37.22-19.68-57.5-14.29-4.24,1.13-8.23,3.06-12.37,4.49,4.16-3.05,11.55-10.95,17.39-15.72,8.63-7.05,21.37-15.96,32.67-16.54,5.12-.26,14.79,4.79,19.5,7.35Z"/>
        <path class="cls-5" d="M128.76,18.78c-10.68,2.45-32.88,28.8-44.54,34.71-2.6,2.1-3.9,4.09-4.12,4.29-11,9.73-19.3,16.85-24.13,31.75-16.26,50.24,28.67,96.17,78.01,83.62-5.94,3.12-11.1,7.7-16.79,11.23-6.09,3.78-17.1,9.74-24.23,9.39-3.32-.16-14.39-5.11-17.79-6.94-21.29-11.44-37.67-32.22-44.13-55.75,14.58-15.56,22.42-38.19,22.52-59.52-14.02,10.65-20.45,19.21-25.53,36.45.11-13.85,1.89-25.02,7.64-37.67,1.04-2.29,2.3-3.97,2.41-4.19,12.81-4.78,19.96-9.64,30.46-18.17,10.19-8.29,16.38-14.12,22.32-26.14-2.58.89-5.24,1.96-7.94,2.25,14.1-5.8,30.88-8.5,45.84-5.31Z"/>
        <g>
          <path class="cls-8" d="M31.04,131.08c-2.37-8.64-3.08-14.11-3.02-23.07,5.08-17.24,11.51-25.79,25.53-36.45-.1,21.34-7.94,43.96-22.52,59.52Z"/>
          <path class="cls-8" d="M38.08,66.15c.84-1.63,1.47-3.39,2.41-5,9.74-16.59,24.79-29.81,42.42-37.06,2.7-.29,5.36-1.36,7.94-2.25-5.93,12.02-12.12,17.85-22.32,26.14-10.5,8.54-17.65,13.39-30.46,18.17Z"/>
        </g>
        <g>
          <path class="cls-8" d="M196.52,143.95c-.03.07-.02.92-.2,1.33-4.7,10.43-11.51,19.42-19.7,27.26-12.28,7.99-23.28,9.91-37.6,9.29,4.44-3.76,8.33-8.19,12.77-11.95,9.71-8.22,32.44-22.14,44.74-25.93Z"/>
          <path class="cls-8" d="M203.36,122.1c-4.44,11.69-13.65,17.95-24.53,22.36,2.9-6.53,4.95-13.45,8.24-19.81,4.89-9.43,16.34-22.35,16.89-27.67,1.52,8.35.86,16.81-.6,25.12Z"/>
        </g>
        <path class="cls-8" d="M172.39,38.18c2.72,12.07.28,21.15-1.91,32.88-2.95-5.98-6.29-11.81-8.14-18.28-2.43-8.47-2.3-16.46-4.83-24.61,5.38,2.92,10.15,6.08,14.88,10.01Z"/>
        <path class="cls-7" d="M138.01,20.82c-11.3.58-24.04,9.49-32.67,16.54-5.84,4.77-13.23,12.68-17.39,15.72-2.24,1.64-5.38,3.31-7.84,4.7.22-.2,1.52-2.19,4.12-4.29,11.66-5.91,33.85-32.27,44.54-34.71.28-.06.09-.58.9-.41,2.5.93,6.86.96,8.34,2.45Z"/>
        <path class="cls-7" d="M143.24,169.06c-3.89,3.87-9.23,5.31-13.77,8.17-7.98,5.03-16.59,14.7-26.24,18.58l-1.31.2c-2.73-.97-6.86-.84-8.95-2.25,7.13.35,18.14-5.61,24.23-9.39,5.69-3.53,10.85-8.11,16.79-11.23,2.99-1.57,6.25-2.55,9.25-4.08Z"/>
        <path class="cls-8" d="M193.91,65.13c-5.5-2.64-5.98-1.33-4.93-6.74l-7.64,2.65-.5-.31.8-13.58c3.92,4.43,9.6,12.08,12.26,17.25.15.29.19.43,0,.71Z"/>
        <g>
          <path class="cls-3" d="M64.52,130.88l2.11,3.98c5.06,1.37,4.76,8.68,3.32,8.88-1.39.19-.62-8.59-3.62-7.56-.79-.39-1.78-4.23-1.81-5.31Z"/>
          <path class="cls-3" d="M151.18,151.1c.44-.05,1.84-.06,2.21,0,2.25.39-1.09,1.05-3.22,2.25-1.92,1.08-6.56,4.8-6.94,3.57-.15-.48,5.24-5.51,7.94-5.82Z"/>
          <path class="cls-3" d="M62.11,95.15c1.63-.05.08,4.35-.8,4.9-.43.27-4.16,1.01-4.72.31-.13-.37,5.15-5.2,5.53-5.21Z"/>
          <path class="cls-3" d="M97.9,55.33c1.3.2,1.71,1.65.6,2.45-2.45,1.77-9.14-1.33-6.64-2.25.28-.1,5.73-.25,6.03-.2Z"/>
          <path class="cls-3" d="M60.1,117.61c1.79,1.06,6.04,11.89,2.81,12.25-1.21.13-.5-3.12-1.11-6.23-.22-1.13-2.04-5.78-1.71-6.02Z"/>
          <path class="cls-3" d="M143.94,59.41c.38,0,4.95,5.43,4.93,5.82,0,.14-.76,1.08-.9,1.12-2.65.77-5.57-6.94-4.02-6.94Z"/>
          <path class="cls-3" d="M160.83,144.15c4.36-.27-5.69,5-6.64,5.31-5.47,1.79,4.29-5.16,6.64-5.31Z"/>
          <path class="cls-3" d="M65.93,84.73c3.24-.39-2.21,7.08-5.73,4.39-.09-.44,5.29-4.34,5.73-4.39Z"/>
          <path class="cls-3" d="M170.88,108.21c2.91-.54.34,5.16.1,6.02-.15.53-.27,2.66-.4,3.06-1.27,3.81-.97-7.83-.4-8.58.12-.15.66-.5.7-.51Z"/>
          <path class="cls-3" d="M104.93,52.47c.67-.33,7.43.28,7.14,1.94-.45,2.55-9.79-.65-7.14-1.94Z"/>
          <path class="cls-3" d="M167.47,132.31c1.94.08-.84,1.73-2.11,3.37-1.15,1.48-3.4,5.46-3.72,5.41-1.65-.25,3.03-8.89,5.83-8.78Z"/>
          <path class="cls-3" d="M156,69.01c1.11,1.02,3.15,5.92,2.71,7.04-.82,2.1-4.71-2.42-2.71-7.04Z"/>
          <path class="cls-3" d="M84.43,61.86c3.6-.42.77,3.8-2.81,3.68-5.16-.18,1.58-3.53,2.81-3.68Z"/>
          <path class="cls-3" d="M73.97,72.68c3.26-.39-2.21,7.02-5.53,5.21.7-.66,5.15-5.16,5.53-5.21Z"/>
          <path class="cls-3" d="M60.1,109.23c1.17-.33,2.8,4.46-2.21,7.56-.53-.41,1.83-7.45,2.21-7.56Z"/>
          <path class="cls-3" d="M140.52,158.24c.24-.01,2.3.17,2.41.2,2.78.91-6.08,2.85-6.64,2.86-3.14.05,1.33-2.89,4.22-3.06Z"/>
          <path class="cls-3" d="M166.06,86.77c1.27-.2,2.6,8.06,1.01,8.17-1.38.09-2.06-8-1.01-8.17Z"/>
          <path class="cls-3" d="M160.63,77.18c.68-.3,4.17,6.82,4.12,7.25-.46,4.25-5.54-6.63-4.12-7.25Z"/>
          <path class="cls-3" d="M105.94,162.53c.48-.13,7.37,1.41,7.34,4.39-.81-.17-10.15-3.65-7.34-4.39Z"/>
          <path class="cls-3" d="M119.21,52.47c1.09.06,7.74,1.3,7.54,2.55-.39,2.44-7.11-.69-7.54-2.55Z"/>
          <path class="cls-3" d="M125.64,162.12c3.75-.5,8.38,1.52,1.81,2.04-5.68.45-5.54-1.54-1.81-2.04Z"/>
          <path class="cls-3" d="M89.65,156.81c.75-.34,6.64,2.77,6.53,4.8-.19.71-8.44-3.94-6.53-4.8Z"/>
          <path class="cls-3" d="M169.27,125.37c3.96-1.34-3.51,8.87-3.32,5.41.02-.34,3.02-5.31,3.32-5.41Z"/>
          <path class="cls-3" d="M97.9,160.28c.48-.23,4.92,1.62,5.43,2.04,4.32,3.57-5.4-.19-5.73-1.12-.09-.27,0-.78.3-.92Z"/>
          <path class="cls-3" d="M130.27,54.31c.72-.31,7.45,5.06,4.42,5.1-.36,0-5.72-4.55-4.42-5.1Z"/>
          <path class="cls-3" d="M72.36,143.13c.88-.28,6.87,6.18,4.83,6.53-.34.06-4.34-5.11-4.52-5.41-.34-.58-.79-.84-.3-1.12Z"/>
          <path class="cls-3" d="M170.68,101.27c1.76-.2.89,3.24.5,4.19-1.78,4.35-2.06-4.01-.5-4.19Z"/>
          <path class="cls-3" d="M171.08,119.44c3.05-.43-1.01,4.34-1.81,4.08-1.23-.4.4-3.88,1.81-4.08Z"/>
          <path class="cls-3" d="M116.8,163.96c.77-.17,4.83.47,5.53,1.53-4.1,1.09-8.43-.9-5.53-1.53Z"/>
          <path class="cls-3" d="M79.2,150.07c.38-.07,5.87,4.21,4.02,4.7-.35.09-6.23-4.28-4.02-4.7Z"/>
          <path class="cls-3" d="M168.87,95.76c.49-.13,1.26,2.35,1.31,2.76.52,4.76-2.14,3.85-1.31-2.76Z"/>
          <path class="cls-3" d="M59.9,102.09c1.48-.59.57,8.29-.5,4.39-.14-.51.1-4.23.5-4.39Z"/>
          <path class="cls-4" d="M150.78,66.76c.97-.11,2.9,2.17,2.92,2.76.05,2.36-3.28-2.56-2.92-2.76Z"/>
          <path class="cls-3" d="M68.74,79.83c1.09-.02-1.77,3.84-2.01,3.88-1.86.34,1.66-3.87,2.01-3.88Z"/>
          <path class="cls-4" d="M113.58,52.88c1.09-.39,5.13,1.11,4.93,1.53-.45.27-6.08-.95-4.93-1.53Z"/>
          <path class="cls-3" d="M74.57,70.23c1.71-.05,1.61.77.8,1.23-2.55,1.45-4.29-1.12-.8-1.23Z"/>
          <path class="cls-4" d="M88.85,59.62c2.7.11-1.92,2.89-2.11,1.53-.08-.54,1.93-1.54,2.11-1.53Z"/>
          <path class="cls-3" d="M136.9,57.37c1.08-.33,3.2,2.26,1.01,2.04-.59-.06-1.74-1.82-1.01-2.04Z"/>
          <path class="cls-3" d="M79.6,66.35c2.2-.4-1.01,2.21-1.21,2.25-2.31.4.79-2.17,1.21-2.25Z"/>
          <path class="cls-4" d="M84.83,155.18c.18-.06,2.18,1.88,2.31,2.14,1.07,2.03-3.82-1.66-2.31-2.14Z"/>
          <path class="cls-3" d="M61.91,90.86c1.36-.43.88,2.14.4,2.25-.76.17-1.41-1.93-.4-2.25Z"/>
          <path class="cls-4" d="M101.52,53.9c2.38.05-2.05,2.41-1.91.92.02-.19,1.8-.92,1.91-.92Z"/>
          <path class="cls-3" d="M133.49,161.1c2.45-.16-1.31,1.79-1.51.92-.1-.46,1.28-.9,1.51-.92Z"/>
          <g>
            <path class="cls-7" d="M102.92,71.46c1.57-.17-2.45,1.96-4.22,3.27-4.55,3.36-9.57,7.74-13.37,11.95-3.47,3.84-8.85,12.08-5.23,4.7,3.26-6.64,8.9-12.51,15.18-16.23,1.12-.66,6.87-3.59,7.64-3.68Z"/>
            <path class="cls-7" d="M104.33,106.78c.9.12,7.13-.2,7.34.1.04.06.05,1.43-.1,1.53-.34.24-5.42-.4-5.73.31v7.35c.5,1.14,7.1-1.47,5.33,3.17-.92-.11-6.7.19-6.94-.1-1.1-1.32,6.07-.37,6.43-.82,1.44-1.77-6.07-.91-6.43-1.43l.1-10.11Z"/>
            <path class="cls-7" d="M120.22,89.02c.7-.16,3.76,5.27,3.72,5.62-.24,2.35-2.88-4.21-3.42-3.27-.11,1.38-.75,9.57-1.01,10.01-.22.38-1.46.42-1.71.31-.95-.43,1.07-6.6,1.31-7.66.21-.94.26-4.81,1.11-5Z"/>
            <path class="cls-7" d="M98.5,86.98c.13-.04.42-.04.5.1.35,6.53-1.74,9.34,4.32,6.43.83.47-1.92,1.75-2.61,1.84-3.35.44-2.63-1.28-3.02-3.88-2.36,2.71.43,1.78-.4,2.86-.07.09-1.95.02-2.11-.51-.11-.36,2.96-6.73,3.32-6.84Z"/>
            <path class="cls-7" d="M129.46,90.24c.19-.09,2.1-.08,2.11.31.01.65-1.1-.02-1.41.61-.29.61.43,7.78-.3,8.07-1.35.52-.36-3.21-.8-5.92-2.29,1.82-2.73-2.26-3.72-.1-.09.2.35.46.2.82-.6,1.46-1.83-1.29-.3-2.14,1.37-.76,2.98,1.2,3.82.41.32-.3-.21-1.77.4-2.04Z"/>
            <path class="cls-7" d="M115.19,90.86c.68-.05,4.68,4.36,2.01,3.47-1.19-.4-1.23-4.5-3.22-.2-1.96-5.19-1.96,1.45-3.12-.1-.23-.31.94-4.45,3.32-2.35.22-.27.87-.81,1.01-.82Z"/>
            <path class="cls-7" d="M105.74,91.47c.15-.07,3.07-.06,3.22,0,.15.06,1.42,2.81,1.31,2.96-.77,1.04-1.55-1.82-1.91-1.94-1.42-.48-.46,2.29-1.81,1.63-.58-.28-.16-1.48-.3-1.74-.04-.07-1.74-.36-.5-.92Z"/>
            <path class="cls-7" d="M133.08,91.27c3.21-.87,1.53.76,1.51.92-.01.12,1.38,1.33.9,2.14-.49.39-1.7-1.88-2.01-1.84-.48.07-.21,1.17-.3,1.33-.9,1.68-1.85-2.08-.1-2.55Z"/>
            <g>
              <path class="cls-7" d="M120.62,106.99c.16-.07.72-.02.9.1.56.36,4.55,10.89,5.63,12.25-3.01,1.09-2.65-1.69-3.92-3.78h-4.62c-1.7,2.15-1.21,5.25-3.92,3.78.94-1.42,5.31-12.09,5.93-12.35Z"/>
              <path class="cls-6" d="M120.82,110.66c1.7,2.56,2.37,3.33-1.31,2.76l1.31-2.76Z"/>
            </g>
          </g>
        </g>
      </g>
    </g>
  </g>
</svg>