<svg width="115" height="64" viewBox="0 0 115 64" fill="none" xmlns="http://www.w3.org/2000/svg">
<mask id="mask0_224_947" style="mask-type:luminance" maskUnits="userSpaceOnUse" x="5" y="5" width="104" height="46">
<path d="M108.423 5.49475H5.33984V50.9914H108.423V5.49475Z" fill="white"/>
</mask>
<g mask="url(#mask0_224_947)">
<path d="M96.0531 33.9495C96.0531 30.2829 91.6721 31.5223 91.6721 29.9731C91.6721 29.1985 92.3936 29.0952 93.1668 29.0952C93.8884 29.0952 94.713 29.405 95.1769 29.5083C95.3831 29.56 95.6408 29.6116 95.6923 29.2501L95.7439 28.4755C95.7954 28.2173 95.6923 28.0623 95.4861 27.959C95.2284 27.8558 94.4038 27.5459 93.1152 27.5459C90.7443 27.5459 89.5073 28.5271 89.5073 30.1797C89.5073 33.3815 93.8884 32.4003 93.8884 34.0012C93.8884 34.8274 93.1668 34.9824 92.4967 34.9824C91.4659 34.9824 90.7958 34.7242 89.9712 34.4143C89.7135 34.311 89.5073 34.311 89.4558 34.6209L89.4042 35.4988C89.4042 35.757 89.4558 35.9119 89.7135 36.0152C90.5381 36.3251 91.4659 36.5316 92.5998 36.5316C94.4038 36.5833 96.0531 35.8086 96.0531 33.9495ZM88.3218 35.8086L88.2703 34.9824C88.2703 34.7242 88.0641 34.6209 87.8064 34.6725C87.4972 34.7758 87.0848 34.8791 86.724 34.8791C85.5901 34.8791 85.4355 34.6209 85.4355 33.5364L85.487 29.4567H86.3117C86.3117 29.4567 86.9818 29.5083 87.4972 29.405C87.7549 29.3534 87.858 29.1985 87.8064 28.9919L87.7033 28.114C87.7033 27.8558 87.5487 27.8041 87.291 27.8041C86.9818 27.8041 86.8787 27.9074 86.2602 27.9074H85.4355L85.487 25.7384C85.487 25.4286 85.3324 25.222 85.0232 25.222H83.8892C83.58 25.222 83.4254 25.4286 83.4254 25.6868L83.3223 27.8558H82.1884C81.8791 27.8558 81.673 28.0623 81.673 28.3205V28.9919C81.673 29.2501 81.8791 29.4567 82.1884 29.4567H83.2707L83.2192 33.6913C83.2192 35.7054 84.3016 36.48 86.3117 36.48C87.0333 36.48 87.6003 36.3767 88.0126 36.2218C88.2188 36.1701 88.3218 36.0668 88.3218 35.8086ZM81.9307 25.0671C81.9822 24.8089 81.8791 24.7056 81.6214 24.654C81.106 24.499 80.2298 24.4474 79.869 24.4474C77.8589 24.4474 76.828 25.2737 76.828 27.2877V27.959H75.7457C75.4364 27.959 75.2818 28.1656 75.2818 28.4238V29.0952C75.2818 29.405 75.4364 29.56 75.7457 29.56H76.828V35.9119C76.828 36.2218 77.0342 36.3767 77.3434 36.3767H78.5805C78.8897 36.3767 79.0959 36.2218 79.0959 35.9119V29.5083H79.9205C79.9205 29.5083 80.6421 29.56 81.106 29.4567C81.3637 29.405 81.4668 29.2501 81.4152 29.0435L81.3122 28.1656C81.3122 27.9074 81.1575 27.8558 80.8998 27.8558C80.5906 27.8558 80.4875 27.959 79.869 27.959H79.0443V27.3393C79.0443 26.3065 79.1989 25.9966 80.3329 25.9966C80.7452 25.9966 81.1575 26.0999 81.4152 26.1516C81.673 26.2032 81.8276 26.0999 81.8276 25.8417L81.9307 25.0671ZM73.9932 35.9636L73.8386 33.2782V28.2689C73.8386 27.959 73.6324 27.7525 73.3747 27.8041L72.1377 27.9074C71.88 27.959 71.6738 28.0623 71.6738 28.3722V31.2125C71.6738 34.8274 70.7461 34.9307 69.8699 34.9307H69.5606C68.5813 34.9307 68.5298 34.2594 68.5298 33.588V28.4755C68.5298 27.959 68.4783 27.7525 67.8598 27.8041L66.7258 27.9074C66.4681 27.959 66.262 28.0623 66.262 28.3722V33.6397C66.262 35.4471 67.1382 36.5833 68.9421 36.5833C70.3338 36.5833 71.2615 35.757 71.7254 34.5692L71.9316 34.6209C71.88 34.8791 71.8285 35.3439 71.8285 35.6537C71.8285 36.0669 71.7254 36.3767 72.3439 36.3767L73.5809 36.3251C73.8386 36.3767 73.9932 36.2734 73.9932 35.9636ZM64.5095 36.0152L64.458 35.034C64.458 34.8791 64.4065 34.8274 64.3034 34.7758H63.891C63.5303 34.7758 63.4272 34.6209 63.4272 34.2077L63.5303 25.1704C63.5303 24.8605 63.3241 24.654 63.0664 24.7056L61.8294 24.7572C61.5717 24.7572 61.3655 24.9122 61.3655 25.222L61.314 34.4659C61.314 35.7054 61.7778 36.5316 63.1695 36.5316C63.5818 36.5316 63.9941 36.48 64.2518 36.3767C64.3549 36.3251 64.5611 36.2734 64.5095 36.0152ZM58.6853 35.9119V28.3205C58.6853 27.9074 58.4276 27.7525 58.1184 27.7525L56.9844 27.8558C56.7267 27.8558 56.5206 28.0107 56.5206 28.3205V35.8603C56.5206 36.1701 56.7267 36.3251 56.9844 36.3251H58.1699C58.4792 36.3767 58.6853 36.2218 58.6853 35.9119ZM59.0977 24.9122C59.0977 24.7572 58.9946 24.499 58.5822 24.5507C57.8607 24.654 57.706 24.7572 57.0875 24.7572C56.4175 24.7572 56.2629 24.5507 56.1598 25.4286C56.0567 26.3581 56.3144 26.4098 57.1906 26.4098C57.8091 26.4098 57.9637 26.4098 58.5822 26.3065C58.8915 26.2549 58.943 26.0483 58.9946 25.7901L59.0977 24.9122ZM55.2836 28.1656C55.3351 27.8558 55.2836 27.7525 55.0259 27.7008C54.8712 27.6492 54.7166 27.5976 54.3558 27.5976C52.9642 27.5976 52.2941 28.6304 51.8303 29.7149L51.6241 29.6632C51.6756 29.4567 51.7787 28.7853 51.7787 28.4238C51.7787 28.0107 51.8303 27.7525 51.2118 27.8041L49.9748 27.8558C49.7171 27.8558 49.5624 27.959 49.5624 28.2689L49.7171 30.9026V35.8603C49.7171 36.1701 49.9232 36.3251 50.2325 36.3251H51.4179C51.7272 36.3251 51.9334 36.1701 51.9334 35.8603V32.9683C51.9334 31.5223 51.9849 30.5411 52.5519 30.0247C52.8611 29.7149 53.2734 29.6116 53.8919 29.6116C54.1496 29.6116 54.4074 29.6632 54.6651 29.7149C54.9228 29.7665 55.1289 29.7665 55.1805 29.4567L55.2836 28.1656ZM49.047 26.1516V25.4286C49.047 25.1187 48.8408 24.9638 48.5316 24.9638H42.5012C42.0373 24.9638 41.625 25.2737 41.625 25.7901V35.9119C41.625 36.2218 41.8312 36.3767 42.0889 36.3767H43.429C43.6867 36.3767 43.8928 36.2218 43.8928 35.9119V31.4707H46.9853C47.2431 31.4707 47.5008 31.3158 47.5008 31.0059V30.2829C47.5008 29.9731 47.2946 29.8182 46.9853 29.8182H43.8928V26.6164H48.5316C48.8408 26.6164 49.047 26.4614 49.047 26.1516Z" fill="#E9F35A"/>
</g>
<mask id="mask1_224_947" style="mask-type:luminance" maskUnits="userSpaceOnUse" x="5" y="5" width="104" height="46">
<path d="M108.423 5.49475H5.33984V50.9914H108.423V5.49475Z" fill="white"/>
</mask>
<g mask="url(#mask1_224_947)">
<path d="M108.423 50.3717L108.372 50.1135C108.32 49.8553 108.217 49.8037 108.011 49.8553C107.805 49.9069 107.444 50.0619 106.98 50.0619C105.691 50.0619 105.434 49.6487 105.485 48.306L105.537 43.3484H106.516C106.516 43.3484 107.083 43.3484 107.495 43.2968C107.753 43.2451 107.805 43.1418 107.753 43.0386L107.702 42.5221C107.702 42.3672 107.599 42.2639 107.392 42.3156C107.135 42.3672 106.98 42.4189 106.516 42.4189H105.537L105.588 40.1982C105.588 39.94 105.537 39.7851 105.279 39.7851H104.815C104.558 39.7851 104.454 39.8884 104.454 40.1982L104.403 42.4189H103.269C103.011 42.4189 102.857 42.5221 102.857 42.7803V43.0386C102.857 43.2968 102.96 43.4001 103.269 43.4001H104.3L104.248 48.5126C104.248 50.3717 105.073 51.0947 106.825 51.0947C107.186 51.0947 107.805 50.9398 108.165 50.8365C108.423 50.6816 108.423 50.5783 108.423 50.3717ZM100.692 45.7239H96.1562C96.3109 44.0714 96.8263 42.8836 98.6302 42.8836C100.383 42.9353 100.692 44.123 100.692 45.7239ZM102.032 45.4657V45.2075C101.98 43.2451 100.847 42.0057 98.8364 42.0057C96.0531 42.0057 94.8162 43.7615 94.8162 46.4986C94.8162 49.2356 96.0532 50.9398 98.8879 50.9398C100.28 50.9398 101.156 50.5267 101.31 50.4234C101.517 50.3201 101.568 50.2684 101.568 50.0102L101.517 49.5455C101.517 49.2872 101.362 49.2356 101.156 49.3389C101.001 49.3905 100.125 49.9586 98.991 49.9586C96.9809 49.9586 96.1562 48.9258 96.1562 46.9634V46.6019H99.558C99.558 46.6019 100.589 46.6019 101.207 46.5502C102.084 46.4986 102.032 46.292 102.032 45.4657ZM91.6721 45.7756C91.6721 47.4798 91.4144 49.8553 89.3527 49.9069H89.1466C87.5488 49.9069 87.1364 48.6675 87.1364 47.015V46.8601C87.1364 43.9165 88.1157 42.9353 89.7651 42.9353H90.0228C90.7443 42.9353 91.6206 43.1418 91.6206 43.1418V45.7756H91.6721ZM92.9606 50.5267L92.8576 47.8929V39.5785C92.8576 39.3203 92.7545 39.1654 92.4968 39.1654H92.0329C91.7752 39.1654 91.6721 39.2687 91.6721 39.5785V42.2639C91.6721 42.2639 91.2082 42.109 90.1258 42.109C87.188 42.109 85.8479 43.8132 85.8479 47.015C85.8479 49.3905 86.7756 51.0947 89.0435 51.0947C90.2805 51.0947 91.1051 50.4234 91.6721 49.2356L91.8267 49.2872C91.8267 49.2872 91.7236 50.0619 91.7236 50.3717C91.7236 50.7849 91.569 51.0431 92.1875 50.9914L92.7029 50.9398C92.8576 50.8365 92.9606 50.7332 92.9606 50.5267ZM82.7038 45.7239C82.7038 47.4281 82.4461 49.8553 80.436 49.9069H80.2298C78.6836 49.9069 78.2712 48.7192 78.2712 47.0666V46.8084C78.2712 43.8648 79.3536 42.9353 80.9514 42.9353H81.1576C81.8792 42.9353 82.6523 43.1418 82.6523 43.1418V45.7239H82.7038ZM83.9924 50.475L83.8893 47.7896V43.5033C83.8893 42.9869 83.8377 42.5738 83.0131 42.2639C82.6007 42.1606 82.0338 42.0057 81.2607 42.0057C78.2712 42.0057 76.9827 43.7099 76.9827 46.9117C76.9827 49.5971 78.2712 50.9398 80.1267 50.9398C81.3637 50.9398 82.1369 50.3201 82.6523 49.0807L82.8069 49.1323C82.8069 49.1323 82.7038 49.9069 82.7038 50.2168C82.7038 50.6299 82.6007 50.8881 83.1677 50.8365L83.6831 50.7849C83.8893 50.8365 83.9924 50.7332 83.9924 50.475ZM81.9307 39.8367C81.9307 40.5597 81.7761 40.8696 81.0545 40.8696C80.3329 40.8696 80.1783 40.5597 80.1783 39.8367C80.1783 39.1138 80.3329 38.8039 81.0545 38.8039C81.7761 38.8039 81.9307 39.1138 81.9307 39.8367ZM82.8585 39.8367C82.8585 38.5973 82.1884 38.1842 81.0545 38.1842C79.9206 38.1842 79.199 38.5973 79.199 39.8367C79.199 41.0762 79.7659 41.5409 80.9514 41.5409C82.1369 41.5409 82.8585 41.0762 82.8585 39.8367ZM76.0549 50.6816L76.0034 50.0102C76.0034 49.9586 75.9519 49.9069 75.9003 49.9069H75.6942C75.488 49.9069 75.3334 49.9069 75.1787 49.6487L72.1378 45.5174C74.0448 45.3624 75.5395 44.4845 75.5395 42.1606C75.5395 40.663 74.7149 39.3203 71.8801 39.3203H68.9937C68.6329 39.3203 68.4268 39.5269 68.4268 39.8884V50.4234C68.4268 50.6816 68.5814 50.8365 68.8391 50.8365H69.3545C69.6122 50.8365 69.7668 50.7332 69.7668 50.4234V40.3532H71.6224C73.1686 40.3532 74.251 40.5597 74.251 42.4189C74.251 44.123 73.3748 44.7944 71.6739 44.7427H70.6431V45.2592L74.1479 50.3717C74.4571 50.7849 74.7149 51.0431 75.1787 51.0431C75.5911 51.0431 75.7457 50.9914 75.8488 50.9398C75.9519 50.8365 76.0549 50.7332 76.0549 50.6816Z" fill="#E9F35A"/>
</g>
<mask id="mask2_224_947" style="mask-type:luminance" maskUnits="userSpaceOnUse" x="5" y="5" width="104" height="46">
<path d="M108.423 5.49475H5.33984V50.9914H108.423V5.49475Z" fill="white"/>
</mask>
<g mask="url(#mask2_224_947)">
<path d="M13.1738 44.0714C16.4725 46.6535 19.3073 47.7896 19.3073 47.7896C22.9668 45.4141 25.9046 43.0902 27.9148 41.0245C26.0593 41.1795 23.7914 41.5926 20.9566 42.5222C17.761 43.555 15.184 43.9681 13.1738 44.0714Z" fill="#E9F35A"/>
</g>
<mask id="mask3_224_947" style="mask-type:luminance" maskUnits="userSpaceOnUse" x="5" y="5" width="104" height="46">
<path d="M108.423 5.49475H5.33984V50.9914H108.423V5.49475Z" fill="white"/>
</mask>
<g mask="url(#mask3_224_947)">
<path d="M29.925 38.7006C30.7497 37.6678 31.3682 36.6866 31.8321 35.8603C29.6673 36.7898 25.6471 37.3579 18.7405 34.8791C11.5762 32.297 7.96824 33.0716 6.21582 34.0528C7.04049 37.203 8.74137 39.7851 10.6484 41.7991C12.9163 42.0573 16.0603 41.7991 20.5444 40.4048C24.7709 39.1137 27.7603 38.7006 29.925 38.7006Z" fill="#E9F35A"/>
</g>
<mask id="mask4_224_947" style="mask-type:luminance" maskUnits="userSpaceOnUse" x="5" y="5" width="104" height="46">
<path d="M108.423 5.49475H5.33984V50.9914H108.423V5.49475Z" fill="white"/>
</mask>
<g mask="url(#mask4_224_947)">
<path d="M24.6169 11.6401L20.8029 14.5837C20.4421 14.8935 20.2359 15.1518 20.1844 15.6165L20.1328 21.2455C20.1328 21.2972 20.2359 21.3488 20.2874 21.2972C20.339 20.8324 20.5967 20.4192 20.9059 20.1094L28.0702 14.7903C28.1218 14.7903 28.1218 14.7386 28.1218 14.7386C27.2971 13.4992 26.3694 12.2598 25.287 10.9688C25.0293 11.2786 24.7716 11.5368 24.6169 11.6401Z" fill="#E9F35A"/>
</g>
<mask id="mask5_224_947" style="mask-type:luminance" maskUnits="userSpaceOnUse" x="5" y="5" width="104" height="46">
<path d="M108.423 5.49475H5.33984V50.9914H108.423V5.49475Z" fill="white"/>
</mask>
<g mask="url(#mask5_224_947)">
<path d="M17.2459 19.8513C17.7613 20.2128 17.9675 20.7809 18.2252 21.3489C18.2767 21.4006 18.2767 21.2973 18.2767 21.2973V15.6166C18.2767 15.2035 18.1221 14.842 17.7613 14.6354L14.4111 12.1566C14.2049 12.0017 13.5864 11.5369 13.1226 11.0721C12.2463 12.2083 11.3186 13.4477 10.4424 14.7904C10.4767 14.8248 10.5111 14.8592 10.5455 14.8937C12.2979 16.2363 15.3904 18.5086 17.2459 19.8513Z" fill="#E9F35A"/>
</g>
<mask id="mask6_224_947" style="mask-type:luminance" maskUnits="userSpaceOnUse" x="5" y="5" width="104" height="46">
<path d="M108.423 5.49475H5.33984V50.9914H108.423V5.49475Z" fill="white"/>
</mask>
<g mask="url(#mask6_224_947)">
<path d="M18.3286 7.66372C18.2771 9.3679 18.3802 11.227 18.2771 12.9312C18.3802 11.2787 18.2771 9.3679 18.3286 7.66372ZM15.4938 10.0393C15.4938 10.1942 15.4938 10.3491 15.5454 10.504C15.4938 10.3491 15.4423 10.1942 15.4938 10.0393ZM15.5454 10.6073C16.2154 11.1754 17.0916 11.5369 17.7101 12.2082C17.0916 11.5885 16.2154 11.227 15.5454 10.6073ZM18.3286 5.49475C17.4009 6.32102 15.9062 7.767 14.2568 9.67776C15.3908 10.504 16.4731 11.2787 17.2978 11.8984C17.8132 12.2599 18.0194 12.8279 18.2771 13.396C18.3286 13.4476 18.3286 13.3443 18.3286 13.3443V5.49475Z" fill="#E9F35A"/>
</g>
<mask id="mask7_224_947" style="mask-type:luminance" maskUnits="userSpaceOnUse" x="5" y="5" width="104" height="46">
<path d="M108.423 5.49475H5.33984V50.9914H108.423V5.49475Z" fill="white"/>
</mask>
<g mask="url(#mask7_224_947)">
<path d="M20.2869 13.396C20.4931 12.8796 20.7508 12.2599 21.2662 11.8984C22.0909 11.2787 23.1732 10.504 24.2556 9.67776C23.0702 8.33506 21.7301 6.94073 20.2354 5.49475V13.2927C20.2354 13.3443 20.2354 13.4476 20.2869 13.396Z" fill="#E9F35A"/>
</g>
<mask id="mask8_224_947" style="mask-type:luminance" maskUnits="userSpaceOnUse" x="5" y="5" width="104" height="46">
<path d="M108.423 5.49475H5.33984V50.9914H108.423V5.49475Z" fill="white"/>
</mask>
<g mask="url(#mask8_224_947)">
<path d="M27.6574 17.4758L21.3177 22.2785C20.8023 22.64 20.2869 23.1564 20.2354 23.931V29.1985C20.2354 29.2502 20.2869 29.2502 20.3384 29.1985C20.4415 28.6821 20.9054 28.114 21.1116 27.9075L30.9045 20.6776C31.0076 20.6259 31.1107 20.471 31.3168 20.3677C30.7499 18.9734 29.9767 17.5274 29.049 16.0298C28.5336 16.6495 27.9666 17.2176 27.6574 17.4758Z" fill="#E9F35A"/>
</g>
<mask id="mask9_224_947" style="mask-type:luminance" maskUnits="userSpaceOnUse" x="5" y="5" width="104" height="46">
<path d="M108.423 5.49475H5.33984V50.9914H108.423V5.49475Z" fill="white"/>
</mask>
<g mask="url(#mask9_224_947)">
<path d="M18.2249 29.3018C18.2765 29.3018 18.2765 29.2501 18.2765 29.1985L18.328 24.0859C18.328 23.5695 18.2249 22.9498 17.8126 22.5883L11.1637 17.7856C10.8544 17.5274 9.97824 16.9077 9.46282 16.3396C8.6897 17.7339 7.91657 19.1799 7.34961 20.7292L17.5549 28.0623C17.9157 28.4238 18.1218 28.837 18.2249 29.3018Z" fill="#E9F35A"/>
</g>
<mask id="mask10_224_947" style="mask-type:luminance" maskUnits="userSpaceOnUse" x="5" y="5" width="104" height="46">
<path d="M108.423 5.49475H5.33984V50.9914H108.423V5.49475Z" fill="white"/>
</mask>
<g mask="url(#mask10_224_947)">
<path d="M5.33984 29.5083L5.39139 27.2361C5.54601 25.6868 5.85526 24.0343 6.47376 22.3301C6.73147 22.5366 6.93764 22.7432 7.04072 22.7949L17.1429 30.3346C17.6583 30.6961 18.0707 31.0059 18.2768 31.6256V32.6068C10.5456 30.0247 7.04072 30.9027 5.54601 31.8322C5.44293 31.0576 5.33984 30.283 5.33984 29.5083Z" fill="#E9F35A"/>
</g>
<mask id="mask11_224_947" style="mask-type:luminance" maskUnits="userSpaceOnUse" x="5" y="5" width="104" height="46">
<path d="M108.423 5.49475H5.33984V50.9914H108.423V5.49475Z" fill="white"/>
</mask>
<g mask="url(#mask11_224_947)">
<path d="M31.9869 22.3301C31.7292 22.5366 31.523 22.6916 31.4199 22.7949L21.3693 30.3346C20.8539 30.6961 20.4415 31.0059 20.2354 31.6256V33.2782C27.9151 35.7054 31.7292 34.1045 33.0693 32.6585C33.43 30.9027 33.2239 28.2173 32.9662 26.4098C32.8115 25.377 32.6054 24.2925 32.2446 23.1564C32.09 22.6399 31.9869 22.3301 31.9869 22.3301Z" fill="#E9F35A"/>
</g>
</svg>
