<svg width="116" height="65" viewBox="0 0 116 65" fill="none" xmlns="http://www.w3.org/2000/svg">
<mask id="mask0_219_277" style="mask-type:luminance" maskUnits="userSpaceOnUse" x="5" y="6" width="104" height="46">
<path d="M108.459 6.43555H5.375V51.9322H108.459V6.43555Z" fill="white"/>
</mask>
<g mask="url(#mask0_219_277)">
<path d="M96.0883 34.8903C96.0883 31.2237 91.7072 32.4631 91.7072 30.9139C91.7072 30.1393 92.4288 30.036 93.2019 30.036C93.9235 30.036 94.7482 30.3458 95.2121 30.4491C95.4182 30.5007 95.6759 30.5524 95.7275 30.1909L95.779 29.4163C95.8306 29.1581 95.7275 29.0031 95.5213 28.8998C95.2636 28.7966 94.4389 28.4867 93.1504 28.4867C90.7795 28.4867 89.5425 29.4679 89.5425 31.1205C89.5425 34.3223 93.9235 33.3411 93.9235 34.942C93.9235 35.7682 93.2019 35.9232 92.5319 35.9232C91.501 35.9232 90.831 35.665 90.0063 35.3551C89.7486 35.2518 89.5425 35.2518 89.4909 35.5617L89.4394 36.4396C89.4394 36.6978 89.4909 36.8527 89.7486 36.956C90.5733 37.2659 91.501 37.4724 92.635 37.4724C94.4389 37.5241 96.0883 36.7494 96.0883 34.8903ZM88.357 36.7494L88.3055 35.9232C88.3055 35.665 88.0993 35.5617 87.8416 35.6133C87.5323 35.7166 87.12 35.8199 86.7592 35.8199C85.6253 35.8199 85.4707 35.5617 85.4707 34.4772L85.5222 30.3975H86.3469C86.3469 30.3975 87.0169 30.4491 87.5323 30.3458C87.79 30.2942 87.8931 30.1393 87.8416 29.9327L87.7385 29.0548C87.7385 28.7966 87.5839 28.7449 87.3262 28.7449C87.0169 28.7449 86.9138 28.8482 86.2953 28.8482H85.4707L85.5222 26.6792C85.5222 26.3694 85.3676 26.1628 85.0583 26.1628H83.9244C83.6152 26.1628 83.4605 26.3694 83.4605 26.6276L83.3574 28.7966H82.2235C81.9143 28.7966 81.7081 29.0031 81.7081 29.2613V29.9327C81.7081 30.1909 81.9143 30.3975 82.2235 30.3975H83.3059L83.2544 34.6321C83.2544 36.6462 84.3367 37.4208 86.3469 37.4208C87.0685 37.4208 87.6354 37.3175 88.0477 37.1626C88.2539 37.1109 88.357 37.0076 88.357 36.7494ZM81.9658 26.0079C82.0174 25.7497 81.9143 25.6464 81.6566 25.5948C81.1412 25.4398 80.2649 25.3882 79.9042 25.3882C77.894 25.3882 76.8632 26.2145 76.8632 28.2285V28.8998H75.7808C75.4716 28.8998 75.3169 29.1064 75.3169 29.3646V30.036C75.3169 30.3458 75.4716 30.5007 75.7808 30.5007H76.8632V36.8527C76.8632 37.1626 77.0694 37.3175 77.3786 37.3175H78.6156C78.9249 37.3175 79.131 37.1626 79.131 36.8527V30.4491H79.9557C79.9557 30.4491 80.6773 30.5007 81.1412 30.3975C81.3989 30.3458 81.5019 30.1909 81.4504 29.9843L81.3473 29.1064C81.3473 28.8482 81.1927 28.7966 80.935 28.7966C80.6257 28.7966 80.5227 28.8998 79.9042 28.8998H79.0795V28.2801C79.0795 27.2473 79.2341 26.9374 80.368 26.9374C80.7804 26.9374 81.1927 27.0407 81.4504 27.0924C81.7081 27.144 81.8627 27.0407 81.8627 26.7825L81.9658 26.0079ZM74.0284 36.9044L73.8738 34.219V29.2097C73.8738 28.8998 73.6676 28.6933 73.4099 28.7449L72.1729 28.8482C71.9152 28.8998 71.709 29.0031 71.709 29.313V32.1533C71.709 35.7682 70.7813 35.8715 69.905 35.8715H69.5958C68.6165 35.8715 68.565 35.2002 68.565 34.5288V29.4163C68.565 28.8998 68.5134 28.6933 67.8949 28.7449L66.761 28.8482C66.5033 28.8998 66.2971 29.0031 66.2971 29.313V34.5805C66.2971 36.3879 67.1733 37.5241 68.9773 37.5241C70.3689 37.5241 71.2967 36.6978 71.7605 35.51L71.9667 35.5617C71.9152 35.8199 71.8636 36.2847 71.8636 36.5945C71.8636 37.0076 71.7605 37.3175 72.379 37.3175L73.616 37.2659C73.8738 37.3175 74.0284 37.2142 74.0284 36.9044ZM64.5447 36.956L64.4932 35.9748C64.4932 35.8199 64.4416 35.7682 64.3385 35.7166H63.9262C63.5654 35.7166 63.4623 35.5617 63.4623 35.1485L63.5654 26.1112C63.5654 25.8013 63.3592 25.5948 63.1015 25.6464L61.8645 25.698C61.6068 25.698 61.4007 25.853 61.4007 26.1628L61.3491 35.4067C61.3491 36.6462 61.813 37.4724 63.2046 37.4724C63.6169 37.4724 64.0293 37.4208 64.287 37.3175C64.3901 37.2659 64.5962 37.2142 64.5447 36.956ZM58.7205 36.8527V29.2613C58.7205 28.8482 58.4628 28.6933 58.1535 28.6933L57.0196 28.7966C56.7619 28.7966 56.5557 28.9515 56.5557 29.2613V36.8011C56.5557 37.1109 56.7619 37.2659 57.0196 37.2659H58.2051C58.5143 37.3175 58.7205 37.1626 58.7205 36.8527ZM59.1328 25.853C59.1328 25.698 59.0297 25.4398 58.6174 25.4915C57.8958 25.5948 57.7412 25.698 57.1227 25.698C56.4526 25.698 56.298 25.4915 56.1949 26.3694C56.0919 27.2989 56.3496 27.3506 57.2258 27.3506C57.8443 27.3506 57.9989 27.3506 58.6174 27.2473C58.9266 27.1957 58.9782 26.9891 59.0297 26.7309L59.1328 25.853ZM55.3187 29.1064C55.3703 28.7966 55.3187 28.6933 55.061 28.6416C54.9064 28.59 54.7518 28.5383 54.391 28.5383C52.9993 28.5383 52.3293 29.5712 51.8654 30.6557L51.6593 30.604C51.7108 30.3975 51.8139 29.7261 51.8139 29.3646C51.8139 28.9515 51.8654 28.6933 51.2469 28.7449L50.0099 28.7966C49.7522 28.7966 49.5976 28.8998 49.5976 29.2097L49.7522 31.8434V36.8011C49.7522 37.1109 49.9584 37.2659 50.2676 37.2659H51.4531C51.7623 37.2659 51.9685 37.1109 51.9685 36.8011V33.9091C51.9685 32.4631 52.0201 31.4819 52.587 30.9655C52.8963 30.6557 53.3086 30.5524 53.9271 30.5524C54.1848 30.5524 54.4425 30.604 54.7002 30.6557C54.9579 30.7073 55.1641 30.7073 55.2156 30.3975L55.3187 29.1064ZM49.0822 27.0924V26.3694C49.0822 26.0595 48.876 25.9046 48.5668 25.9046H42.5364C42.0725 25.9046 41.6602 26.2145 41.6602 26.7309V36.8527C41.6602 37.1626 41.8663 37.3175 42.124 37.3175H43.4641C43.7218 37.3175 43.928 37.1626 43.928 36.8527V32.4115H47.0205C47.2782 32.4115 47.5359 32.2566 47.5359 31.9467V31.2237C47.5359 30.9139 47.3298 30.759 47.0205 30.759H43.928V27.5572H48.5668C48.876 27.5572 49.0822 27.4022 49.0822 27.0924Z" fill="#9BBEBB"/>
</g>
<mask id="mask1_219_277" style="mask-type:luminance" maskUnits="userSpaceOnUse" x="5" y="6" width="104" height="46">
<path d="M108.459 6.43555H5.375V51.9322H108.459V6.43555Z" fill="white"/>
</mask>
<g mask="url(#mask1_219_277)">
<path d="M108.458 51.3125L108.407 51.0543C108.355 50.7961 108.252 50.7445 108.046 50.7961C107.84 50.8477 107.479 51.0027 107.015 51.0027C105.727 51.0027 105.469 50.5895 105.52 49.2468L105.572 44.2892H106.551C106.551 44.2892 107.118 44.2892 107.531 44.2376C107.788 44.1859 107.84 44.0826 107.788 43.9794L107.737 43.4629C107.737 43.308 107.634 43.2047 107.427 43.2564C107.17 43.308 107.015 43.3596 106.551 43.3596H105.572L105.624 41.139C105.624 40.8808 105.572 40.7259 105.314 40.7259H104.85C104.593 40.7259 104.49 40.8292 104.49 41.139L104.438 43.3596H103.304C103.046 43.3596 102.892 43.4629 102.892 43.7211V43.9794C102.892 44.2376 102.995 44.3408 103.304 44.3408H104.335L104.283 49.4534C104.283 51.3125 105.108 52.0355 106.861 52.0355C107.221 52.0355 107.84 51.8806 108.201 51.7773C108.458 51.6224 108.458 51.5191 108.458 51.3125ZM100.727 46.6647H96.1914C96.346 45.0122 96.8614 43.8244 98.6654 43.8244C100.418 43.8761 100.727 45.0638 100.727 46.6647ZM102.067 46.4065V46.1483C102.016 44.1859 100.882 42.9465 98.8716 42.9465C96.0883 42.9465 94.8513 44.7023 94.8513 47.4394C94.8513 50.1764 96.0883 51.8806 98.9231 51.8806C100.315 51.8806 101.191 51.4674 101.346 51.3642C101.552 51.2609 101.603 51.2092 101.603 50.951L101.552 50.4863C101.552 50.228 101.397 50.1764 101.191 50.2797C101.036 50.3313 100.16 50.8994 99.0262 50.8994C97.0161 50.8994 96.1914 49.8665 96.1914 47.9041V47.5427H99.5931C99.5931 47.5427 100.624 47.5427 101.242 47.491C102.119 47.4394 102.067 47.2328 102.067 46.4065ZM91.7073 46.7164C91.7073 48.4206 91.4495 50.7961 89.3879 50.8477H89.1817C87.5839 50.8477 87.1716 49.6083 87.1716 47.9558V47.8009C87.1716 44.8573 88.1509 43.8761 89.8002 43.8761H90.0579C90.7795 43.8761 91.6557 44.0826 91.6557 44.0826V46.7164H91.7073ZM92.9958 51.4674L92.8927 48.8337V40.5193C92.8927 40.2611 92.7896 40.1062 92.5319 40.1062H92.068C91.8103 40.1062 91.7073 40.2095 91.7073 40.5193V43.2047C91.7073 43.2047 91.2434 43.0498 90.161 43.0498C87.2231 43.0498 85.883 44.754 85.883 47.9558C85.883 50.3313 86.8108 52.0355 89.0786 52.0355C90.3156 52.0355 91.1403 51.3642 91.7073 50.1764L91.8619 50.228C91.8619 50.228 91.7588 51.0027 91.7588 51.3125C91.7588 51.7257 91.6042 51.9839 92.2227 51.9322L92.7381 51.8806C92.8927 51.7773 92.9958 51.674 92.9958 51.4674ZM82.739 46.6647C82.739 48.3689 82.4813 50.7961 80.4711 50.8477H80.265C78.7187 50.8477 78.3064 49.66 78.3064 48.0074V47.7492C78.3064 44.8056 79.3888 43.8761 80.9866 43.8761H81.1927C81.9143 43.8761 82.6874 44.0826 82.6874 44.0826V46.6647H82.739ZM84.0275 51.4158L83.9244 48.7304V44.4441C83.9244 43.9277 83.8729 43.5146 83.0482 43.2047C82.6359 43.1014 82.0689 42.9465 81.2958 42.9465C78.3064 42.9465 77.0179 44.6507 77.0179 47.8525C77.0179 50.5379 78.3064 51.8806 80.1619 51.8806C81.3989 51.8806 82.172 51.2609 82.6874 50.0215L82.8421 50.0731C82.8421 50.0731 82.739 50.8477 82.739 51.1576C82.739 51.5707 82.6359 51.8289 83.2029 51.7773L83.7183 51.7257C83.9244 51.7773 84.0275 51.674 84.0275 51.4158ZM81.9659 40.7775C81.9659 41.5005 81.8112 41.8104 81.0896 41.8104C80.3681 41.8104 80.2134 41.5005 80.2134 40.7775C80.2134 40.0546 80.3681 39.7447 81.0896 39.7447C81.8112 39.7447 81.9659 40.0546 81.9659 40.7775ZM82.8936 40.7775C82.8936 39.5381 82.2236 39.125 81.0896 39.125C79.9557 39.125 79.2341 39.5381 79.2341 40.7775C79.2341 42.017 79.8011 42.4817 80.9866 42.4817C82.172 42.4817 82.8936 42.017 82.8936 40.7775ZM76.0901 51.6224L76.0386 50.951C76.0386 50.8994 75.987 50.8477 75.9355 50.8477H75.7293C75.5231 50.8477 75.3685 50.8477 75.2139 50.5895L72.1729 46.4582C74.08 46.3032 75.5747 45.4253 75.5747 43.1014C75.5747 41.6038 74.75 40.2611 71.9152 40.2611H69.0289C68.6681 40.2611 68.4619 40.4677 68.4619 40.8292V51.3642C68.4619 51.6224 68.6165 51.7773 68.8742 51.7773H69.3897C69.6474 51.7773 69.802 51.674 69.802 51.3642V41.294H71.6575C73.2038 41.294 74.2861 41.5005 74.2861 43.3596C74.2861 45.0638 73.4099 45.7352 71.709 45.6835H70.6782V46.2L74.1831 51.3125C74.4923 51.7257 74.75 51.9839 75.2139 51.9839C75.6262 51.9839 75.7808 51.9322 75.8839 51.8806C75.987 51.7773 76.0901 51.674 76.0901 51.6224Z" fill="#9BBEBB"/>
</g>
<mask id="mask2_219_277" style="mask-type:luminance" maskUnits="userSpaceOnUse" x="5" y="6" width="104" height="46">
<path d="M108.459 6.43555H5.375V51.9322H108.459V6.43555Z" fill="white"/>
</mask>
<g mask="url(#mask2_219_277)">
<path d="M13.209 45.0122C16.5077 47.5943 19.3425 48.7304 19.3425 48.7304C23.0019 46.3549 25.9398 44.031 27.9499 41.9653C26.0944 42.1203 23.8266 42.5334 20.9918 43.4629C17.7962 44.4958 15.2191 44.9089 13.209 45.0122Z" fill="#9BBEBB"/>
</g>
<mask id="mask3_219_277" style="mask-type:luminance" maskUnits="userSpaceOnUse" x="5" y="6" width="104" height="46">
<path d="M108.459 6.43555H5.375V51.9322H108.459V6.43555Z" fill="white"/>
</mask>
<g mask="url(#mask3_219_277)">
<path d="M29.9602 39.6413C30.7849 38.6084 31.4034 37.6272 31.8672 36.801C29.7025 37.7305 25.6822 38.2986 18.7756 35.8198C11.6113 33.2377 8.0034 34.0123 6.25098 34.9935C7.07564 38.1437 8.77652 40.7258 10.6836 42.7398C12.9514 42.998 16.0955 42.7398 20.5796 41.3455C24.806 40.0544 27.7954 39.6413 29.9602 39.6413Z" fill="#9BBEBB"/>
</g>
<mask id="mask4_219_277" style="mask-type:luminance" maskUnits="userSpaceOnUse" x="5" y="6" width="104" height="46">
<path d="M108.459 6.43555H5.375V51.9322H108.459V6.43555Z" fill="white"/>
</mask>
<g mask="url(#mask4_219_277)">
<path d="M24.6521 12.581L20.838 15.5246C20.4772 15.8345 20.2711 16.0927 20.2195 16.5575L20.168 22.1864C20.168 22.2381 20.2711 22.2897 20.3226 22.2381C20.3741 21.7733 20.6318 21.3602 20.9411 21.0503L28.1054 15.7312C28.1569 15.7312 28.1569 15.6795 28.1569 15.6795C27.3323 14.4401 26.4045 13.2007 25.3221 11.9097C25.0644 12.2195 24.8067 12.4777 24.6521 12.581Z" fill="#9BBEBB"/>
</g>
<mask id="mask5_219_277" style="mask-type:luminance" maskUnits="userSpaceOnUse" x="5" y="6" width="104" height="46">
<path d="M108.459 6.43555H5.375V51.9322H108.459V6.43555Z" fill="white"/>
</mask>
<g mask="url(#mask5_219_277)">
<path d="M17.2811 20.7921C17.7965 21.1536 18.0026 21.7216 18.2603 22.2897C18.3119 22.3414 18.3119 22.2381 18.3119 22.2381V16.5574C18.3119 16.1443 18.1573 15.7828 17.7965 15.5762L14.4463 13.0974C14.2401 12.9425 13.6216 12.4777 13.1577 12.0129C12.2815 13.1491 11.3537 14.3885 10.4775 15.7312C10.5119 15.7656 10.5463 15.8 10.5806 15.8345C12.333 17.1771 15.4255 19.4494 17.2811 20.7921Z" fill="#9BBEBB"/>
</g>
<mask id="mask6_219_277" style="mask-type:luminance" maskUnits="userSpaceOnUse" x="5" y="6" width="104" height="46">
<path d="M108.459 6.43555H5.375V51.9322H108.459V6.43555Z" fill="white"/>
</mask>
<g mask="url(#mask6_219_277)">
<path d="M18.3638 8.60451C18.3123 10.3087 18.4153 12.1678 18.3122 13.872C18.4153 12.2195 18.3123 10.3087 18.3638 8.60451ZM15.529 10.98C15.529 11.135 15.529 11.2899 15.5805 11.4448C15.529 11.2899 15.4775 11.135 15.529 10.98ZM15.5805 11.5481C16.2506 12.1162 17.1268 12.4777 17.7453 13.149C17.1268 12.5293 16.2506 12.1678 15.5805 11.5481ZM18.3638 6.43555C17.436 7.26182 15.9413 8.7078 14.292 10.6186C15.4259 11.4448 16.5083 12.2195 17.333 12.8392C17.8484 13.2007 18.0545 13.7687 18.3122 14.3368C18.3638 14.3884 18.3638 14.2851 18.3638 14.2851V6.43555Z" fill="#9BBEBB"/>
</g>
<mask id="mask7_219_277" style="mask-type:luminance" maskUnits="userSpaceOnUse" x="5" y="6" width="104" height="46">
<path d="M108.459 6.43555H5.375V51.9322H108.459V6.43555Z" fill="white"/>
</mask>
<g mask="url(#mask7_219_277)">
<path d="M20.3221 14.3368C20.5282 13.8204 20.7859 13.2007 21.3013 12.8392C22.126 12.2195 23.2084 11.4448 24.2908 10.6186C23.1053 9.27586 21.7652 7.88152 20.2705 6.43555V14.2335C20.2705 14.2851 20.2705 14.3884 20.3221 14.3368Z" fill="#9BBEBB"/>
</g>
<mask id="mask8_219_277" style="mask-type:luminance" maskUnits="userSpaceOnUse" x="5" y="6" width="104" height="46">
<path d="M108.459 6.43555H5.375V51.9322H108.459V6.43555Z" fill="white"/>
</mask>
<g mask="url(#mask8_219_277)">
<path d="M27.6925 18.4164L21.3529 23.2191C20.8375 23.5806 20.322 24.0971 20.2705 24.8717V30.1392C20.2705 30.1908 20.322 30.1908 20.3736 30.1392C20.4767 29.6228 20.9406 29.0547 21.1467 28.8481L30.9397 21.6182C31.0427 21.5666 31.1458 21.4117 31.352 21.3084C30.785 19.9141 30.0119 18.4681 29.0842 16.9705C28.5687 17.5902 28.0018 18.1582 27.6925 18.4164Z" fill="#9BBEBB"/>
</g>
<mask id="mask9_219_277" style="mask-type:luminance" maskUnits="userSpaceOnUse" x="5" y="6" width="104" height="46">
<path d="M108.459 6.43555H5.375V51.9322H108.459V6.43555Z" fill="white"/>
</mask>
<g mask="url(#mask9_219_277)">
<path d="M18.2601 30.2424C18.3116 30.2424 18.3116 30.1908 18.3116 30.1391L18.3632 25.0266C18.3632 24.5102 18.2601 23.8905 17.8477 23.529L11.1989 18.7263C10.8896 18.468 10.0134 17.8483 9.49798 17.2803C8.72485 18.6746 7.95173 20.1206 7.38477 21.6698L17.59 29.003C17.9508 29.3645 18.157 29.7777 18.2601 30.2424Z" fill="#9BBEBB"/>
</g>
<mask id="mask10_219_277" style="mask-type:luminance" maskUnits="userSpaceOnUse" x="5" y="6" width="104" height="46">
<path d="M108.459 6.43555H5.375V51.9322H108.459V6.43555Z" fill="white"/>
</mask>
<g mask="url(#mask10_219_277)">
<path d="M5.375 30.449L5.42654 28.1767C5.58117 26.6275 5.89042 24.9749 6.50892 23.2708C6.76663 23.4773 6.9728 23.6839 7.07588 23.7355L17.1781 31.2753C17.6935 31.6368 18.1058 31.9466 18.312 32.5663V33.5475C10.5807 30.9654 7.07588 31.8433 5.58117 32.7729C5.47808 31.9983 5.375 31.2236 5.375 30.449Z" fill="#9BBEBB"/>
</g>
<mask id="mask11_219_277" style="mask-type:luminance" maskUnits="userSpaceOnUse" x="5" y="6" width="104" height="46">
<path d="M108.459 6.43555H5.375V51.9322H108.459V6.43555Z" fill="white"/>
</mask>
<g mask="url(#mask11_219_277)">
<path d="M32.022 23.2708C31.7643 23.4773 31.5582 23.6322 31.4551 23.7355L21.4044 31.2753C20.889 31.6368 20.4767 31.9466 20.2705 32.5663V34.2189C27.9502 36.646 31.7643 35.0451 33.1044 33.5992C33.4652 31.8433 33.259 29.1579 33.0013 27.3505C32.8467 26.3176 32.6405 25.2331 32.2797 24.097C32.1251 23.5806 32.022 23.2708 32.022 23.2708Z" fill="#9BBEBB"/>
</g>
</svg>
