<svg width="62" height="67" viewBox="0 0 62 67" fill="none" xmlns="http://www.w3.org/2000/svg">
<path d="M52.0282 36.8604C50.7129 36.141 51.0671 34.841 50.9912 33.724C50.7129 29.5779 48.3038 28.1202 44.6742 30.026C43.6941 30.5371 42.8278 30.8527 41.8477 30.1585C41.658 30.0197 41.3671 29.7862 41.228 29.8745C38.8378 31.3638 36.827 29.6095 34.6581 29.1677C34.0384 29.0415 33.3871 29.2371 32.8496 29.5653C31.4585 30.4298 30.08 31.0735 28.5434 29.8998C26.1975 31.2565 24.1235 29.7167 21.9356 29.3065C21.1578 29.1614 20.3105 29.3697 19.6971 29.8556C18.1226 31.0988 16.6999 31.1366 15.0305 29.925C13.8354 29.0541 12.3495 29.0794 11.0152 29.8556C8.66297 31.225 8.66298 34.5633 10.9836 36.122C11.774 36.6521 12.7352 36.7973 13.5762 37.2012C14.6322 37.706 15.0242 38.6274 14.7081 39.738C14.3856 40.8613 13.5319 41.2968 12.3811 41.3031C11.6539 41.3031 10.7813 40.1924 10.3007 41.1327C9.80749 42.0919 11.1227 42.439 11.6223 43.0764C11.7677 43.2657 11.8562 43.4802 11.9195 43.7074" stroke="#959595" stroke-miterlimit="10"/>
<path d="M21.5689 60.0141C9.90872 56.2908 1.77695 44.3827 2.88985 32.6764C4.1798 19.0392 13.728 8.92322 26.754 7.39605C42.91 5.49655 57.011 17.8591 57.1881 34.1026C57.1944 34.9483 56.9794 35.7939 56.8656 36.6395" stroke="#E9F35A" stroke-width="3" stroke-miterlimit="10"/>
<path d="M56.8656 36.6395C56.8339 46.6103 48.6516 56.9282 38.1992 60.1529C32.6473 61.8631 27.1018 61.9262 21.5752 60.0141" stroke="#E9F35A" stroke-width="3" stroke-miterlimit="10"/>
<path d="M11.2812 44.1177C11.6037 43.2342 12.4194 43.1711 13.1656 42.9313C15.872 42.0667 16.8205 40.5521 16.3336 37.7944C16.1818 36.9172 15.9226 36.0779 16.7509 35.4279C17.5793 34.7779 18.357 35.125 19.1285 35.6172C20.7978 36.6774 22.4735 36.6711 24.2567 35.8002C26.3876 34.759 27.178 35.3396 27.3867 37.7313C27.5068 39.0818 26.8935 40.2871 26.6785 41.7953C28.2214 41.524 28.5186 40.4953 28.7589 39.4478C28.9486 38.6085 28.8347 37.725 29.0118 36.8794C29.3153 35.4153 30.2069 34.7779 31.5601 35.5415C33.6152 36.7027 35.5501 36.7279 37.5293 35.4468C38.3576 34.9104 39.1164 35.2197 39.9385 35.6551C42.7776 37.1381 44.447 36.2925 44.9276 33.1561C45.1299 31.8308 45.68 30.8843 47.1028 30.8527C48.6393 30.8211 49.4045 31.7614 49.4361 33.2192C49.4803 35.0934 50.1 36.425 52.1804 36.6269" stroke="#8A8A8A" stroke-miterlimit="10"/>
<path d="M52.1795 36.6396C51.5219 37.5294 50.7251 38.1037 49.5806 37.5736C48.5689 37.1066 48.5562 36.1474 48.4108 35.1945C48.2274 34.0081 49.1506 31.9255 47.2789 31.9129C45.1796 31.9003 46.1913 34.0648 46.0206 35.2891C45.7803 37.0498 45.2491 38.11 43.1688 37.5862C41.6765 37.2139 39.691 38.577 38.7551 36.2483C38.6476 35.9833 38.1987 36.2673 37.9647 36.4692C35.4101 38.6022 32.9377 38.0658 30.4147 36.0716C29.8519 37.0372 30.0795 37.9774 30.0669 38.8546C30.0416 40.5206 29.4978 41.9279 28.1952 42.9755C27.4111 43.6002 26.393 44.5089 25.4951 43.8085C24.4961 43.0196 24.6415 41.4798 25.356 40.6153C26.5195 39.1954 26.3172 37.8007 26.0769 35.9707C23.0101 38.5517 20.1203 38.3624 17.2496 35.592C18.04 42.4517 16.7753 44.1556 11.2867 44.1177C10.4204 43.4677 9.35174 43.0638 8.75103 42.0794C8.26414 41.2779 7.54328 40.3692 8.28943 39.5299C8.95338 38.7789 10.0536 39.0502 10.9642 39.2901C11.919 39.5425 13.0762 41.4104 13.7464 39.4604C14.3345 37.7566 12.2858 38.0784 11.3499 37.6808C9.45292 36.8794 8.21987 35.611 8.0112 33.5411C7.80253 31.509 8.51074 29.7989 10.2939 28.7387C12.1277 27.6469 14.1322 27.5712 15.7952 28.9406C17.0219 29.9503 17.7491 29.8557 18.9505 28.9091C20.8096 27.445 22.9279 27.5523 24.8185 28.9595C25.6912 29.6095 26.1022 29.7105 26.7977 28.7197C27.5692 27.6154 28.7959 27.628 29.561 28.7008C30.2756 29.7042 30.6866 29.5527 31.5402 28.9154C33.5257 27.4513 35.6314 27.4134 37.5916 28.9848C38.3884 29.6222 38.7614 29.66 39.3621 28.7387C40.0071 27.7542 41.316 27.4702 41.961 28.4231C42.9538 29.8872 43.5798 29.3066 44.6674 28.6377C47.9808 26.6057 51.8696 28.7387 52.1099 32.6513C52.1921 33.9765 52.1605 35.308 52.1795 36.6333V36.6396Z" fill="#E9F35A"/>
<path d="M28.1768 24.6556C28.904 24.7692 29.3403 25.1731 29.277 25.8988C29.2138 26.6246 28.7206 27.0095 27.9997 26.9275C27.4053 26.858 27.0133 26.4542 27.0196 25.8231C27.0259 25.0911 27.4686 24.7187 28.1768 24.6556Z" fill="#E9F35A"/>
<path d="M40.9369 26.959C40.1401 26.8706 39.7101 26.4857 39.7291 25.7537C39.7481 25.1478 40.1275 24.725 40.7282 24.6682C41.4554 24.6051 41.917 25.0343 41.9739 25.7347C42.0308 26.4668 41.5502 26.8265 40.9369 26.9527V26.959Z" fill="#E9F35A"/>
<path d="M22.9281 32.9225C22.8459 33.6482 22.4096 34.0206 21.6888 33.9575C21.0817 33.907 20.6897 33.5157 20.7087 32.8784C20.734 32.1211 21.2145 31.7677 21.9354 31.8308C22.5487 31.8813 22.8965 32.2662 22.9281 32.9225Z" fill="#FEFEFE"/>
<path d="M35.6314 32.8406C35.4796 33.6799 35.037 34.0333 34.3098 33.9197C33.7028 33.8251 33.3234 33.4275 33.393 32.7901C33.4752 32.0518 33.9747 31.7173 34.6956 31.812C35.3279 31.894 35.5871 32.3421 35.6377 32.8406H35.6314Z" fill="#FEFEFE"/>
<path d="M12.9757 34.0838C12.3181 34.008 11.8565 33.7114 11.8122 33.0867C11.7616 32.3231 12.2485 31.9382 12.982 31.9571C13.6333 31.9697 13.9937 32.3736 13.9748 33.0173C13.9558 33.661 13.5321 33.9765 12.9757 34.0838Z" fill="#FEFEFE"/>
</svg>
