<svg width="63" height="68" viewBox="0 0 63 68" fill="none" xmlns="http://www.w3.org/2000/svg">
<path d="M52.0634 37.8014C50.7481 37.082 51.1022 35.782 51.0263 34.665C50.7481 30.5189 48.3389 29.0612 44.7093 30.967C43.7292 31.4782 42.8629 31.7937 41.8828 31.0995C41.6931 30.9607 41.4023 30.7272 41.2631 30.8155C38.8729 32.3049 36.8621 30.5505 34.6932 30.1088C34.0736 29.9825 33.4223 30.1782 32.8848 30.5063C31.4936 31.3709 30.1152 32.0146 28.5786 30.8408C26.2327 32.1976 24.1586 30.6578 21.9707 30.2476C21.193 30.1024 20.3457 30.3107 19.7323 30.7966C18.1578 32.0398 16.7351 32.0777 15.0657 30.866C13.8706 29.9952 12.3846 30.0204 11.0504 30.7966C8.69813 32.166 8.69813 35.5043 11.0188 37.0631C11.8092 37.5932 12.7703 37.7383 13.6113 38.1422C14.6673 38.647 15.0594 39.5684 14.7432 40.6791C14.4207 41.8024 13.5671 42.2378 12.4162 42.2441C11.6891 42.2441 10.8164 41.1334 10.3359 42.0737C9.84265 43.0329 11.1579 43.38 11.6574 44.0174C11.8029 44.2067 11.8914 44.4213 11.9546 44.6485" stroke="#959595" stroke-miterlimit="10"/>
<path d="M21.604 60.955C9.94387 57.2318 1.8121 45.3236 2.92501 33.6174C4.21496 19.9801 13.7632 9.86414 26.7892 8.33697C42.9452 6.43746 57.0462 18.8 57.2232 35.0436C57.2295 35.8892 57.0145 36.7348 56.9007 37.5804" stroke="#9BBEBB" stroke-width="3" stroke-miterlimit="10"/>
<path d="M56.9007 37.5806C56.8691 47.5514 48.6867 57.8693 38.2343 61.094C32.6825 62.8042 27.1369 62.8673 21.6104 60.9552" stroke="#9BBEBB" stroke-width="3" stroke-miterlimit="10"/>
<path d="M11.3164 45.0585C11.6389 44.175 12.4546 44.1119 13.2008 43.872C15.9071 43.0075 16.8556 41.4929 16.3687 38.7352C16.217 37.858 15.9577 37.0187 16.7861 36.3687C17.6144 35.7187 18.3922 36.0658 19.1636 36.558C20.833 37.6182 22.5087 37.6119 24.2918 36.741C26.4228 35.6998 27.2132 36.2804 27.4219 38.6721C27.542 40.0226 26.9286 41.2279 26.7137 42.7361C28.2565 42.4648 28.5537 41.4361 28.794 40.3886C28.9837 39.5493 28.8699 38.6658 29.047 37.8201C29.3505 36.3561 30.2421 35.7187 31.5952 36.4823C33.6503 37.6435 35.5852 37.6687 37.5644 36.3876C38.3928 35.8512 39.1516 36.1605 39.9736 36.5959C42.8128 38.0789 44.4821 37.2333 44.9627 34.0969C45.1651 32.7716 45.7152 31.825 47.1379 31.7935C48.6745 31.7619 49.4396 32.7022 49.4712 34.16C49.5155 36.0342 50.1352 37.3658 52.2155 37.5677" stroke="#8A8A8A" stroke-miterlimit="10"/>
<path d="M52.2146 37.5805C51.557 38.4703 50.7603 39.0446 49.6158 38.5145C48.604 38.0475 48.5914 37.0883 48.4459 36.1354C48.2626 34.949 49.1858 32.8665 47.3141 32.8538C45.2147 32.8412 46.2265 35.0058 46.0557 36.23C45.8155 37.9907 45.2843 39.0509 43.2039 38.5271C41.7116 38.1548 39.7261 39.5179 38.7903 37.1892C38.6828 36.9242 38.2338 37.2082 37.9999 37.4101C35.4452 39.5431 32.9728 39.0067 30.4498 37.0125C29.8871 37.9781 30.1147 38.9184 30.102 39.7955C30.0767 41.4615 29.5329 42.8688 28.2303 43.9164C27.4463 44.5411 26.4282 45.4499 25.5303 44.7494C24.5312 43.9606 24.6766 42.4208 25.3912 41.5562C26.5547 40.1363 26.3523 38.7417 26.112 36.9116C23.0452 39.4926 20.1555 39.3033 17.2847 36.5329C18.0751 43.3926 16.8105 45.0965 11.3218 45.0586C10.4555 44.4086 9.3869 44.0047 8.78619 43.0203C8.29929 42.2188 7.57843 41.3101 8.32458 40.4708C8.98853 39.7198 10.0888 39.9912 10.9993 40.231C11.9542 40.4834 13.1113 42.3513 13.7816 40.4014C14.3697 38.6975 12.3209 39.0193 11.3851 38.6218C9.48807 37.8203 8.25503 36.5519 8.04636 34.482C7.83769 32.45 8.5459 30.7398 10.3291 29.6796C12.1628 28.5879 14.1673 28.5121 15.8303 29.8815C17.0571 30.8912 17.7842 30.7966 18.9857 29.85C20.8447 28.3859 22.963 28.4932 24.8537 29.9005C25.7263 30.5505 26.1373 30.6514 26.8329 29.6607C27.6043 28.5563 28.8311 28.5689 29.5962 29.6417C30.3107 30.6451 30.7217 30.4937 31.5754 29.8563C33.5609 28.3922 35.6666 28.3544 37.6268 29.9257C38.4235 30.5631 38.7966 30.6009 39.3973 29.6796C40.0423 28.6951 41.3512 28.4112 41.9962 29.3641C42.9889 30.8281 43.6149 30.2475 44.7026 29.5786C48.016 27.5466 51.9048 29.6796 52.1451 33.5922C52.2273 34.9174 52.1957 36.249 52.2146 37.5742V37.5805Z" fill="#9BBEBB"/>
<path d="M28.2119 25.5967C28.9391 25.7103 29.3754 26.1142 29.3122 26.8399C29.2489 27.5656 28.7557 27.9505 28.0349 27.8685C27.4405 27.7991 27.0484 27.3952 27.0548 26.7641C27.0611 26.0321 27.5037 25.6598 28.2119 25.5967Z" fill="#9BBEBB"/>
<path d="M40.972 27.8999C40.1753 27.8116 39.7453 27.4266 39.7643 26.6946C39.7832 26.0888 40.1626 25.666 40.7634 25.6092C41.4905 25.546 41.9521 25.9752 42.009 26.6757C42.066 27.4077 41.5854 27.7674 40.972 27.8936V27.8999Z" fill="#9BBEBB"/>
<path d="M25 34.0533C24.8149 35.4093 23.8323 36.105 22.2088 35.9871C20.8417 35.8928 19.9588 35.1617 20.0015 33.9708C20.0584 32.5558 21.1407 31.8955 22.7642 32.0134C24.1456 32.1077 24.9288 32.827 25 34.0533Z" fill="#FEFEFE"/>
<path d="M36.986 33.9483C36.6492 35.514 35.6668 36.1733 34.053 35.9614C32.7058 35.7848 31.8638 35.0431 32.0182 33.8541C32.2006 32.4766 33.3092 31.8527 34.909 32.0293C36.3124 32.1823 36.8877 33.0182 37 33.9483H36.986Z" fill="#FEFEFE"/>
<path d="M12.693 36C11.1756 35.8576 10.1104 35.2999 10.0083 34.1252C9.89158 32.6895 11.0151 31.9657 12.7076 32.0013C14.2105 32.025 15.0421 32.7844 14.9984 33.9947C14.9546 35.205 13.977 35.7983 12.693 36Z" fill="#FEFEFE"/>
</svg>
