<svg width="46" height="57" viewBox="0 0 46 57" fill="none" xmlns="http://www.w3.org/2000/svg">
<path d="M40.3069 27.9262C40.1864 29.8982 40.2632 31.9688 40.0716 34.029C39.9977 34.8269 39.8099 35.6106 39.6837 36.401C39.4855 37.6452 38.9828 38.7966 38.6954 40.0106C38.6764 40.0892 38.6413 40.1679 38.5987 40.238C38.0135 41.2093 37.4937 42.2186 36.8364 43.1482C34.8702 45.9324 32.3387 48.0002 29.1642 49.271C26.6887 50.2613 24.1117 50.6934 21.4607 50.5171C19.2403 50.3693 17.0124 50.0717 15.0386 48.963C13.6064 48.1594 12.1306 47.3994 10.9478 46.1873C10.4499 45.6775 9.88458 45.2255 9.39896 44.691C8.2902 43.4723 7.49728 42.0679 6.78877 40.5905C5.96834 38.881 5.40305 37.1051 5.1204 35.2363C5.04452 34.735 4.99995 34.229 4.95442 33.7239C4.78369 31.8352 4.67652 29.9447 4.64806 28.0456C4.59779 24.6426 4.78559 21.2737 5.73027 17.9835C6.73281 14.4942 8.55293 11.5234 11.5368 9.39779C13.0885 8.29188 14.6668 7.17271 16.5258 6.59654C17.9826 6.14546 19.467 5.80336 20.9874 5.64605C22.0146 5.53992 23.0352 5.71902 24.0586 5.7285C24.8837 5.73608 25.6548 6.02132 26.4667 6.10756C27.0624 6.17105 27.6353 6.46103 28.2167 6.65624C29.9989 7.25611 31.6663 8.07487 33.1326 9.26891C34.7953 10.6221 36.2455 12.1488 37.267 14.0649C37.5866 14.6639 37.9139 15.2666 38.2743 15.8456C38.4839 16.182 38.5607 16.5648 38.7001 16.9259C39.3631 18.6468 39.6666 20.4388 39.8867 22.2583C40.1105 24.1119 40.249 25.9683 40.3059 27.9252L40.3069 27.9262Z" stroke="#E9F35A" stroke-width="2" stroke-miterlimit="10"/>
<path d="M27.5194 42.8071C25.9269 43.642 24.2291 43.9244 22.445 43.8116C21.2263 43.7348 20.0634 43.4666 18.9613 42.9445C18.7858 42.8611 18.6398 42.9199 18.4852 42.9701C17.6107 43.2563 16.7495 43.5955 15.8219 43.6837C14.4485 43.8144 13.1661 43.5481 11.9948 42.8014C11.8696 42.7218 11.7529 42.6119 11.752 42.4716C11.751 42.3077 11.9369 42.3162 12.0488 42.2717C12.8806 41.9466 13.6707 41.5514 14.3138 40.9146C14.4058 40.8227 14.6182 40.7621 14.5016 40.5545C14.4001 40.3726 14.2408 40.401 14.0672 40.4256C13.5835 40.4958 13.1016 40.5024 12.6359 40.3148C12.4178 40.2276 12.3381 40.1385 12.5231 39.9082C13.3482 38.881 13.4677 37.667 13.3682 36.4171C13.297 35.5244 13.1083 34.6365 13.0884 33.7447C13.0732 33.0842 13.1073 32.4048 13.3274 31.7537C13.519 31.1861 13.6318 30.591 13.8291 30.0252C14.0387 29.4254 14.3166 28.8501 14.5481 28.2579C15.0839 26.8828 15.3533 25.4509 15.4652 23.9821C15.5458 22.9188 15.5212 21.8612 15.4776 20.798C15.4425 19.9356 15.708 19.1197 16.1472 18.3701C16.3796 17.9731 16.335 17.8717 15.9233 17.6717C15.6312 17.5296 15.3296 17.5371 15.0232 17.5343C14.9938 17.2898 15.1816 17.2178 15.3495 17.1969C16.2401 17.0823 17.0852 17.268 17.8943 17.6385C17.9379 17.6584 17.9607 17.7039 17.9806 17.7466C18.0299 17.9892 17.8203 18.0328 17.6809 18.1247C16.9743 18.5909 16.4773 19.1756 16.3217 20.055C16.1007 21.3002 16.8576 22.6933 18.3239 23.0269C19.758 23.3528 21.1447 22.5293 21.5108 21.0993C21.5374 20.997 21.5393 20.888 21.5962 20.7942C21.7109 20.7032 21.7659 20.6075 21.6369 20.4805C21.5848 20.4293 21.5696 20.3592 21.5791 20.2853C21.7024 20.1053 21.58 19.9461 21.5317 19.784C21.029 18.101 19.9515 17.0264 18.2035 16.6871C17.4703 16.5449 16.7343 16.4843 16.0011 16.7411C15.782 16.8179 15.6103 16.9136 15.4861 17.1022C15.286 17.2149 15.064 17.2822 14.8667 17.4007C14.7757 17.4556 14.6789 17.4973 14.5898 17.3921C15.3647 16.3317 16.445 15.8683 17.7008 16.091C18.5127 16.2351 19.2468 16.1555 20.0198 15.9792C21.5611 15.6276 23.1061 15.6314 24.6351 16.0759C24.8191 16.1289 24.9822 16.1138 25.151 16.0493C25.4489 15.9356 25.7362 15.7774 26.0445 15.712C27.4701 15.4125 28.7808 15.6447 29.9076 16.6274C30.0347 16.7383 30.1514 16.8586 30.0736 17.0519C30.0224 17.087 29.9626 17.1041 29.9086 17.0747C29.5994 16.9098 29.2693 16.7999 28.9335 16.7032C28.8368 16.6748 28.7723 16.6122 28.7439 16.5146C28.7581 16.3384 28.6224 16.3185 28.5001 16.273C26.9721 15.7091 25.6234 16.1659 24.3619 17.0264C23.4353 17.6584 23.0672 18.6127 22.9477 19.6864C22.9259 19.8863 22.8244 20.0901 22.9496 20.29C22.9629 20.3848 22.9069 20.4587 22.8567 20.5213C22.7751 20.6236 22.8112 20.6767 22.9098 20.7222C23.0805 20.8094 23.0891 20.9913 23.1469 21.141C23.6373 22.4166 24.545 22.8383 25.7476 22.807C27.0091 22.7738 27.9765 21.9219 28.2118 20.744C28.4204 19.6978 28.023 18.8496 27.2348 18.1692C27.048 18.0081 26.8279 17.8878 26.6183 17.7551C26.5197 17.6925 26.403 17.6452 26.4106 17.4964C26.4258 17.4234 26.4628 17.3647 26.5282 17.3287C27.2301 16.9392 27.9746 16.7089 28.7865 16.7487C28.925 16.7553 29.0806 16.7667 29.0882 16.9676C28.704 16.9496 28.3284 16.9676 28.0192 17.2415C27.8722 17.3713 27.7992 17.4869 27.9699 17.6821C28.7458 18.571 28.9715 19.658 29.0882 20.7932C29.2115 21.9949 29.1194 23.2012 29.1953 24.4047C29.2465 25.2216 29.5652 25.8508 30.1191 26.4043C30.7878 27.0724 31.4774 27.7215 31.962 28.5497C32.6079 29.6556 32.9646 30.8563 33.1656 32.1119C33.4331 33.7817 33.3942 35.4325 32.8365 37.0425C32.3063 38.5739 31.4299 39.894 30.2728 41.0265C30.1571 41.1402 30.0091 41.2236 29.8716 41.3136C29.7492 41.3932 29.6354 41.4055 29.5339 41.2653C29.4343 41.1269 29.4837 41.0302 29.5889 40.9279C30.0385 40.4901 30.4577 40.0257 30.8333 39.5216C31.7932 38.2337 32.5036 36.836 32.7199 35.2212C32.9399 33.5817 32.8081 32.0115 32.2039 30.4289C31.3114 28.0901 29.7217 26.4441 27.5905 25.2671C26.329 24.5706 24.95 24.2531 23.5026 24.2683C23.4334 24.2683 23.3651 24.2815 23.2949 24.2891C23.2977 24.3261 23.2911 24.3611 23.3025 24.3687C24.1153 24.8823 24.6645 25.6262 25.1406 26.4412C25.4489 26.97 25.5503 27.5557 25.5921 28.1385C25.7581 30.4403 24.7897 32.1641 22.8206 33.3306C22.0742 33.7732 21.3486 34.2186 20.8345 34.9511C19.4716 36.8919 19.6452 39.4192 21.2149 41.2387C21.9129 42.048 22.7912 42.5493 23.7606 42.8156C24.8807 43.1226 26.036 43.0203 27.1182 42.5086C27.2462 42.4479 27.3695 42.3759 27.5175 42.375C27.6816 42.518 27.6816 42.6611 27.5203 42.8061L27.5194 42.8071Z" fill="#E9F35A"/>
<path d="M11.3667 23.5841C11.2822 23.3528 11.1485 23.2439 10.9977 23.1491C10.1659 22.6307 9.32839 22.1199 8.50607 21.5864C8.26421 21.4291 8.06313 21.5049 7.81842 21.6063C7.71883 21.0861 7.89809 20.6227 8.02234 20.1536C8.06028 20.0105 8.21204 20.0304 8.32206 20.0067C9.39668 19.7707 10.495 19.6968 11.581 19.5367C11.8362 19.4988 12.0903 19.4514 12.3872 19.4021C12.3123 19.9195 12.171 20.4189 12.0287 20.9439C11.729 20.6947 11.4293 20.816 11.1324 20.8662C11.0167 20.8861 10.9816 20.9676 10.9512 21.0586C10.8953 21.2263 10.8317 21.3922 10.789 21.5637C10.66 22.083 11.0821 22.5587 11.6227 22.4782C11.7916 22.4526 11.8124 22.5151 11.8143 22.6298C11.8305 23.53 11.6891 24.3848 10.9636 25.0084C10.4808 25.4234 9.95438 25.7892 9.45169 26.1816C9.36443 26.2498 9.24303 26.2943 9.21552 26.4621C9.96861 26.4564 10.7151 26.7369 11.4805 26.3228C11.4805 26.5455 11.4833 26.7085 11.4805 26.8705C11.4767 27.0468 11.5355 27.2789 11.4463 27.387C11.3031 27.5585 11.157 27.2827 10.9939 27.2751C10.4988 27.2505 10.0037 27.2297 9.50765 27.2145C9.13016 27.2022 8.75172 27.2088 8.37328 27.1918C8.08494 27.1794 7.80514 27.1889 7.55 27.3405C7.40109 27.4287 7.29297 27.4154 7.29297 27.2202C7.29392 26.8904 7.30625 26.5597 7.32711 26.2299C7.33565 26.0972 7.46749 26.0461 7.55949 25.9788C8.11245 25.5741 8.67015 25.1771 9.22406 24.7724C9.37297 24.6634 9.5105 24.5383 9.71442 24.3706C8.97651 24.273 8.32491 24.1754 7.68374 24.4104C7.47223 24.4881 7.41627 24.4474 7.43239 24.2313C7.45421 23.9375 7.35083 23.5566 7.49974 23.3708C7.67805 23.1463 7.98915 23.4647 8.25282 23.5083C9.27717 23.676 10.3034 23.5698 11.3695 23.5841H11.3667Z" fill="#E9F35A"/>
<path d="M16.4481 12.0824C16.7156 12.5771 16.9641 13.0879 17.3975 13.4651C17.5227 13.574 17.5256 13.6385 17.407 13.7389C17.0883 14.0081 16.7137 14.1862 16.3542 14.3881C16.2632 14.4392 16.1778 14.426 16.1806 14.3094C16.1892 13.9341 15.9312 13.6821 15.7652 13.3902C15.3166 12.5999 14.8661 11.8095 14.2344 11.1433C14.1727 11.0779 14.0779 11.0107 14.2107 10.9197C14.9875 10.3899 15.7178 9.77776 16.7052 9.64604C17.1879 9.5816 17.573 9.68489 17.8376 10.1056C18.0681 10.4733 18.0311 10.859 17.8177 11.2106C17.6963 11.4106 17.7684 11.4949 17.9145 11.6105C18.3602 11.9649 18.843 12.2578 19.3514 12.5108C19.4538 12.562 19.579 12.5771 19.6473 12.687C18.9521 13.3902 18.4039 13.4594 17.6138 12.9277C17.2145 12.6586 16.8304 12.3677 16.4396 12.0872C16.377 11.8844 16.4823 11.7252 16.5724 11.5603C16.6786 11.367 16.7317 11.1623 16.6065 10.9585C16.4946 10.7766 16.3239 10.6932 16.1256 10.7984C15.9208 10.9064 16.0052 11.0732 16.0877 11.2229C16.2404 11.4958 16.4519 11.7441 16.4472 12.0834L16.4481 12.0824Z" fill="#E9F35A"/>
<path d="M34.8824 15.2439C35.3946 16.1697 36.1012 16.9582 36.1079 18.0584C36.1135 18.9113 35.5606 19.622 34.6548 19.949C33.8125 20.2532 32.9988 20.0399 32.4496 19.3681C32.0626 18.8942 31.8502 18.3285 31.6073 17.7779C31.5267 17.595 31.3551 17.3922 31.3892 17.2349C31.4328 17.0368 31.7325 17.1837 31.8871 17.0899C32.8774 16.4882 34.0971 16.2693 34.8815 15.2439H34.8824Z" fill="#E9F35A"/>
<path d="M10.3476 14.6838C10.5828 14.3237 10.8143 13.9825 11.0808 13.666C11.2136 13.5087 11.3208 13.4272 11.4222 13.6869C11.4792 13.8338 11.5901 13.939 11.7058 14.0432C12.2673 14.5492 12.8231 15.061 13.3837 15.568C13.6341 15.7954 13.9234 15.8077 14.1406 15.6078C14.3284 15.4353 14.3957 14.8515 14.2165 14.6895C13.5354 14.0726 13.0271 13.2756 12.2313 12.7781C12.1127 12.7032 12.1014 12.6331 12.1962 12.527C12.4551 12.2341 12.7321 11.9612 13.0441 11.7253C13.1703 11.6295 13.2794 11.6362 13.2869 11.8096C13.2964 12.0143 13.4321 12.1223 13.5535 12.2484C14.1852 12.9022 14.8159 13.5571 15.4476 14.2109C15.5291 14.2953 15.6079 14.39 15.7264 14.4232C16.0536 14.5132 16.0555 14.6478 15.8051 14.8515C15.6316 14.9927 15.4817 15.1624 15.3167 15.314C15.2579 15.368 15.1564 15.4637 15.1251 15.4467C14.7656 15.2505 14.8102 15.5717 14.7599 15.7347C14.5124 16.5402 14.0637 16.9402 13.4188 16.924C13.0783 16.9155 12.8099 16.7601 12.568 16.5402C11.9989 16.0247 11.426 15.5139 10.8636 14.9927C10.7137 14.8534 10.5364 14.771 10.3467 14.6829L10.3476 14.6838Z" fill="#E9F35A"/>
<path d="M33.5955 27.314C33.4503 26.9179 33.384 26.553 33.4181 26.1749C33.4428 25.9077 33.5993 25.721 33.8136 25.576C34.1323 25.359 34.451 25.142 34.8294 24.8833C34.3666 24.7847 33.991 24.8312 33.6353 24.9913C33.4485 25.0757 33.3735 25.0245 33.3565 24.8416C33.3166 24.4095 33.3043 23.9773 33.3422 23.5575C34.1067 23.7196 34.8475 23.5822 35.5806 23.5452C36.1355 23.5168 36.7207 23.6295 37.248 23.3348C37.3789 23.2619 37.4207 23.3576 37.4282 23.4609C37.4795 24.1991 37.6673 24.9269 37.5459 25.6803C37.4681 26.1588 37.2158 26.4564 36.7747 26.5947C36.3441 26.7293 35.9572 26.5758 35.6963 26.2441C35.4877 25.9788 35.3435 26.0451 35.1206 26.1835C34.5904 26.5132 34.0839 26.8743 33.5955 27.314Z" fill="#E9F35A"/>
<path d="M22.3017 12.435C22.7627 11.2845 22.6697 10.0744 22.8471 8.90688C22.849 8.89551 22.8452 8.88224 22.8499 8.87182C22.9135 8.72588 22.6157 8.54867 22.8585 8.44443C22.997 8.38567 23.1838 8.4359 23.3479 8.44064C24.082 8.46149 24.8085 8.55151 25.5256 8.71167C25.6546 8.74009 25.8196 8.73725 25.83 8.94194C25.8405 9.15043 25.7855 9.34375 25.6811 9.51622C25.6309 9.59961 25.5588 9.50769 25.5057 9.47357C25.1528 9.24519 24.7497 9.21866 24.3495 9.1817C24.0431 9.15327 24.0479 9.39302 24.0317 9.5854C24.0166 9.76829 23.9322 9.97962 24.2556 10.0403C24.8294 10.1483 24.9148 10.2895 24.7659 10.6941C24.7194 10.8202 24.6815 10.8496 24.5401 10.8041C23.9587 10.6174 23.8629 10.6913 23.8269 11.3073C23.8047 11.6876 23.9808 11.9134 24.3552 11.9848C24.7175 12.054 25.0798 12.0095 25.4459 11.9574C25.3501 12.5695 25.0514 12.7951 24.4965 12.6842C23.769 12.5392 23.0273 12.5004 22.3008 12.434L22.3017 12.435Z" fill="#E9F35A"/>
<path d="M33.3088 20.5118C34.1416 20.4909 35.0417 20.2777 35.955 20.1593C36.1808 20.1299 36.3534 19.9584 36.5241 19.8124C36.7034 19.6589 36.8077 19.639 36.8637 19.9195C37.0221 20.7193 37.1454 21.5239 37.2336 22.3341C37.2791 22.752 36.9291 22.6516 36.7214 22.6819C36.4454 22.7217 36.5469 22.4952 36.564 22.3644C36.5839 22.209 36.5763 22.0593 36.5564 21.9067C36.4862 21.3523 36.435 21.3334 35.8877 21.4026C35.5187 21.449 35.4884 21.6461 35.5368 21.9389C35.5766 22.1777 35.5804 22.372 35.2285 22.3834C34.9421 22.3929 34.8738 22.3237 34.8956 22.0413C34.9278 21.6101 34.8283 21.5428 34.3995 21.6139C33.6379 21.7399 33.6076 21.7864 33.7498 22.5473C33.7783 22.6999 33.8039 22.8534 33.8883 22.9832C34.0467 23.2268 33.95 23.2818 33.7053 23.2723C33.2424 23.2533 33.1011 23.0865 33.0556 22.6288C33.0024 22.0896 32.8934 21.5561 32.8071 21.0207C32.752 20.6801 32.9199 20.5115 33.3107 20.5146L33.3088 20.5118Z" fill="#E9F35A"/>
<path d="M31.8736 16.5355C31.6573 16.7554 31.4193 16.816 31.1774 16.87C31.0199 16.9051 30.9118 16.853 30.817 16.7194C30.4452 16.2001 30.0203 15.7243 29.5716 15.2714C29.4161 15.1141 29.4474 15.0449 29.6172 14.9321C30.5438 14.318 31.259 13.4841 31.9741 12.6502C32.1022 12.5004 32.1429 12.3204 32.1951 12.111C32.3753 12.1877 32.4806 12.3318 32.6039 12.4474C33.1493 12.9553 33.6548 13.4993 34.0921 14.1039C34.166 14.2062 34.2723 14.3114 34.1679 14.4507C34.0513 14.6061 33.89 14.7094 33.7079 14.7625C33.6188 14.789 33.6169 14.6725 33.5932 14.6146C33.4841 14.3484 33.3029 14.1323 33.1341 13.9049C32.9558 13.6623 32.7983 13.6964 32.62 13.8869C32.5878 13.921 32.5527 13.9532 32.5195 13.9864C32.1685 14.3313 32.1562 14.3446 32.5081 14.6725C32.7025 14.8535 32.7006 14.9804 32.528 15.1643C32.3364 15.369 32.2112 15.4609 32.0339 15.1302C31.8518 14.7909 31.7256 14.7937 31.4287 15.0316C30.724 15.5964 30.7269 15.7262 31.4619 16.2711C31.5843 16.3612 31.7171 16.437 31.8726 16.5365L31.8736 16.5355Z" fill="#E9F35A"/>
<path d="M20.7452 11.2514C20.9425 10.4791 21.098 9.77026 21.1464 9.03868C21.1597 8.83872 21.0629 8.70889 20.9083 8.58096C21.2251 8.39522 21.5315 8.45019 21.8113 8.48241C22.0332 8.50799 21.9137 8.74206 21.8928 8.8662C21.7345 9.79585 21.559 10.7226 21.3845 11.6494C21.3276 11.9508 21.2564 12.2484 21.1967 12.5488C21.1682 12.689 21.1198 12.8065 20.9491 12.7828C20.5707 12.7307 20.2036 12.6464 19.9589 12.3137C19.4325 11.5954 19.0882 10.7757 18.6652 9.99959C18.5296 9.75131 18.4101 9.49165 18.1891 9.30212C18.061 9.19219 18.0705 9.11164 18.227 9.0491C18.2602 9.03583 18.2943 9.0273 18.3275 9.01404C19.3272 8.6056 19.4041 8.64161 19.8574 9.594C20.0955 10.0944 20.3639 10.5795 20.62 11.0714C20.6409 11.1112 20.6722 11.1462 20.7471 11.2514H20.7452Z" fill="#E9F35A"/>
<path d="M12.9061 17.612C13.222 17.558 13.2343 17.6755 13.1252 17.901C12.9811 18.1986 12.8511 18.5028 12.7259 18.8089C12.632 19.0382 12.5362 19.0856 12.3171 18.915C11.528 18.3 10.5406 18.1029 9.65476 17.6888C9.50585 17.6187 9.46601 17.7286 9.43282 17.8309C9.32564 18.1569 9.22605 18.4857 9.20803 18.8307C9.19854 19.007 9.13784 19.0648 8.96522 18.9946C8.21972 18.6942 8.28042 18.9207 8.49383 18.1436C8.78501 17.087 9.31426 16.1356 9.83212 15.1794C9.92887 15.0003 10.0152 14.9956 10.1527 15.114C10.2153 15.168 10.2817 15.2183 10.35 15.2647C10.5596 15.4087 10.6763 15.5319 10.3917 15.7461C10.2144 15.8797 10.1935 16.1403 10.1062 16.346C10.0569 16.4625 10.1413 16.4947 10.2115 16.5298C11.0253 16.9382 11.8524 17.3173 12.7221 17.5921C12.7876 17.613 12.8606 17.6082 12.9052 17.612H12.9061Z" fill="#E9F35A"/>
<path d="M24.783 14.1332C24.7754 14.0356 24.8229 13.9777 24.876 13.9342C25.3768 13.5267 25.5864 12.9524 25.7941 12.3705C26.0786 11.5698 26.3803 10.7747 26.679 9.97868C26.7625 9.75598 26.8422 9.53992 26.8033 9.29258C26.771 9.0841 26.8621 9.01208 27.0707 9.09168C27.4568 9.23857 27.8456 9.37598 28.2345 9.51528C28.3626 9.56077 28.4214 9.63942 28.3161 9.7484C27.673 10.4155 27.5175 11.312 27.195 12.1289C27.0176 12.579 26.8384 13.0282 26.6525 13.4755C26.477 13.8963 26.1735 14.099 25.7495 14.1711C25.4232 14.226 25.0989 14.2554 24.784 14.1341L24.783 14.1332Z" fill="#E9F35A"/>
<path d="M29.7542 14.3512C29.6205 14.5511 29.464 14.6705 29.3018 14.7804C29.1595 14.8762 29.003 14.8762 28.8769 14.7567C28.3998 14.3057 27.8317 13.9882 27.2768 13.6518C27.0558 13.5182 27.0511 13.4272 27.2626 13.2879C27.6192 13.0529 27.8042 12.67 28.0432 12.3355C28.4273 11.7972 28.8038 11.2542 29.1832 10.7122C29.2107 10.6733 29.2288 10.6184 29.2667 10.5994C29.4308 10.5141 29.2648 10.1891 29.5152 10.2137C29.6632 10.2279 29.8007 10.3701 29.9411 10.4563C30.1924 10.6108 30.4438 10.7653 30.6932 10.9245C30.8042 10.9955 30.9028 11.0856 30.7169 11.1784C30.0473 11.513 29.6783 12.1213 29.2914 12.7165C29.1368 12.9543 28.9869 13.1969 28.8086 13.4149C28.6616 13.5949 28.6881 13.7314 28.8437 13.8679C29.0998 14.0934 29.3691 14.299 29.7552 14.3512H29.7542Z" fill="#E9F35A"/>
<path d="M30.0918 44.3015C30.3062 44.0494 30.4997 43.9073 30.5945 43.6893C30.6856 43.4809 30.6638 43.3425 30.4352 43.2354C30.0226 43.0421 29.8158 42.6574 29.8671 42.2375C29.9097 41.885 30.2189 41.5448 30.5623 41.4737C30.9265 41.3979 31.3514 41.5941 31.58 41.9713C31.9129 42.5228 31.7887 43.0743 31.4889 43.5794C31.2091 44.0513 30.7672 44.3015 30.0918 44.3015Z" fill="#E9F35A"/>
<path d="M27.5194 42.8072C27.5194 42.6631 27.5176 42.52 27.5166 42.376C27.6124 41.7439 27.9766 41.5837 28.4935 41.5477C28.8976 41.5193 29.3121 41.9931 29.369 42.4736C29.4657 43.2905 29.1138 43.9538 28.393 44.313C28.1929 44.4125 28.1805 44.4134 27.9273 44.348C27.9254 44.3281 27.915 44.3016 27.9244 44.2883C28.3655 43.6562 28.3626 43.6591 27.7793 43.1388C27.6759 43.0469 27.6048 42.919 27.5185 42.8072H27.5194Z" fill="#E9F35A"/>
<path d="M28.7966 16.4853C29.2461 16.6199 29.7137 16.7137 30.0723 17.0529C30.1349 17.1297 30.2553 17.2017 30.1462 17.3126C30.0561 17.4045 29.9755 17.2974 29.9015 17.2576C29.6445 17.1202 29.378 17.0122 29.0877 16.9667C28.6514 16.8113 28.2237 16.9383 27.8007 17.0217C27.3245 17.1155 26.8844 17.3211 26.4548 17.5448C26.4842 17.7476 26.3163 17.8035 26.1921 17.8812C25.4987 18.319 24.8708 18.8402 24.2448 19.3652C23.8351 19.7073 23.523 20.1318 23.2025 20.5488C23.1057 20.6748 23.008 20.7848 22.842 20.8094C22.7975 20.8625 22.7538 20.9165 22.7064 20.9677C22.6666 21.0103 22.6201 21.0586 22.5575 21.0255C22.4797 20.9847 22.4854 20.9023 22.5167 20.8426C22.6135 20.6578 22.7225 20.4796 22.8259 20.2996C22.8364 20.0503 22.9407 19.8371 23.0943 19.6504C24.0542 18.4867 25.1288 17.4538 26.5079 16.7961C27.1045 16.5118 27.7324 16.3014 28.4086 16.3128C28.5547 16.3157 28.7264 16.291 28.7966 16.4824V16.4853Z" fill="#E9F35A"/>
<path d="M14.5887 17.3931C14.8334 17.2121 15.0971 17.068 15.3873 16.9752C15.8796 16.6738 16.4174 16.6653 16.9447 16.8046C18.1597 17.1249 19.2125 17.7636 20.197 18.5312C20.6855 18.9122 21.0611 19.3955 21.487 19.8342C21.6131 19.964 21.7155 20.1157 21.7004 20.3128C21.7753 20.417 21.8607 20.5156 21.9214 20.6274C21.9783 20.7326 22.1177 20.8691 21.9897 20.9648C21.8749 21.051 21.818 20.8491 21.7193 20.8008C21.5363 20.8586 21.4395 20.743 21.3362 20.6208C20.4797 19.6115 19.4525 18.8127 18.2991 18.1702C18.1531 18.0887 17.9482 18.0564 17.9416 17.8252C17.2302 17.5182 16.4904 17.3419 15.7136 17.3211C15.4556 17.3144 15.2214 17.3637 15.0222 17.5352C14.8258 17.5978 14.6409 17.7039 14.4189 17.6954C14.4256 17.558 14.5252 17.486 14.5887 17.3931Z" fill="#E9F35A"/>
<path d="M17.9419 17.8252C19.4642 18.4829 20.6574 19.5584 21.7197 20.8008C21.5964 22.4829 19.8958 23.6286 18.1914 23.1775C16.9669 22.8534 16.1626 21.8698 16.1029 20.6208C16.0441 19.3898 16.7886 18.2573 17.9419 17.8252Z" fill="#FEFEFE"/>
<path d="M22.8418 20.8113C23.0324 20.4114 23.3246 20.0835 23.6271 19.7708C24.4675 18.9018 25.3818 18.1228 26.4545 17.5466C26.7609 17.5599 26.9677 17.775 27.201 17.9285C28.231 18.6061 28.7043 20.0105 28.2965 21.1429C27.8659 22.3408 26.6347 23.0942 25.3657 22.9804C23.9942 22.8582 23.207 22.0887 22.8418 20.8113Z" fill="#FEFEFE"/>
<path d="M28.7965 16.4853C27.5958 16.4294 26.5543 16.8691 25.5888 17.5306C24.4952 18.2811 23.5818 19.2136 22.8259 20.3015C22.6808 19.4088 22.9075 18.59 23.3561 17.83C24.1262 16.5261 26.5923 15.3529 28.4722 16.0731C28.7017 16.1612 28.9303 16.2493 29.1399 16.4038C29.0299 16.5261 28.898 16.436 28.7965 16.4853Z" stroke="#E9F35A" stroke-miterlimit="10"/>
<path d="M21.7007 20.3128C20.5891 18.9813 19.2992 17.8897 17.6716 17.2235C16.9261 16.9183 16.1749 16.8198 15.3877 16.9742C15.8174 16.525 16.3741 16.3952 16.9622 16.3848C18.8269 16.3535 20.3093 17.0548 21.2967 18.6828C21.5385 19.0818 21.6818 19.5168 21.7482 19.9773C21.7643 20.0901 21.8003 20.2123 21.7007 20.3118V20.3128Z" fill="#FEFEFE"/>
<path d="M23.0243 22.5255C22.9114 22.9956 22.7777 23.4846 22.514 23.9233C22.4021 24.11 22.2778 24.0645 22.219 23.8807C22.0862 23.4666 21.9667 23.0496 21.7922 22.6478C21.7012 22.4374 22.0806 21.4386 22.2608 21.3154C22.3167 21.2765 22.3651 21.2765 22.4201 21.3154C22.5112 21.3779 23.0252 22.3806 23.0243 22.5255Z" fill="#FEFEFE"/>
<path d="M9.30368 21.1458C9.50191 21.0538 9.67169 21.0254 9.84716 21.014C10.2247 20.9885 10.2256 21.0036 10.1526 21.3675C10.1032 21.6158 9.99607 21.6205 9.81681 21.5116C9.64893 21.4083 9.46777 21.3239 9.30273 21.1458H9.30368Z" fill="#FCFCFC"/>
<path d="M16.4485 12.0825C16.1355 11.7536 15.9658 11.3348 15.7362 10.9538C15.6774 10.8562 15.6869 10.7804 15.7922 10.7188C16.0321 10.5776 16.274 10.4487 16.5529 10.6183C16.8156 10.7785 16.937 11.1206 16.8431 11.4238C16.7644 11.6788 16.5898 11.8749 16.4409 12.0872L16.4495 12.0825H16.4485Z" fill="#FDFDFD"/>
<path d="M33.549 18.8847C33.1952 18.8553 32.8812 18.7833 32.6925 18.4554C32.5701 18.2431 32.5834 18.0934 32.8329 17.9778C33.4314 17.7001 34.0213 17.4016 34.616 17.1154C34.9783 16.941 35.2458 17.1173 35.2344 17.5352C35.2278 17.7854 35.1604 18.0299 34.9783 18.2166C34.5838 18.6193 34.1019 18.8449 33.549 18.8847Z" fill="#FEFEFE"/>
<path d="M36.5874 24.7364C36.6424 24.744 36.7695 24.6881 36.8217 24.8198C36.8634 24.925 36.8217 25.0264 36.7638 25.1202C36.6367 25.3306 36.4395 25.378 36.2137 25.3552C35.9595 25.3297 35.767 25.1932 35.6446 24.9809C35.5593 24.8331 35.6902 24.8047 35.803 24.7961C36.0496 24.7762 36.2962 24.7582 36.5865 24.7364H36.5874Z" fill="#FBFBFB"/>
<path d="M19.2812 22.263C18.1468 22.2469 17.3624 21.2566 17.6251 20.1725C17.7883 19.4987 18.4512 19.0837 19.1152 19.2846C19.7421 19.4751 20.3027 19.8058 20.7911 20.2483C20.8917 20.3393 20.9495 20.4464 20.9495 20.5895C20.9495 21.3088 20.0855 22.3644 19.2812 22.263Z" fill="#E9F35A"/>
<path d="M26.8426 20.3298C26.8445 21.1837 26.2365 21.9029 25.4227 22.0081C24.7133 22.1 23.8103 21.4793 23.6026 20.761C23.558 20.6084 23.5267 20.453 23.614 20.3156C24.0579 19.6096 24.6298 19.0619 25.5015 18.9747C26.3238 18.8932 26.8417 19.4381 26.8435 20.3298H26.8426Z" fill="#E9F35A"/>
<path d="M19.2719 21.9579C18.5008 21.9579 17.9014 21.359 17.9023 20.5904C17.9023 20.1706 18.1916 19.784 18.5729 19.6978C18.6649 19.6769 18.7854 19.6418 18.8413 19.7186C18.9134 19.8162 18.7863 19.8806 18.7351 19.9498C18.3434 20.4796 18.3633 20.8311 18.7854 21.2671C19.0785 21.5703 19.4209 21.6177 19.7908 21.4907C20.1692 21.3609 20.3779 21.0785 20.431 20.6757C20.4443 20.5781 20.3523 20.3905 20.5372 20.399C20.6965 20.4056 20.6425 20.5838 20.6425 20.6918C20.6434 21.4111 20.0459 21.9598 19.27 21.9588L19.2719 21.9579Z" fill="#FDFDFD"/>
<path d="M24.007 20.2322C24.1815 20.9183 24.5637 21.3277 25.0456 21.3618C25.4648 21.3912 25.8328 21.1524 25.9855 20.7506C26.1724 20.2578 26.0092 19.8996 25.3747 19.4106C25.7598 19.2543 26.2236 19.4106 26.436 19.7669C26.7044 20.2199 26.62 20.889 26.2444 21.2775C25.8006 21.7371 25.1537 21.8792 24.6662 21.6149C24.2915 21.4111 24.0013 21.1306 23.8789 20.7042C23.8296 20.5336 23.8287 20.381 24.0079 20.2313L24.007 20.2322Z" fill="#FDFDFD"/>
</svg>
