<svg width="47" height="58" viewBox="0 0 47 58" fill="none" xmlns="http://www.w3.org/2000/svg">
<path d="M40.342 28.8671C40.2216 30.8391 40.2984 32.9098 40.1068 34.9699C40.0328 35.7679 39.845 36.5516 39.7189 37.3419C39.5206 38.5862 39.018 39.7375 38.7306 40.9515C38.7116 41.0301 38.6765 41.1088 38.6338 41.1789C38.0486 42.1503 37.5288 43.1595 36.8716 44.0891C34.9054 46.8733 32.3739 48.9411 29.1994 50.2119C26.7238 51.2022 24.1468 51.6343 21.4959 51.458C19.2755 51.3102 17.0475 51.0126 15.0737 49.9039C13.6415 49.1003 12.1657 48.3403 10.983 47.1282C10.485 46.6184 9.91974 46.1664 9.43412 45.6319C8.32535 44.4132 7.53243 43.0088 6.82392 41.5314C6.00349 39.8219 5.4382 38.046 5.15556 36.1772C5.07968 35.6759 5.0351 35.1699 4.98957 34.6648C4.81885 32.7761 4.71167 30.8856 4.68322 28.9865C4.63295 25.5835 4.82075 22.2146 5.76543 18.9244C6.76796 15.4351 8.58808 12.4643 11.572 10.3387C13.1237 9.2328 14.7019 8.11363 16.5609 7.53746C18.0178 7.08638 19.5022 6.74428 21.0226 6.58697C22.0498 6.48084 23.0703 6.65994 24.0937 6.66942C24.9189 6.677 25.69 6.96224 26.5019 7.04848C27.0975 7.11197 27.6704 7.40195 28.2518 7.59716C30.034 8.19702 31.7014 9.01579 33.1678 10.2098C34.8304 11.5631 36.2807 13.0897 37.3022 15.0059C37.6218 15.6048 37.949 16.2075 38.3094 16.7865C38.5191 17.1229 38.5959 17.5058 38.7353 17.8668C39.3983 19.5877 39.7018 21.3797 39.9218 23.1992C40.1457 25.0528 40.2842 26.9093 40.3411 28.8661L40.342 28.8671Z" stroke="#9BBEBB" stroke-width="2" stroke-miterlimit="10"/>
<path d="M27.5545 43.7481C25.962 44.583 24.2643 44.8654 22.4802 44.7526C21.2614 44.6759 20.0986 44.4077 18.9965 43.8855C18.821 43.8021 18.6749 43.8609 18.5203 43.9111C17.6458 44.1973 16.7846 44.5366 15.857 44.6247C14.4836 44.7555 13.2013 44.4892 12.0299 43.7424C11.9047 43.6628 11.7881 43.5529 11.7871 43.4127C11.7862 43.2487 11.9721 43.2572 12.084 43.2127C12.9158 42.8877 13.7059 42.4925 14.3489 41.8557C14.4409 41.7637 14.6534 41.7031 14.5367 41.4956C14.4353 41.3136 14.2759 41.342 14.1023 41.3667C13.6186 41.4368 13.1368 41.4434 12.6711 41.2558C12.4529 41.1686 12.3733 41.0795 12.5582 40.8493C13.3834 39.822 13.5029 38.6081 13.4033 37.3581C13.3322 36.4655 13.1434 35.5775 13.1235 34.6858C13.1083 34.0253 13.1425 33.3458 13.3625 32.6948C13.5541 32.1271 13.667 31.532 13.8643 30.9663C14.0739 30.3664 14.3518 29.7912 14.5832 29.1989C15.1191 27.8239 15.3885 26.392 15.5004 24.9231C15.581 23.8599 15.5563 22.8023 15.5127 21.739C15.4776 20.8767 15.7432 20.0607 16.1823 19.3112C16.4147 18.9141 16.3701 18.8127 15.9585 18.6127C15.6664 18.4706 15.3648 18.4782 15.0584 18.4753C15.029 18.2308 15.2168 18.1588 15.3847 18.138C16.2753 18.0233 17.1204 18.209 17.9294 18.5796C17.9731 18.5995 17.9958 18.645 18.0157 18.6876C18.0651 18.9302 17.8554 18.9738 17.716 19.0657C17.0094 19.532 16.5124 20.1167 16.3569 20.9961C16.1359 22.2413 16.8927 23.6343 18.3591 23.9679C19.7932 24.2939 21.1798 23.4704 21.546 22.0404C21.5725 21.938 21.5744 21.8291 21.6313 21.7352C21.7461 21.6443 21.8011 21.5485 21.6721 21.4216C21.6199 21.3704 21.6048 21.3003 21.6142 21.2263C21.7375 21.0463 21.6152 20.8871 21.5668 20.725C21.0641 19.042 19.9867 17.9674 18.2386 17.6281C17.5055 17.486 16.7694 17.4253 16.0363 17.6822C15.8172 17.7589 15.6455 17.8546 15.5213 18.0432C15.3211 18.156 15.0992 18.2233 14.9019 18.3417C14.8108 18.3967 14.7141 18.4384 14.6249 18.3332C15.3998 17.2728 16.4802 16.8094 17.7359 17.0321C18.5478 17.1761 19.2819 17.0965 20.055 16.9202C21.5962 16.5687 23.1413 16.5725 24.6702 17.0169C24.8542 17.07 25.0174 17.0548 25.1862 16.9904C25.484 16.8766 25.7714 16.7184 26.0797 16.653C27.5052 16.3535 28.816 16.5857 29.9428 17.5684C30.0699 17.6793 30.1865 17.7997 30.1088 17.993C30.0576 18.028 29.9978 18.0451 29.9437 18.0157C29.6345 17.8508 29.3045 17.7409 28.9687 17.6442C28.872 17.6158 28.8075 17.5533 28.779 17.4557C28.7932 17.2794 28.6576 17.2595 28.5353 17.214C27.0073 16.6502 25.6585 17.1069 24.3971 17.9674C23.4704 18.5995 23.1024 19.5538 22.9829 20.6274C22.9611 20.8274 22.8596 21.0311 22.9848 21.2311C22.9981 21.3259 22.9421 21.3998 22.8918 21.4623C22.8103 21.5647 22.8463 21.6177 22.945 21.6632C23.1157 21.7504 23.1242 21.9323 23.1821 22.0821C23.6724 23.3576 24.5801 23.7793 25.7828 23.748C27.0443 23.7149 28.0117 22.8629 28.2469 21.685C28.4556 20.6388 28.0582 19.7907 27.27 19.1103C27.0831 18.9492 26.8631 18.8288 26.6535 18.6961C26.5548 18.6336 26.4382 18.5862 26.4458 18.4374C26.4609 18.3645 26.4979 18.3057 26.5634 18.2697C27.2652 17.8802 28.0098 17.6499 28.8217 17.6897C28.9602 17.6964 29.1157 17.7077 29.1233 17.9086C28.7392 17.8906 28.3636 17.9086 28.0544 18.1825C27.9074 18.3123 27.8343 18.4279 28.0051 18.6232C28.7809 19.5121 29.0066 20.599 29.1233 21.7343C29.2466 22.9359 29.1546 24.1423 29.2305 25.3458C29.2817 26.1626 29.6004 26.7919 30.1543 27.3453C30.823 28.0134 31.5125 28.6625 31.9972 29.4908C32.6431 30.5967 32.9997 31.7973 33.2008 33.053C33.4683 34.7227 33.4294 36.3735 32.8717 37.9836C32.3415 39.515 31.4651 40.8351 30.308 41.9675C30.1922 42.0812 30.0443 42.1646 29.9067 42.2546C29.7844 42.3342 29.6706 42.3466 29.5691 42.2063C29.4695 42.0679 29.5188 41.9713 29.6241 41.8689C30.0737 41.4311 30.4929 40.9668 30.8685 40.4626C31.8284 39.1748 32.5388 37.777 32.755 36.1622C32.9751 34.5228 32.8432 32.9525 32.239 31.37C31.3465 29.0312 29.7569 27.3851 27.6257 26.2081C26.3642 25.5116 24.9851 25.1941 23.5377 25.2093C23.4685 25.2093 23.4002 25.2226 23.33 25.2302C23.3329 25.2671 23.3262 25.3022 23.3376 25.3098C24.1505 25.8234 24.6996 26.5673 25.1758 27.3823C25.484 27.911 25.5855 28.4967 25.6272 29.0795C25.7932 31.3813 24.8248 33.1051 22.8558 34.2717C22.1093 34.7142 21.3838 35.1596 20.8697 35.8921C19.5067 37.8329 19.6803 40.3603 21.25 42.1798C21.9481 42.9891 22.8264 43.4904 23.7957 43.7566C24.9159 44.0637 26.0711 43.9613 27.1533 43.4496C27.2814 43.389 27.4047 43.3169 27.5526 43.316C27.7167 43.4591 27.7167 43.6022 27.5555 43.7472L27.5545 43.7481Z" fill="#9BBEBB"/>
<path d="M11.4018 24.525C11.3174 24.2938 11.1837 24.1848 11.0329 24.09C10.2011 23.5716 9.36355 23.0609 8.54122 22.5273C8.29936 22.37 8.09829 22.4458 7.85358 22.5472C7.75399 22.027 7.93325 21.5636 8.0575 21.0945C8.09544 20.9514 8.2472 20.9713 8.35722 20.9476C9.43184 20.7117 10.5302 20.6377 11.6162 20.4776C11.8713 20.4397 12.1255 20.3923 12.4224 20.343C12.3474 20.8604 12.2061 21.3598 12.0639 21.8848C11.7641 21.6356 11.4644 21.7569 11.1675 21.8071C11.0518 21.827 11.0167 21.9085 10.9864 21.9995C10.9304 22.1672 10.8669 22.3331 10.8242 22.5046C10.6952 23.0239 11.1173 23.4996 11.6579 23.4191C11.8267 23.3935 11.8476 23.456 11.8495 23.5707C11.8656 24.471 11.7243 25.3257 10.9987 25.9493C10.5159 26.3644 9.98954 26.7302 9.48685 27.1225C9.39959 27.1907 9.27819 27.2353 9.25068 27.403C10.0038 27.3973 10.7502 27.6778 11.5156 27.2637C11.5156 27.4864 11.5185 27.6494 11.5156 27.8114C11.5118 27.9877 11.5706 28.2199 11.4815 28.3279C11.3383 28.4994 11.1922 28.2236 11.0291 28.2161C10.534 28.1914 10.0389 28.1706 9.54281 28.1554C9.16532 28.1431 8.78688 28.1497 8.40844 28.1327C8.1201 28.1204 7.8403 28.1298 7.58516 28.2815C7.43625 28.3696 7.32812 28.3563 7.32812 28.1611C7.32907 27.8313 7.3414 27.5006 7.36227 27.1708C7.37081 27.0381 7.50264 26.987 7.59465 26.9197C8.14761 26.515 8.70531 26.118 9.25922 25.7133C9.40813 25.6044 9.54566 25.4793 9.74958 25.3115C9.01166 25.2139 8.36006 25.1163 7.7189 25.3513C7.50739 25.429 7.45143 25.3883 7.46755 25.1722C7.48937 24.8785 7.38598 24.4975 7.53489 24.3118C7.71321 24.0872 8.0243 24.4056 8.28798 24.4492C9.31233 24.6169 10.3386 24.5108 11.4047 24.525H11.4018Z" fill="#9BBEBB"/>
<path d="M16.4833 13.0234C16.7507 13.518 16.9992 14.0288 17.4327 14.406C17.5579 14.515 17.5607 14.5794 17.4422 14.6798C17.1235 14.949 16.7488 15.1271 16.3894 15.329C16.2983 15.3802 16.213 15.3669 16.2158 15.2503C16.2243 14.8751 15.9664 14.623 15.8004 14.3311C15.3517 13.5408 14.9012 12.7504 14.2695 12.0842C14.2079 12.0189 14.113 11.9516 14.2458 11.8606C15.0226 11.3309 15.753 10.7187 16.7403 10.587C17.2231 10.5225 17.6082 10.6258 17.8728 11.0466C18.1033 11.4143 18.0663 11.7999 17.8529 12.1515C17.7315 12.3515 17.8035 12.4358 17.9496 12.5514C18.3954 12.9059 18.8782 13.1987 19.3866 13.4517C19.489 13.5029 19.6142 13.518 19.6825 13.628C18.9872 14.3311 18.439 14.4003 17.6489 13.8687C17.2496 13.5995 16.8655 13.3086 16.4747 13.0281C16.4121 12.8253 16.5174 12.6661 16.6075 12.5012C16.7138 12.3079 16.7669 12.1032 16.6417 11.8994C16.5297 11.7175 16.359 11.6341 16.1608 11.7393C15.9559 11.8473 16.0403 12.0141 16.1229 12.1638C16.2756 12.4368 16.4871 12.685 16.4823 13.0243L16.4833 13.0234Z" fill="#9BBEBB"/>
<path d="M34.9176 16.1848C35.4298 17.1107 36.1364 17.8991 36.143 18.9993C36.1487 19.8522 35.5957 20.5629 34.6899 20.8899C33.8477 21.1941 33.0339 20.9809 32.4847 20.309C32.0978 19.8352 31.8853 19.2694 31.6425 18.7188C31.5619 18.5359 31.3902 18.3331 31.4244 18.1758C31.468 17.9778 31.7677 18.1246 31.9223 18.0308C32.9125 17.4291 34.1322 17.2102 34.9166 16.1848H34.9176Z" fill="#9BBEBB"/>
<path d="M10.3828 15.6247C10.618 15.2646 10.8494 14.9235 11.116 14.607C11.2487 14.4496 11.3559 14.3681 11.4574 14.6278C11.5143 14.7747 11.6253 14.8799 11.741 14.9841C12.3025 15.4902 12.8583 16.0019 13.4188 16.5089C13.6692 16.7363 13.9585 16.7486 14.1757 16.5487C14.3635 16.3762 14.4309 15.7925 14.2516 15.6304C13.5706 15.0135 13.0622 14.2165 12.2665 13.719C12.1479 13.6441 12.1365 13.574 12.2314 13.4679C12.4903 13.1751 12.7672 12.9021 13.0793 12.6662C13.2054 12.5705 13.3145 12.5771 13.3221 12.7505C13.3316 12.9552 13.4672 13.0632 13.5886 13.1893C14.2203 13.8431 14.851 14.498 15.4827 15.1518C15.5643 15.2362 15.643 15.331 15.7616 15.3641C16.0888 15.4541 16.0907 15.5887 15.8403 15.7925C15.6667 15.9337 15.5169 16.1033 15.3518 16.2549C15.293 16.3089 15.1915 16.4046 15.1602 16.3876C14.8008 16.1914 14.8454 16.5127 14.7951 16.6757C14.5475 17.4812 14.0989 17.8811 13.4539 17.865C13.1134 17.8564 12.845 17.701 12.6032 17.4812C12.0341 16.9656 11.4612 16.4549 10.8988 15.9337C10.7489 15.7944 10.5715 15.7119 10.3818 15.6238L10.3828 15.6247Z" fill="#9BBEBB"/>
<path d="M33.6306 28.255C33.4855 27.8589 33.4191 27.4941 33.4533 27.116C33.4779 26.8487 33.6344 26.662 33.8488 26.5171C34.1675 26.3 34.4861 26.083 34.8646 25.8243C34.4017 25.7258 34.0261 25.7722 33.6705 25.9324C33.4836 26.0167 33.4087 25.9655 33.3916 25.7826C33.3518 25.3505 33.3394 24.9184 33.3774 24.4986C34.1419 24.6606 34.8826 24.5232 35.6158 24.4862C36.1706 24.4578 36.7558 24.5706 37.2832 24.2759C37.4141 24.2029 37.4558 24.2986 37.4634 24.4019C37.5146 25.1401 37.7024 25.8679 37.581 26.6213C37.5032 27.0999 37.2509 27.3974 36.8099 27.5358C36.3793 27.6703 35.9923 27.5168 35.7315 27.1851C35.5228 26.9198 35.3787 26.9861 35.1558 27.1245C34.6256 27.4543 34.1191 27.8153 33.6306 28.255Z" fill="#9BBEBB"/>
<path d="M22.3369 13.376C22.7978 12.2256 22.7049 11.0154 22.8823 9.84792C22.8842 9.83655 22.8804 9.82328 22.8851 9.81286C22.9487 9.66692 22.6508 9.48971 22.8936 9.38547C23.0321 9.32672 23.219 9.37694 23.3831 9.38168C24.1172 9.40253 24.8437 9.49255 25.5607 9.65271C25.6897 9.68113 25.8548 9.67829 25.8652 9.88298C25.8756 10.0915 25.8206 10.2848 25.7163 10.4573C25.666 10.5407 25.5939 10.4487 25.5408 10.4146C25.188 10.1862 24.7849 10.1597 24.3846 10.1227C24.0783 10.0943 24.083 10.3341 24.0669 10.5264C24.0517 10.7093 23.9673 10.9207 24.2907 10.9813C24.8646 11.0893 24.9499 11.2305 24.801 11.6352C24.7545 11.7612 24.7166 11.7906 24.5753 11.7451C23.9939 11.5584 23.8981 11.6323 23.862 12.2483C23.8399 12.6286 24.016 12.8545 24.3903 12.9259C24.7526 12.9951 25.115 12.9505 25.4811 12.8984C25.3853 13.5106 25.0865 13.7361 24.5317 13.6252C23.8042 13.4803 23.0625 13.4414 22.3359 13.3751L22.3369 13.376Z" fill="#9BBEBB"/>
<path d="M33.344 21.4528C34.1767 21.432 35.0768 21.2188 35.9902 21.1003C36.2159 21.0709 36.3886 20.8994 36.5593 20.7535C36.7385 20.5999 36.8429 20.58 36.8988 20.8605C37.0572 21.6604 37.1805 22.4649 37.2687 23.2751C37.3143 23.6931 36.9643 23.5926 36.7566 23.6229C36.4806 23.6627 36.582 23.4362 36.5991 23.3055C36.619 23.1501 36.6114 23.0003 36.5915 22.8478C36.5213 22.2934 36.4701 22.2744 35.9229 22.3436C35.5539 22.39 35.5235 22.5872 35.5719 22.88C35.6118 23.1188 35.6155 23.3131 35.2637 23.3244C34.9772 23.3339 34.9089 23.2647 34.9308 22.9823C34.963 22.5511 34.8634 22.4839 34.4347 22.5549C33.6731 22.681 33.6427 22.7274 33.785 23.4884C33.8134 23.6409 33.8391 23.7945 33.9235 23.9243C34.0819 24.1678 33.9851 24.2228 33.7404 24.2133C33.2776 24.1944 33.1362 24.0276 33.0907 23.5699C33.0376 23.0307 32.9285 22.4971 32.8422 21.9617C32.7872 21.6212 32.9551 21.4525 33.3459 21.4557L33.344 21.4528Z" fill="#9BBEBB"/>
<path d="M31.9087 17.4763C31.6925 17.6962 31.4544 17.7568 31.2125 17.8108C31.0551 17.8459 30.947 17.7938 30.8521 17.6602C30.4803 17.1409 30.0554 16.6651 29.6068 16.2122C29.4512 16.0548 29.4825 15.9857 29.6523 15.8729C30.579 15.2588 31.2941 14.4249 32.0093 13.591C32.1373 13.4412 32.1781 13.2612 32.2303 13.0518C32.4105 13.1285 32.5158 13.2726 32.6391 13.3882C33.1844 13.8961 33.69 14.4401 34.1272 15.0447C34.2012 15.147 34.3074 15.2522 34.2031 15.3915C34.0864 15.5469 33.9252 15.6502 33.7431 15.7033C33.6539 15.7298 33.652 15.6132 33.6283 15.5554C33.5192 15.2892 33.3381 15.0731 33.1692 14.8457C32.9909 14.6031 32.8335 14.6372 32.6552 14.8276C32.6229 14.8618 32.5878 14.894 32.5546 14.9271C32.2037 15.2721 32.1914 15.2854 32.5433 15.6132C32.7377 15.7942 32.7358 15.9212 32.5632 16.1051C32.3716 16.3098 32.2464 16.4017 32.069 16.071C31.8869 15.7317 31.7608 15.7345 31.4639 15.9724C30.7592 16.5372 30.762 16.667 31.4971 17.2119C31.6194 17.302 31.7522 17.3778 31.9078 17.4773L31.9087 17.4763Z" fill="#9BBEBB"/>
<path d="M20.7804 12.1922C20.9776 11.4199 21.1332 10.7111 21.1816 9.97947C21.1948 9.77952 21.0981 9.64969 20.9435 9.52176C21.2603 9.33602 21.5666 9.39098 21.8464 9.4232C22.0684 9.44879 21.9489 9.68286 21.928 9.807C21.7696 10.7366 21.5941 11.6634 21.4196 12.5902C21.3627 12.8916 21.2916 13.1892 21.2318 13.4896C21.2034 13.6298 21.155 13.7473 20.9843 13.7236C20.6058 13.6715 20.2388 13.5872 19.9941 13.2545C19.4677 12.5362 19.1234 11.7165 18.7004 10.9404C18.5647 10.6921 18.4452 10.4324 18.2242 10.2429C18.0962 10.133 18.1057 10.0524 18.2622 9.9899C18.2954 9.97663 18.3295 9.9681 18.3627 9.95483C19.3624 9.5464 19.4392 9.58241 19.8926 10.5348C20.1306 11.0351 20.3991 11.5203 20.6552 12.0122C20.676 12.052 20.7073 12.087 20.7823 12.1922H20.7804Z" fill="#9BBEBB"/>
<path d="M12.9413 18.5528C13.2571 18.4988 13.2695 18.6163 13.1604 18.8418C13.0162 19.1394 12.8863 19.4436 12.7611 19.7497C12.6672 19.979 12.5714 20.0264 12.3523 19.8558C11.5632 19.2408 10.5758 19.0437 9.68992 18.6296C9.54101 18.5594 9.50117 18.6694 9.46797 18.7717C9.3608 19.0977 9.26121 19.4265 9.24319 19.7715C9.2337 19.9478 9.173 20.0056 9.00038 19.9354C8.25488 19.635 8.31558 19.8615 8.52899 19.0844C8.82017 18.0278 9.34941 17.0764 9.86728 16.1202C9.96403 15.9411 10.0503 15.9364 10.1879 16.0548C10.2505 16.1088 10.3169 16.1591 10.3851 16.2055C10.5948 16.3495 10.7114 16.4727 10.4269 16.6869C10.2495 16.8205 10.2286 17.0811 10.1414 17.2868C10.0921 17.4033 10.1765 17.4355 10.2467 17.4706C11.0605 17.879 11.8875 18.2581 12.7573 18.5329C12.8227 18.5538 12.8958 18.549 12.9403 18.5528H12.9413Z" fill="#9BBEBB"/>
<path d="M24.8182 15.0741C24.8106 14.9765 24.858 14.9187 24.9111 14.8751C25.4119 14.4676 25.6215 13.8933 25.8293 13.3115C26.1138 12.5107 26.4154 11.7156 26.7142 10.9196C26.7976 10.6969 26.8773 10.4808 26.8384 10.2335C26.8062 10.025 26.8972 9.953 27.1059 10.0326C27.4919 10.1795 27.8808 10.3169 28.2697 10.4562C28.3977 10.5017 28.4565 10.5803 28.3512 10.6893C27.7082 11.3565 27.5526 12.2529 27.2302 13.0698C27.0528 13.5199 26.8735 13.9691 26.6876 14.4164C26.5122 14.8372 26.2086 15.04 25.7847 15.112C25.4584 15.1669 25.134 15.1963 24.8191 15.075L24.8182 15.0741Z" fill="#9BBEBB"/>
<path d="M29.7894 15.2921C29.6556 15.492 29.4991 15.6114 29.3369 15.7214C29.1947 15.8171 29.0382 15.8171 28.912 15.6977C28.435 15.2466 27.8668 14.9291 27.312 14.5927C27.091 14.4591 27.0862 14.3681 27.2977 14.2288C27.6544 13.9938 27.8393 13.6109 28.0783 13.2764C28.4625 12.7382 28.839 12.1952 29.2184 11.6531C29.2459 11.6143 29.2639 11.5593 29.3019 11.5403C29.4659 11.4551 29.3 11.13 29.5504 11.1546C29.6983 11.1689 29.8358 11.311 29.9762 11.3972C30.2276 11.5517 30.4789 11.7062 30.7284 11.8654C30.8393 11.9365 30.938 12.0265 30.7521 12.1194C30.0824 12.4539 29.7135 13.0623 29.3265 13.6574C29.1719 13.8952 29.0221 14.1378 28.8437 14.3558C28.6967 14.5359 28.7233 14.6723 28.8788 14.8088C29.1349 15.0343 29.4043 15.24 29.7903 15.2921H29.7894Z" fill="#9BBEBB"/>
<path d="M30.127 45.2426C30.3414 44.9905 30.5348 44.8483 30.6297 44.6304C30.7207 44.4219 30.6989 44.2835 30.4703 44.1765C30.0578 43.9831 29.851 43.5984 29.9022 43.1786C29.9449 42.8261 30.2541 42.4859 30.5974 42.4148C30.9617 42.339 31.3866 42.5351 31.6152 42.9123C31.9481 43.4638 31.8238 44.0154 31.5241 44.5205C31.2443 44.9924 30.8023 45.2426 30.127 45.2426Z" fill="#9BBEBB"/>
<path d="M27.5546 43.7479C27.5546 43.6039 27.5527 43.4608 27.5518 43.3168C27.6476 42.6847 28.0118 42.5245 28.5287 42.4885C28.9327 42.4601 29.3472 42.9339 29.4041 43.4144C29.5009 44.2312 29.149 44.8946 28.4281 45.2538C28.228 45.3533 28.2157 45.3542 27.9624 45.2888C27.9606 45.2689 27.9501 45.2424 27.9596 45.2291C28.4006 44.597 28.3978 44.5999 27.8145 44.0796C27.7111 43.9877 27.64 43.8598 27.5537 43.7479H27.5546Z" fill="#9BBEBB"/>
<path d="M28.8317 17.4261C29.2813 17.5607 29.7489 17.6545 30.1074 17.9937C30.17 18.0705 30.2905 18.1425 30.1814 18.2534C30.0913 18.3453 30.0107 18.2382 29.9367 18.1984C29.6797 18.061 29.4131 17.953 29.1229 17.9075C28.6866 17.7521 28.2588 17.8791 27.8358 17.9625C27.3597 18.0563 26.9196 18.2619 26.4899 18.4856C26.5193 18.6884 26.3515 18.7443 26.2272 18.822C25.5339 19.2598 24.906 19.781 24.28 20.306C23.8703 20.6481 23.5582 21.0726 23.2376 21.4896C23.1409 21.6156 23.0432 21.7256 22.8772 21.7502C22.8326 21.8033 22.789 21.8573 22.7416 21.9085C22.7017 21.9511 22.6553 21.9994 22.5927 21.9663C22.5149 21.9255 22.5206 21.8431 22.5519 21.7834C22.6486 21.5986 22.7577 21.4204 22.8611 21.2404C22.8715 20.9911 22.9758 20.7779 23.1295 20.5912C24.0894 19.4275 25.164 18.3946 26.5431 17.7369C27.1396 17.4526 27.7675 17.2422 28.4438 17.2536C28.5899 17.2565 28.7615 17.2318 28.8317 17.4232V17.4261Z" fill="#9BBEBB"/>
<path d="M14.6239 18.3341C14.8686 18.1531 15.1323 18.0091 15.4225 17.9162C15.9147 17.6149 16.4525 17.6063 16.9799 17.7456C18.1949 18.0659 19.2477 18.7047 20.2322 19.4722C20.7207 19.8532 21.0963 20.3365 21.5221 20.7753C21.6483 20.9051 21.7507 21.0567 21.7355 21.2538C21.8105 21.3581 21.8958 21.4566 21.9565 21.5684C22.0134 21.6736 22.1529 21.8101 22.0248 21.9058C21.91 21.992 21.8531 21.7902 21.7545 21.7419C21.5714 21.7997 21.4747 21.6841 21.3713 21.5618C20.5148 20.5526 19.4876 19.7537 18.3343 19.1112C18.1882 19.0297 17.9834 18.9975 17.9767 18.7662C17.2654 18.4592 16.5256 18.2829 15.7488 18.2621C15.4908 18.2555 15.2565 18.3047 15.0573 18.4763C14.861 18.5388 14.676 18.645 14.4541 18.6364C14.4607 18.499 14.5603 18.427 14.6239 18.3341Z" fill="#9BBEBB"/>
<path d="M17.9771 18.7661C19.4994 19.4238 20.6926 20.4994 21.7549 21.7417C21.6316 23.4238 19.931 24.5695 18.2266 24.1184C17.0021 23.7943 16.1978 22.8107 16.138 21.5617C16.0792 20.3307 16.8238 19.1982 17.9771 18.7661Z" fill="#FEFEFE"/>
<path d="M22.877 21.7522C23.0676 21.3523 23.3597 21.0244 23.6623 20.7117C24.5026 19.8427 25.417 19.0637 26.4897 18.4875C26.796 18.5008 27.0028 18.7159 27.2361 18.8695C28.2662 19.547 28.7395 20.9514 28.3316 22.0839C27.901 23.2817 26.6699 24.0351 25.4008 23.9214C24.0293 23.7991 23.2421 23.0296 22.877 21.7522Z" fill="#FEFEFE"/>
<path d="M28.8317 17.4262C27.6309 17.3703 26.5895 17.81 25.624 18.4715C24.5304 19.222 23.617 20.1545 22.861 21.2424C22.7159 20.3497 22.9426 19.5309 23.3912 18.7709C24.1614 17.467 26.6274 16.2938 28.5073 17.014C28.7368 17.1021 28.9654 17.1903 29.175 17.3447C29.065 17.467 28.9332 17.3769 28.8317 17.4262Z" stroke="#9BBEBB" stroke-miterlimit="10"/>
<path d="M21.7359 21.2537C20.6243 19.9223 19.3344 18.8306 17.7068 18.1644C16.9613 17.8592 16.2101 17.7607 15.4229 17.9151C15.8525 17.466 16.4093 17.3361 16.9973 17.3257C18.862 17.2944 20.3445 17.9957 21.3318 19.6237C21.5737 20.0227 21.7169 20.4577 21.7833 20.9182C21.7994 21.031 21.8355 21.1533 21.7359 21.2528V21.2537Z" fill="#FEFEFE"/>
<path d="M23.0594 23.4666C22.9466 23.9366 22.8128 24.4256 22.5492 24.8644C22.4372 25.051 22.313 25.0056 22.2542 24.8217C22.1214 24.4076 22.0019 23.9906 21.8274 23.5888C21.7363 23.3785 22.1157 22.3796 22.2959 22.2564C22.3519 22.2176 22.4003 22.2176 22.4553 22.2564C22.5463 22.319 23.0604 23.3216 23.0594 23.4666Z" fill="#FEFEFE"/>
<path d="M9.33884 22.0868C9.53707 21.9949 9.70685 21.9665 9.88231 21.9551C10.2598 21.9295 10.2608 21.9447 10.1877 22.3086C10.1384 22.5568 10.0312 22.5616 9.85196 22.4526C9.68408 22.3493 9.50292 22.265 9.33789 22.0868H9.33884Z" fill="#FCFCFC"/>
<path d="M16.4837 13.0234C16.1707 12.6945 16.0009 12.2757 15.7714 11.8947C15.7126 11.7971 15.7221 11.7213 15.8273 11.6597C16.0673 11.5185 16.3092 11.3896 16.588 11.5593C16.8507 11.7194 16.9721 12.0615 16.8782 12.3648C16.7995 12.6197 16.625 12.8158 16.4761 13.0281L16.4846 13.0234H16.4837Z" fill="#FDFDFD"/>
<path d="M33.5841 19.8256C33.2303 19.7962 32.9164 19.7242 32.7277 19.3963C32.6053 19.184 32.6186 19.0343 32.868 18.9187C33.4665 18.641 34.0565 18.3425 34.6512 18.0563C35.0135 17.8819 35.2809 18.0582 35.2696 18.4761C35.2629 18.7263 35.1956 18.9708 35.0135 19.1575C34.6189 19.5602 34.1371 19.7858 33.5841 19.8256Z" fill="#FEFEFE"/>
<path d="M36.6226 25.6774C36.6776 25.6849 36.8047 25.629 36.8568 25.7607C36.8986 25.8659 36.8568 25.9673 36.799 26.0611C36.6719 26.2715 36.4746 26.3189 36.2489 26.2962C35.9947 26.2706 35.8021 26.1341 35.6798 25.9218C35.5944 25.774 35.7253 25.7456 35.8382 25.7371C36.0848 25.7172 36.3314 25.6991 36.6216 25.6774H36.6226Z" fill="#FBFBFB"/>
<path d="M19.3163 23.2041C18.1819 23.188 17.3976 22.1977 17.6603 21.1136C17.8234 20.4398 18.4864 20.0247 19.1503 20.2256C19.7773 20.4161 20.3378 20.7468 20.8263 21.1894C20.9268 21.2803 20.9847 21.3874 20.9847 21.5305C20.9847 22.2498 20.1206 23.3055 19.3163 23.2041Z" fill="#9BBEBB"/>
<path d="M26.8778 21.2709C26.8797 22.1247 26.2717 22.844 25.4579 22.9492C24.7484 23.0411 23.8455 22.4204 23.6378 21.7021C23.5932 21.5495 23.5619 21.3941 23.6492 21.2567C24.093 20.5507 24.665 20.0029 25.5366 19.9157C26.3589 19.8342 26.8768 20.3791 26.8787 21.2709H26.8778Z" fill="#9BBEBB"/>
<path d="M19.3071 22.8988C18.536 22.8988 17.9366 22.2999 17.9375 21.5314C17.9375 21.1115 18.2268 20.7249 18.6081 20.6387C18.7001 20.6178 18.8205 20.5828 18.8765 20.6595C18.9486 20.7571 18.8215 20.8216 18.7703 20.8907C18.3785 21.4205 18.3985 21.7721 18.8205 22.208C19.1136 22.5112 19.456 22.5586 19.8259 22.4316C20.2044 22.3018 20.413 22.0194 20.4661 21.6166C20.4794 21.519 20.3874 21.3314 20.5724 21.3399C20.7317 21.3466 20.6776 21.5247 20.6776 21.6328C20.6786 22.352 20.0811 22.9007 19.3052 22.8998L19.3071 22.8988Z" fill="#FDFDFD"/>
<path d="M24.0421 21.1732C24.2167 21.8593 24.5989 22.2686 25.0807 22.3027C25.5 22.3321 25.868 22.0933 26.0207 21.6915C26.2075 21.1987 26.0444 20.8405 25.4098 20.3515C25.7949 20.1952 26.2587 20.3515 26.4712 20.7079C26.7396 21.1608 26.6552 21.8299 26.2796 22.2184C25.8357 22.678 25.1889 22.8202 24.7013 22.5558C24.3267 22.352 24.0365 22.0715 23.9141 21.6451C23.8648 21.4745 23.8638 21.3219 24.0431 21.1722L24.0421 21.1732Z" fill="#FDFDFD"/>
</svg>
