<?xml version="1.0" encoding="utf-8"?>
<!-- Generator: Adobe Illustrator 28.2.0, SVG Export Plug-In . SVG Version: 6.00 Build 0)  -->
<svg version="1.1" id="Layer_2_00000067213373961831180320000009096619737728155785_"
	 xmlns="http://www.w3.org/2000/svg" xmlns:xlink="http://www.w3.org/1999/xlink" x="0px" y="0px" viewBox="0 0 119.1 112.1"
	 style="enable-background:new 0 0 119.1 112.1;" xml:space="preserve">
<style type="text/css">
	.st0{display:none;fill:#FEFEFE;}
	.st1{fill:#D981D6;}
	.st2{fill:#EAEBEB;}
	.st3{fill:#AD71AF;}
	.st4{fill:#E3CCE4;}
	.st5{fill:#D8B4D9;}
	.st6{fill:#7F3C3B;}
	.st7{fill:#D49DD5;}
	.st8{fill:#E7E8E9;}
	.st9{fill:#FEFEFE;}
	.st10{fill:#BF85BF;}
	.st11{fill:#AE5D4D;}
	.st12{fill:#DFA5DF;}
	.st13{fill:#E9BAE9;}
	.st14{fill:#EADDEB;}
	.st15{fill:#C7C9CE;}
	.st16{fill:#DBDCE0;}
	.st17{fill:#8B8B8D;}
	.st18{fill:#A3A4A8;}
	.st19{fill:#BEBEC4;}
	.st20{fill:#E4E5E7;}
	.st21{fill:#892E28;}
	.st22{fill:#B6B7BC;}
	.st23{fill:#9B9B9D;}
	.st24{fill:#AFB0B6;}
	.st25{fill:#838384;}
	.st26{fill:#7E7E7F;}
	.st27{fill:#80251D;}
	.st28{fill:#D3D4D8;}
	.st29{fill:#E0E1E4;}
	.st30{fill:#CED0D5;}
	.st31{fill:#929294;}
</style>
<g id="Layer_1-2">
	<g>
		<path class="st0" d="M99.7,0c6.5,0,13,0,19.4,0v112.1H0C0,74.7,0,37.3,0,0c32.3,0,64.6,0,96.9,0c-0.5,0.1-1.1,0.2-1.6,0.3
			c-0.4,0.1-0.9,0.2-1.3,0.3c-0.4,0.1-0.8,0.2-1.2,0.3c-1.1,0.4-2.1,0.9-3.2,1.3c-0.7,0.5-1.4,0.9-2.1,1.4c-0.8,0.8-1.7,1.5-2.5,2.3
			c-0.5,0.7-1.1,1.3-1.5,2c-1.1,1.7-1.9,3.5-2.5,5.5c-1.8,0.1-3.5,0.4-5.2,0.9c-5.1,1.4-9.5,4-13.1,7.9c-1.2,1.3-2.2,2.8-3.2,4.2
			c-0.2,0-0.4-0.1-0.5,0c-0.6,0.4-1.2,0.8-1.8,1.2c-0.9,0.7-1.8,1.5-2.7,2c-0.9,0.5-1.5,1.2-2.2,2c-0.5,0.6-1,1.2-1.7,1.6
			c-0.2,0.1-0.3,0.2-0.4,0.4c-0.6,1-1.6,1.5-2.5,2c-0.8,0.4-1.6,0.6-2.2,1.3c-0.4,0.4-1,0.6-1.6,0.9c-1.8,0.9-3.6,1.8-5.3,2.7
			c-1.9,1-3.8,2.1-5.7,3.2c-2,1.2-3.9,2.5-5.8,3.8c-0.8,0.5-1.5,1.2-2.2,1.8c-0.5,0.4-0.9,1-1.5,1.4c-1.5,1.3-3.1,2.5-4.5,3.9
			c-1.8,1.8-3.6,3.5-4.9,5.8c-0.6,1.1-1.4,2-2.1,3c-0.7,1.2-1.4,2.5-2.1,3.7c-0.1,0.1-0.1,0.3,0,0.3c0.2,0.3,0,0.6,0,0.8
			c-0.3,1-0.7,2.1-0.9,3.1c-0.3,1.6-0.5,3.2-0.3,4.9c0.1,1.5,0.4,2.9,0.9,4.3c1,2.9,2.6,5.4,4.6,7.6c1.6,1.8,3.4,3.3,5.4,4.6
			c2.1,1.3,4.4,2.3,6.9,3c0.9,0.2,1.9,0.4,2.8,0.7c0.2,0.1,0.4,0.3,0.7,0.4c0.4,0.1,0.8,0.2,1.2,0.2c1.8,0.1,3.5,0.2,5.3,0.3
			c0.1,0,0.3,0,0.4,0c1.1,0,2.2-0.1,3.2-0.1c0.2,0,0.4,0.1,0.5,0.1c0.4,0,0.7-0.1,1.1-0.1c0.8-0.1,1.6,0,2.4-0.1
			c1.1-0.1,2.2-0.3,3.3-0.5c1.7-0.3,3.3-0.7,5-1c1.1-0.2,2.2-0.6,3.4-0.8c0.8-0.2,1.6-0.2,2.3-0.4c1.6-0.5,3.3-1.1,4.9-1.6
			c1.3-0.5,2.7-0.9,4-1.5c1.8-0.8,3.5-1.6,5.3-2.3c1.4-0.6,2.8-1.2,4.1-1.9c1.9-1,3.9-2.1,5.8-3.2c2.3-1.4,4.6-2.9,6.8-4.5
			c1.6-1.1,3.1-2.3,4.6-3.6c1.3-1.1,2.6-2.1,3.8-3.3c1.6-1.6,3.2-3.2,4.7-4.9c1.4-1.6,2.7-3.2,3.9-4.9c1-1.4,1.8-2.9,2.7-4.4
			c0.7-1.1,1.2-2.3,1.2-3.7c0-1.8,0-3.6,0-5.4c0-0.1-0.2-0.2-0.2-0.3c0.3-1.4,0.6-2.8,0.8-4.3c0.3-2.2,0.3-4.5,0-6.7
			c0.1-0.1,0.2-0.2,0.3-0.3c0.8-0.7,1.8-1.3,2.6-2c1.5-1.4,2.7-3,3.6-4.8c0.1-0.2,0.2-0.4,0.3-0.5c0,0,0,0,0,0
			c0.1-0.2,0.2-0.4,0.3-0.6l0,0c0-0.1,0.1-0.1,0.1-0.2c0,0,0,0,0,0c0-0.1,0.1-0.1,0.1-0.2s0.1-0.2,0.1-0.2c0-0.1,0.1-0.1,0.1-0.2
			l0,0c0-0.1,0.1-0.1,0.1-0.2l0,0c0.1-0.2,0.1-0.4,0.2-0.6l0,0c0.1-0.2,0.1-0.4,0.2-0.5c0-0.1,0.1-0.2,0.1-0.3
			c0.2-1.1,0.4-2.1,0.6-3.2c0-0.2,0.1-0.4,0.1-0.6c0-1,0.1-2.1,0-3.1c0-0.6-0.2-1.2-0.3-1.8c-0.2-0.9-0.4-1.8-0.6-2.6
			c0-0.1-0.1-0.2-0.1-0.3c-0.4-1.1-0.8-2.2-1.2-3.3c-1-2-2.2-3.8-3.7-5.4c-1.1-1.2-2.3-2.2-3.6-3.1c-1.2-0.9-2.5-1.5-3.9-2.1
			c-1.4-0.6-2.8-1-4.3-1.3C100.8,0.2,100.3,0.1,99.7,0L99.7,0z"/>
		<path class="st1" d="M99.7,0c0.6,0.1,1.1,0.2,1.7,0.3c1.5,0.2,2.9,0.7,4.3,1.3c1.4,0.6,2.7,1.2,3.9,2.1c1.3,0.9,2.5,1.9,3.6,3.1
			c1.5,1.6,2.7,3.4,3.7,5.4c0,0.3-0.1,0.6,0,0.9c0.2,1.4,0.5,2.8,0.7,4.1c0.2,1.6-0.1,3.3-0.4,4.9c-0.4,1.7-1,3.3-1.8,4.8
			c-1,1.7-2.2,3.3-3.8,4.5c-2,1.6-4.3,2.7-6.8,3.1c-1.6,0.3-3.3,0.3-4.9,0c-1.7-0.3-3.3-0.9-4.8-1.7c-1.8-1-3.5-2.3-4.8-3.9
			c-1.2-1.4-2.1-2.9-2.9-4.6c-0.8-2-1.4-4-1.5-6.1c-0.1-1.3,0.1-2.6,0.2-3.9c0.1-1.8,0.7-3.4,1.5-5c1.1-2.3,2.6-4.2,4.6-5.8
			c1.8-1.4,3.8-2.4,6.1-2.9c0.3-0.1,0.7-0.2,1-0.2c0,0,0-0.1,0-0.1c-0.2,0-0.4,0-0.6,0c-0.3,0-0.6-0.1-0.9-0.1C98.2,0,99,0,99.7,0
			L99.7,0z M100.8,1.3c-1.2,0-2.4,0.2-3.7,0.5c-2.9,0.9-5.2,2.5-7.1,4.9C89,8,88.2,9.5,87.6,11.1c-0.6,1.6-0.9,3.2-0.9,4.9
			c0,1.3,0.1,2.5,0.3,3.8c0.3,2.2,1.2,4.3,2.3,6.2c1.1,1.9,2.6,3.4,4.4,4.7c2.4,1.8,5.1,2.7,8.1,2.8c1.4,0,2.7-0.1,4.1-0.5
			c3.8-1.1,6.6-3.5,8.5-6.8c1.8-3.3,2.4-6.8,1.9-10.5c-0.2-1.9-0.8-3.6-1.6-5.3c-1-2-2.3-3.8-4-5.3c-1.1-0.9-2.2-1.7-3.5-2.3
			C105.2,1.8,103.1,1.3,100.8,1.3L100.8,1.3z"/>
		<path class="st1" d="M97.4,0c0.3,0,0.6,0.1,0.9,0.1c0.2,0,0.4,0,0.6,0c0,0,0,0.1,0,0.1c-0.3,0.1-0.7,0.2-1,0.2
			c-2.2,0.5-4.3,1.4-6.1,2.9c-2,1.5-3.5,3.5-4.6,5.8c-0.8,1.6-1.3,3.3-1.5,5c-0.1,1.3-0.2,2.6-0.2,3.9c0.1,2.1,0.6,4.2,1.5,6.1
			c0.7,1.7,1.7,3.2,2.9,4.6c1.3,1.6,3,2.9,4.8,3.9c1.5,0.8,3.1,1.4,4.8,1.7c1.6,0.3,3.3,0.3,4.9,0c2.6-0.4,4.8-1.5,6.8-3.1
			c1.6-1.2,2.8-2.8,3.8-4.5c0.8-1.5,1.5-3.1,1.8-4.8c0.3-1.6,0.6-3.3,0.4-4.9c-0.1-1.4-0.4-2.8-0.7-4.1c0-0.3,0-0.6,0-0.9
			c0.4,1.1,0.8,2.2,1.2,3.3c0,0.1,0.1,0.2,0.1,0.3c-0.1,0.3-0.2,0.7-0.2,1c0,0.9,0,1.7,0,2.6c-0.1,2.1-0.6,4.2-1.4,6.1
			c-1.4,3.3-3.7,5.9-6.8,7.7c-2.8,1.7-5.9,2.3-9.1,2c-1.6-0.2-3.1-0.5-4.6-1.2c-3.3-1.4-5.8-3.6-7.8-6.5c-1.3-1.9-2.2-4-2.7-6.3
			c-0.6-2.4-0.7-4.8-0.3-7.2c0.4-2.4,1.2-4.6,2.4-6.6c0.9-1.5,2-2.8,3.3-3.9c1.1-0.9,2.3-1.7,3.6-2.3c0.3-0.1,0.4-0.4,0.7-0.6
			c0.5-0.1,1.1-0.2,1.6-0.3C97.1,0,97.2,0,97.4,0L97.4,0z"/>
		<path class="st2" d="M109.5,48.7c0.1,0.1,0.2,0.2,0.2,0.3c0,1.8,0,3.6,0,5.4c0,1.3-0.5,2.5-1.2,3.7c-0.9,1.5-1.7,3-2.7,4.4
			c-1.2,1.7-2.5,3.3-3.9,4.9c-1.5,1.7-3.1,3.3-4.7,4.9c-1.2,1.2-2.5,2.2-3.8,3.3c-1.5,1.2-3,2.5-4.6,3.6c-2.2,1.6-4.5,3.1-6.8,4.5
			c-1.9,1.2-3.8,2.2-5.8,3.2c-1.3,0.7-2.8,1.3-4.1,1.9c-1.8,0.8-3.5,1.6-5.3,2.3c-1.3,0.6-2.7,1-4,1.5c-1.6,0.6-3.2,1.1-4.9,1.6
			c-0.8,0.2-1.6,0.3-2.3,0.4c-1.1,0.2-2.2,0.6-3.4,0.8c-1.7,0.4-3.3,0.7-5,1c-1.1,0.2-2.2,0.4-3.3,0.5c-0.8,0.1-1.6,0.1-2.4,0.1
			c-0.4,0-0.7,0.1-1.1,0.1c-0.2,0-0.4-0.1-0.5-0.1c-1.1,0-2.2,0-3.2,0.1c-0.1,0-0.3,0-0.4,0c-1.8-0.1-3.5-0.2-5.3-0.3
			c-0.4,0-0.8-0.1-1.2-0.2c-0.2-0.1-0.4-0.3-0.7-0.4c-0.9-0.2-1.9-0.4-2.8-0.7c-2.5-0.6-4.8-1.6-6.9-3c-2-1.3-3.8-2.8-5.4-4.6
			c-2-2.2-3.6-4.8-4.6-7.6c-0.5-1.4-0.8-2.8-0.9-4.3c-0.1-1.7,0-3.3,0.3-4.9c0.2-1.1,0.6-2.1,0.9-3.1c0.1-0.3,0.3-0.5,0-0.8
			c-0.1-0.1,0-0.2,0-0.3c0.7-1.2,1.3-2.5,2.1-3.7c0.6-1,1.5-2,2.1-3c1.3-2.2,3.1-4,4.9-5.8c1.4-1.4,3-2.6,4.5-3.9
			c0.5-0.4,0.9-1,1.5-1.4c0.7-0.6,1.5-1.2,2.2-1.8c1.9-1.3,3.8-2.6,5.8-3.8c1.8-1.1,3.8-2.2,5.7-3.2c1.8-0.9,3.6-1.8,5.3-2.7
			c0.5-0.3,1.2-0.5,1.6-0.9c0.6-0.7,1.5-0.9,2.2-1.3c1-0.5,2-1,2.5-2c0.1-0.2,0.3-0.3,0.4-0.4c0.7-0.4,1.2-1,1.7-1.6
			c0.6-0.8,1.3-1.5,2.2-2c1-0.6,1.8-1.4,2.7-2c0.6-0.4,1.2-0.9,1.8-1.2c0.1-0.1,0.3,0,0.5,0c0,0,0,0,0,0.1c0,0,0,0.1-0.1,0.1l0,0
			c-0.1,0.1-0.1,0.2-0.2,0.3c0,0.1-0.1,0.2-0.1,0.2c0,0,0,0.1-0.1,0.1l0,0c-0.1,0.1-0.1,0.2-0.2,0.3c0,0,0,0,0,0c0,0,0,0.1-0.1,0.1
			c0,0,0,0,0,0.1l-0.1,0.1c0,0,0,0.1,0,0.1c0,0,0,0.1-0.1,0.1l0,0c-0.2,0.3-0.3,0.6-0.5,0.9l0,0c0,0-0.1,0.1-0.1,0.1l0,0.2
			c-0.1,0-0.3,0-0.4,0c-0.2,0.1-0.4,0.3-0.6,0.5c-1.1,1-2.2,2.1-3.2,3.1c-0.5,0.5-1,1-1.6,1.5c-0.9,0.7-1.9,1.4-2.8,2.1
			c-0.3,0.2-0.7,0.4-0.9,0.7c-0.5,0.6-1.1,0.9-1.8,1.2c-0.9,0.5-1.8,0.9-2.7,1.3c-0.7,0.3-1.3,0.6-2,0.9c-1.3,0.6-2.5,1.3-3.7,2.1
			c-1.6,1.1-3.3,1.9-4.9,3c-1.6,1-3.1,2.1-4.6,3.2c-1,0.8-2.1,1.5-3,2.4c-1.6,1.5-3.2,3.1-4.7,4.7c-1.1,1.2-2.2,2.5-3.2,3.8
			c-1.3,1.7-2.6,3.4-3.3,5.5c-0.6,1.6-1.3,3.2-1.4,4.9c-0.1,1.3-0.4,2.6-0.3,3.9c0.1,1.6,0.4,3.1,1,4.6c0.6,1.4,1.3,2.8,2.1,4.1
			c1.3,2.1,2.8,3.9,4.7,5.4c1.4,1.2,2.9,2.3,4.6,3.1c1.3,0.6,2.6,1.1,3.9,1.6c1.3,0.6,2.7,0.8,4.1,1c0.6,0.1,1.2,0.2,1.8,0.3
			c0.7,0.1,1.4,0.3,2.1,0.3c2.5,0,5,0.1,7.5-0.2c1.1-0.2,2.2-0.1,3.2-0.3c2-0.3,4-0.6,6-1c2.5-0.6,4.9-1.3,7.3-2
			c2-0.6,4.1-1.3,6.1-2.2c2.2-0.9,4.4-1.8,6.5-2.9c2.7-1.4,5.3-2.8,8-4.3c1.3-0.8,2.7-1.6,3.9-2.5c1.5-1,2.9-2.1,4.3-3.2
			c1.8-1.5,3.7-3,5.4-4.6c2.2-2,4.2-4.2,6-6.5c1.7-2.2,3.2-4.5,4.5-7c0.5-1.1,1-2.2,1.4-3.3c0.2-0.4,0.1-0.9,0.2-1.4v0h0
			c0,0,0-0.1,0.1-0.1c0.1-0.2,0.2-0.4,0.3-0.5c0.1-0.2,0.2-0.4,0.2-0.6c0,0,0,0,0-0.1c0,0,0.1-0.1,0.1-0.1v0l0,0l0.2-0.4v0l0,0
			c0-0.1,0.1-0.1,0.1-0.2c0-0.1,0.1-0.2,0.1-0.3c0-0.1,0.1-0.1,0.1-0.2c0,0,0,0,0-0.1c0.2-0.3,0.3-0.7,0.5-1c0.1-0.2,0-0.4,0.1-0.5
			C109.4,48.9,109.4,48.8,109.5,48.7L109.5,48.7z"/>
		<path class="st3" d="M116.8,30.7c-0.9,1.8-2.1,3.5-3.6,4.8c-0.8,0.7-1.7,1.3-2.6,2c-0.1,0.1-0.2,0.2-0.3,0.3
			c-0.5,0.3-1.1,0.6-1.6,0.8c-0.1,0-0.3,0.1-0.4,0.1c-1.2,0.4-2.3,0.8-3.4,1.1c-1,0.2-2.1,0.3-3.1,0.5c-0.4,0-0.9,0-1.3,0
			c-0.3,0-0.6-0.1-0.9-0.1c-0.4,0-0.8-0.1-1.1-0.2c-1.1-0.2-2.1-0.5-3.1-0.7c-0.8-0.3-1.7-0.7-2.5-1c-0.7-0.4-1.5-0.8-2.2-1.2
			c-0.7-0.5-1.3-1-1.9-1.5c-0.3-0.2-0.4,0.1-0.4,0.3c0,0.4,0,0.8,0,1.2s-0.1,0.8-0.1,1.2c0,0.2,0,0.5-0.1,0.7c0,0.2,0,0.4,0,0.5
			c-0.1,0.2-0.1,0.5-0.2,0.7c-0.1,0.3-0.2,0.7-0.3,1.1c0,0.1-0.1,0.2-0.1,0.2c0.2,0.4,0,0.8,0,1.1c0,0.4-0.1,0.8-0.3,1.2
			c-0.2,0.7-0.4,1.5-0.5,2.3c0,0.1,0,0.2,0.1,0.3c0.2,0.3,0.5,0.5,0.7,0.7c0.6,0.6,0.9,1,0.3,1.9c-0.5,0.7-1.3,1.1-2.1,1.3
			c-1.9,0.7-3.8,0.6-5.8,0.2c-1.3-0.3-2.4-0.9-3.8-0.7c-0.5,0.1-0.9,0.2-1.2,0.7c-0.4,0.6-0.4,0.6-1.1,0.4c-0.7-0.3-1.3-0.1-1.9,0.3
			c-0.5,0.3-0.9,0.6-1.5,0.3c-0.6-0.3-1.3,0-1.9,0.1c-0.5,0.1-1,0.1-1.4-0.2c-0.8-0.7-1.5-1.4-2.3-2.2c-1.4-1.4-2.3-3-3.2-4.7
			c-0.9-1.9-1.4-3.8-1.4-5.9c0-0.9,0.1-1.9,0.4-2.8c0.5-1.4,1.2-2.8,2.3-3.9c0.7-0.7,1.5-1.3,2.4-1.7c0.1,0,0.2-0.1,0.2-0.1
			c0.3-0.6,0.8-0.7,1.4-0.9c0.7-0.3,1.5-0.5,2.3-0.3c0.9,0.2,1.6-0.1,2.3-0.6c0.6-0.4,1.1-0.9,1.7-1.3c1.5-1.1,3.1-2.1,5.1-2.3
			c0.6-0.1,1.1,0.2,1.1,0.8c0,0.4-0.1,0.8,0,1.2c0,0.4,0,0.9,0.2,1.1c0.5,0.4,1.2,0.7,1.8,1c0.1,0.1,0.3,0.1,0.5,0.1
			c0.3,0,0.6,0.1,0.8,0.5c0.1,0.1,0.2,0.1,0.4,0.2c0-0.1,0.1-0.3,0.1-0.4c-0.2-0.5-0.4-0.9-0.5-1.3c-0.4-1-0.8-2-1.1-3.1
			c-0.3-0.8-0.4-1.7-0.6-2.5l-0.2-1.3c0-0.5,0-1,0-1.5c0-0.9-0.1-1.8,0-2.7c0.1-1.1,0.4-2.2,0.6-3.3c0.6-1.9,1.3-3.8,2.5-5.5
			c0.5-0.7,1-1.3,1.5-2c0,0.2,0,0.5-0.1,0.7c-1.4,2.7-2.2,5.5-2.4,8.4c-0.1,2.1,0,4.3,0.5,6.4c0.5,2.3,1.4,4.4,2.6,6.4
			c1.4,2.4,3.2,4.4,5.4,6.1c1.9,1.4,4,2.5,6.3,3.2c1.6,0.5,3.2,0.7,4.9,0.7c0.9,0,1.8-0.1,2.7-0.3c2.4-0.3,4.6-1.1,6.5-2.5
			c1.2-0.8,2.3-1.7,3.3-2.6c0.7-0.6,1.3-1.4,1.9-2.1C116.8,30.6,116.8,30.7,116.8,30.7L116.8,30.7z M83,33.5
			c-0.7,0.1-0.7,0.1-0.8-0.5c0-0.2-0.1-0.3-0.3-0.3c-0.5,0.1-0.7-0.2-0.8-0.7c0-0.3-0.1-0.5-0.5-0.4c-0.1,0-0.4-0.2-0.4-0.3
			c-0.1-0.5-0.4-0.5-0.7-0.5c-0.3,0.1-0.4,0-0.5-0.2c-0.2-0.4-0.5-0.5-0.9-0.5c-0.1,0-0.3-0.1-0.3-0.2c-0.3-0.5-0.5-1-0.5-1.6
			c0.1-0.5,0-1,0-1.4c0-0.2-0.1-0.4-0.2-0.6c-0.3-0.4-0.8-0.3-1.2-0.2c-1.3,0.3-2.4,1-3.4,1.9c-0.9,0.8-1.7,1.8-2.6,2.6
			c-0.3,0.3-0.7,0.6-1.4,0.4c-1.1-0.4-2.1-0.2-2.9,0.7c-0.2,0.2-0.3,0.5-0.5,0.7c-0.5,0.6-1.1,1.1-1.5,1.8c-0.4,0.6-0.8,1.3-0.9,2.1
			c-0.2,1.7-0.2,3.3,0.2,5c0.5,2,1.4,3.8,2.6,5.5c0.2,0.2,0.5,0.6,0.7,0.3c0.3-0.4,0.6,0.2,0.9-0.1c0,0,0,0,0,0c0.3-0.3,0.6-0.3,1,0
			c0.3,0.2,0.8,0.1,1-0.2c0.1-0.2,0.3-0.3,0.5-0.4c0.3-0.1,0.7-0.1,0.6-0.6c0-0.1,0.1-0.1,0.2-0.2c0.2-0.2,0.3-0.4,0.5-0.5
			c0.1-0.1,0.2-0.1,0.3-0.1c0.4,0.2,0.8,0.3,1.2,0.6c0.7,0.4,1.2,1,1.9,1.4c2.5,1.8,5.2,3.1,8.4,2.9c0.7,0,1.4-0.2,2-0.6
			c0.6-0.3,0.7-1,0.2-1.5c-0.5-0.4-1-0.7-1.5-1.1c-0.9-0.6-1.7-1.2-2-2.4c0-0.2-0.1-0.3,0.2-0.3c0.2,0,0.4-0.2,0.6-0.3
			c-0.1-0.2-0.2-0.3-0.2-0.5C82,43.2,81.9,43,82,42.9c0-0.1,0.2-0.2,0.2-0.2c0.4,0.2,0.5-0.2,0.7-0.3c-0.1-0.4-0.1-0.7-0.2-1
			c0.2,0,0.4,0,0.6,0c-0.1-0.3-0.3-0.7-0.2-0.9s0.4-0.5,0.7-0.7c-0.1-0.2-0.2-0.5-0.3-0.9c0.7-0.1,0.8-0.2,0.4-0.6
			c-0.4-0.5,0-1.1-0.1-1.7c0,0,0.2-0.1,0.2-0.1c0.1-0.1,0.2-0.2,0.2-0.4c0-0.2-0.1-0.4-0.2-0.7c-0.1,0.2-0.2,0.4-0.3,0.6
			C83.3,35.2,82.8,34.5,83,33.5L83,33.5z"/>
		<path class="st3" d="M100.4,40.3c0.4,0,0.9,0,1.3,0c0,0.2-0.1,0.4-0.1,0.5c-0.3,0.6-0.6,1.2-0.9,1.8c-1,1.8-2.2,3.5-3.7,4.9
			c-1.4,1.3-3,2.5-4.6,3.8c-1.1,0.8-1.9,1.7-1.6,3.2c0.1,0.6,0.1,1.2,0.5,1.7c0.2,0.2,0.4,0.5,0.6,0.5c0.6,0.1,1,0.5,1.5,0.5
			c0.7,0,1.5-0.1,2.2-0.3c1.5-0.3,2.9-0.7,4.3-1.4c1.9-1,3.5-2.2,4.9-3.8c1.3-1.5,2.3-3.2,3-5.1c0.8-2.2,1-4.6,0.9-7
			c0-0.3,0-0.7,0-1c0.5-0.3,1.1-0.6,1.6-0.8c0.3,2.2,0.3,4.5,0,6.7c-0.2,1.4-0.6,2.9-0.8,4.3c0,0.1,0,0.1,0,0.2
			c-0.2,0.5-0.3,1.1-0.5,1.6c0,0,0,0,0,0.1c0,0.1-0.1,0.1-0.1,0.2c0,0.1-0.1,0.2-0.1,0.3c0,0.1-0.1,0.1-0.1,0.2l0,0v0
			c-0.1,0.1-0.1,0.3-0.2,0.4l0,0v0c0,0-0.1,0.1-0.1,0.1c0,0,0,0,0,0.1c-0.1,0.2-0.2,0.4-0.2,0.6c-0.1,0.2-0.2,0.4-0.3,0.5
			c0,0,0,0.1-0.1,0.1h0v0c-0.1,0.1-0.1,0.1-0.2,0.2c-1.2,2.5-2.7,4.7-4.6,6.7c-0.2,0.1-0.3,0.2-0.5,0.4c-0.1,0-0.3,0.1-0.4,0.1
			c-1.2,0.5-2.4,1-3.6,1.4c-1.5,0.4-3,0.7-4.5,0.8c-2.1,0.2-4.2-0.1-6.3-0.6c-0.2-0.1-0.4-0.3-0.7-0.5c-0.1-0.1-0.2-0.2-0.3-0.2
			c-0.4-0.3-0.8-0.6-1.2-0.9c-0.1,0,0-0.1-0.1-0.2c-0.2-1,0-1.9,0.4-2.8c0.4-1,0.8-2,1.2-3c0.3-0.8,0.7-1.4,1.4-1.9
			c0.8-0.6,1.8-1.2,2.7-1.7c1.5-0.9,2.8-2,4.1-3.1c1.2-1.1,2.2-2.4,3.2-3.8c0.8-1.1,1.4-2.3,2.1-3.5
			C100.4,40.5,100.4,40.4,100.4,40.3L100.4,40.3z"/>
		<path class="st1" d="M81.1,13.4c-0.2,1.1-0.5,2.2-0.6,3.3c-0.1,0.9,0,1.8,0,2.7c0,0.5,0,1,0,1.5c-0.2,0-0.4,0.1-0.6,0.1
			c-1,0.5-2,0.9-2.9,1.5c-1.3,0.7-2.6,1.5-3.8,2.2c-0.6,0.3-1.3,0.3-1.9-0.1c-0.2-0.1-0.4-0.3-0.6-0.2c-1.3,0.2-2.6,0.4-3.9,0.8
			c-1.1,0.3-2.1,0.7-3.1,1.1c-1.1,0.5-2.2,1.1-3.2,1.8c-0.9,0.6-1.7,1.3-2.5,2l0.3-0.7l0-0.2c0,0,0.1-0.1,0.1-0.1l0,0
			c0.2-0.3,0.3-0.6,0.5-0.9l0,0c0,0,0-0.1,0.1-0.1c0,0,0,0,0-0.1c0,0,0-0.1,0.1-0.1c0,0,0,0,0-0.1c0,0,0-0.1,0.1-0.1c0,0,0,0,0,0
			c0.1-0.1,0.1-0.2,0.2-0.3l0,0c0,0,0-0.1,0.1-0.1c0-0.1,0.1-0.2,0.1-0.2c0.1-0.1,0.1-0.2,0.2-0.3l0,0c0,0,0-0.1,0.1-0.1
			c0,0,0,0,0-0.1c1.1-1.4,2-2.9,3.2-4.2c3.6-3.9,8-6.5,13.1-7.9C77.6,13.7,79.3,13.4,81.1,13.4L81.1,13.4z"/>
		<path class="st4" d="M89.6,2.3c1.1-0.5,2.1-0.9,3.2-1.4c-0.1,0.2-0.2,0.5-0.3,0.6c-0.5,0.5-1.1,0.8-1.7,1.3c-1.7,1.4-3,3.1-4,5
			c-1.3,2.3-1.9,4.9-2.1,7.5c-0.1,2,0,4,0.5,6c0.7,2.8,1.9,5.4,3.7,7.7c1.8,2.3,4,4.1,6.6,5.3c2.4,1.1,4.9,1.6,7.6,1.4
			c2.3-0.2,4.5-0.8,6.6-1.9c3-1.7,5.2-4,6.7-7c1.1-2.2,1.8-4.5,2-7c0-0.5,0.2-0.9,0.3-1.4c0.1,0.6,0.2,1.2,0.3,1.8c0,1,0,2,0,3.1
			c0,0.2-0.1,0.4-0.1,0.6c-0.3-0.1-0.4,0.1-0.4,0.3c-0.4,0.9-0.7,1.9-1.1,2.8c-1.2,2.3-2.7,4.4-4.8,6c-2.6,2.1-5.5,3.3-8.7,3.6
			c-1.8,0.2-3.7,0.1-5.5-0.4c-3.3-0.8-6.1-2.5-8.5-4.9c-1.7-1.7-3.1-3.7-4.1-5.9c-1.1-2.4-1.7-4.8-1.9-7.4c-0.1-1.9,0-3.7,0.4-5.6
			c0.8-3.5,2.2-6.6,4.8-9.1C89.2,3,89.4,2.6,89.6,2.3L89.6,2.3z"/>
		<path class="st1" d="M116.8,30.5c-0.6,0.7-1.2,1.5-1.9,2.1c-1.1,0.9-2.2,1.9-3.3,2.6c-2,1.3-4.2,2.1-6.5,2.5
			c-0.9,0.1-1.8,0.3-2.7,0.3c-1.7,0-3.3-0.2-4.9-0.7c-2.3-0.7-4.4-1.7-6.3-3.2c-2.2-1.7-4-3.7-5.4-6.1c-1.2-2-2-4.2-2.6-6.4
			c-0.5-2.1-0.6-4.2-0.5-6.4c0.2-3,1-5.8,2.4-8.4C85,6.4,85,6.2,85.1,5.9c0.8-0.8,1.7-1.5,2.5-2.3c0.2,0.4-0.1,0.6-0.3,0.8
			c-1,1.4-1.8,2.8-2.5,4.4c-0.7,1.9-1.3,3.8-1.4,5.8c-0.1,1.5-0.1,3.1,0,4.6c0.2,1.8,0.6,3.5,1.2,5.1c1,2.5,2.4,4.8,4.2,6.8
			c1.7,1.8,3.7,3.3,6,4.4c2,1,4.2,1.5,6.4,1.6c1.8,0.1,3.7-0.1,5.4-0.6c3.4-0.9,6.1-2.8,8.4-5.4c0.7-0.8,1.3-1.8,1.9-2.7
			c0.3-0.5,0.6-1.1,0.9-1.6c0.1,0.1,0.2,0.1,0.3,0.2c0,0.1-0.1,0.2-0.1,0.3c-0.1,0.2-0.1,0.4-0.2,0.5v0c-0.1,0.2-0.1,0.4-0.2,0.5v0
			c0,0.1-0.1,0.1-0.1,0.2l0,0c0,0.1-0.1,0.1-0.1,0.2l-0.1,0.2c0,0.1-0.1,0.1-0.1,0.2c0,0,0,0,0,0c0,0.1-0.1,0.1-0.1,0.2l0,0
			c-0.4,0.1-0.2,0.4-0.3,0.6c0,0,0,0,0,0C116.9,30.2,116.8,30.4,116.8,30.5L116.8,30.5z"/>
		<path class="st5" d="M118.7,18.3c-0.1,0.5-0.3,0.9-0.3,1.4c-0.2,2.5-0.8,4.8-2,7c-1.6,3-3.8,5.4-6.7,7c-2,1.1-4.2,1.8-6.6,1.9
			c-2.7,0.2-5.2-0.3-7.6-1.4c-2.7-1.2-4.8-3-6.6-5.3c-1.8-2.3-3-4.9-3.7-7.7c-0.5-2-0.6-4-0.5-6c0.2-2.6,0.9-5.2,2.1-7.5
			c1-1.9,2.3-3.6,4-5C91.4,2.4,92,2,92.5,1.5c0.2-0.1,0.2-0.4,0.3-0.6c0.4-0.1,0.8-0.2,1.2-0.3c0.4-0.1,0.9-0.2,1.3-0.3
			c-0.2,0.2-0.4,0.5-0.7,0.6c-1.3,0.6-2.5,1.4-3.6,2.3c-1.3,1.1-2.4,2.5-3.3,3.9c-1.2,2-2,4.3-2.4,6.6c-0.4,2.4-0.3,4.9,0.3,7.2
			c0.5,2.3,1.4,4.4,2.7,6.3c2,2.9,4.5,5.2,7.8,6.5c1.5,0.6,3,1,4.6,1.2c3.2,0.3,6.3-0.3,9.1-2c3.1-1.8,5.3-4.4,6.8-7.7
			c0.9-2,1.3-4,1.4-6.1c0-0.9,0-1.7,0-2.6c0-0.3,0.1-0.7,0.2-1C118.3,16.6,118.5,17.5,118.7,18.3L118.7,18.3z"/>
		<path class="st3" d="M118.3,27c-0.1,0-0.2-0.1-0.3-0.2c-0.3,0.5-0.6,1.1-0.9,1.6c-0.6,0.9-1.2,1.9-1.9,2.7c-2.3,2.6-5,4.5-8.4,5.4
			c-1.8,0.5-3.6,0.7-5.4,0.6c-2.2-0.1-4.4-0.7-6.4-1.6c-2.3-1.1-4.3-2.5-6-4.4c-1.8-2-3.2-4.3-4.2-6.8c-0.6-1.6-1.1-3.4-1.2-5.1
			c-0.1-1.5-0.1-3,0-4.6c0.1-2,0.6-3.9,1.4-5.8c0.6-1.6,1.5-3,2.5-4.4c0.2-0.2,0.5-0.4,0.3-0.8c0.7-0.5,1.4-0.9,2.1-1.4
			c-0.2,0.4-0.4,0.8-0.7,1.1c-2.5,2.6-4,5.7-4.8,9.1c-0.4,1.8-0.5,3.7-0.4,5.6c0.2,2.6,0.8,5,1.9,7.4c1,2.2,2.4,4.2,4.1,5.9
			c2.4,2.4,5.2,4,8.5,4.8c1.8,0.5,3.7,0.6,5.5,0.4c3.2-0.3,6.2-1.5,8.7-3.6c2.1-1.6,3.6-3.7,4.8-6c0.4-0.9,0.8-1.9,1.1-2.8
			c0.1-0.2,0.2-0.4,0.4-0.3C118.7,24.9,118.5,25.9,118.3,27L118.3,27z"/>
		<path class="st6" d="M117.1,30.1c0-0.2-0.1-0.5,0.3-0.6C117.3,29.7,117.2,29.9,117.1,30.1z"/>
		<path class="st6" d="M116.8,30.5c0.1-0.1,0.2-0.2,0.3-0.4c-0.1,0.2-0.2,0.4-0.3,0.5C116.8,30.6,116.8,30.6,116.8,30.5L116.8,30.5z
			"/>
		<path class="st6" d="M118,27.8c0.1-0.2,0.1-0.4,0.2-0.5C118.1,27.4,118.1,27.6,118,27.8z"/>
		<path class="st6" d="M117.8,28.4c0.1-0.2,0.1-0.4,0.2-0.5C117.9,28,117.9,28.2,117.8,28.4z"/>
		<path class="st6" d="M117.7,28.5c0-0.1,0.1-0.1,0.1-0.2C117.8,28.4,117.8,28.5,117.7,28.5z"/>
		<path class="st6" d="M117.4,29.5c0-0.1,0.1-0.1,0.1-0.2C117.4,29.3,117.4,29.4,117.4,29.5z"/>
		<path class="st6" d="M117.5,29.2c0-0.1,0.1-0.1,0.1-0.2C117.5,29.1,117.5,29.2,117.5,29.2z"/>
		<path class="st6" d="M117.7,28.8c0-0.1,0.1-0.1,0.1-0.2C117.7,28.6,117.7,28.7,117.7,28.8z"/>
		<path class="st7" d="M100.8,1.3c2.3,0,4.4,0.5,6.3,1.4c1.3,0.6,2.4,1.4,3.5,2.3c1.7,1.5,3,3.3,4,5.3c0.8,1.7,1.4,3.4,1.6,5.3
			c0.5,3.7-0.1,7.3-1.9,10.5c-1.9,3.4-4.7,5.7-8.5,6.8c-1.3,0.4-2.7,0.6-4.1,0.5c-3-0.1-5.7-1-8.1-2.8c-1.8-1.3-3.2-2.8-4.4-4.7
			c-1.2-1.9-2.1-4-2.3-6.2c-0.2-1.2-0.3-2.5-0.3-3.8c0-1.7,0.3-3.3,0.9-4.9S89,8,90,6.7c1.8-2.3,4.2-4,7.1-4.9
			C98.3,1.5,99.6,1.3,100.8,1.3L100.8,1.3z M107.1,4.6c0,0-0.1-0.1-0.1-0.1c-0.3-0.2-0.5-0.4-0.8-0.6c-0.5-0.4-1-0.7-1.5-1.1
			c0.4,0.7,0.9,1.3,1.3,1.9c0,0,0.1,0,0.1,0c0.6,0.8,1.2,1.6,1.8,2.4c0.1,0.1,0.1,0.3,0.2,0.4c0.8,1.2,1.7,2.4,2.5,3.6
			c0.2,0.3,0.4,0.5,0.6,0.8c0,0.1,0,0.2,0.1,0.3c0.4,0.6,0.8,1.2,1.2,1.8c0.3,0.6,0.7,1.1,1.1,1.7c0.1,0.2,0.2,0.5,0.3,0.7
			c0.4,0.7,0.8,1.5,1.2,2.2c0.1,0.1,0.2,0.2,0.4,0.3c0.1-0.1,0.1-0.3,0.1-0.4c0-0.4,0-0.8,0-1.1c0-0.2,0-0.4-0.1-0.6
			c0-0.1,0-0.2,0-0.3c0-0.1,0-0.2,0-0.4c-0.1-0.4-0.1-0.9-0.2-1.3c0-0.1-0.1-0.3-0.1-0.4c0-0.1,0-0.1,0-0.2c0,0,0-0.1,0-0.1
			c-0.1-0.3-0.2-0.6-0.3-0.8c-0.7-2-1.9-3.7-3.5-5.1c-0.4-0.3-0.8-0.7-1.1-1c-0.3-0.3-0.7-0.6-1-0.9c-0.3-0.3-0.7-0.5-1-0.8
			c-0.3-0.3-0.7-0.5-1-0.8C107.2,4.6,107.1,4.6,107.1,4.6L107.1,4.6z M101.2,6.4c-0.6,0-1.1,0-1.7,0.1c-3.2,0.6-5.5,2.5-7,5.4
			c-1.1,2.2-1.4,4.6-1,7c0.4,2.5,1.5,4.6,3.3,6.4c2.3,2.2,5,3.3,8.3,2.9c2.5-0.3,4.4-1.5,6-3.3c2.2-2.6,2.9-5.8,2.4-9.1
			c-0.4-2.7-1.7-5-3.8-6.9C105.9,7.3,103.7,6.4,101.2,6.4L101.2,6.4z"/>
		<path class="st8" d="M58,29.2c-0.1,0.2-0.2,0.5-0.3,0.7l0,0c0,0.1-0.1,0.1-0.1,0.2l0,0c0,0.1-0.1,0.1-0.1,0.2l0,0l-0.1,0.3l0,0
			c0,0.1,0,0.1-0.1,0.2l0,0c0,0.1-0.1,0.2-0.1,0.3l0,0c0,0.1,0,0.1-0.1,0.2c0,0,0,0,0,0.1L57,31.5v-0.6c-0.2,0.1-0.3,0.2-0.4,0.3
			c-1,0.9-2.1,1.9-3.1,2.8c-1.3,1.2-2.7,2.3-4.1,3.4c-0.9,0.7-1.8,1.2-2.8,1.8c-1.3,0.7-2.6,1.3-3.9,2c-1,0.5-1.8,1.2-2.8,1.7
			c-2.3,1.1-4.3,2.6-6.4,3.9c-1.6,1-3.1,2.2-4.5,3.4c-1.4,1.2-2.8,2.4-4.2,3.6c-0.9,0.8-1.6,1.6-2.4,2.5c-0.8,0.9-1.6,1.8-2.4,2.8
			c-0.7,0.9-1.2,1.8-1.8,2.7c-1.1,1.5-1.7,3.2-2.4,4.9c-0.5,1.4-0.6,2.8-0.8,4.2s-0.1,2.8,0.3,4.2c0.1,0.4,0.2,0.9,0.4,1.3
			c0.3,1,0.6,2,1.1,2.9c0.6,1.2,1.4,2.4,2.1,3.5c0.5,0.8,1.1,1.6,1.8,2.2c0.8,0.8,1.7,1.6,2.6,2.3c2.5,2.2,5.6,3.5,8.8,4.5
			c1.6,0.5,3.2,0.8,4.8,0.9c1.5,0.1,3.1,0.3,4.7,0.3c1.1,0,2.2-0.1,3.3-0.2c1.7-0.2,3.3-0.3,5-0.6c2-0.3,4-0.6,5.9-1.1
			c1.9-0.4,3.8-1,5.7-1.6c1.5-0.5,3-1,4.6-1.5c0.9-0.3,1.8-0.7,2.7-1.1c1.6-0.7,3.2-1.3,4.8-2.1c1.9-0.9,3.8-1.9,5.6-3
			c2.1-1.2,4.2-2.6,6.3-3.9c1.9-1.3,3.8-2.8,5.6-4.3c1.4-1.2,2.8-2.5,4.2-3.7c0.4-0.4,0.8-0.8,1.2-1.2c0.8-0.8,1.6-1.6,2.3-2.4
			c1.1-1.3,2.1-2.7,3.2-4.1c0.5-0.7,1-1.4,1.5-2.2c-0.2,0-0.2,0-0.3-0.1c0.1-0.1,0.2-0.2,0.2-0.4c1.9-2,3.4-4.2,4.6-6.7
			c0-0.1,0.1-0.1,0.2-0.2c-0.1,0.5,0,1-0.2,1.4c-0.4,1.1-0.9,2.2-1.4,3.3c-1.2,2.5-2.8,4.8-4.5,7c-1.8,2.3-3.8,4.5-6,6.5
			c-1.7,1.6-3.6,3.1-5.4,4.6c-1.4,1.1-2.8,2.2-4.3,3.2c-1.3,0.9-2.6,1.8-3.9,2.5c-2.6,1.5-5.3,3-8,4.3c-2.1,1.1-4.3,2-6.5,2.9
			c-2,0.8-4,1.5-6.1,2.2c-2.4,0.7-4.8,1.4-7.3,2c-2,0.5-4,0.7-6,1c-1.1,0.2-2.2,0.2-3.2,0.3c-2.5,0.3-5,0.3-7.5,0.2
			c-0.7,0-1.4-0.2-2.1-0.3c-0.6-0.1-1.2-0.2-1.8-0.3c-1.4-0.2-2.8-0.4-4.1-1c-1.3-0.6-2.6-1-3.9-1.6c-1.7-0.8-3.2-1.9-4.6-3.1
			c-1.9-1.6-3.4-3.4-4.7-5.4c-0.8-1.3-1.5-2.7-2.1-4.1c-0.6-1.4-0.9-3-1-4.6c-0.1-1.3,0.2-2.6,0.3-3.9c0.1-1.8,0.9-3.3,1.4-4.9
			c0.7-2.1,2-3.8,3.3-5.5c1-1.3,2.1-2.6,3.2-3.8c1.5-1.6,3.1-3.2,4.7-4.7c0.9-0.9,2-1.6,3-2.4c1.5-1.1,3-2.2,4.6-3.2
			c1.6-1,3.3-1.9,4.9-3c1.2-0.8,2.4-1.5,3.7-2.1c0.7-0.3,1.3-0.6,2-0.9c0.9-0.4,1.8-0.9,2.7-1.3c0.6-0.3,1.3-0.7,1.8-1.2
			c0.2-0.3,0.6-0.5,0.9-0.7c0.9-0.7,1.9-1.4,2.8-2.1c0.6-0.5,1.1-1,1.6-1.5c1.1-1,2.2-2.1,3.2-3.1c0.2-0.2,0.4-0.3,0.6-0.5
			C57.7,29.2,57.9,29.2,58,29.2L58,29.2z"/>
		<path class="st9" d="M108.9,50.5c0.2-0.5,0.3-1.1,0.5-1.6c0,0.2,0,0.4-0.1,0.5C109.2,49.8,109.1,50.1,108.9,50.5z"/>
		<path class="st9" d="M58.6,28c-0.2,0.3-0.3,0.6-0.5,0.9C58.3,28.6,58.4,28.3,58.6,28z"/>
		<path class="st9" d="M108.1,52.5c0.1-0.2,0.2-0.4,0.2-0.6C108.2,52.2,108.2,52.3,108.1,52.5z"/>
		<path class="st9" d="M108.4,51.7c0.1-0.1,0.1-0.3,0.2-0.4C108.5,51.4,108.5,51.6,108.4,51.7z"/>
		<path class="st9" d="M59.4,26.5c-0.1,0.1-0.1,0.2-0.2,0.3C59.3,26.7,59.4,26.6,59.4,26.5z"/>
		<path class="st9" d="M59.1,27.2c-0.1,0.1-0.1,0.2-0.2,0.3C58.9,27.4,59,27.3,59.1,27.2z"/>
		<path class="st9" d="M108.6,51.2c0-0.1,0.1-0.1,0.1-0.2C108.7,51.1,108.6,51.2,108.6,51.2z"/>
		<path class="st9" d="M108.8,50.8c0-0.1,0.1-0.1,0.1-0.2C108.9,50.6,108.8,50.7,108.8,50.8z"/>
		<path class="st9" d="M58.8,27.7c0,0,0,0.1-0.1,0.1L58.8,27.7z"/>
		<path class="st9" d="M58.8,27.5c0,0,0,0.1-0.1,0.1C58.8,27.6,58.8,27.6,58.8,27.5z"/>
		<path class="st9" d="M58.7,27.9c0,0,0,0.1-0.1,0.1C58.6,28,58.6,27.9,58.7,27.9z"/>
		<path class="st9" d="M58.1,28.9c0,0-0.1,0.1-0.1,0.1C58.1,29,58.1,29,58.1,28.9z"/>
		<path class="st9" d="M108.3,51.9c0,0,0.1-0.1,0.1-0.1C108.4,51.8,108.4,51.8,108.3,51.9z"/>
		<path class="st10" d="M59.1,27.1c0,0,0,0.1-0.1,0.1C59.1,27.1,59.1,27.1,59.1,27.1z"/>
		<path class="st9" d="M59.5,26.4c0,0,0,0.1-0.1,0.1C59.4,26.5,59.5,26.5,59.5,26.4z"/>
		<path class="st8" d="M107.7,53.2C107.7,53.2,107.8,53.1,107.7,53.2C107.8,53.1,107.7,53.2,107.7,53.2z"/>
		<path class="st10" d="M83,33.5c-0.2,0.9,0.3,1.6,0.7,2.3c0.1-0.2,0.2-0.3,0.3-0.6c0.1,0.3,0.2,0.5,0.2,0.7c0,0.1-0.1,0.3-0.2,0.4
			c-0.1,0.1-0.3,0.1-0.2,0.1c0.1,0.5-0.3,1.1,0.1,1.7c0.4,0.5,0.3,0.5-0.4,0.6c0.1,0.3,0.2,0.7,0.3,0.9c-0.2,0.2-0.6,0.5-0.7,0.7
			s0.1,0.6,0.2,0.9c-0.2,0-0.4,0-0.6,0c0.1,0.3,0.1,0.6,0.2,1c-0.1,0.1-0.2,0.5-0.7,0.3c-0.1,0-0.2,0.1-0.2,0.2c0,0.1,0,0.3,0.1,0.4
			c0.1,0.2,0.2,0.3,0.2,0.5c-0.2,0.1-0.4,0.2-0.6,0.3c-0.3,0-0.2,0.1-0.2,0.3c0.2,1.1,1.1,1.8,2,2.4c0.5,0.3,1,0.7,1.5,1.1
			c0.5,0.4,0.4,1.1-0.2,1.5c-0.6,0.4-1.3,0.5-2,0.6c-3.2,0.2-5.9-1.2-8.4-2.9c-0.7-0.5-1.2-1-1.9-1.4c-0.3-0.2-0.8-0.4-1.2-0.6
			c-0.1,0-0.2,0-0.3,0.1c-0.2,0.2-0.3,0.3-0.5,0.5c-0.1,0.1-0.2,0.1-0.2,0.2c0.1,0.5-0.3,0.5-0.6,0.6c-0.2,0.1-0.4,0.2-0.5,0.4
			c-0.2,0.3-0.7,0.4-1,0.2c-0.3-0.3-0.7-0.3-1,0c-0.5,0.4,0,0,0,0c-0.2,0.3-0.5-0.3-0.9,0.1c-0.3,0.3-0.5,0-0.7-0.3
			c-1.3-1.6-2.1-3.5-2.6-5.5c-0.4-1.6-0.5-3.3-0.2-5c0.1-0.7,0.5-1.4,0.9-2.1c0.4-0.6,1-1.2,1.5-1.8c0.2-0.2,0.3-0.5,0.5-0.7
			c0.8-0.9,1.8-1.1,2.9-0.7c0.6,0.3,1-0.1,1.4-0.4c0.9-0.8,1.7-1.8,2.6-2.6c1-0.9,2.1-1.6,3.4-1.9c0.4-0.1,0.9-0.2,1.2,0.2
			c0.1,0.2,0.2,0.4,0.2,0.6c0,0.5,0.1,1,0,1.4c-0.1,0.6,0.2,1.1,0.5,1.6c0.1,0.1,0.2,0.2,0.3,0.2c0.4,0,0.7,0.1,0.9,0.5
			c0.1,0.2,0.2,0.3,0.5,0.2c0.3-0.1,0.7,0,0.7,0.5c0,0.1,0.3,0.4,0.4,0.3c0.4-0.1,0.4,0.1,0.5,0.4c0.1,0.5,0.3,0.7,0.8,0.7
			c0.3,0,0.3,0,0.3,0.3C82.3,33.6,82.3,33.6,83,33.5L83,33.5z M75.7,29.4C75.7,29.4,75.6,29.4,75.7,29.4c-0.1-0.2,0-0.4-0.1-0.6
			c0-0.3-0.2-0.7-0.5-0.7c-0.4,0-0.8,0-1.1,0.1c-1.5,0.6-2.4,1.8-3.1,3.1c-1,2-1.2,4.1-0.9,6.3c0.1,0.5,0.2,1,0.3,1.5
			c0.3,1,0.7,2,1.2,3c0.8,1.5,2,2.8,3.3,3.9c1,0.9,2.2,1.5,3.4,1.9c0.7,0.2,1.4,0.3,2.2,0.3c0.3,0,0.6-0.2,0.8-0.4
			c0.1-0.1-0.1-0.5-0.2-0.7c-0.1-0.2-0.3-0.4-0.5-0.6c-0.8-0.9-1.5-1.8-2.3-2.7c-0.8-0.9-1.2-2.1-1.7-3.2c-0.3-0.5-0.3-1.1-0.6-1.7
			c-0.5-1.2-0.7-2.5-0.8-3.8c0-0.5,0-0.9,0-1.4c0-0.5,0-1.1,0.1-1.6C75.4,31.3,75.5,30.3,75.7,29.4L75.7,29.4z"/>
		<path class="st1" d="M92.7,38.3c0.8,0.3,1.7,0.7,2.5,1c-0.1,0.3-0.1,0.7-0.2,0.9c-0.4,0.7-0.6,1.4-0.4,2.2
			c0.1,0.3,0.1,0.5,0.3,0.8c0.2,0.4,0.3,0.8,0.3,1.2c-0.2,1.4-1,2.4-1.9,3.4c-1.7,2-3.9,3.3-6.3,4.2c-1,0.4-2,0.9-2.6,1.9
			c-0.8,1.4-1.8,2.6-3,3.8c-0.9,0.9-1.7,2-2.4,3c-0.4,0.6-0.7,1.3-0.4,2c0.1,0.3,0.3,0.5,0.3,0.8c0,0.5,0.3,0.6,0.7,0.8
			c0.1,0.1,0.3,0.2,0.3,0.3c-0.1,0.4,0.2,0.4,0.4,0.5c2.3,1.2,4.8,2.1,7.4,2.5c0.4,0.1,0.7,0.1,1.2,0.2c-0.3,0.1-0.5,0.2-0.7,0.3
			c0,0.1-0.1,0.1-0.1,0.1c-0.4,0.1-0.8,0.1-1.2,0.1c-0.6,0.1-1.2,0.1-1.8,0.2c-1.2,0-2.3,0.1-3.5,0.1c-1.3-0.2-2.6-0.4-3.9-0.6
			c-0.1,0-0.2-0.1-0.3-0.1c-0.7-0.2-1.5-0.3-2.2-0.5c-0.8-0.2-1.5-0.5-2.2-0.8l0,0c-0.2-0.1-0.3-0.1-0.5-0.2l0,0
			c-0.2-0.1-0.4-0.2-0.7-0.3l0,0c-0.1,0-0.1-0.1-0.2-0.1l0,0c-0.5-0.2-1-0.5-1.5-0.7c-0.1-0.1-0.2-0.1-0.2-0.2
			c-3.2-1.8-6.1-4.1-8.3-7c-0.8-1.1-1.6-2.3-2.4-3.5c0,0-0.1-0.1-0.1-0.1l0,0c-0.2-0.5-0.5-0.9-0.7-1.4c0-0.1-0.1-0.1-0.1-0.2l0,0
			c0-0.1-0.1-0.1-0.1-0.2l0,0c0-0.1-0.1-0.1-0.1-0.2l0,0c0-0.1-0.1-0.3-0.1-0.4c-0.4-1.2-0.8-2.4-1.3-3.6c0,0,0-0.1,0-0.1
			c0,0,0,0,0,0c0.1,0.2,0.2,0.3,0.4,0.5c0.5,0.7,0.9,1.3,1.4,2c1.1,1.3,2.3,2.5,3.5,3.7c1.1,1,2.4,2,3.6,2.9c0.6,0.4,1.2,0.8,2,0.8
			c0,0,0.1,0,0.1,0.1c0,0,0.1,0.1,0.1,0.1l0.1,0c0.3,0.1,0.6,0.2,1,0.3c1.1,0.3,2.1,0.7,3.2,1c0.4,0.1,0.8,0.1,1.2-0.2
			c0.5-0.5,1-1.1,1.8-1c0.1,0,0.2-0.1,0.3-0.2c0.8-0.3,1.3-1.2,2.3-1.1c0.1,0,0.2-0.1,0.2-0.1c0.5-0.3,0.9-0.7,1.4-1
			c0.4-0.3,0.7-0.7,1.3-0.6c0.1,0,0.2,0,0.2-0.1c0.5-0.5,1.1-1,1.4-1.6c0.4-0.8,1.1-1.1,1.8-1.4c0.9-0.4,2-0.7,3-1
			c2.1-0.8,3.9-1.9,5.2-3.7c0.5-0.6,0.8-1.3,0.4-2.2c-0.3-0.6-0.4-1.3-0.3-2c0-0.3,0.1-0.7,0.1-1c0-0.4-0.1-0.8-0.1-1.1
			c0.1-0.8,0.2-1.6,0.4-2.4C92.5,38.8,92.6,38.6,92.7,38.3L92.7,38.3z"/>
		<path class="st1" d="M108.7,38.6c0,0.3,0,0.7,0,1c0.1,2.4-0.1,4.7-0.9,7c-0.7,1.9-1.7,3.6-3,5.1c-1.4,1.6-3.1,2.9-4.9,3.8
			c-1.3,0.7-2.8,1.2-4.3,1.4c-0.7,0.1-1.5,0.3-2.2,0.3c-0.5,0-0.9-0.5-1.5-0.5c-0.2,0-0.4-0.3-0.6-0.5c-0.4-0.5-0.3-1.1-0.5-1.7
			c-0.3-1.5,0.6-2.3,1.6-3.2c1.6-1.2,3.1-2.4,4.6-3.8c1.5-1.4,2.8-3,3.7-4.9c0.3-0.6,0.6-1.2,0.9-1.8c0.1-0.2,0.1-0.3,0.1-0.5
			c1.1-0.2,2.1-0.2,3.1-0.5c1.2-0.3,2.3-0.7,3.4-1.1C108.4,38.7,108.6,38.6,108.7,38.6L108.7,38.6z"/>
		<path class="st1" d="M80.6,22.1c0.2,0.8,0.4,1.7,0.6,2.5c0.3,1,0.7,2.1,1.1,3.1c0.2,0.4,0.4,0.9,0.5,1.3c0,0.1-0.1,0.3-0.1,0.4
			c-0.1-0.1-0.3-0.1-0.4-0.2c-0.2-0.3-0.4-0.5-0.8-0.5c-0.2,0-0.3,0-0.5-0.1c-0.6-0.3-1.3-0.6-1.8-1c-0.2-0.2-0.2-0.7-0.2-1.1
			c0-0.4,0.1-0.8,0-1.2c-0.1-0.6-0.5-0.9-1.1-0.8c-2,0.2-3.5,1.2-5.1,2.3c-0.6,0.4-1.1,0.9-1.7,1.3c-0.7,0.5-1.4,0.9-2.3,0.6
			c-0.8-0.2-1.6,0-2.3,0.3c-0.5,0.2-1.1,0.3-1.4,0.9c0,0.1-0.2,0.1-0.2,0.1c-0.9,0.4-1.7,1-2.4,1.7c-1,1.1-1.8,2.5-2.3,3.9
			c-0.3,0.9-0.4,1.9-0.4,2.8c0.1,2,0.5,4,1.4,5.9c0.8,1.7,1.8,3.3,3.2,4.7c0.7,0.7,1.5,1.5,2.3,2.2c0.4,0.3,0.8,0.3,1.4,0.2
			c0.6-0.1,1.2-0.3,1.9-0.1c0.6,0.3,1,0,1.5-0.3c0.6-0.3,1.2-0.6,1.9-0.3c0.7,0.3,0.8,0.2,1.1-0.4c0.3-0.5,0.6-0.6,1.2-0.7
			c1.4-0.2,2.6,0.5,3.8,0.7c1.9,0.4,3.9,0.5,5.8-0.2c0.8-0.3,1.6-0.6,2.1-1.3c0.6-0.9,0.3-1.2-0.3-1.9c-0.2-0.2-0.5-0.5-0.7-0.7
			c-0.1-0.1-0.1-0.2-0.1-0.3c0.2-0.8,0.3-1.5,0.5-2.3c0.1-0.4,0.2-0.7,0.3-1.2c0-0.4,0.2-0.7,0-1.1c0,0,0.1-0.2,0.1-0.2
			c0.1-0.3,0.2-0.7,0.3-1.1c0.1-0.2,0.2-0.5,0.2-0.7c0-0.2,0-0.3,0-0.5c0-0.2,0-0.5,0.1-0.7c0-0.4,0.1-0.8,0.1-1.2
			c0-0.4,0-0.8,0-1.2c0-0.2,0.1-0.5,0.4-0.3c0.7,0.5,1.3,1,1.9,1.5c0,0.3-0.1,0.5-0.1,0.8c0,0.4,0,0.8-0.1,1.2
			c-0.2,1.1-0.4,2.1-0.3,3.2c0,0.7-0.2,1.4-0.3,2.1c-0.2,0.8-0.3,1.5,0.2,2.2c0.5,0.7,0.4,1.3-0.1,1.9c-0.9,1.3-2.2,2-3.6,2.5
			c-1.8,0.7-3.6,0.6-5.5,0.8c-0.9,0.1-1.6,0.5-2.2,1.2c-0.5,0.6-1,1.3-1.9,1.2c-0.1-0.1-0.2-0.2-0.2-0.2c-0.7-0.2-1.4-0.3-2.1-0.5
			c-0.9-0.2-1.7-0.4-2.6,0c-0.2,0.1-0.5,0.1-0.8,0c-0.6-0.2-1.2-0.4-1.9-0.6c-0.3-0.1-0.6-0.1-0.8-0.1c-0.2,0-0.5,0-0.7-0.2
			c-0.8-0.6-1.6-1.2-2.3-1.9c-0.8-0.8-1.5-1.7-2.2-2.5c-0.1-0.1-0.2-0.3-0.4-0.4c-0.1,0.2-0.2,0.3-0.3,0.4c-0.3-0.5-0.6-1-0.8-1.6
			c0.4,0,0.3-0.3,0.2-0.5c-0.8-1.2-1.3-2.5-1.7-3.9c-0.6-2-0.8-4-0.3-6c0.1-0.2,0-0.5,0-0.7c0-0.6,0-1.2,0.2-1.7
			c0.3-0.6,0.7-1.2,1.2-1.7c0.6-0.7,0.7-0.8,0-1.5c0.2-0.2,0.4-0.5,0.7-0.6c1.5-1.1,3.1-2.1,5-2.7c0.4-0.1,0.8-0.3,1.3-0.4
			c0.7-0.2,1.3-0.3,2-0.1c0.3,0.1,0.6,0.1,0.8,0.1c0.8,0,1.4-0.5,1.9-0.9c1.7-1.1,3.4-2.2,5.3-3C78.9,22.6,79.8,22.4,80.6,22.1
			L80.6,22.1z"/>
		<path class="st10" d="M80.6,22.1c-0.9,0.3-1.7,0.5-2.6,0.9c-1.9,0.8-3.6,1.9-5.3,3c-0.6,0.4-1.2,0.9-1.9,0.9c-0.3,0-0.6,0-0.8-0.1
			c-0.7-0.2-1.4-0.1-2,0.1c-0.4,0.1-0.8,0.3-1.3,0.4c-1.8,0.6-3.4,1.6-5,2.7c-0.2,0.2-0.5,0.4-0.7,0.6c-0.1,0-0.2,0.1-0.3,0.1
			c-0.6,0.7-1.3,1.4-1.9,2.2c-1,1.2-1.6,2.6-1.8,4.2c-0.2,1.4-0.2,2.8,0.1,4.2c0.3,1.2,0.6,2.4,1.1,3.5c0.6,1.3,1.3,2.5,2,3.7
			c0.2,0.3,0.3,0.8,0.9,0.7c0,0,0,0.1,0,0.1c0,0.1,0,0.1,0,0.2c0,0,0,0,0,0c0,0,0,0,0,0c0,0.1,0.1,0.2,0.1,0.4
			c0.1,0.4,0.2,0.8,0.2,1.2c0.4,1.1,0.8,2.1,1.6,3l1.1,1.3c0.2,0.2,0.4,0.4,0.6,0.6c0.2,0.2,0.4,0.3,0.7,0.5
			c0.1,0.1,0.2,0.2,0.3,0.3c0.6,0.5,1.1,1,1.7,1.5c-0.8,0-1.4-0.4-2-0.8c-1.3-0.9-2.5-1.8-3.6-2.9c-1.2-1.2-2.4-2.4-3.5-3.7
			c-0.5-0.6-0.9-1.3-1.4-2c-0.1-0.2-0.2-0.3-0.4-0.5c0,0,0,0,0,0c0,0,0,0.1,0,0.1c-0.1-0.2-0.2-0.4-0.2-0.7
			c-0.2-0.7-0.3-1.4-0.5-2.2c-0.1-0.7-0.3-1.5-0.4-2.2c0-0.7,0-1.4-0.1-2.2c0-0.8,0-1.5,0.1-2.3c0.1-0.6,0.1-1.2,0.2-1.9
			c0-0.2,0-0.5,0-0.7c0.1-0.4,0.2-0.9,0.3-1.3c0-0.1,0-0.1,0-0.2c0.1-0.2,0.1-0.5,0.2-0.8c0-0.1,0-0.2,0-0.2c0,0,0-0.1,0.1-0.2
			c0-0.1,0-0.2,0.1-0.2l0,0c0-0.1,0-0.2,0.1-0.2c0,0,0-0.1,0-0.1l0-0.4c0.1-0.1,0.1-0.1,0.2-0.2c0.1-0.2,0.1-0.3,0.2-0.5v0
			c0-0.1,0.1-0.2,0.1-0.3l0,0c0-0.1,0.1-0.2,0.1-0.2v0c0.1-0.2,0.1-0.3,0.2-0.5c0,0,0,0,0-0.1c0-0.1,0-0.1,0.1-0.2l0,0
			c0-0.1,0.1-0.2,0.1-0.3l0,0c0-0.1,0-0.1,0.1-0.2l0,0c0-0.1,0.1-0.2,0.1-0.3l0,0c0-0.1,0.1-0.1,0.1-0.2l0,0c0-0.1,0.1-0.1,0.1-0.2
			l0,0c0.8-0.7,1.7-1.4,2.5-2c1-0.7,2.1-1.2,3.2-1.8c1-0.5,2.1-0.9,3.1-1.1c1.3-0.3,2.6-0.5,3.9-0.8c0.2,0,0.4,0.1,0.6,0.2
			c0.6,0.4,1.3,0.4,1.9,0.1c1.3-0.7,2.6-1.5,3.8-2.2c1-0.5,1.9-1,2.9-1.5c0.2-0.1,0.4-0.1,0.6-0.1C80.5,21.2,80.6,21.7,80.6,22.1
			L80.6,22.1z"/>
		<path class="st10" d="M88,68.3c0.2-0.1,0.4-0.2,0.7-0.3c-0.4-0.1-0.8-0.1-1.2-0.2c-2.6-0.4-5-1.3-7.4-2.5
			c-0.2-0.1-0.5-0.2-0.4-0.5c0-0.1-0.2-0.2-0.3-0.3c-0.3-0.2-0.6-0.3-0.7-0.8c0-0.3-0.3-0.5-0.3-0.8c-0.2-0.8,0-1.4,0.4-2
			c0.8-1,1.5-2.1,2.4-3c1.1-1.2,2.1-2.4,3-3.8c0.6-1,1.6-1.5,2.6-1.9c2.4-1,4.6-2.3,6.3-4.2c0.8-1,1.7-2,1.9-3.4
			c0-0.4-0.1-0.9-0.3-1.2c-0.2-0.3-0.2-0.5-0.3-0.8c-0.2-0.8-0.1-1.5,0.4-2.2c0.2-0.3,0.2-0.6,0.2-0.9c1.1,0.2,2.1,0.5,3.1,0.7
			c0.4,0.1,0.8,0.1,1.1,0.2c-0.1,0.3-0.2,0.7-0.4,1c-1.1,1.6-2.1,3.2-3.2,4.7c-1.1,1.5-2.4,2.8-3.9,3.8c-1.2,0.9-2.6,1.5-3.8,2.3
			c-0.6,0.4-1.3,0.8-1.8,1.3c-0.6,0.6-0.9,1.4-1.4,2.1c-0.6,0.9-1.2,1.8-1.7,2.8c-0.4,0.8-0.8,1.6-1.1,2.4c-0.3,0.8,0.2,1.4,0.5,2
			c0.1,0.2,0.5,0.3,0.8,0.5c0.2,0.1,0.4,0.2,0.5,0.3c0.1,0.4,0.3,0.4,0.6,0.5c1.7,0.6,3.3,1.1,5.1,1.2c1.3,0.1,2.6,0.2,3.8,0.2
			c0.6,0,1.2-0.1,1.8-0.1c0.1,0,0.3,0.1,0.4,0.2c-0.2,0.1-0.4,0.2-0.6,0.3c-0.8,0.4-1.6,0.8-2.4,1.1L91,67.6l0,0
			c-0.2,0.1-0.4,0.1-0.7,0.2l0,0c-0.2,0-0.4,0.1-0.5,0.1C89.2,68,88.6,68.2,88,68.3L88,68.3z"/>
		<path class="st10" d="M76.5,54.2c1,0.1,1.4-0.6,1.9-1.2c0.6-0.7,1.3-1.1,2.2-1.2c1.8-0.2,3.7-0.1,5.5-0.8c1.4-0.5,2.8-1.2,3.6-2.5
			c0.4-0.6,0.5-1.2,0.1-1.9c-0.5-0.7-0.4-1.4-0.2-2.2c0.2-0.7,0.3-1.4,0.3-2.1c0-1.1,0.1-2.2,0.3-3.2c0.1-0.4,0-0.8,0.1-1.2
			c0-0.3,0.1-0.5,0.1-0.8c0.7,0.4,1.5,0.8,2.2,1.2c-0.1,0.3-0.1,0.5-0.2,0.8c-0.1,0.8-0.3,1.6-0.4,2.4c0,0.4,0.1,0.8,0.1,1.1
			c0,0.3,0,0.7-0.1,1c-0.1,0.7,0.1,1.4,0.3,2c0.4,0.8,0,1.5-0.4,2.2c-1.3,1.8-3.2,2.9-5.2,3.7c-1,0.4-2,0.6-3,1
			c-0.7,0.3-1.3,0.7-1.8,1.4c-0.3,0.6-0.9,1.1-1.4,1.6c-0.1,0.1-0.2,0.1-0.2,0.1c-0.6-0.1-0.9,0.3-1.3,0.6c-0.5,0.4-0.9,0.7-1.4,1
			c-0.1,0-0.2,0.1-0.2,0.1c-1-0.1-1.5,0.8-2.3,1.1c-0.1,0-0.2,0.2-0.3,0.2c-0.8,0-1.3,0.6-1.8,1c-0.4,0.3-0.8,0.3-1.2,0.2
			c-1.1-0.3-2.2-0.6-3.2-1c-0.3-0.1-0.7-0.2-1-0.3c-0.6-0.9-1.1-1.8-1.6-2.7c0,0-0.1-0.1-0.1-0.1c-0.1-0.1-0.1-0.2-0.2-0.4
			c0,0-0.1-0.1-0.1-0.1s0,0,0-0.1c0,0-0.1-0.1-0.1-0.1L65.5,55c0,0,0,0-0.1-0.1c0,0,0-0.1,0-0.1c0,0-0.1-0.1-0.1-0.1s0,0,0-0.1
			c0,0-0.1-0.1-0.1-0.1c-0.1-0.2-0.2-0.4-0.3-0.6c0.2,0,0.3,0,0.5,0.1c1.1,0.7,2.2,1.3,3.3,2c0.7,0.4,1.3,0.6,2.1,0.3
			c1.1-0.4,2.2-0.6,3.3-1c0.3-0.1,0.7-0.2,1-0.4C75.6,54.8,76.1,54.5,76.5,54.2L76.5,54.2z"/>
		<path class="st10" d="M95.7,65.6c-0.1-0.1-0.3-0.2-0.4-0.2c-0.6,0-1.2,0.1-1.8,0.1c-1.3,0-2.6-0.1-3.8-0.2
			c-1.8-0.2-3.4-0.6-5.1-1.2c-0.3-0.1-0.5-0.2-0.6-0.5c0-0.1-0.3-0.2-0.5-0.3c-0.3-0.2-0.7-0.2-0.8-0.5c-0.3-0.6-0.8-1.3-0.5-2
			c0.3-0.8,0.7-1.6,1.1-2.4c0.5-1,1.2-1.9,1.7-2.8c0.4-0.7,0.8-1.5,1.4-2.1c0.5-0.5,1.2-0.9,1.8-1.3c1.3-0.8,2.6-1.5,3.8-2.3
			c1.5-1.1,2.8-2.4,3.9-3.8c1.1-1.5,2.2-3.1,3.2-4.7c0.2-0.3,0.2-0.7,0.4-1c0.3,0,0.6,0.1,0.9,0.1c0,0.1,0,0.2,0,0.3
			c-0.7,1.2-1.3,2.3-2.1,3.5c-0.9,1.4-1.9,2.7-3.2,3.8c-1.3,1.2-2.6,2.2-4.1,3.1c-0.9,0.5-1.8,1.1-2.7,1.7c-0.6,0.5-1.1,1.1-1.4,1.9
			c-0.4,1-0.8,2-1.2,3c-0.3,0.9-0.6,1.8-0.4,2.8c0,0.1,0,0.2,0.1,0.2c0.4,0.3,0.8,0.6,1.2,0.9c0.1,0.1,0.2,0.2,0.3,0.2
			c0.2,0.2,0.4,0.4,0.7,0.5c2.1,0.5,4.2,0.8,6.3,0.6c1.5-0.1,3-0.4,4.5-0.8c1.2-0.3,2.4-0.9,3.6-1.4c0.1,0,0.3-0.1,0.4-0.1
			c0,0,0,0.1,0.1,0.1h0c0,0-0.1,0-0.1,0.1l0,0c0,0-0.1,0-0.1,0.1v0c-0.2,0.2-0.4,0.4-0.7,0.6c-0.4,0.4-0.9,0.8-1.4,1.2
			c-1.3,0.9-2.7,1.9-4.1,2.8l0,0C96.1,65.4,95.9,65.5,95.7,65.6L95.7,65.6z"/>
		<path class="st11" d="M102.5,60.6c0,0,0-0.1-0.1-0.1c0.2-0.1,0.3-0.2,0.5-0.4c-0.1,0.1-0.2,0.2-0.2,0.4
			C102.7,60.5,102.6,60.5,102.5,60.6L102.5,60.6z"/>
		<path class="st12" d="M101.2,6.4c2.6,0,4.7,0.9,6.6,2.6c2.1,1.8,3.4,4.2,3.8,6.9c0.5,3.3-0.2,6.5-2.4,9.1c-1.6,1.9-3.6,3-6,3.3
			c-3.2,0.4-6-0.7-8.3-2.9c-1.8-1.8-2.9-3.9-3.3-6.4c-0.4-2.4-0.2-4.8,1-7c1.5-2.9,3.8-4.8,7-5.4C100,6.4,100.6,6.4,101.2,6.4
			L101.2,6.4z"/>
		<path class="st13" d="M115.5,16.4c0,0.1,0,0.2,0,0.3c0-0.1-0.1-0.2-0.1-0.3c0-0.2,0-0.4-0.1-0.6c-0.2-0.2-0.5-0.4-0.7-0.6
			c-0.9-0.9-1.7-1.8-2.6-2.7c-0.2-0.2-0.5-0.4-0.7-0.6c-0.2-0.2-0.4-0.5-0.6-0.8c-0.8-1.2-1.7-2.4-2.5-3.6c-0.1-0.1-0.2-0.3-0.2-0.4
			c0-0.2,0-0.3,0-0.5c-0.1-0.3-0.3-0.6-0.4-0.9c-0.1-0.4-0.4-0.7-0.2-1.2c0.3,0.3,0.7,0.5,1,0.8c0.2,0.6,0.3,1.2,0.6,1.7
			c0.7,1.4,1.6,2.7,2.6,3.9c0.7,0.9,1.4,1.7,2.1,2.5c0.4,0.5,0.9,0.9,1.3,1.3c0.3,0.3,0.4,0.2,0.5-0.1c0.1,0.4,0.1,0.9,0.2,1.3
			C115.5,16.1,115.5,16.3,115.5,16.4L115.5,16.4z"/>
		<path class="st4" d="M115.3,14.7c-0.1,0.4-0.2,0.4-0.5,0.1c-0.4-0.4-0.9-0.9-1.3-1.3c-0.7-0.8-1.4-1.6-2.1-2.5
			c-1-1.2-1.9-2.5-2.6-3.9c-0.2-0.5-0.4-1.1-0.6-1.7c0.3,0.3,0.7,0.5,1,0.8c0.1,0.5,0.2,1.1,0.4,1.5c1.1,2.1,2.5,3.9,4.1,5.6
			c0.4,0.4,0.8,0.7,1.2,1c0.1,0,0.1,0,0.2,0C115.3,14.5,115.3,14.6,115.3,14.7L115.3,14.7z"/>
		<path class="st14" d="M115,14.3c-0.4-0.3-0.9-0.6-1.2-1c-1.6-1.7-3.1-3.5-4.1-5.6c-0.2-0.4-0.3-1-0.4-1.5c0.3,0.3,0.7,0.6,1,0.9
			c-0.3,0.4,0,0.8,0.2,1.1c1,1.9,2.3,3.6,3.8,5.1C114.6,13.5,115.1,13.7,115,14.3L115,14.3z"/>
		<path class="st15" d="M115,14.3c0.1-0.6-0.5-0.8-0.8-1.1c-1.5-1.5-2.8-3.1-3.8-5.1c-0.2-0.3-0.4-0.7-0.2-1.1
			c0.4,0.3,0.8,0.7,1.1,1c-0.3,0.4,0,0.6,0.1,0.9c0.8,1.6,2.1,2.9,3.4,4.2c0.1,0.3,0.2,0.6,0.3,0.8c0,0,0,0.1,0,0.1
			c0,0.1,0,0.1,0,0.2C115.1,14.3,115.1,14.3,115,14.3L115,14.3z"/>
		<path class="st16" d="M114.9,13.2c-1.3-1.3-2.6-2.5-3.4-4.2c-0.1-0.3-0.5-0.6-0.1-0.9C112.9,9.6,114.2,11.2,114.9,13.2L114.9,13.2
			z"/>
		<path class="st4" d="M111.2,11.9c0.2,0.2,0.5,0.4,0.7,0.6c0.9,0.9,1.7,1.8,2.6,2.7c0.2,0.2,0.5,0.4,0.7,0.6
			c0.1,0.1,0.1,0.4,0.1,0.6c-0.1,0-0.1,0-0.2-0.1c-0.7-0.7-1.4-1.4-2.1-2c-0.2-0.1-0.4-0.2-0.6-0.4c-0.4-0.6-0.8-1.2-1.2-1.8
			C111.2,12.1,111.2,12,111.2,11.9L111.2,11.9z"/>
		<path class="st13" d="M115.6,17.3c0,0.4,0,0.8,0,1.1c0,0.1-0.1,0.3-0.1,0.4c-0.1-0.1-0.3-0.1-0.4-0.3c-0.4-0.7-0.8-1.4-1.2-2.2
			c-0.1-0.2-0.2-0.4-0.3-0.7c0.1,0,0.3,0,0.3,0.1c0.4,0.4,0.8,0.8,1.2,1.2C115.2,17.1,115.4,17.2,115.6,17.3z"/>
		<path class="st13" d="M115.6,17.3c-0.2-0.1-0.3-0.1-0.5-0.2c-0.4-0.4-0.8-0.8-1.2-1.2c-0.1-0.1-0.2-0.1-0.3-0.1
			c-0.3-0.6-0.7-1.1-1.1-1.7c0.2,0.1,0.4,0.2,0.6,0.4c0.7,0.7,1.4,1.3,2.1,2c0,0,0.1,0,0.2,0.1c0.1,0.1,0.1,0.2,0.1,0.3
			C115.5,16.9,115.6,17.1,115.6,17.3L115.6,17.3z"/>
		<path class="st13" d="M107.2,4.7c-0.2,0.4,0.1,0.8,0.2,1.2c0.1,0.3,0.3,0.6,0.4,0.9c0.1,0.1,0,0.3,0,0.5c-0.6-0.8-1.2-1.6-1.8-2.4
			c0-0.2,0-0.3,0-0.4c0-0.1,0-0.3,0.1-0.4c0.3,0.2,0.5,0.4,0.8,0.6c0.1,0,0.1,0.1,0.1,0.1S107.2,4.6,107.2,4.7L107.2,4.7z"/>
		<path class="st13" d="M106.2,3.9c0,0.1,0,0.2-0.1,0.4c0,0.2,0,0.3,0,0.4c0,0-0.1,0-0.1,0c-0.5-0.6-0.9-1.2-1.3-1.9
			C105.1,3.2,105.7,3.5,106.2,3.9L106.2,3.9z"/>
		<path class="st17" d="M115.5,16.4c0-0.1,0-0.2,0-0.4C115.5,16.2,115.5,16.3,115.5,16.4z"/>
		<path class="st18" d="M107.1,4.6c0,0-0.1-0.1-0.1-0.1C107,4.5,107,4.5,107.1,4.6z"/>
		<path class="st19" d="M115.2,14.1C115.2,14.1,115.1,14.1,115.2,14.1C115.1,14.1,115.2,14.1,115.2,14.1z"/>
		<path class="st20" d="M102.5,60.6c0.1,0,0.1-0.1,0.2-0.2c0.1,0,0.2,0,0.3,0.1c-0.5,0.8-1,1.5-1.5,2.2c-1,1.4-2.1,2.8-3.2,4.1
			c-0.7,0.9-1.5,1.6-2.3,2.4c-0.4,0.4-0.8,0.8-1.2,1.2c-1.4,1.2-2.7,2.5-4.2,3.7c-1.8,1.5-3.7,2.9-5.6,4.3c-2,1.4-4.1,2.7-6.3,3.9
			c-1.8,1.1-3.7,2.1-5.6,3c-1.6,0.8-3.2,1.4-4.8,2.1c-0.9,0.4-1.8,0.8-2.7,1.1c-1.5,0.5-3,1.1-4.5,1.5c-1.9,0.6-3.8,1.2-5.7,1.6
			c-1.9,0.4-3.9,0.8-5.9,1.1c-1.7,0.2-3.3,0.4-5,0.6c-1.1,0.1-2.2,0.2-3.3,0.2c-1.5-0.1-3.1-0.2-4.7-0.3c-1.7-0.1-3.3-0.4-4.8-0.9
			c-3.2-1-6.2-2.3-8.8-4.5c-0.9-0.8-1.8-1.5-2.6-2.3c-0.7-0.7-1.2-1.5-1.8-2.2c-0.8-1.1-1.5-2.3-2.1-3.5c-0.5-0.9-0.7-1.9-1.1-2.9
			c-0.1-0.4-0.3-0.9-0.4-1.3c-0.4-1.4-0.4-2.8-0.3-4.2c0.1-1.4,0.3-2.9,0.8-4.2c0.6-1.7,1.3-3.4,2.4-5c0.6-0.9,1.2-1.9,1.8-2.7
			c0.7-1,1.5-1.9,2.4-2.8c0.8-0.9,1.6-1.7,2.4-2.5c1.4-1.2,2.8-2.5,4.2-3.6c1.5-1.2,3-2.4,4.6-3.4c2.1-1.4,4.1-2.8,6.4-3.9
			c1-0.5,1.9-1.2,2.8-1.7c1.3-0.7,2.6-1.3,3.9-2c1-0.5,1.9-1.1,2.8-1.8c1.4-1.1,2.8-2.3,4.1-3.4c1.1-0.9,2.1-1.9,3.1-2.8
			c0.1-0.1,0.3-0.2,0.4-0.3c0,0.2,0,0.4,0,0.6l0,0c-0.1,0.2-0.1,0.4-0.2,0.5c-0.1,0.1-0.1,0.1-0.2,0.2c-0.2,0.1-0.3,0.1-0.5,0.2
			c-0.3,0.3-0.7,0.7-1,1c-1.3,1.2-2.6,2.3-3.9,3.4c-1,0.8-2,1.5-3.1,2.2c-0.9,0.6-1.9,1.1-2.9,1.6c-0.7,0.4-1.4,0.8-2.1,1.2
			c-0.6,0.3-1.3,0.6-1.8,1c-1.9,1.2-3.9,2.3-5.8,3.5c-1.2,0.8-2.4,1.6-3.5,2.5c-1.5,1.2-3.1,2.2-4.5,3.6c-0.8,0.8-1.6,1.5-2.4,2.2
			c-0.5,0.5-1,1-1.4,1.5c-0.6,0.7-1.2,1.5-1.8,2.3c-0.8,1-1.5,2-2.2,3.1c-0.4,0.7-0.7,1.4-1.1,2.1c-0.3,0.6-0.7,1.2-0.9,1.9
			c-0.3,1.4-1.1,2.8-0.8,4.4c0.1,0.8,0,1.8-0.1,2.6c0,1.3,0.3,2.6,0.7,3.9c0.4,1.2,0.9,2.3,1.5,3.4c0.8,1.6,1.9,3,3.1,4.3
			c0.6,0.7,1.3,1.3,2,1.9c1.1,0.9,2.3,1.8,3.5,2.5c0.9,0.6,1.9,1,2.9,1.5c0.8,0.4,1.7,0.8,2.6,1c1.7,0.4,3.4,0.7,5.1,1
			c0.8,0.2,1.7,0.3,2.5,0.3c1.9,0,3.8-0.1,5.7-0.2c0.5,0,1,0,1.5-0.1c1.1-0.1,2.2-0.3,3.2-0.5c1.4-0.2,2.9-0.4,4.3-0.7
			c2-0.5,4.1-1.1,6.1-1.8c2.1-0.7,4.2-1.3,6.3-2.1c1.9-0.7,3.8-1.6,5.7-2.5c2.1-1,4.1-2.2,6.1-3.3c1-0.5,2-1,2.9-1.6
			c1.9-1.3,3.7-2.5,5.5-3.9c1.9-1.5,3.8-3,5.5-4.6c2.4-2.2,4.7-4.7,6.6-7.3c0.6-0.8,1.1-1.5,1.6-2.3l0.2-0.2c0,0,0.1-0.1,0.1-0.1
			c0.1-0.1,0.2-0.2,0.2-0.3v0c0,0,0.1,0,0.1-0.1l0,0C102.4,60.6,102.5,60.6,102.5,60.6L102.5,60.6L102.5,60.6z"/>
		<path class="st21" d="M57.2,31.3c-0.1,0.2-0.1,0.3-0.2,0.5c0-0.1,0-0.2,0-0.3l0,0C57.1,31.4,57.1,31.4,57.2,31.3z"/>
		<path class="st21" d="M57.6,30.3c0,0.1-0.1,0.2-0.1,0.3C57.5,30.5,57.5,30.4,57.6,30.3z"/>
		<path class="st21" d="M57.4,30.8c0,0.1-0.1,0.2-0.1,0.3C57.3,31,57.3,30.9,57.4,30.8z"/>
		<path class="st21" d="M57.3,31c0,0.1,0,0.1-0.1,0.2C57.2,31.2,57.2,31.1,57.3,31z"/>
		<path class="st21" d="M57.7,30.1c0,0.1-0.1,0.1-0.1,0.2C57.6,30.3,57.6,30.2,57.7,30.1z"/>
		<path class="st21" d="M57.7,29.9c0,0.1-0.1,0.1-0.1,0.2C57.7,30.1,57.7,30,57.7,29.9z"/>
		<path class="st21" d="M57.5,30.6c0,0.1,0,0.1-0.1,0.2C57.4,30.7,57.4,30.7,57.5,30.6z"/>
		<path class="st3" d="M75.7,29.4c-0.1,0.9-0.3,1.9-0.4,2.8c-0.1,0.5-0.1,1.1-0.1,1.6c0,0.5,0,1,0,1.4c0.1,1.3,0.2,2.6,0.8,3.8
			c0.2,0.5,0.3,1.1,0.6,1.7c0.5,1.1,0.9,2.2,1.7,3.2c0.8,0.9,1.5,1.8,2.3,2.7c0.2,0.2,0.4,0.4,0.5,0.6c0.1,0.2,0.3,0.6,0.2,0.7
			c-0.2,0.2-0.5,0.5-0.8,0.4c-0.7,0-1.5-0.1-2.2-0.3c-1.3-0.4-2.4-1.1-3.4-1.9c-1.3-1.1-2.4-2.4-3.3-3.9c-0.5-0.9-0.9-1.9-1.2-3
			c-0.1-0.5-0.2-1-0.3-1.5c-0.3-2.2-0.1-4.3,0.9-6.3c0.7-1.4,1.6-2.6,3.1-3.1c0.3-0.1,0.7-0.1,1.1-0.1c0.4,0,0.5,0.4,0.5,0.7
			C75.6,29,75.6,29.2,75.7,29.4C75.6,29.4,75.6,29.4,75.7,29.4L75.7,29.4z"/>
		<path class="st17" d="M56.3,48.2c0.1,0.2,0.2,0.4,0.2,0.7c0.4,1.2,0.8,2.4,1.3,3.6c0,0.1,0.1,0.3,0.1,0.4c-0.1,0-0.3,0-0.3,0
			c-0.2,0.3-0.7,0.6-0.5,1c-0.1,0.2-0.2,0.4-0.3,0.5c-0.2,0.2-0.4,0.5-0.5,0.5c-0.6,0-0.7,0.3-0.5,0.8c-0.6-0.1-0.7,0.3-0.5,0.7
			c-0.7-0.1-1,0.2-0.7,0.9c0.1,0.4-0.1,0.9-0.5,1c-0.4,0.1-0.4,0.3-0.3,0.6c0.1,0.4,0.1,0.8,0.1,1.2c-0.1,0.9-0.4,1.8-0.2,2.7
			c0.5,2.1,1.7,3.7,3.6,4.7c1.4,0.8,3,1.2,4.5,1.5c0.9,0.2,1.8,0.2,2.7,0.2c1.6-0.1,3.3-0.2,4.9-0.7c1.2-0.4,2.4-0.8,3.7-1.1
			c-0.2-0.2-0.2-0.3-0.3-0.4c0.7,0.3,1.5,0.6,2.2,0.8c0.7,0.2,1.5,0.3,2.2,0.5c0.1,0,0.2,0.1,0.3,0.1c0,0,0,0,0,0c0,0,0,0,0,0
			c0.2,0.1,0.4,0.1,0.7,0.2c-0.3,0.2-0.7,0.4-1,0.6c-1.6,1.1-3.3,1.9-5.1,2.7c-1.7,0.7-3.5,1.2-5.4,1.6c-1.1,0.2-2.2,0.4-3.3,0.5
			c-1.9,0.1-3.8,0.1-5.7-0.3c-2.6-0.6-5-1.5-7.1-3.2c-1.6-1.3-2.8-2.8-3.3-4.9c-0.2-1-0.4-2-0.4-3c0-1.5,0.3-3,1-4.4
			c0.4-0.8,0.7-1.7,1.5-2.3c0.2-0.1,0.2-0.4,0.3-0.7c0.1-0.2,0.1-0.4,0.3-0.6c0.9-1,1.9-2,2.8-3c0.6-0.6,1.2-1.2,1.7-1.8
			c0.5-0.6,1-1.2,1.5-1.8C56.1,48,56.2,48.1,56.3,48.2L56.3,48.2z"/>
		<path class="st22" d="M84.9,68.7c0.6-0.1,1.2-0.1,1.8-0.2c0.3,0,0.6,0,1,0.1c-1.2,1-2.3,2-3.4,2.9c-1.1,0.9-2.2,1.7-3.3,2.5
			c-2.1,1.3-4.1,2.8-6.4,3.8c-1.7,0.7-3.3,1.6-4.9,2.3c-1.1,0.5-2.2,0.9-3.3,1.3c-1,0.4-2,0.8-3,1.2c-0.7,0.2-1.3,0.3-2,0.5
			c-1.3,0.3-2.6,0.5-3.9,0.7c-1.4,0.2-2.8,0.4-4.3,0.3c-1.9-0.1-3.8,0-5.7-0.5c-1.6-0.4-3.2-0.8-4.8-1.4c-2.4-1-4.6-2.4-6.5-4.2
			c-1.6-1.6-2.9-3.4-3.8-5.4c-0.4-0.8-0.6-1.7-0.9-2.5C31.1,69,31,68.2,31,67.3c-0.1-0.9-0.1-1.9,0-2.9c0.3-1.9,0.8-3.8,1.8-5.5
			c0.6-1,1.2-2,1.8-3c0.5-0.8,1.2-1.4,1.9-2.1c0.8-0.8,1.6-1.6,2.4-2.3c0.5-0.5,1.1-1,1.7-1.5c1-0.8,2-1.5,3-2.2
			c0.3-0.2,0.7-0.5,1-0.7c0.2-0.2,0.5-0.3,0.8-0.4c1.3-0.8,2.6-1.7,3.9-2.5c1.5-1,3-2,4.5-3c0.4-0.3,0.9-0.6,1.3-0.8
			c0,0.5,0,1,0,1.5c-0.1,0-0.1,0-0.2,0c-0.7,0.5-1.3,1-2,1.5c-0.8,0.6-1.7,1.1-2.5,1.6c-0.7,0.4-1.3,0.9-2,1.3
			c-0.3,0.2-0.7,0.4-1.1,0.6c-1.3,0.9-2.5,1.8-3.7,2.7c-0.6,0.4-1.2,0.9-1.7,1.4c-0.6,0.5-1.2,1.1-1.8,1.7c-0.4,0.4-0.8,0.8-1.2,1.2
			c-0.5,0.5-1,1.1-1.4,1.7c-0.8,1.1-1.5,2.2-2,3.5C34.7,61,34.3,63,34.2,65c0,1.9,0.3,3.8,1,5.6c1,2.7,2.8,4.9,5,6.6
			c1.2,0.9,2.6,1.7,4,2.4c1.3,0.7,2.7,1.2,4.1,1.6c1,0.2,2.1,0.4,3.1,0.6c1.5,0.2,3,0.3,4.5,0.3c1.2,0,2.4-0.2,3.6-0.4
			c1.5-0.2,3-0.5,4.6-0.8c0.3-0.1,0.6-0.2,0.9-0.3c1.1-0.3,2.2-0.6,3.3-0.9c1-0.3,2.1-0.8,3-1.2c1.6-0.8,3.3-1.6,4.8-2.4
			c1.4-0.8,2.8-1.6,4.1-2.5c1.2-0.8,2.4-1.7,3.6-2.6c0.8-0.6,1.6-1.3,2.4-2.1C85.7,68.7,85.3,68.7,84.9,68.7L84.9,68.7z"/>
		<path class="st19" d="M55.2,40.5c-0.5,0.3-0.9,0.5-1.3,0.8c-1.5,1-3,2-4.5,3c-1.3,0.8-2.6,1.7-3.9,2.5c-0.2,0.2-0.5,0.3-0.8,0.4
			c-0.3,0.2-0.7,0.4-1,0.7c-1,0.7-2,1.4-3,2.2c-0.6,0.5-1.2,1-1.7,1.5c-0.8,0.8-1.6,1.5-2.4,2.3c-0.7,0.7-1.3,1.3-1.9,2.1
			c-0.7,0.9-1.3,2-1.8,3c-1,1.7-1.4,3.6-1.8,5.5c-0.1,0.9-0.1,1.9,0,2.9c0.1,0.9,0.2,1.8,0.4,2.6s0.5,1.7,0.9,2.5
			c0.9,2.1,2.2,3.9,3.8,5.4c1.9,1.8,4.1,3.2,6.5,4.2c1.5,0.7,3.2,1,4.8,1.4c1.9,0.5,3.8,0.4,5.7,0.5c1.5,0.1,2.8-0.1,4.3-0.3
			c1.3-0.2,2.6-0.5,3.9-0.7c0.7-0.1,1.4-0.2,2-0.5c1-0.3,2-0.8,3-1.2c1.1-0.4,2.2-0.8,3.3-1.3c1.7-0.7,3.3-1.6,4.9-2.3
			c2.3-1,4.3-2.5,6.4-3.8c1.2-0.7,2.3-1.6,3.3-2.5c1.2-0.9,2.2-1.9,3.4-2.9c-0.4,0-0.7,0-1-0.1c0.4,0,0.8-0.1,1.2-0.1
			c0,0,0.1-0.1,0.1-0.1c0.6-0.1,1.2-0.2,1.8-0.4c0.1,0,0.2,0.1,0.4,0.1c-0.1,0.1-0.2,0.3-0.3,0.4c-0.8,0.7-1.5,1.5-2.3,2.2
			c-1.2,1.1-2.5,2.2-3.8,3.1c-1.4,1-2.8,2-4.3,2.9c-1.7,1-3.4,2-5.2,2.9c-1.9,0.9-3.9,1.7-5.8,2.5c-1.2,0.5-2.4,0.8-3.6,1.2
			c-1.5,0.5-3.1,1-4.7,1.3c-1.4,0.3-2.9,0.5-4.4,0.7c-1.6,0.2-3.2,0.3-4.8,0.4c-1,0-2-0.1-3-0.3c-1-0.1-2-0.2-3-0.4
			c-0.8-0.2-1.7-0.4-2.5-0.7c-1.6-0.5-3.1-1.1-4.5-2c-1.8-1.1-3.5-2.4-4.9-4c-0.8-0.9-1.5-1.9-2.2-2.9c-0.7-1.1-1.3-2.2-1.6-3.4
			c-0.2-0.9-0.5-1.8-0.7-2.7c-0.2-1.2-0.2-2.4,0-3.6c0.2-1,0.3-2.1,0.6-3.1c0.8-2.2,1.8-4.2,3.3-6c0.8-1,1.7-1.9,2.6-2.8
			c0.6-0.6,1.3-1.2,2-1.8c1.2-1,2.3-1.9,3.5-2.8c1.1-0.7,2.2-1.3,3.3-2c1.1-0.7,2.2-1.3,3.2-2c0.9-0.6,1.8-1.2,2.8-1.8
			c1.4-1,2.8-1.9,4.2-2.9c0.3-0.2,0.7-0.5,1.1-0.8L55.2,40.5L55.2,40.5z"/>
		<path class="st23" d="M78.1,68.5c-0.2-0.1-0.4-0.1-0.7-0.2c0,0,0,0,0,0s0,0,0,0c1.3,0.2,2.6,0.4,3.9,0.6c0.2,0,0.5,0.1,0.7,0.1
			c0,0.1-0.1,0.2-0.1,0.2c-0.9,0.7-1.8,1.4-2.8,2c-1.3,0.8-2.6,1.6-3.9,2.3c-1.4,0.8-2.9,1.6-4.4,2.2c-1.8,0.7-3.7,1.4-5.7,1.7
			c-1.9,0.3-3.8,0.6-5.7,0.6c-1.7,0-3.4,0-5.1-0.3c-2.6-0.6-5.1-1.5-7.4-2.9c-1.3-0.8-2.4-1.8-3.4-3c-1-1.2-1.8-2.4-2.3-3.8
			c-0.5-1.5-0.7-3.1-0.7-4.8c0-1.8,0.4-3.6,1.2-5.2c0.6-1.2,1.5-2.3,2.3-3.4c0.4-0.6,0.8-1.3,1.4-1.7c0.9-0.7,1.7-1.5,2.5-2.3
			c0.3-0.3,0.7-0.6,1.1-0.9c0.2-0.2,0.5-0.3,0.7-0.4c0.6-0.5,1.2-1,1.8-1.4c0.9-0.7,1.8-1.4,2.7-2.1c0.3-0.2,0.6-0.5,1-0.8
			c0.1,0.6,0.1,1,0.2,1.5c-0.3,0.2-0.5,0.4-0.8,0.7c-1.1,1-2.2,2.1-3.3,3.1c-0.2,0.2-0.5,0.4-0.8,0.6c-0.5,0.4-1,0.9-1.4,1.3
			c-0.4,0.4-0.8,0.7-1,1.2c-0.2,0.4-0.4,0.8-0.8,0.9c-0.1,0-0.2,0.1-0.3,0.2c-1,1.2-1.8,2.5-2.5,3.9c-0.9,2.1-1.1,4.3-0.8,6.5
			c0.4,2.3,1.5,4.3,3.1,6c1.3,1.4,3,2.4,4.7,3.2c2.4,1.1,4.8,1.7,7.4,1.8c1,0,2,0,2.9-0.1c1.6-0.2,3.1-0.3,4.7-0.7
			c2.4-0.5,4.6-1.5,6.8-2.5c1.7-0.8,3.2-1.8,4.8-2.7c0.4-0.2,0.8-0.6,1.2-0.9c0-0.1,0-0.1,0-0.2C79.2,68.6,78.7,68.6,78.1,68.5
			L78.1,68.5z"/>
		<path class="st24" d="M82.1,68.9c-0.2,0-0.5-0.1-0.7-0.1c1.2,0,2.3-0.1,3.5-0.1c0.4,0,0.8,0.1,1.3,0.1c-0.8,0.7-1.6,1.4-2.4,2.1
			c-1.2,0.9-2.3,1.8-3.6,2.6c-1.3,0.9-2.7,1.8-4.1,2.5c-1.6,0.9-3.2,1.7-4.8,2.4c-1,0.5-2,0.9-3,1.2c-1.1,0.4-2.2,0.6-3.3,0.9
			c-0.3,0.1-0.6,0.2-0.9,0.3c-1.5,0.3-3,0.6-4.6,0.8c-1.2,0.2-2.4,0.4-3.6,0.4c-1.5,0-3-0.1-4.5-0.3c-1-0.1-2.1-0.3-3.1-0.6
			c-1.4-0.3-2.8-0.8-4.1-1.6c-1.3-0.8-2.8-1.5-4-2.4c-2.3-1.7-4-3.9-5-6.6c-0.7-1.8-1-3.7-1-5.6c0-2,0.5-4,1.3-5.8
			c0.6-1.2,1.2-2.4,2-3.5c0.4-0.6,0.9-1.2,1.4-1.7c0.4-0.4,0.8-0.8,1.2-1.2c0.6-0.6,1.2-1.2,1.8-1.7c0.5-0.5,1.1-1,1.7-1.4
			c1.2-0.9,2.5-1.8,3.7-2.7c0.3-0.2,0.7-0.4,1.1-0.6c0.7-0.4,1.3-0.9,2-1.3c0.8-0.5,1.7-1.1,2.5-1.6c0.7-0.5,1.3-1,2-1.5
			c0,0,0.1,0,0.2,0c0,0.1,0,0.1,0,0.2c0,0,0,0,0,0l0-0.5c0,0.7,0,1.4,0.1,2.2c0-0.3-0.1-0.5-0.1-0.8c-0.2,0.1-0.3,0.2-0.4,0.3
			c-0.7,0.5-1.4,1.1-2.2,1.6c-0.8,0.6-1.7,1.1-2.5,1.7c-1.2,0.8-2.3,1.6-3.5,2.5c-0.1,0.1-0.2,0.1-0.2,0.2c-0.3,0.2-0.5,0.5-0.8,0.7
			c-1.1,0.9-2.4,1.8-3.4,2.8c-0.9,0.9-1.7,1.8-2.4,2.8c-1.2,1.6-1.9,3.4-2.6,5.3c-0.6,1.8-0.7,3.7-0.5,5.7c0.2,1.4,0.6,2.8,1.2,4.1
			c0.8,1.7,1.9,3.2,3.2,4.5c1.2,1.2,2.7,2.2,4.2,3c2,1.1,4.1,1.7,6.4,2.1c1,0.2,2,0.4,3,0.4c1.4,0.1,2.7,0.1,4.1,0
			c0.9,0,1.8-0.2,2.7-0.3c1.2-0.2,2.5-0.5,3.7-0.9c1.7-0.5,3.4-1,5.1-1.7c1.7-0.7,3.3-1.5,4.9-2.3c1.4-0.8,2.8-1.7,4.2-2.6
			c1.3-0.8,2.5-1.8,3.7-2.7c0.4-0.3,0.8-0.7,1.1-1l-0.1-0.1L82.1,68.9L82.1,68.9z"/>
		<path class="st25" d="M72.8,66.8c0.1,0.1,0.2,0.2,0.3,0.4c-1.3,0.4-2.5,0.8-3.7,1.1c-1.6,0.5-3.2,0.6-4.9,0.7
			c-0.9,0.1-1.8,0-2.7-0.2c-1.6-0.3-3.1-0.7-4.5-1.5c-1.9-1.1-3.1-2.6-3.6-4.7c-0.2-0.9,0.1-1.8,0.2-2.7c0-0.4,0-0.8-0.1-1.2
			c-0.1-0.3,0-0.5,0.3-0.6c0.4-0.1,0.6-0.6,0.5-1c-0.2-0.7,0-1,0.7-0.9c-0.1-0.5-0.1-0.8,0.5-0.7c-0.1-0.5-0.1-0.8,0.5-0.8
			c0.2,0,0.4-0.3,0.5-0.5c0.1-0.1,0.2-0.3,0.3-0.5c-0.2-0.4,0.3-0.7,0.5-1c0,0,0.2,0,0.3,0l0,0c0,0.1,0.1,0.1,0.1,0.2l0,0
			c0,0.1,0.1,0.1,0.1,0.2l0,0c0,0.1,0.1,0.1,0.1,0.2c0.2,0.5,0.5,0.9,0.7,1.4c-0.1,0-0.4,0-0.4,0.1c-0.2,0.6-1,1-0.6,1.8
			c0,0,0,0.2,0,0.2c-0.4,0.3-0.2,0.6-0.1,0.9c-0.6,0.2-0.6,0.2-0.3,0.8c0.1,0.2,0.1,0.4-0.2,0.5c-0.5,0.1-0.5,0.2-0.2,0.5
			c0.3,0.4,0.2,0.8,0.1,1.2c-0.1,0.1-0.4,0.2-0.6,0.3c-0.1,0.3,0,0.6,0.3,0.9c0.4,0.3,0.7,0.8,1,1.1c0.2,0.2,0.4,0.5,0.6,0.8
			c1.5,1.7,3.5,2.3,5.6,2.4c1.8,0.1,3.6,0,5.3-0.1c0.3,0,0.5-0.2,0.8-0.3c0.4,0.2,0.8,0.3,1.2,0.5l0,0c0.1,0,0.1,0.1,0.2,0.1l0,0
			c0.2,0.1,0.4,0.2,0.7,0.3l0,0C72.6,66.7,72.7,66.8,72.8,66.8L72.8,66.8L72.8,66.8z"/>
		<path class="st26" d="M70.3,65.8c-0.2,0.1-0.5,0.3-0.8,0.3c-1.8,0.1-3.6,0.2-5.3,0.1c-2.1-0.1-4.1-0.7-5.6-2.4
			c-0.2-0.2-0.4-0.5-0.6-0.8c-0.3-0.4-0.6-0.8-1-1.1c-0.3-0.3-0.4-0.6-0.3-0.9c0.2-0.1,0.5-0.1,0.6-0.3c0.2-0.4,0.2-0.8-0.1-1.2
			C57,59.1,57,59,57.5,58.9c0.3-0.1,0.3-0.3,0.2-0.5c-0.3-0.5-0.3-0.5,0.3-0.8c-0.1-0.3-0.3-0.6,0.1-0.9c0,0,0-0.1,0-0.2
			c-0.4-0.8,0.4-1.2,0.6-1.8c0,0,0.2,0,0.4-0.1l0,0c0,0,0.1,0.1,0.1,0.1c0.8,1.2,1.6,2.3,2.4,3.5c2.2,3,5.1,5.3,8.3,7.1
			c0.1,0,0.2,0.1,0.2,0.2C70.2,65.7,70.2,65.8,70.3,65.8L70.3,65.8z"/>
		<path class="st7" d="M65.5,54.9C65.5,54.9,65.5,54.9,65.5,54.9c0,0.1,0.1,0.1,0.1,0.2c0,0.1,0.1,0.1,0.1,0.2c0,0,0.1,0.1,0.1,0.1
			c0,0,0,0.1,0,0.1c0,0,0.1,0.1,0.1,0.1c0.1,0.1,0.1,0.2,0.2,0.4c0,0,0.1,0.1,0.1,0.1c0.6,0.9,1.1,1.8,1.6,2.7c-0.1,0-0.1,0-0.1,0
			c0,0-0.1-0.1-0.1-0.1c0,0-0.1,0-0.1-0.1c-0.6-0.5-1.1-1-1.7-1.5c-0.1-0.1-0.2-0.2-0.3-0.3c-0.1-0.3-0.1-0.6-0.2-0.9
			c-0.2-0.6-0.5-1.2-0.8-1.9c-0.8-1.6-1.7-3-2.9-4.3c-0.1-0.1-0.2-0.1-0.4-0.1c0,0,0-0.1,0-0.1c0-0.5,0-1,0-1.5c0-0.1,0-0.3,0-0.4
			c0.1,0,0.1,0.1,0.2,0.2c0.4,0.5,0.8,0.9,1.2,1.4c0.2,0.3,0.3,0.6,0.5,0.9c0.6,1.2,1.1,2.3,1.7,3.4c0.1,0.2,0.3,0.4,0.4,0.6
			c0.1,0.2,0.2,0.4,0.3,0.6c0,0,0.1,0.1,0.1,0.1C65.3,54.7,65.3,54.8,65.5,54.9C65.4,54.8,65.4,54.8,65.5,54.9L65.5,54.9z"/>
		<path class="st17" d="M70.3,65.8c-0.1-0.1-0.2-0.2-0.3-0.3c0.5,0.2,1,0.5,1.5,0.7C71.1,66.1,70.7,66,70.3,65.8L70.3,65.8z"/>
		<path class="st17" d="M72.3,66.7c-0.2-0.1-0.4-0.2-0.7-0.3C71.9,66.5,72.1,66.6,72.3,66.7z"/>
		<path class="st17" d="M72.8,66.8c-0.2-0.1-0.3-0.1-0.5-0.2C72.5,66.7,72.7,66.8,72.8,66.8z"/>
		<path class="st17" d="M58.2,53.4c0-0.1-0.1-0.1-0.1-0.2C58.2,53.2,58.2,53.3,58.2,53.4z"/>
		<path class="st17" d="M58.1,53.2c0-0.1-0.1-0.1-0.1-0.2C58.1,53.1,58.1,53.1,58.1,53.2z"/>
		<path class="st25" d="M59,54.9C59,54.9,59,54.8,59,54.9C59,54.8,59,54.8,59,54.9z"/>
		<path class="st17" d="M58,53c0-0.1-0.1-0.1-0.1-0.2C58,52.9,58,52.9,58,53z"/>
		<path class="st17" d="M71.7,66.4c-0.1,0-0.1-0.1-0.2-0.1C71.6,66.3,71.6,66.3,71.7,66.4z"/>
		<path class="st27" d="M67.5,58.5c0,0,0.1,0.1,0.1,0.1C67.6,58.6,67.5,58.6,67.5,58.5z"/>
		<path class="st1" d="M61.1,47.5c0,0.1,0,0.3,0,0.4c0,0.5,0,1,0,1.5c-0.5,0.1-0.7-0.4-0.9-0.7c-0.7-1.2-1.4-2.4-2-3.7
			c-0.5-1.1-0.9-2.3-1.1-3.5c-0.3-1.4-0.4-2.8-0.1-4.2c0.3-1.6,0.9-3,1.8-4.2c0.6-0.8,1.3-1.5,1.9-2.2c0.1-0.1,0.2-0.1,0.3-0.1
			c0.6,0.8,0.6,0.8,0,1.5c-0.5,0.5-0.9,1.1-1.2,1.7c-0.2,0.5-0.2,1.1-0.2,1.7c0,0.2,0.1,0.5,0,0.7c-0.5,2-0.4,4,0.3,6
			c0.4,1.3,0.9,2.7,1.7,3.9c0.1,0.2,0.2,0.5-0.2,0.5C61.3,46.9,61.2,47.2,61.1,47.5L61.1,47.5z"/>
		<path class="st10" d="M65,54c-0.1-0.2-0.3-0.4-0.4-0.6c-0.6-1.1-1.1-2.3-1.7-3.4c-0.2-0.3-0.3-0.6-0.5-0.9
			c-0.1-0.2-0.2-0.5-0.3-0.8c0.1-0.1,0.2-0.2,0.3-0.4c0.1,0.1,0.2,0.3,0.4,0.4c0.7,0.8,1.4,1.7,2.2,2.5c0.7,0.7,1.5,1.3,2.3,1.9
			c0.2,0.1,0.5,0.1,0.7,0.2c0.3,0,0.6,0,0.8,0.1c0.6,0.2,1.2,0.5,1.9,0.6c0.2,0.1,0.6,0.1,0.8,0c0.8-0.4,1.7-0.3,2.6,0
			c0.7,0.2,1.4,0.3,2.1,0.5c0.1,0,0.2,0.1,0.2,0.2c-0.5,0.3-0.9,0.6-1.4,0.9c-0.3,0.2-0.6,0.3-1,0.4c-1.1,0.3-2.2,0.6-3.3,1
			c-0.8,0.3-1.4,0.1-2.1-0.3c-1.1-0.7-2.2-1.3-3.3-2C65.4,54,65.2,54,65,54L65,54z"/>
		<path class="st5" d="M62.2,48.3c0.1,0.2,0.2,0.5,0.3,0.8c-0.4-0.5-0.8-0.9-1.2-1.4c0-0.1-0.1-0.1-0.2-0.2c0.1-0.3,0.2-0.5,0.3-0.8
			C61.7,47.2,61.9,47.7,62.2,48.3L62.2,48.3z"/>
		<path class="st16" d="M56.2,34.5C56.1,34.7,56,35,56,35.2c0-0.1-0.1-0.2-0.2-0.4c-0.1,0.1-0.2,0.1-0.2,0.2
			c-0.8,0.7-1.6,1.5-2.4,2.2c-0.6,0.5-1.3,1-1.9,1.5c-1.1,0.8-2.2,1.5-3.4,2.2c-1.2,0.8-2.5,1.5-3.8,2.1c-2.1,1-4,2.4-5.9,3.7
			c-1.5,1-3,2.2-4.5,3.3c-1,0.8-2,1.6-2.8,2.5c-1.2,1.2-2.3,2.4-3.4,3.6c-0.7,0.8-1.4,1.6-2,2.5c-1,1.6-2.2,3.1-2.6,5
			c-0.1,0.7-0.5,1.4-0.7,2c-0.4,1.3-0.6,2.7-0.7,4.1c0,0.5,0.2,0.9,0.3,1.4c0.1,0.7,0.2,1.4,0.3,2c0.4,1.5,0.9,2.9,1.6,4.2
			c1.2,2.1,2.6,4.1,4.5,5.7c1.3,1.1,2.6,2.2,4,3.1c1.3,0.8,2.8,1.3,4.2,1.8c1.5,0.5,3.1,0.8,4.6,1.1c0.6,0.1,1.2,0.2,1.8,0.2
			c1.4,0.1,2.9,0.2,4.3,0.2c1.1,0,2.2-0.1,3.3-0.3c1.9-0.2,3.8-0.4,5.7-0.8c2.3-0.5,4.5-1.1,6.8-1.7c1.6-0.5,3.2-1.1,4.8-1.7
			c1.2-0.4,2.3-0.9,3.5-1.4c1.7-0.8,3.5-1.5,5.1-2.4c2.2-1.2,4.4-2.6,6.6-4c1.4-0.9,2.8-1.9,4.1-3c1.7-1.4,3.3-2.8,5-4.3
			c0.5-0.4,1-1,1.5-1.5c0.5-0.5,1.1-1.1,1.6-1.6c0.3-0.4,0.6-0.8,0.9-1.2c0.1-0.1,0.2-0.3,0.4-0.4l0,0c0.2-0.1,0.3-0.1,0.5-0.2
			c0.2-0.1,0.5-0.2,0.7-0.3l0,0c0,0.1,0,0.2-0.1,0.2c-1,1.1-2,2.3-3,3.4c-1.2,1.2-2.6,2.4-3.9,3.6c-1,0.9-2,1.8-3.1,2.6
			c-1.8,1.4-3.6,2.7-5.5,3.9c-2.7,1.7-5.5,3.4-8.3,5c-1.2,0.7-2.6,1.3-3.9,1.9c-1.9,0.8-3.8,1.4-5.7,2.1c-2.2,0.8-4.3,1.5-6.6,1.9
			c-2.3,0.4-4.6,1.1-7,1.3c-1.5,0.1-3.1,0.4-4.6,0.4c-1.8,0-3.7-0.1-5.5-0.2c-1.3-0.1-2.6-0.3-3.8-0.6c-0.9-0.2-1.7-0.6-2.5-0.8
			c-2.1-0.6-4-1.6-5.9-2.9c-1.8-1.2-3.4-2.6-4.8-4.2c-1.5-1.7-2.6-3.7-3.5-5.8c-0.7-1.8-1-3.6-1.2-5.4c-0.2-1.7,0.2-3.4,0.5-5
			c0.2-1.1,0.7-2.2,1.2-3.2c0.7-1.3,1.5-2.5,2.3-3.7c1.1-1.8,2.5-3.2,3.9-4.7c1.1-1.1,2.3-2.2,3.5-3.2c0.8-0.7,1.7-1.5,2.6-2.1
			c0.8-0.6,1.5-1.1,2.3-1.7c1.2-0.8,2.5-1.7,3.8-2.5c0.9-0.6,1.9-1.1,2.9-1.7c1.8-1,3.6-2,5.4-3.1c0.7-0.4,1.3-0.7,2-1.1
			c2.5-1.6,4.6-3.6,6.7-5.6c0.1-0.1,0.3-0.3,0.5-0.4c0,0.2,0.1,0.4,0.1,0.5l0,0c0,0.1-0.1,0.2-0.1,0.2
			C56.2,34.3,56.1,34.4,56.2,34.5L56.2,34.5z"/>
		<path class="st18" d="M82.1,68.9h2l0.1,0.1c-0.4,0.3-0.7,0.7-1.1,1c-1.2,0.9-2.4,1.8-3.7,2.7c-1.3,0.9-2.7,1.8-4.2,2.6
			c-1.6,0.9-3.2,1.7-4.9,2.3c-1.7,0.7-3.4,1.2-5.1,1.7c-1.2,0.3-2.4,0.6-3.7,0.9c-0.9,0.2-1.8,0.3-2.7,0.3c-1.4,0.1-2.8,0.1-4.1,0
			c-1-0.1-2-0.3-3-0.4c-2.2-0.4-4.4-1.1-6.4-2.1c-1.5-0.8-2.9-1.8-4.2-3c-1.4-1.3-2.5-2.8-3.2-4.5c-0.6-1.3-1-2.7-1.2-4.1
			c-0.2-1.9-0.2-3.8,0.5-5.7c0.7-1.8,1.4-3.7,2.6-5.3c0.7-1,1.6-1.9,2.4-2.8c1-1,2.3-1.8,3.4-2.8c0.3-0.2,0.5-0.5,0.8-0.7
			c0.1-0.1,0.2-0.2,0.2-0.2c1.2-0.8,2.3-1.6,3.5-2.5c0.8-0.6,1.7-1.1,2.5-1.7c0.7-0.5,1.5-1.1,2.2-1.6c0.1-0.1,0.2-0.2,0.4-0.3
			c0.1,0.3,0.1,0.6,0.1,0.8c0.1,0.7,0.3,1.5,0.4,2.2c0,0.1-0.1,0.2-0.1,0.3c-0.1-0.5-0.1-0.9-0.2-1.5c-0.4,0.3-0.7,0.5-1,0.8
			c-0.9,0.7-1.8,1.4-2.7,2.1c-0.6,0.5-1.2,1-1.8,1.4c-0.2,0.2-0.5,0.3-0.7,0.4c-0.4,0.3-0.8,0.6-1.1,0.9c-0.8,0.8-1.6,1.5-2.5,2.3
			c-0.6,0.5-1,1.1-1.4,1.7c-0.8,1.1-1.6,2.2-2.3,3.4c-0.8,1.6-1.2,3.3-1.2,5.2c0,1.6,0.1,3.2,0.7,4.8c0.5,1.4,1.3,2.7,2.3,3.8
			c1,1.2,2.1,2.2,3.4,3c2.3,1.4,4.8,2.3,7.4,2.9c1.7,0.4,3.4,0.4,5.1,0.3c1.9-0.1,3.8-0.3,5.7-0.6c2-0.3,3.8-1,5.7-1.7
			c1.5-0.6,3-1.4,4.4-2.2c1.3-0.7,2.6-1.4,3.9-2.3c1-0.6,1.8-1.3,2.8-2C82,69.1,82,69,82.1,68.9L82.1,68.9z"/>
		<path class="st15" d="M55.3,41.6l0,0.5c0,0,0,0,0,0c0-0.1,0-0.1,0-0.2c0-0.5,0-1,0-1.5c0-0.2,0-0.5,0-0.8
			c-0.4,0.3-0.8,0.5-1.1,0.8c-1.4,1-2.8,1.9-4.2,2.9c-0.9,0.6-1.8,1.2-2.8,1.8c-1.1,0.7-2.2,1.4-3.2,2c-1.1,0.7-2.3,1.2-3.3,2
			c-1.2,0.9-2.4,1.8-3.5,2.8c-0.7,0.6-1.3,1.1-2,1.8c-0.9,0.9-1.8,1.9-2.6,2.8c-1.5,1.8-2.5,3.8-3.3,6c-0.3,1-0.4,2.1-0.6,3.1
			c-0.2,1.2-0.2,2.4,0,3.6c0.1,0.9,0.5,1.8,0.7,2.7c0.3,1.2,0.9,2.4,1.6,3.4c0.6,1,1.4,2,2.2,2.9c1.4,1.6,3.1,2.9,4.9,4
			c1.4,0.8,3,1.5,4.5,2c0.8,0.3,1.6,0.5,2.5,0.7c1,0.2,2,0.3,3,0.4c1,0.1,2,0.3,3,0.3c1.6,0,3.2-0.2,4.8-0.4
			c1.5-0.2,2.9-0.4,4.4-0.7c1.6-0.3,3.1-0.8,4.7-1.3c1.2-0.4,2.4-0.7,3.6-1.2c2-0.8,3.9-1.6,5.8-2.5c1.8-0.9,3.5-1.8,5.2-2.9
			c1.5-0.9,2.9-1.9,4.3-2.9c1.3-1,2.6-2.1,3.8-3.1c0.8-0.7,1.6-1.4,2.3-2.2c0.1-0.1,0.2-0.3,0.3-0.4c0.1-0.1,0.1-0.1,0.2-0.2l0,0
			c0.2-0.1,0.4-0.1,0.7-0.2l0,0c0.1,0,0.2,0.1,0.4,0.1c-0.2,0.2-0.3,0.3-0.4,0.4c-0.8,0.8-1.6,1.5-2.4,2.3c-1.2,1.1-2.5,2.2-3.8,3.1
			c-1.8,1.4-3.7,2.7-5.6,3.9c-1.3,0.9-2.8,1.6-4.2,2.3c-1.8,0.9-3.6,1.8-5.4,2.7c-0.4,0.2-0.8,0.3-1.1,0.4c-0.9,0.4-1.8,0.8-2.7,1.1
			c-1.6,0.6-3.3,1.1-5,1.6c-1,0.3-2,0.6-3,0.8c-1.2,0.2-2.5,0.4-3.8,0.6c-1.8,0.3-3.6,0.4-5.5,0.4c-1.8-0.1-3.6,0-5.4-0.5
			c-0.8-0.3-1.7-0.3-2.5-0.6c-1.7-0.5-3.3-1.2-4.9-2c-1.8-1-3.5-2.1-4.8-3.6c-1.1-1.1-2-2.4-2.9-3.6c-0.9-1.3-1.6-2.8-2-4.3
			c-0.3-1-0.4-2-0.6-3c-0.1-0.5-0.1-1.1-0.1-1.7c0.1-0.9,0.2-1.7,0.4-2.6c0.2-1.6,0.8-3.1,1.5-4.5c0.4-0.8,0.9-1.6,1.4-2.3
			c0.6-0.9,1.3-1.8,2-2.7c0.5-0.6,1-1.1,1.5-1.6c0.8-0.8,1.5-1.5,2.4-2.3c0.7-0.7,1.5-1.2,2.3-1.8c1-0.8,1.9-1.5,3-2.2
			c1.3-0.8,2.6-1.6,4-2.4c0.6-0.4,1.3-0.8,1.9-1.2c0.8-0.5,1.7-0.9,2.6-1.5c1.1-0.7,2.2-1.4,3.2-2.1c0.6-0.4,1.2-0.9,1.8-1.3
			c0.7-0.5,1.3-1,2-1.5c0,0.5,0,1,0.1,1.6C55.4,40,55.4,40.8,55.3,41.6L55.3,41.6z"/>
		<path class="st28" d="M95.9,65.7c-0.3,0.4-0.6,0.8-0.9,1.2c-0.5,0.6-1.1,1.1-1.6,1.6c-0.5,0.5-0.9,1-1.5,1.5
			c-1.7,1.4-3.3,2.9-5,4.3c-1.3,1.1-2.7,2.1-4.1,3c-2.2,1.4-4.4,2.8-6.6,4c-1.6,0.9-3.4,1.7-5.1,2.4c-1.1,0.5-2.3,1-3.5,1.4
			c-1.6,0.6-3.2,1.2-4.8,1.7c-2.2,0.7-4.5,1.3-6.8,1.7c-1.9,0.4-3.8,0.6-5.7,0.8c-1.1,0.1-2.2,0.3-3.3,0.3c-1.4,0-2.9-0.1-4.3-0.2
			c-0.6,0-1.2-0.1-1.8-0.2c-1.5-0.3-3.1-0.7-4.6-1.1c-1.4-0.5-2.9-1-4.2-1.8c-1.5-0.9-2.7-2-4-3.1c-1.9-1.6-3.3-3.5-4.5-5.7
			c-0.7-1.3-1.3-2.7-1.6-4.2c-0.2-0.7-0.2-1.4-0.3-2c-0.1-0.5-0.4-0.9-0.3-1.4c0-1.4,0.2-2.8,0.7-4.1c0.2-0.7,0.6-1.3,0.7-2
			c0.4-1.9,1.6-3.5,2.6-5c0.6-0.9,1.3-1.7,2-2.5c1.1-1.2,2.2-2.4,3.4-3.6c0.9-0.9,1.9-1.7,2.8-2.5c1.5-1.1,3-2.3,4.5-3.3
			c1.9-1.3,3.8-2.6,5.9-3.7c1.3-0.6,2.6-1.3,3.8-2.1c1.2-0.7,2.3-1.5,3.4-2.2c0.7-0.5,1.3-1,1.9-1.5c0.8-0.7,1.6-1.5,2.4-2.2
			c0.1-0.1,0.1-0.1,0.2-0.2c0.1,0.1,0.1,0.3,0.2,0.4c0,0.1,0,0.1,0,0.2c-0.1,0.4-0.2,0.9-0.3,1.3c0,0.2,0,0.5,0,0.7
			c0-0.2-0.1-0.3-0.2-0.5c-0.4,0.3-0.8,0.7-1.3,1c-1.5,1.1-3,2.2-4.6,3.3c-0.6,0.5-1.4,0.8-2,1.2c-0.4,0.2-0.8,0.5-1.2,0.7
			c-0.3,0.2-0.5,0.3-0.8,0.5c-0.3,0.2-0.6,0.3-0.9,0.5c-0.7,0.4-1.3,0.9-2,1.3c-1.3,0.8-2.7,1.6-4,2.5c-1.6,1.2-3.2,2.4-4.7,3.7
			c-1.7,1.4-3.3,2.9-4.7,4.7c-0.9,1.1-1.7,2.2-2.5,3.4c-0.7,1.1-1.4,2.2-1.6,3.5c-0.2,1.1-0.7,2-0.8,3.2c-0.1,1.3-0.3,2.7-0.1,4.1
			c0.2,1.7,0.6,3.3,1.3,4.9c1.2,2.7,3,5,5.2,7c1.7,1.5,3.6,2.7,5.7,3.6c0.9,0.4,1.8,0.8,2.8,1.1c0.8,0.3,1.8,0.3,2.6,0.6
			c1.4,0.5,2.8,0.5,4.2,0.6c1.3,0.1,2.6,0.1,3.9,0c1,0,2-0.1,3-0.3c1.8-0.3,3.6-0.5,5.4-0.9c2.2-0.5,4.5-1.2,6.7-1.9
			c1.5-0.5,3.1-1.1,4.5-1.7c1.5-0.6,3-1.3,4.5-2c0.9-0.4,1.9-0.9,2.8-1.4c1.3-0.7,2.5-1.5,3.8-2.3c2-1.2,3.8-2.5,5.7-3.9
			c2.4-1.9,4.8-4,6.9-6.2c0.2-0.2,0.3-0.4,0.4-0.6c-0.3,0-0.6,0.1-0.8,0.1c0.8-0.4,1.6-0.8,2.4-1.1c0.1,0,0.2,0.1,0.2,0.1
			C95.5,65.9,95.7,65.8,95.9,65.7L95.9,65.7z"/>
		<path class="st29" d="M56.3,33.9c0-0.2,0-0.3-0.1-0.5c-0.2,0.2-0.3,0.3-0.5,0.4c-2.1,2-4.2,4-6.7,5.6c-0.6,0.4-1.3,0.8-2,1.1
			c-1.8,1-3.6,2-5.4,3.1c-1,0.5-2,1.1-2.9,1.7c-1.3,0.8-2.5,1.6-3.8,2.5c-0.8,0.5-1.6,1.1-2.3,1.7c-0.9,0.7-1.8,1.4-2.6,2.1
			c-1.2,1-2.4,2.1-3.5,3.2c-1.4,1.5-2.9,2.9-3.9,4.7c-0.8,1.2-1.6,2.4-2.3,3.7c-0.5,1-1,2.1-1.2,3.2c-0.3,1.7-0.8,3.3-0.5,5
			c0.2,1.8,0.5,3.7,1.2,5.4c0.9,2.1,2.1,4.1,3.5,5.8c1.4,1.6,3,3,4.8,4.2c1.8,1.3,3.7,2.3,5.9,2.9c0.8,0.2,1.7,0.6,2.5,0.8
			c1.3,0.3,2.5,0.5,3.8,0.6c1.8,0.1,3.7,0.2,5.5,0.2c1.5,0,3.1-0.3,4.6-0.4c2.4-0.2,4.7-0.9,7-1.3c2.2-0.4,4.4-1.2,6.6-1.9
			c1.9-0.7,3.8-1.3,5.7-2.1c1.3-0.5,2.6-1.2,3.9-1.9c2.8-1.6,5.6-3.3,8.3-5c1.9-1.2,3.7-2.6,5.5-3.9c1.1-0.8,2.1-1.7,3.1-2.6
			c1.3-1.2,2.6-2.3,3.9-3.6c1.1-1.1,2-2.2,3-3.4c0.1-0.1,0.1-0.1,0.1-0.2c0.1,0,0.1-0.1,0.1-0.1c0,0,0,0,0,0c0,0.1-0.1,0.1-0.1,0.1
			c-0.2,0.1-0.5,0.2-0.7,0.3c-0.2,0.1-0.3,0.1-0.5,0.2c1.3-0.9,2.7-1.8,4.1-2.8c0.5-0.3,0.9-0.8,1.4-1.2c0.1,0,0.1-0.1,0.2-0.1
			c-0.5,0.8-1,1.6-1.6,2.3c-1.9,2.7-4.2,5.1-6.6,7.3c-1.8,1.6-3.6,3.2-5.5,4.6c-1.8,1.4-3.6,2.7-5.5,3.9c-0.9,0.6-1.9,1.1-2.9,1.6
			c-2,1.1-4,2.3-6.1,3.3c-1.9,0.9-3.8,1.8-5.7,2.5c-2.1,0.8-4.2,1.4-6.3,2.1c-2,0.6-4,1.2-6.1,1.8c-1.4,0.3-2.8,0.5-4.3,0.7
			c-1.1,0.2-2.2,0.3-3.2,0.5c-0.5,0.1-1,0.1-1.5,0.1c-1.9,0.1-3.8,0.2-5.7,0.2c-0.8,0-1.7-0.1-2.5-0.3c-1.7-0.3-3.4-0.6-5.1-1
			c-0.9-0.2-1.7-0.6-2.6-1c-1-0.4-2-0.9-2.9-1.5c-1.2-0.8-2.4-1.6-3.5-2.5c-0.7-0.6-1.4-1.2-2-1.9c-1.2-1.3-2.3-2.7-3.1-4.3
			c-0.6-1.1-1.1-2.2-1.5-3.4c-0.4-1.2-0.8-2.5-0.7-3.9c0-0.9,0.2-1.8,0.1-2.6c-0.2-1.6,0.5-2.9,0.8-4.4c0.2-0.7,0.6-1.3,0.9-1.9
			c0.4-0.7,0.6-1.5,1.1-2.1c0.7-1.1,1.5-2.1,2.2-3.1c0.6-0.8,1.2-1.5,1.8-2.3c0.4-0.5,0.9-1,1.4-1.5c0.8-0.8,1.6-1.5,2.4-2.2
			c1.4-1.4,3-2.5,4.5-3.6c1.2-0.9,2.3-1.7,3.5-2.5c1.9-1.2,3.8-2.4,5.8-3.5c0.6-0.4,1.2-0.6,1.8-1c0.7-0.4,1.4-0.8,2.1-1.2
			c1-0.5,2-1,2.9-1.6c1.1-0.7,2.1-1.4,3.1-2.2c1.3-1.1,2.6-2.3,3.9-3.4c0.3-0.3,0.7-0.7,1-1c0.1-0.1,0.3-0.2,0.5-0.2
			c0,0.1,0,0.2,0,0.4c-0.1,0.2-0.1,0.3-0.2,0.5l0,0.4c0,0,0,0.1,0,0.1C56.3,33.7,56.3,33.8,56.3,33.9L56.3,33.9z"/>
		<path class="st30" d="M92.7,67c0.2,0,0.4,0,0.8-0.1c-0.2,0.2-0.3,0.4-0.4,0.6c-2.2,2.2-4.5,4.3-6.9,6.2c-1.8,1.4-3.7,2.7-5.7,3.9
			c-1.3,0.8-2.5,1.6-3.8,2.3c-0.9,0.5-1.9,1-2.8,1.4c-1.5,0.7-3,1.4-4.5,2c-1.5,0.6-3,1.2-4.5,1.7c-2.2,0.7-4.4,1.4-6.7,1.9
			c-1.8,0.4-3.6,0.6-5.4,0.9c-1,0.1-2,0.2-3,0.3c-1.3,0.1-2.6,0.1-3.9,0C44.4,88,43,88,41.6,87.5c-0.8-0.3-1.8-0.3-2.6-0.6
			c-1-0.3-1.9-0.7-2.8-1.1c-2-0.9-4-2.1-5.7-3.6c-2.2-2-4-4.3-5.2-7c-0.7-1.6-1.1-3.2-1.3-4.9c-0.1-1.4,0-2.7,0.1-4.1
			c0.1-1.1,0.6-2.1,0.8-3.2c0.3-1.3,1-2.4,1.6-3.5c0.8-1.2,1.6-2.3,2.5-3.4c1.4-1.8,2.9-3.3,4.7-4.7c1.6-1.2,3.1-2.5,4.7-3.7
			c1.3-0.9,2.7-1.6,4-2.5c0.7-0.4,1.3-0.9,2-1.3c0.3-0.2,0.6-0.3,0.9-0.5c0.3-0.2,0.6-0.3,0.8-0.5c0.4-0.2,0.8-0.5,1.2-0.7
			c0.7-0.4,1.4-0.7,2-1.2c1.5-1.1,3-2.2,4.6-3.3c0.4-0.3,0.8-0.7,1.3-1c0.1,0.2,0.1,0.4,0.2,0.5c-0.1,0.6-0.1,1.2-0.2,1.9
			c0-0.5,0-1-0.1-1.6c-0.7,0.5-1.3,1-2,1.5c-0.6,0.5-1.2,0.9-1.8,1.3c-1.1,0.7-2.1,1.5-3.2,2.1c-0.8,0.5-1.7,1-2.6,1.5
			c-0.7,0.4-1.3,0.8-1.9,1.2c-1.3,0.8-2.7,1.6-4,2.4c-1,0.7-2,1.5-3,2.2c-0.8,0.6-1.6,1.2-2.3,1.8c-0.8,0.7-1.6,1.5-2.4,2.3
			c-0.5,0.5-1,1-1.5,1.6c-0.7,0.9-1.4,1.8-2,2.7c-0.5,0.8-1,1.5-1.4,2.3c-0.7,1.5-1.3,2.9-1.5,4.5c-0.1,0.9-0.3,1.7-0.4,2.6
			c0,0.6,0,1.1,0.1,1.7c0.2,1,0.3,2,0.6,3c0.4,1.5,1,3,2,4.3c0.9,1.2,1.8,2.5,2.9,3.6c1.4,1.5,3,2.6,4.8,3.6c1.6,0.8,3.2,1.5,4.9,2
			c0.8,0.2,1.7,0.3,2.5,0.6c1.8,0.6,3.6,0.5,5.4,0.5c1.8,0.1,3.7-0.1,5.5-0.4c1.3-0.2,2.5-0.3,3.8-0.6c1-0.2,2-0.5,3-0.8
			c1.7-0.5,3.3-1,5-1.6c0.9-0.3,1.8-0.8,2.7-1.1c0.4-0.2,0.8-0.2,1.1-0.4c1.8-0.9,3.6-1.8,5.4-2.7c1.4-0.7,2.8-1.5,4.2-2.3
			c1.9-1.2,3.8-2.5,5.6-3.9c1.3-1,2.5-2.1,3.8-3.1c0.8-0.7,1.6-1.5,2.4-2.3c0.1-0.1,0.2-0.2,0.4-0.4c-0.2,0-0.3-0.1-0.4-0.1
			C91.5,67.4,92.1,67.2,92.7,67L92.7,67z"/>
		<path class="st31" d="M55.7,46.3c0-0.1,0.1-0.2,0.1-0.3c0.2,0.7,0.3,1.4,0.5,2.2c-0.1-0.1-0.2-0.2-0.3-0.3c-0.5,0.6-1,1.2-1.5,1.8
			c-0.6,0.6-1.2,1.2-1.7,1.8c-1,1-1.9,2-2.8,3c-0.1,0.2-0.2,0.4-0.3,0.6c-0.1,0.2-0.2,0.5-0.3,0.7c-0.8,0.6-1.1,1.5-1.5,2.3
			c-0.7,1.4-1,2.9-1,4.4c0,1,0.2,2,0.4,3c0.5,2,1.7,3.6,3.3,4.9c2.1,1.7,4.5,2.6,7.1,3.2c1.9,0.4,3.8,0.4,5.7,0.3
			c1.1,0,2.2-0.2,3.3-0.5c1.8-0.4,3.6-0.8,5.4-1.6c1.8-0.7,3.5-1.6,5.1-2.7c0.3-0.2,0.7-0.4,1-0.6c0.5,0.1,1,0.1,1.5,0.2
			c0,0.1,0,0.1,0,0.2c-0.4,0.3-0.8,0.6-1.2,0.9c-1.6,0.9-3.1,1.9-4.8,2.7c-2.2,1-4.4,2-6.8,2.5c-1.5,0.3-3.1,0.5-4.7,0.7
			c-1,0.1-2,0.1-2.9,0.1c-2.6-0.1-5.1-0.7-7.4-1.8c-1.8-0.8-3.4-1.8-4.7-3.2c-1.6-1.7-2.8-3.7-3.1-6c-0.3-2.2-0.1-4.4,0.8-6.5
			c0.6-1.4,1.5-2.7,2.5-3.9c0.1-0.1,0.2-0.2,0.3-0.2c0.5-0.2,0.6-0.5,0.8-0.9c0.2-0.5,0.6-0.8,1-1.2c0.5-0.5,1-0.9,1.4-1.3
			c0.2-0.2,0.5-0.4,0.8-0.6c1.1-1,2.2-2.1,3.3-3.1C55.2,46.7,55.4,46.5,55.7,46.3L55.7,46.3z"/>
		<path class="st31" d="M61.1,49.5c0.1,0,0.3,0,0.4,0.1c1.2,1.3,2.1,2.8,2.9,4.3c0.3,0.6,0.6,1.2,0.8,1.9c0.1,0.3,0.2,0.6,0.2,0.9
			c-0.2-0.2-0.4-0.3-0.7-0.5c-0.2-0.5-0.2-1-0.5-1.5c-0.6-1.2-1.3-2.3-2-3.4c-0.2-0.4-0.7-0.7-1-1.1c0,0-0.1,0-0.1,0
			c0-0.1-0.1-0.2-0.1-0.4c0,0,0,0,0-0.1C61.2,49.6,61.1,49.5,61.1,49.5z"/>
		<path class="st18" d="M61.3,50.1C61.3,50.1,61.3,50.1,61.3,50.1c0.2,0.2,0.2,0.4,0.3,0.6c1.3,1.4,2.1,3.1,2.6,4.9
			c-0.4-0.4-0.8-0.8-1.1-1.3c0-0.2,0.1-0.3,0-0.5c-0.1-0.3-0.2-0.6-0.3-0.8c-0.4-0.6-0.6-1.3-1.3-1.7C61.4,50.9,61.4,50.5,61.3,50.1
			L61.3,50.1z"/>
		<path class="st23" d="M64.3,55.6c-0.5-1.8-1.4-3.5-2.7-4.9c-0.1-0.1-0.2-0.4-0.2-0.6c0.3,0.4,0.7,0.7,1,1.1c0.7,1.1,1.3,2.3,2,3.4
			c0.2,0.5,0.3,1,0.5,1.5C64.6,56,64.4,55.8,64.3,55.6L64.3,55.6z"/>
		<path class="st22" d="M61.5,51.3c0.7,0.3,0.9,1.1,1.3,1.7c0.2,0.2,0.3,0.6,0.3,0.8c0,0.1,0,0.3,0,0.5
			C62.3,53.5,61.9,52.4,61.5,51.3L61.5,51.3z"/>
		<path class="st16" d="M55.6,36.8c0.1-0.4,0.2-0.9,0.3-1.3C55.8,35.9,55.7,36.3,55.6,36.8z"/>
		<path class="st8" d="M56.6,32.6c0-0.1,0-0.2,0-0.4c0.1-0.1,0.1-0.1,0.2-0.2l0,0c0,0.1,0,0.2,0,0.3l0,0
			C56.8,32.5,56.7,32.6,56.6,32.6L56.6,32.6L56.6,32.6z"/>
		<path class="st8" d="M57,31.5c0,0.1,0,0.2,0,0.3l0,0c0,0.1-0.1,0.2-0.1,0.2l0,0c0,0,0,0-0.1,0l0,0C56.9,31.9,57,31.7,57,31.5z"/>
		<path class="st8" d="M56.5,33.1c0.1-0.2,0.1-0.3,0.2-0.5h0c0,0.1,0,0.2,0,0.3C56.6,33,56.5,33,56.5,33.1L56.5,33.1z"/>
		<path class="st21" d="M56.6,32.9c0-0.1,0-0.2,0-0.3c0-0.1,0.1-0.2,0.2-0.3C56.7,32.6,56.7,32.7,56.6,32.9z"/>
		<path class="st29" d="M56.2,34.5c0-0.1,0-0.2,0-0.4l0,0c0,0,0,0.1,0,0.1C56.2,34.3,56.2,34.4,56.2,34.5L56.2,34.5z"/>
		<path class="st29" d="M56.2,34.1c0-0.1,0.1-0.2,0.1-0.2C56.3,34,56.3,34,56.2,34.1C56.2,34.1,56.2,34.1,56.2,34.1L56.2,34.1
			L56.2,34.1z"/>
		<path class="st21" d="M56.8,32.1C56.8,32.1,56.9,32.1,56.8,32.1c0,0.1,0,0.2,0,0.3C56.8,32.3,56.8,32.2,56.8,32.1L56.8,32.1z"/>
		<path class="st21" d="M56.9,32.1c0-0.1,0.1-0.2,0.1-0.2C57,31.9,56.9,32,56.9,32.1z"/>
		<path class="st10" d="M61.2,49.7C61.2,49.7,61.2,49.7,61.2,49.7C61.2,49.7,61.2,49.7,61.2,49.7C61.1,49.7,61.1,49.7,61.2,49.7z"/>
		<path class="st16" d="M56.2,34.1C56.2,34.1,56.2,34.1,56.2,34.1c0,0,0,0.1,0,0.2C56.2,34.2,56.2,34.2,56.2,34.1L56.2,34.1z"/>
		<path class="st16" d="M56.4,33.6c0,0,0-0.1,0-0.1C56.4,33.5,56.4,33.6,56.4,33.6z"/>
		<path class="st29" d="M95.9,65.7c-0.2,0.1-0.3,0.2-0.5,0.2c-0.1,0-0.1-0.1-0.2-0.1c0.2-0.1,0.4-0.2,0.6-0.3
			c0.2-0.1,0.4-0.1,0.6-0.2C96.1,65.5,96,65.6,95.9,65.7L95.9,65.7z"/>
		<path class="st30" d="M91,67.6c-0.2,0.1-0.4,0.1-0.7,0.2C90.6,67.7,90.8,67.6,91,67.6z"/>
		<path class="st30" d="M90.4,67.8c-0.1,0.1-0.1,0.1-0.2,0.2c-0.1,0-0.2-0.1-0.4-0.1C90,67.8,90.2,67.8,90.4,67.8L90.4,67.8z"/>
		<path class="st6" d="M66.1,56C66.1,56,66.1,55.9,66.1,56C66.1,55.9,66.1,56,66.1,56z"/>
		<path class="st6" d="M65.8,55.5C65.8,55.5,65.8,55.4,65.8,55.5C65.8,55.4,65.8,55.5,65.8,55.5z"/>
		<path class="st6" d="M65.7,55.3C65.7,55.3,65.7,55.3,65.7,55.3C65.7,55.3,65.7,55.3,65.7,55.3z"/>
		<path class="st6" d="M65.6,55C65.6,55,65.5,55,65.6,55C65.5,55,65.5,55,65.6,55z"/>
		<path class="st6" d="M65.4,54.7C65.4,54.7,65.3,54.6,65.4,54.7C65.3,54.6,65.4,54.7,65.4,54.7z"/>
		<path class="st6" d="M65.5,54.9C65.5,54.9,65.4,54.8,65.5,54.9C65.4,54.8,65.4,54.8,65.5,54.9z"/>
		<path class="st11" d="M101.8,61.3c-0.1,0-0.1,0.1-0.2,0.1c0.2-0.2,0.4-0.4,0.7-0.6c-0.1,0.1-0.2,0.2-0.2,0.3c0,0-0.1,0.1-0.1,0.1
			C101.9,61.2,101.9,61.3,101.8,61.3z"/>
		<path class="st11" d="M102.4,60.7C102.4,60.7,102.4,60.7,102.4,60.7C102.4,60.7,102.4,60.7,102.4,60.7z"/>
		<path class="st11" d="M102.5,60.6C102.5,60.6,102.5,60.6,102.5,60.6C102.5,60.6,102.5,60.6,102.5,60.6z"/>
		<path class="st8" d="M102,61.2c0,0,0.1-0.1,0.1-0.1C102.1,61.1,102,61.1,102,61.2z"/>
		<path class="st16" d="M97.4,64.9c0,0,0.1-0.1,0.1-0.1c0,0,0,0,0,0C97.5,64.8,97.5,64.9,97.4,64.9L97.4,64.9z"/>
	</g>
</g>
</svg>
