<?xml version="1.0" encoding="UTF-8"?>
<svg id="Layer_2" data-name="Layer 2" xmlns="http://www.w3.org/2000/svg" viewBox="0 0 119.12 112.05">
  <defs>
    <style>
      .cls-1 {
        fill: #f4a6f4;
      }

      .cls-1, .cls-2, .cls-3, .cls-4, .cls-5, .cls-6, .cls-7, .cls-8, .cls-9, .cls-10, .cls-11, .cls-12, .cls-13, .cls-14, .cls-15, .cls-16, .cls-17, .cls-18, .cls-19, .cls-20, .cls-21, .cls-22, .cls-23, .cls-24, .cls-25, .cls-26, .cls-27, .cls-28, .cls-29, .cls-30, .cls-31 {
        stroke-width: 0px;
      }

      .cls-2 {
        fill: #f6dff7;
      }

      .cls-3 {
        fill: #79797c;
      }

      .cls-4 {
        fill: #7d170f;
      }

      .cls-5 {
        fill: #711412;
      }

      .cls-6 {
        fill: #808081;
      }

      .cls-7 {
        fill: #9a9a9e;
      }

      .cls-8 {
        fill: #a3a3aa;
      }

      .cls-9 {
        fill: #d2d5dd;
      }

      .cls-10 {
        fill: #cbcdd5;
      }

      .cls-11 {
        fill: #afb0ba;
      }

      .cls-12 {
        fill: #b13119;
      }

      .cls-13 {
        fill: #dd83dd;
      }

      .cls-14 {
        fill: #dfa6e2;
      }

      .cls-15 {
        fill: #e27dde;
      }

      .cls-16 {
        fill: #c0c1ca;
      }

      .cls-17 {
        fill: #c466c4;
      }

      .cls-18 {
        fill: #d8dae0;
      }

      .cls-19 {
        fill: #af4fb2;
      }

      .cls-20 {
        fill: #8a8a8b;
      }

      .cls-21 {
        fill: #b7b9c1;
      }

      .cls-22 {
        fill: #919193;
      }

      .cls-23 {
        fill: #871912;
      }

      .cls-24 {
        fill: #f1f2f4;
      }

      .cls-25 {
        fill: #edeef1;
      }

      .cls-26 {
        fill: #e8eaee;
      }

      .cls-27 {
        fill: #e3e4e9;
      }

      .cls-28 {
        fill: #eec7ef;
      }

      .cls-29 {
        fill: #fefefe;
      }

      .cls-30 {
        fill: #f5f6f7;
      }

      .cls-31 {
        fill: #e88be8;
      }
    </style>
  </defs>
  <g id="Layer_1-2" data-name="Layer 1">
    <g>
      <path class="cls-29" d="M99.69,0c6.48,0,12.96,0,19.43,0v112.05H0C0,74.7,0,37.35,0,0c32.3,0,64.6,0,96.9,0-.53.1-1.05.2-1.58.3-.44.1-.88.21-1.31.31-.4.1-.8.2-1.2.3-1.05.45-2.1.9-3.16,1.35-.68.45-1.37.9-2.05,1.35-.84.78-1.67,1.55-2.51,2.33-.51.65-1.06,1.27-1.52,1.95-1.14,1.68-1.92,3.53-2.49,5.48-1.78.08-3.52.4-5.24.88-5.11,1.41-9.52,4-13.09,7.93-1.18,1.3-2.15,2.78-3.22,4.18-.18,0-.4-.08-.52,0-.63.39-1.24.8-1.84,1.24-.92.68-1.77,1.45-2.74,2.05-.87.53-1.55,1.2-2.15,1.99-.47.61-.97,1.2-1.67,1.56-.17.09-.34.24-.44.4-.59,1-1.61,1.47-2.55,1.98-.75.4-1.58.58-2.19,1.29-.38.43-1.04.64-1.59.91-1.78.9-3.59,1.75-5.34,2.69-1.92,1.03-3.82,2.09-5.67,3.22-1.97,1.21-3.89,2.51-5.8,3.81-.79.54-1.51,1.17-2.23,1.79-.51.44-.94.97-1.45,1.42-1.49,1.31-3.06,2.54-4.5,3.9-1.84,1.75-3.64,3.55-4.92,5.8-.61,1.07-1.44,2-2.09,3.05-.74,1.21-1.39,2.47-2.07,3.71-.05.1-.1.28-.04.34.25.3.04.55-.04.81-.3,1.03-.69,2.05-.91,3.1-.34,1.61-.46,3.25-.32,4.91.12,1.48.45,2.9.93,4.28,1,2.86,2.65,5.37,4.65,7.62,1.57,1.77,3.36,3.32,5.39,4.57,2.15,1.34,4.45,2.33,6.91,2.97.94.24,1.89.43,2.82.68.25.07.44.34.69.41.4.11.83.17,1.25.2,1.75.11,3.51.19,5.26.29.14,0,.28-.01.42-.02,1.08-.02,2.16-.05,3.24-.06.18,0,.37.13.55.12.36-.01.71-.1,1.07-.12.79-.05,1.59-.03,2.38-.13,1.1-.13,2.19-.32,3.27-.53,1.68-.32,3.35-.67,5.01-1.04,1.12-.25,2.23-.56,3.36-.81.78-.17,1.59-.2,2.35-.43,1.64-.49,3.26-1.05,4.87-1.62,1.34-.47,2.68-.95,3.98-1.5,1.78-.75,3.53-1.56,5.29-2.35,1.39-.63,2.8-1.23,4.14-1.95,1.95-1.03,3.89-2.08,5.77-3.24,2.31-1.43,4.58-2.92,6.81-4.48,1.59-1.11,3.09-2.34,4.6-3.57,1.3-1.06,2.62-2.11,3.82-3.28,1.62-1.57,3.2-3.19,4.69-4.88,1.37-1.56,2.66-3.2,3.86-4.9.99-1.4,1.78-2.93,2.66-4.4.68-1.14,1.2-2.34,1.23-3.69.03-1.81.01-3.63,0-5.44,0-.11-.17-.22-.25-.33.29-1.43.62-2.85.84-4.29.35-2.22.33-4.46.03-6.69.1-.09.19-.19.3-.27.85-.66,1.76-1.26,2.55-1.98,1.51-1.37,2.71-2.98,3.61-4.81.09-.18.18-.37.28-.55.02,0,.03-.03.02-.05.09-.2.18-.4.27-.6,0,0,0,0,0,0,.03-.06.06-.13.09-.19.02,0,.03-.03.02-.05.03-.08.06-.15.09-.23.03-.08.06-.16.09-.24.03-.07.06-.15.08-.22h0c.03-.06.05-.13.08-.19h0c.06-.19.12-.38.18-.56h0c.06-.19.12-.37.18-.55.03-.09.06-.18.09-.27.19-1.06.39-2.12.58-3.17.03-.19.09-.38.09-.58.01-1.03.05-2.06.01-3.08-.02-.61-.17-1.21-.26-1.82-.19-.88-.39-1.76-.58-2.64-.03-.11-.06-.22-.1-.33-.41-1.09-.82-2.17-1.23-3.26-.96-1.98-2.17-3.77-3.69-5.38-1.09-1.15-2.27-2.16-3.56-3.07-1.21-.85-2.51-1.53-3.87-2.1-1.38-.57-2.78-1.04-4.26-1.27-.57-.09-1.14-.18-1.71-.28Z"/>
      <path class="cls-15" d="M99.69,0c.57.09,1.14.19,1.71.28,1.48.23,2.88.7,4.26,1.27,1.36.56,2.66,1.25,3.87,2.1,1.29.91,2.47,1.92,3.56,3.07,1.52,1.61,2.73,3.4,3.69,5.38,0,.29-.05.58,0,.85.21,1.38.54,2.75.66,4.14.15,1.65-.07,3.29-.42,4.91-.37,1.69-.99,3.28-1.84,4.78-.98,1.74-2.23,3.26-3.79,4.51-2.01,1.61-4.29,2.66-6.84,3.1-1.64.28-3.28.28-4.92-.02-1.7-.3-3.3-.88-4.81-1.7-1.85-1-3.46-2.32-4.81-3.92-1.18-1.4-2.14-2.94-2.86-4.63-.83-1.96-1.36-4-1.47-6.12-.07-1.29.07-2.59.17-3.88.14-1.78.72-3.44,1.47-5.04,1.07-2.26,2.56-4.21,4.55-5.76,1.82-1.42,3.85-2.38,6.1-2.86.35-.07.69-.16,1.03-.24,0-.04,0-.09-.01-.13-.19,0-.38.01-.57,0-.32-.02-.63-.06-.95-.09.74,0,1.49,0,2.23,0ZM100.77,1.3c-1.15-.03-2.43.17-3.7.54-2.89.85-5.21,2.52-7.05,4.86-1.05,1.33-1.84,2.81-2.41,4.41-.57,1.6-.91,3.24-.92,4.93,0,1.26.11,2.52.27,3.77.28,2.24,1.16,4.28,2.34,6.19,1.14,1.85,2.61,3.38,4.36,4.67,2.42,1.77,5.13,2.68,8.09,2.79,1.37.05,2.73-.14,4.06-.52,3.8-1.1,6.6-3.45,8.52-6.84,1.85-3.26,2.4-6.8,1.92-10.5-.24-1.85-.78-3.62-1.6-5.29-.99-2.02-2.29-3.8-4-5.27-1.08-.93-2.23-1.74-3.53-2.35-1.96-.93-4-1.41-6.35-1.38Z"/>
      <path class="cls-15" d="M97.45,0c.32.03.63.07.95.09.19.01.38,0,.57,0,0,.04,0,.09.01.13-.34.08-.69.16-1.03.24-2.25.48-4.28,1.44-6.1,2.86-1.99,1.55-3.48,3.5-4.55,5.76-.75,1.59-1.33,3.26-1.47,5.04-.1,1.29-.24,2.59-.17,3.88.11,2.12.64,4.16,1.47,6.12.72,1.69,1.68,3.23,2.86,4.63,1.35,1.6,2.96,2.92,4.81,3.92,1.52.82,3.12,1.4,4.81,1.7,1.64.29,3.28.3,4.92.02,2.55-.44,4.83-1.49,6.84-3.1,1.56-1.25,2.8-2.78,3.79-4.51.85-1.5,1.47-3.09,1.84-4.78.35-1.62.56-3.26.42-4.91-.12-1.39-.44-2.76-.66-4.14-.04-.28,0-.57,0-.85.41,1.09.82,2.17,1.23,3.26.04.11.07.22.1.33-.06.34-.17.68-.19,1.02-.03.86.02,1.72-.02,2.58-.1,2.13-.58,4.17-1.44,6.12-1.44,3.28-3.65,5.88-6.75,7.7-2.82,1.66-5.86,2.28-9.11,1.96-1.58-.16-3.09-.55-4.55-1.17-3.27-1.38-5.83-3.62-7.79-6.55-1.29-1.93-2.18-4.04-2.7-6.31-.55-2.4-.66-4.82-.28-7.25.37-2.36,1.15-4.58,2.4-6.62.91-1.48,2-2.82,3.33-3.94,1.1-.93,2.31-1.69,3.62-2.31.27-.13.45-.42.68-.63.53-.1,1.05-.2,1.58-.3.19,0,.37,0,.56,0Z"/>
      <path class="cls-30" d="M109.46,48.72c.09.11.25.22.25.33.02,1.81.04,3.63,0,5.44-.03,1.35-.54,2.55-1.23,3.69-.88,1.47-1.68,3-2.66,4.4-1.2,1.7-2.49,3.34-3.86,4.9-1.49,1.69-3.07,3.31-4.69,4.88-1.2,1.16-2.52,2.22-3.82,3.28-1.51,1.22-3.01,2.46-4.6,3.57-2.23,1.56-4.5,3.05-6.81,4.48-1.88,1.16-3.82,2.21-5.77,3.24-1.35.71-2.76,1.31-4.14,1.95-1.76.8-3.51,1.61-5.29,2.35-1.31.55-2.65,1.03-3.98,1.5-1.61.57-3.23,1.13-4.87,1.62-.76.23-1.57.26-2.35.43-1.12.25-2.23.56-3.36.81-1.67.37-3.34.71-5.01,1.04-1.08.21-2.18.4-3.27.53-.79.1-1.59.08-2.38.13-.36.02-.71.11-1.07.12-.18,0-.37-.12-.55-.12-1.08.01-2.16.04-3.24.06-.14,0-.28.02-.42.02-1.75-.09-3.51-.18-5.26-.29-.42-.03-.84-.08-1.25-.2-.25-.07-.44-.34-.69-.41-.93-.25-1.89-.43-2.82-.68-2.45-.64-4.75-1.63-6.91-2.97-2.02-1.26-3.81-2.81-5.39-4.57-2-2.25-3.65-4.75-4.65-7.62-.48-1.38-.8-2.8-.93-4.28-.14-1.67-.01-3.3.32-4.91.22-1.05.61-2.07.91-3.1.08-.26.29-.52.04-.81-.05-.06-.01-.25.04-.34.68-1.24,1.33-2.5,2.07-3.71.65-1.05,1.48-1.98,2.09-3.05,1.28-2.25,3.07-4.05,4.92-5.8,1.44-1.36,3.01-2.59,4.5-3.9.51-.44.94-.98,1.45-1.42.72-.62,1.45-1.25,2.23-1.79,1.91-1.3,3.83-2.6,5.8-3.81,1.85-1.14,3.75-2.2,5.67-3.22,1.76-.94,3.56-1.79,5.34-2.69.55-.28,1.21-.48,1.59-.91.62-.7,1.45-.88,2.19-1.29.95-.51,1.96-.98,2.55-1.98.1-.16.27-.31.44-.4.71-.37,1.2-.95,1.67-1.56.6-.79,1.29-1.46,2.15-1.99.97-.59,1.82-1.37,2.74-2.05.6-.44,1.21-.85,1.84-1.24.13-.08.35,0,.52,0,0,.03,0,.05-.03.06-.03.04-.05.07-.08.11,0,0,0,0,0,0-.06.1-.13.2-.19.3-.04.08-.08.17-.13.25-.02.03-.04.07-.07.1h0c-.06.1-.12.21-.18.31.01.03,0,.04-.02.05-.02.04-.05.08-.07.12,0,.03,0,.05-.03.07l-.07.11s0,.06-.03.08c-.02.03-.04.06-.06.1h0c-.16.31-.31.62-.47.93h0s-.06.07-.09.11l-.03.16c-.14,0-.3-.03-.41.03-.21.12-.4.29-.57.47-1.09,1.05-2.16,2.11-3.25,3.15-.53.51-1.05,1.05-1.62,1.5-.91.73-1.87,1.4-2.81,2.1-.31.23-.68.39-.93.67-.49.56-1.13.89-1.77,1.21-.88.45-1.76.89-2.65,1.32-.65.32-1.31.62-1.97.93-1.28.62-2.49,1.34-3.67,2.14-1.57,1.06-3.28,1.92-4.87,2.95-1.56,1.01-3.07,2.12-4.58,3.23-1.04.76-2.1,1.52-3.04,2.41-1.62,1.52-3.19,3.09-4.72,4.71-1.14,1.21-2.24,2.47-3.23,3.8-1.28,1.72-2.58,3.43-3.29,5.53-.56,1.63-1.32,3.17-1.45,4.94-.1,1.31-.39,2.59-.27,3.94.15,1.58.45,3.13,1.02,4.58.55,1.41,1.28,2.77,2.08,4.06,1.27,2.05,2.84,3.86,4.71,5.41,1.44,1.2,2.94,2.31,4.64,3.1,1.29.59,2.63,1.06,3.93,1.63,1.32.58,2.7.81,4.11,1.01.61.09,1.21.21,1.82.31.71.12,1.42.31,2.13.32,2.52.02,5.04.09,7.54-.25,1.07-.15,2.15-.14,3.22-.3,2.02-.3,4.05-.57,6.04-1.03,2.46-.57,4.9-1.26,7.31-2,2.05-.63,4.07-1.35,6.06-2.15,2.2-.89,4.4-1.82,6.51-2.89,2.7-1.36,5.34-2.85,7.98-4.35,1.35-.77,2.65-1.64,3.93-2.53,1.46-1.03,2.89-2.1,4.28-3.23,1.84-1.5,3.68-3,5.42-4.61,2.16-1.99,4.15-4.15,5.96-6.48,1.7-2.19,3.25-4.47,4.49-6.95.53-1.06,1-2.16,1.43-3.27.16-.42.13-.92.18-1.39,0,0,0-.02,0-.02h.02s.04-.07.06-.1c.1-.18.2-.37.3-.55.08-.2.17-.39.25-.59,0-.03,0-.05.02-.07.02-.05.05-.09.07-.14v-.03s.02-.02.02-.02l.17-.42v-.03s.01-.02.01-.02c.03-.06.05-.13.08-.19.03-.09.07-.18.1-.27.03-.07.06-.14.09-.21-.01-.03,0-.05.02-.07.16-.35.33-.69.47-1.05.06-.16.04-.36.06-.54.01-.06.02-.12.03-.18Z"/>
      <path class="cls-19" d="M116.79,30.68c-.89,1.83-2.1,3.45-3.61,4.81-.8.72-1.7,1.32-2.55,1.98-.11.08-.2.18-.3.27-.54.28-1.08.56-1.63.84-.13.04-.27.07-.4.11-1.15.37-2.28.82-3.45,1.1-1.02.25-2.09.32-3.13.47-.43,0-.87,0-1.3,0-.31-.03-.62-.06-.93-.09-.38-.05-.76-.08-1.14-.15-1.05-.22-2.09-.46-3.14-.69-.84-.34-1.67-.68-2.51-1.02-.74-.4-1.49-.81-2.23-1.21-.65-.49-1.28-1-1.95-1.48-.32-.23-.43.08-.45.29-.03.38.03.77.01,1.16-.02.39-.09.78-.14,1.17-.03.22-.04.45-.06.67,0,.18.02.36-.01.53-.05.25-.13.48-.2.73-.09.35-.18.71-.27,1.06-.02.09-.11.2-.09.25.2.4-.03.75-.04,1.11-.01.43-.14.77-.26,1.16-.23.74-.37,1.51-.54,2.27-.02.1.03.25.1.34.22.26.47.48.69.73.59.64.94,1.01.31,1.87-.52.71-1.3,1.07-2.11,1.35-1.91.66-3.84.56-5.79.16-1.26-.26-2.45-.93-3.82-.73-.52.08-.9.24-1.17.69-.36.62-.43.64-1.13.37-.69-.28-1.32-.06-1.87.29-.48.31-.92.61-1.5.35-.64-.28-1.29-.05-1.88.07-.54.11-.98.14-1.37-.21-.78-.7-1.52-1.44-2.27-2.17-1.37-1.36-2.33-2.99-3.15-4.71-.89-1.86-1.36-3.84-1.44-5.88-.04-.94.09-1.93.4-2.81.5-1.44,1.23-2.8,2.28-3.94.67-.73,1.46-1.32,2.37-1.74.08-.04.2-.07.23-.14.29-.56.85-.67,1.36-.89.73-.32,1.48-.53,2.28-.33.89.23,1.63-.1,2.31-.62.56-.43,1.11-.89,1.68-1.3,1.54-1.1,3.12-2.1,5.07-2.29.59-.06,1.07.22,1.13.82.04.39-.06.79-.04,1.18.02.38-.01.92.21,1.11.53.44,1.19.72,1.81,1.05.14.08.32.11.48.13.34.05.61.15.78.49.05.11.25.15.38.22.03-.14.12-.3.07-.42-.16-.45-.37-.88-.53-1.32-.39-1.02-.79-2.04-1.12-3.08-.26-.81-.43-1.66-.64-2.49l-.18-1.3c0-.51-.01-1.02,0-1.52,0-.89-.06-1.78.04-2.66.13-1.1.4-2.19.6-3.29.57-1.94,1.35-3.8,2.49-5.48.46-.68,1.01-1.3,1.52-1.95-.04.25-.02.52-.13.73-1.39,2.65-2.17,5.48-2.36,8.45-.14,2.14,0,4.29.5,6.39.53,2.27,1.36,4.42,2.56,6.43,1.42,2.39,3.22,4.44,5.44,6.13,1.9,1.44,4,2.5,6.3,3.16,1.6.46,3.23.65,4.88.7.9.02,1.81-.14,2.71-.26,2.36-.31,4.56-1.13,6.54-2.45,1.18-.78,2.27-1.7,3.33-2.64.71-.62,1.3-1.38,1.94-2.07,0,.06.01.12.02.17ZM82.98,33.51c-.7.09-.71.09-.77-.54-.02-.22-.07-.32-.35-.27-.46.08-.72-.17-.77-.66-.03-.28-.08-.47-.46-.37-.12.03-.42-.18-.44-.31-.07-.5-.4-.53-.74-.46-.28.06-.41-.03-.51-.25-.17-.38-.47-.48-.86-.46-.11,0-.27-.08-.32-.17-.3-.47-.54-.96-.48-1.56.05-.48.03-.96,0-1.44-.02-.21-.12-.44-.25-.62-.32-.43-.79-.31-1.2-.22-1.34.28-2.45,1.01-3.42,1.92-.89.84-1.68,1.78-2.57,2.61-.34.32-.73.63-1.37.38-1.07-.43-2.09-.2-2.9.68-.19.21-.29.5-.47.73-.48.6-1.05,1.14-1.46,1.78-.4.63-.81,1.34-.92,2.06-.25,1.65-.2,3.31.23,4.95.52,2,1.36,3.83,2.62,5.47.2.25.47.6.72.3.33-.38.62.19.87-.08.01-.01.02-.02.03-.03q.46-.43.97-.02c.3.24.79.14,1.02-.17.12-.16.31-.32.5-.39.31-.11.7-.09.64-.6,0-.06.11-.13.17-.2.17-.18.33-.37.51-.53.07-.06.21-.1.28-.07.39.18.8.34,1.15.58.65.44,1.25.95,1.9,1.4,2.54,1.75,5.2,3.14,8.43,2.92.71-.05,1.37-.22,1.97-.58.56-.33.65-1.05.16-1.45-.47-.39-.98-.74-1.49-1.09-.9-.6-1.71-1.25-1.96-2.38-.04-.2-.1-.3.17-.34.22-.03.43-.19.64-.28-.09-.16-.19-.31-.25-.47-.05-.12-.08-.27-.05-.39.01-.07.18-.18.23-.16.44.18.52-.24.65-.33-.06-.4-.12-.72-.17-1.03.19-.01.39-.03.61-.05-.07-.29-.28-.65-.2-.93.08-.28.44-.48.69-.73-.08-.22-.19-.55-.31-.89.71-.1.75-.16.38-.61-.44-.53-.04-1.1-.12-1.65,0-.03.19-.06.25-.13.09-.11.21-.25.21-.38-.01-.2-.12-.4-.21-.69-.11.24-.19.41-.26.57-.44-.72-.88-1.41-.73-2.34Z"/>
      <path class="cls-19" d="M100.43,40.27c.43,0,.87,0,1.3,0-.04.18-.06.37-.14.53-.29.61-.59,1.22-.91,1.82-.97,1.83-2.24,3.46-3.73,4.87-1.43,1.35-3.02,2.54-4.57,3.75-1.05.82-1.91,1.7-1.63,3.17.11.56.05,1.18.46,1.65.17.2.36.51.57.54.57.07,1,.54,1.52.55.74.03,1.5-.13,2.24-.26,1.5-.26,2.94-.73,4.28-1.42,1.88-.97,3.52-2.24,4.93-3.85,1.32-1.51,2.3-3.2,3.01-5.07.85-2.25,1.04-4.59.94-6.97-.01-.33,0-.66,0-1,.54-.28,1.08-.56,1.63-.84.3,2.23.32,4.47-.03,6.69-.23,1.44-.56,2.86-.84,4.29-.01.06-.02.12-.03.18-.18.53-.35,1.06-.53,1.59-.02.02-.03.04-.02.07-.03.07-.06.14-.09.21-.03.09-.07.18-.1.27-.03.06-.05.13-.08.19l-.02.02s0,.03,0,.03c-.06.14-.11.28-.17.42,0,0-.02.02-.02.02,0,0,0,.03,0,.03-.02.05-.05.09-.07.14-.02.02-.03.04-.02.07-.08.2-.17.39-.25.59-.1.18-.2.37-.3.55-.02.03-.04.07-.06.1,0,0-.02,0-.02,0,0,0,0,.02,0,.02-.05.07-.12.12-.15.2-1.19,2.45-2.73,4.66-4.58,6.65-.16.12-.32.25-.48.37-.13.03-.27.06-.4.1-1.2.46-2.38,1.04-3.61,1.37-1.46.39-2.97.69-4.48.83-2.11.19-4.21-.1-6.28-.56-.25-.06-.45-.31-.67-.48-.09-.07-.18-.15-.28-.22-.42-.3-.84-.58-1.25-.89-.05-.03-.03-.14-.05-.22-.22-.98.01-1.9.36-2.79.4-1.02.85-2.02,1.23-3.04.29-.76.74-1.41,1.36-1.88.85-.64,1.76-1.18,2.68-1.72,1.48-.87,2.79-1.98,4.05-3.13,1.23-1.11,2.25-2.41,3.18-3.78.75-1.1,1.38-2.29,2.06-3.45.05-.08.03-.21.04-.32Z"/>
      <path class="cls-15" d="M81.07,13.36c-.21,1.1-.47,2.18-.6,3.29-.1.87-.04,1.77-.04,2.66,0,.51,0,1.02,0,1.52-.19.05-.39.07-.56.15-.98.47-1.98.93-2.94,1.45-1.3.71-2.55,1.49-3.85,2.2-.63.34-1.3.33-1.93-.1-.17-.12-.41-.26-.58-.23-1.32.22-2.64.42-3.93.75-1.07.28-2.12.68-3.12,1.14-1.12.51-2.21,1.1-3.24,1.77-.9.58-1.7,1.31-2.55,1.97l.27-.73.03-.16s.06-.07.09-.11c0,0,0,0,0,0,.16-.31.31-.62.47-.93,0,0,0,0,0,0,.02-.03.04-.06.06-.1.03-.02.04-.05.03-.08.02-.04.05-.07.07-.11.03-.01.04-.04.03-.07.02-.04.05-.08.07-.12.03,0,.03-.03.02-.05.06-.11.12-.21.18-.32,0,0,0,0,0,0,.02-.03.04-.07.07-.1.04-.08.08-.17.13-.25.06-.1.13-.2.19-.3,0,0,0,0,0,0,.03-.04.05-.07.08-.11.03-.01.04-.03.03-.06,1.07-1.4,2.04-2.88,3.22-4.18,3.56-3.94,7.98-6.52,13.09-7.93,1.71-.47,3.46-.8,5.24-.88Z"/>
      <path class="cls-28" d="M89.64,2.26c1.05-.45,2.1-.9,3.16-1.35-.11.2-.17.46-.33.59-.54.46-1.13.85-1.68,1.3-1.69,1.37-2.99,3.06-4.02,4.97-1.26,2.35-1.95,4.87-2.14,7.5-.14,2-.01,4.01.48,5.97.71,2.81,1.88,5.41,3.72,7.69,1.82,2.26,3.98,4.08,6.64,5.27,2.43,1.09,4.95,1.59,7.63,1.42,2.34-.15,4.51-.77,6.55-1.9,2.99-1.65,5.19-4.05,6.74-7.05,1.13-2.19,1.78-4.52,1.97-6.98.03-.46.2-.92.3-1.37.09.6.24,1.21.26,1.82.04,1.03,0,2.05-.01,3.08,0,.19-.06.38-.09.58-.28-.06-.37.11-.45.34-.36.94-.68,1.9-1.13,2.79-1.17,2.33-2.72,4.35-4.78,6-2.57,2.06-5.48,3.28-8.73,3.59-1.82.17-3.67.07-5.47-.39-3.28-.84-6.11-2.47-8.51-4.85-1.71-1.7-3.06-3.66-4.08-5.86-1.09-2.35-1.71-4.82-1.9-7.39-.14-1.86-.03-3.74.38-5.57.77-3.46,2.24-6.56,4.75-9.12.3-.3.48-.72.71-1.08Z"/>
      <path class="cls-15" d="M116.77,30.5c-.64.7-1.23,1.45-1.94,2.07-1.06.93-2.15,1.86-3.33,2.64-1.98,1.32-4.17,2.13-6.54,2.45-.9.12-1.81.28-2.71.26-1.65-.04-3.28-.24-4.88-.7-2.3-.66-4.4-1.72-6.3-3.16-2.22-1.68-4.01-3.73-5.44-6.13-1.2-2.01-2.02-4.16-2.56-6.43-.49-2.11-.64-4.25-.5-6.39.19-2.97.97-5.8,2.36-8.45.11-.21.09-.49.13-.73.84-.78,1.67-1.55,2.51-2.33.2.39-.13.6-.31.84-1.01,1.36-1.85,2.81-2.48,4.38-.74,1.86-1.3,3.77-1.38,5.77-.06,1.52-.11,3.06.02,4.57.15,1.75.63,3.45,1.25,5.1.97,2.54,2.37,4.82,4.2,6.82,1.7,1.85,3.71,3.29,5.99,4.36,2.04.96,4.18,1.49,6.41,1.63,1.84.12,3.65-.12,5.44-.61,3.36-.92,6.1-2.81,8.37-5.39.72-.82,1.28-1.77,1.89-2.68.35-.52.64-1.08.95-1.61.13.08.22.13.31.18-.03.09-.06.18-.09.27-.06.18-.12.36-.18.54,0,0,0,.01,0,.01-.06.18-.12.36-.18.54,0,0,0,.01,0,.01-.03.06-.05.13-.08.19,0,0,0,0,0,0-.03.07-.06.15-.08.22l-.09.24c-.03.08-.06.15-.09.23.01.02,0,.04-.02.05-.03.06-.06.13-.09.19h0c-.4.06-.25.36-.27.6.01.02,0,.04-.02.05-.1.12-.2.25-.3.37Z"/>
      <path class="cls-14" d="M118.69,18.33c-.1.46-.27.91-.3,1.37-.19,2.46-.84,4.79-1.97,6.98-1.55,3.01-3.76,5.41-6.74,7.05-2.04,1.13-4.21,1.75-6.55,1.9-2.68.17-5.21-.33-7.63-1.42-2.66-1.19-4.82-3.01-6.64-5.27-1.84-2.28-3.01-4.88-3.72-7.69-.5-1.96-.63-3.97-.48-5.97.19-2.64.87-5.16,2.14-7.5,1.03-1.91,2.33-3.6,4.02-4.97.55-.45,1.14-.84,1.68-1.3.16-.14.22-.39.33-.59.4-.1.8-.21,1.2-.3.44-.11.88-.21,1.31-.31-.22.21-.41.5-.68.63-1.31.62-2.52,1.39-3.62,2.31-1.33,1.12-2.43,2.46-3.33,3.94-1.25,2.04-2.03,4.26-2.4,6.62-.38,2.43-.27,4.85.28,7.25.52,2.27,1.41,4.38,2.7,6.31,1.96,2.92,4.52,5.16,7.79,6.55,1.46.62,2.97,1.01,4.55,1.17,3.25.33,6.29-.3,9.11-1.96,3.1-1.82,5.31-4.42,6.75-7.7.86-1.96,1.34-4,1.44-6.12.04-.86-.01-1.72.02-2.58.01-.34.12-.68.19-1.02.19.88.39,1.76.58,2.64Z"/>
      <path class="cls-19" d="M118.26,26.98c-.09-.05-.18-.11-.31-.18-.32.54-.61,1.1-.95,1.61-.61.91-1.17,1.86-1.89,2.68-2.27,2.58-5,4.47-8.37,5.39-1.79.49-3.6.73-5.44.61-2.23-.14-4.37-.67-6.41-1.63-2.28-1.08-4.29-2.51-5.99-4.36-1.83-2-3.23-4.27-4.2-6.82-.63-1.65-1.1-3.35-1.25-5.1-.13-1.51-.08-3.05-.02-4.57.08-2.01.64-3.92,1.38-5.77.63-1.57,1.47-3.02,2.48-4.38.18-.24.52-.45.31-.84.68-.45,1.37-.9,2.05-1.35-.23.36-.41.78-.71,1.08-2.52,2.56-3.98,5.66-4.75,9.12-.41,1.83-.52,3.71-.38,5.57.19,2.57.81,5.04,1.9,7.39,1.02,2.2,2.37,4.16,4.08,5.86,2.39,2.38,5.23,4.01,8.51,4.85,1.8.46,3.65.56,5.47.39,3.25-.3,6.16-1.53,8.73-3.59,2.06-1.65,3.6-3.67,4.78-6,.45-.89.77-1.85,1.13-2.79.09-.23.18-.39.45-.34-.19,1.06-.39,2.12-.58,3.17Z"/>
      <path class="cls-5" d="M117.09,30.08c.01-.23-.14-.54.27-.6-.09.2-.18.4-.27.6Z"/>
      <path class="cls-5" d="M116.77,30.5c.1-.12.2-.25.3-.37-.09.18-.18.37-.28.55,0-.06-.01-.12-.02-.17Z"/>
      <path class="cls-5" d="M118,27.79c.06-.18.12-.36.18-.54-.06.18-.12.36-.18.54Z"/>
      <path class="cls-5" d="M117.81,28.35c.06-.18.12-.36.18-.54-.06.18-.12.36-.18.54Z"/>
      <path class="cls-5" d="M117.73,28.55c.03-.06.05-.13.08-.19-.03.06-.05.13-.08.19Z"/>
      <path class="cls-5" d="M117.36,29.48c.03-.06.06-.13.09-.19-.03.06-.06.13-.09.19Z"/>
      <path class="cls-5" d="M117.46,29.24c.03-.08.06-.15.09-.23-.03.08-.06.15-.09.23Z"/>
      <path class="cls-5" d="M117.65,28.77c.03-.07.06-.15.08-.22-.03.07-.06.15-.08.22Z"/>
      <path class="cls-13" d="M100.77,1.3c2.34-.03,4.39.45,6.35,1.38,1.3.61,2.44,1.42,3.53,2.35,1.72,1.47,3.02,3.26,4,5.27.82,1.67,1.36,3.44,1.6,5.29.49,3.71-.07,7.25-1.92,10.5-1.92,3.39-4.72,5.74-8.52,6.84-1.33.38-2.69.57-4.06.52-2.97-.11-5.68-1.01-8.09-2.79-1.75-1.29-3.23-2.82-4.36-4.67-1.18-1.91-2.05-3.95-2.34-6.19-.16-1.25-.28-2.52-.27-3.77,0-1.69.35-3.33.92-4.93.57-1.6,1.36-3.08,2.41-4.41,1.84-2.34,4.16-4.01,7.05-4.86,1.27-.37,2.55-.57,3.7-.54ZM107.09,4.55s-.1-.06-.14-.09c-.26-.19-.53-.37-.79-.56-.51-.37-1.02-.74-1.54-1.11.4.69.87,1.31,1.35,1.91.02.03.09.02.13.03.6.8,1.19,1.6,1.79,2.41.07.13.14.27.23.4.83,1.21,1.66,2.41,2.5,3.61.19.27.41.51.62.77.02.1.02.22.07.3.39.61.78,1.22,1.18,1.83.35.57.71,1.14,1.06,1.71.1.22.19.45.3.66.4.72.79,1.45,1.21,2.16.07.12.25.18.38.27.05-.13.13-.27.14-.4.02-.38,0-.77,0-1.15-.02-.19-.04-.37-.06-.56,0-.1,0-.21,0-.31,0-.12-.02-.25-.02-.37-.06-.44-.13-.87-.19-1.31-.04-.14-.07-.27-.11-.41-.01-.07-.03-.14-.04-.21-.01-.03-.02-.05-.03-.08-.09-.28-.17-.56-.26-.84-.67-2.04-1.95-3.66-3.47-5.11-.38-.34-.75-.68-1.13-1.02-.33-.29-.66-.57-1-.86-.34-.26-.68-.52-1.02-.78-.34-.26-.69-.53-1.03-.79-.04-.03-.08-.06-.12-.09ZM101.16,6.38c-.55.04-1.11.04-1.66.14-3.24.6-5.52,2.52-7,5.38-1.14,2.21-1.36,4.62-.97,7.04.4,2.48,1.49,4.64,3.33,6.42,2.32,2.25,5.04,3.3,8.29,2.91,2.46-.29,4.45-1.46,6.02-3.32,2.22-2.64,2.91-5.77,2.39-9.11-.42-2.71-1.67-5.04-3.77-6.87-1.9-1.66-4.06-2.6-6.62-2.59Z"/>
      <path class="cls-24" d="M58.01,29.19c-.09.24-.18.49-.27.73,0,0,0,0,0,0-.03.07-.06.13-.09.2,0,0,0,0,0,0-.03.06-.06.13-.09.19,0,0,0,0,0,0l-.11.27s0,0,0,0c-.03.07-.05.13-.08.2,0,0,0,0,0,0-.04.09-.07.18-.11.27h0c-.03.06-.05.12-.08.19-.02.01-.03.04-.02.06l-.15.23v-.59c-.17.11-.32.19-.44.3-1.04.94-2.06,1.91-3.12,2.83-1.35,1.17-2.7,2.35-4.11,3.44-.87.67-1.83,1.24-2.8,1.77-1.27.7-2.6,1.28-3.88,1.96-.96.52-1.85,1.19-2.82,1.67-2.26,1.11-4.29,2.58-6.38,3.94-1.58,1.03-3.08,2.21-4.55,3.4-1.44,1.16-2.82,2.39-4.18,3.64-.85.78-1.64,1.64-2.41,2.5-.81.9-1.62,1.82-2.35,2.79-.66.87-1.18,1.84-1.82,2.73-1.09,1.51-1.73,3.23-2.36,4.95-.5,1.37-.6,2.82-.75,4.25-.15,1.43-.1,2.83.26,4.22.11.45.23.89.38,1.33.33.97.59,1.99,1.06,2.89.63,1.21,1.39,2.36,2.15,3.5.53.79,1.11,1.57,1.77,2.25.8.82,1.69,1.55,2.56,2.31,2.55,2.24,5.62,3.48,8.78,4.52,1.56.51,3.18.83,4.83.95,1.55.11,3.1.3,4.65.35,1.09.03,2.19-.07,3.28-.17,1.67-.16,3.34-.31,4.99-.56,1.97-.3,3.95-.64,5.89-1.09,1.9-.44,3.78-1.02,5.65-1.59,1.53-.47,3.04-1,4.55-1.54.9-.32,1.78-.7,2.66-1.07,1.59-.67,3.21-1.29,4.76-2.06,1.9-.94,3.76-1.95,5.59-3.02,2.12-1.25,4.23-2.55,6.26-3.95,1.94-1.34,3.79-2.81,5.62-4.29,1.45-1.18,2.8-2.46,4.19-3.71.41-.37.79-.77,1.18-1.17.78-.81,1.61-1.58,2.32-2.45,1.1-1.33,2.14-2.71,3.18-4.09.51-.68.96-1.42,1.47-2.17-.16-.03-.25-.04-.34-.06.08-.12.15-.24.23-.36,1.86-1.99,3.4-4.2,4.58-6.65.04-.07.1-.13.15-.2-.06.46-.02.96-.18,1.39-.43,1.11-.9,2.2-1.43,3.27-1.24,2.48-2.79,4.76-4.49,6.95-1.8,2.33-3.8,4.48-5.96,6.48-1.74,1.61-3.58,3.12-5.42,4.61-1.39,1.13-2.82,2.2-4.28,3.23-1.27.9-2.57,1.76-3.93,2.53-2.63,1.5-5.27,2.99-7.98,4.35-2.12,1.07-4.31,2.01-6.51,2.89-1.99.8-4.01,1.52-6.06,2.15-2.41.74-4.85,1.43-7.31,2-1.99.46-4.02.73-6.04,1.03-1.06.16-2.15.15-3.22.3-2.51.34-5.03.28-7.54.25-.71,0-1.42-.2-2.13-.32-.61-.1-1.21-.22-1.82-.31-1.4-.2-2.79-.43-4.11-1.01-1.3-.57-2.64-1.04-3.93-1.63-1.71-.78-3.2-1.9-4.64-3.1-1.87-1.55-3.44-3.36-4.71-5.41-.8-1.29-1.53-2.65-2.08-4.06-.57-1.45-.87-3-1.02-4.58-.13-1.35.17-2.63.27-3.94.13-1.77.89-3.31,1.45-4.94.72-2.1,2.01-3.81,3.29-5.53.99-1.33,2.09-2.59,3.23-3.8,1.52-1.62,3.09-3.19,4.72-4.71.94-.88,2-1.64,3.04-2.41,1.5-1.1,3.01-2.21,4.58-3.23,1.59-1.03,3.3-1.89,4.87-2.95,1.18-.8,2.39-1.52,3.67-2.14.65-.32,1.31-.61,1.97-.93.89-.43,1.77-.88,2.65-1.32.64-.33,1.28-.65,1.77-1.21.25-.28.62-.45.93-.67.94-.69,1.9-1.37,2.81-2.1.57-.46,1.09-.99,1.62-1.5,1.09-1.05,2.17-2.1,3.25-3.15.18-.17.36-.34.57-.47.11-.06.27-.02.41-.03Z"/>
      <path class="cls-29" d="M108.9,50.49c.18-.53.35-1.06.53-1.59-.02.18,0,.37-.06.54-.13.36-.31.7-.47,1.05Z"/>
      <path class="cls-29" d="M58.59,27.99c-.16.31-.31.62-.47.93.16-.31.31-.62.47-.93Z"/>
      <path class="cls-29" d="M108.07,52.54c.08-.2.17-.39.25-.59-.08.2-.17.39-.25.59Z"/>
      <path class="cls-29" d="M108.43,51.7c.06-.14.11-.28.17-.42-.06.14-.11.28-.17.42Z"/>
      <path class="cls-29" d="M59.43,26.51c-.06.1-.13.2-.19.3.06-.1.13-.2.19-.3Z"/>
      <path class="cls-29" d="M59.06,27.16c-.06.11-.12.21-.18.32.06-.11.12-.21.18-.32Z"/>
      <path class="cls-29" d="M108.61,51.24c.03-.06.05-.13.08-.19-.03.06-.05.13-.08.19Z"/>
      <path class="cls-29" d="M108.8,50.77c.03-.07.06-.14.09-.21-.03.07-.06.14-.09.21Z"/>
      <path class="cls-29" d="M58.75,27.71s-.05.07-.07.11l.07-.11Z"/>
      <path class="cls-29" d="M58.85,27.53s-.05.08-.07.12c.02-.04.05-.08.07-.12Z"/>
      <path class="cls-29" d="M58.65,27.9s-.04.06-.06.1c.02-.03.04-.06.06-.1Z"/>
      <path class="cls-29" d="M58.12,28.92s-.06.07-.09.11c.03-.04.06-.07.09-.11Z"/>
      <path class="cls-29" d="M108.34,51.89s.05-.09.07-.14c-.02.05-.05.09-.07.14Z"/>
      <path class="cls-17" d="M59.12,27.06s-.04.07-.07.1c.02-.03.04-.07.07-.1Z"/>
      <path class="cls-29" d="M59.5,26.41s-.05.07-.08.11c.03-.04.05-.07.08-.11Z"/>
      <path class="cls-24" d="M107.71,53.19s.04-.07.06-.1c-.02.03-.04.07-.06.1Z"/>
      <path class="cls-17" d="M82.98,33.51c-.16.92.29,1.62.73,2.34.07-.16.15-.32.26-.57.1.3.2.49.21.69,0,.12-.11.27-.21.38-.06.07-.26.1-.25.13.08.54-.32,1.11.12,1.65.37.45.33.5-.38.61.12.35.23.67.31.89-.25.25-.61.45-.69.73-.08.28.13.64.2.93-.22.02-.41.03-.61.05.05.32.1.64.17,1.03-.13.09-.21.51-.65.33-.05-.02-.22.09-.23.16-.02.12,0,.27.05.39.06.17.17.32.25.47-.21.1-.42.25-.64.28-.28.04-.22.14-.17.34.25,1.13,1.06,1.78,1.96,2.38.51.34,1.02.69,1.49,1.09.49.4.4,1.12-.16,1.45-.61.36-1.26.53-1.97.58-3.23.22-5.89-1.17-8.43-2.92-.65-.45-1.25-.96-1.9-1.4-.35-.24-.76-.4-1.15-.58-.07-.03-.21.01-.28.07-.18.16-.34.35-.51.53-.06.07-.18.14-.17.2.05.5-.33.48-.64.6-.19.07-.37.23-.5.39-.23.31-.72.41-1.02.17q-.52-.41-.97.02s-.02.02-.03.03c-.25.27-.54-.3-.87.08-.26.3-.53-.04-.72-.3-1.27-1.63-2.11-3.46-2.62-5.47-.42-1.64-.47-3.3-.23-4.95.11-.72.52-1.43.92-2.06.41-.64.98-1.18,1.46-1.78.18-.22.28-.52.47-.73.81-.88,1.83-1.11,2.9-.68.64.26,1.03-.06,1.37-.38.89-.83,1.68-1.78,2.57-2.61.97-.92,2.09-1.64,3.42-1.92.41-.08.88-.21,1.2.22.13.18.23.41.25.62.04.48.05.96,0,1.44-.06.6.18,1.09.48,1.56.06.09.22.17.32.17.39-.02.69.09.86.46.1.22.23.31.51.25.34-.07.68-.04.74.46.02.13.32.35.44.31.38-.11.43.09.46.37.05.49.31.74.77.66.28-.05.32.05.35.27.06.63.07.63.77.54ZM75.65,29.39s-.03,0-.05,0c0-.19.02-.37,0-.56-.04-.34-.16-.68-.54-.71-.36-.03-.76-.03-1.08.1-1.47.59-2.39,1.8-3.05,3.15-.98,1.98-1.16,4.12-.88,6.3.07.52.15,1.04.28,1.54.26,1.04.68,2.01,1.2,2.95.85,1.51,1.97,2.78,3.29,3.9,1.03.87,2.19,1.52,3.45,1.93.69.22,1.44.3,2.17.35.27.02.62-.21.79-.44.09-.12-.07-.49-.19-.71-.13-.24-.34-.43-.51-.64-.76-.91-1.5-1.83-2.28-2.72-.81-.93-1.16-2.1-1.7-3.16-.26-.51-.34-1.11-.56-1.65-.5-1.21-.66-2.48-.75-3.77-.03-.47-.02-.94,0-1.42,0-.55,0-1.1.06-1.64.1-.93.24-1.86.37-2.79Z"/>
      <path class="cls-15" d="M92.71,38.31c.84.34,1.67.68,2.51,1.02-.08.31-.09.66-.25.92-.42.69-.6,1.38-.36,2.19.08.27.1.51.26.77.2.36.32.84.28,1.25-.15,1.37-1.04,2.38-1.89,3.36-1.71,1.98-3.91,3.29-6.32,4.25-1.04.42-2.02.89-2.63,1.92-.82,1.38-1.83,2.61-2.97,3.76-.9.91-1.67,1.97-2.44,3-.44.58-.66,1.28-.42,2.02.09.28.32.53.34.81.04.46.34.62.67.8.14.07.35.24.34.33-.08.36.17.43.38.54,2.34,1.19,4.77,2.11,7.36,2.54.36.06.73.09,1.15.15-.29.13-.51.23-.72.32-.03.05-.06.13-.1.14-.41.05-.82.09-1.23.13-.59.06-1.18.12-1.77.19-1.18.03-2.35.07-3.53.1-1.3-.19-2.6-.39-3.89-.58-.09-.03-.17-.07-.26-.09-.73-.16-1.47-.28-2.19-.49-.75-.23-1.48-.54-2.21-.82h0c-.16-.06-.31-.12-.47-.18h0c-.22-.09-.44-.18-.66-.28h0c-.06-.03-.13-.06-.19-.09,0,0,0,0,0,0-.5-.25-.99-.5-1.49-.74-.08-.05-.15-.11-.23-.16-3.25-1.79-6.09-4.07-8.33-7.05-.85-1.13-1.62-2.32-2.43-3.48-.03-.03-.06-.07-.08-.1h0c-.25-.46-.49-.91-.74-1.37-.04-.07-.07-.14-.11-.21h0c-.03-.06-.06-.12-.1-.19h0c-.03-.06-.06-.12-.1-.19h0c-.05-.14-.09-.29-.14-.43-.42-1.19-.84-2.37-1.27-3.56,0-.03,0-.06.02-.09,0,0,.03-.02.04-.02.12.16.25.31.36.47.46.65.87,1.35,1.4,1.95,1.13,1.26,2.26,2.53,3.5,3.68,1.12,1.04,2.36,1.98,3.61,2.86.57.4,1.19.85,1.98.81.02.02.05.05.07.07.03.05.07.09.1.14l.13-.02c.32.11.64.23.97.34,1.07.33,2.14.67,3.22.96.39.11.77.12,1.15-.2.54-.45,1.01-1.07,1.84-1.02.08,0,.17-.13.26-.17.79-.33,1.32-1.19,2.31-1.12.08,0,.17-.07.24-.12.47-.35.94-.69,1.41-1.05.38-.3.71-.71,1.28-.59.08.02.2-.02.25-.07.49-.54,1.07-1.02,1.41-1.64.41-.75,1.07-1.12,1.75-1.42.95-.42,1.99-.66,2.97-1.03,2.07-.78,3.92-1.89,5.25-3.71.47-.64.8-1.33.42-2.19-.27-.62-.42-1.29-.33-1.98.04-.33.08-.67.08-1.01,0-.37-.11-.76-.07-1.12.09-.81.25-1.61.38-2.41.05-.27.11-.54.16-.8Z"/>
      <path class="cls-15" d="M108.71,38.58c0,.33-.02.66,0,1,.1,2.38-.09,4.72-.94,6.97-.7,1.87-1.69,3.56-3.01,5.07-1.4,1.61-3.05,2.89-4.93,3.85-1.35.69-2.79,1.16-4.28,1.42-.74.13-1.5.29-2.24.26-.51-.02-.95-.49-1.52-.55-.21-.03-.4-.34-.57-.54-.41-.47-.35-1.09-.46-1.65-.28-1.47.58-2.35,1.63-3.17,1.55-1.22,3.14-2.4,4.57-3.75,1.49-1.41,2.76-3.04,3.73-4.87.32-.6.62-1.21.91-1.82.08-.16.09-.35.14-.53,1.05-.15,2.11-.22,3.13-.47,1.17-.29,2.3-.73,3.45-1.1.13-.04.26-.07.4-.11Z"/>
      <path class="cls-15" d="M80.62,22.13c.21.83.38,1.67.64,2.49.34,1.04.74,2.06,1.12,3.08.17.44.38.87.53,1.32.04.12-.05.28-.07.42-.13-.07-.33-.11-.38-.22-.16-.34-.44-.45-.78-.49-.16-.02-.34-.05-.48-.13-.62-.33-1.28-.61-1.81-1.05-.23-.19-.19-.73-.21-1.11-.02-.39.08-.79.04-1.18-.06-.6-.54-.88-1.13-.82-1.96.18-3.54,1.19-5.07,2.29-.58.41-1.12.87-1.68,1.3-.68.53-1.42.85-2.31.62-.8-.2-1.55.01-2.28.33-.51.22-1.07.33-1.36.89-.04.07-.15.1-.23.14-.9.43-1.69,1.02-2.37,1.74-1.05,1.14-1.78,2.5-2.28,3.94-.31.88-.43,1.88-.4,2.81.08,2.04.55,4.02,1.44,5.88.82,1.72,1.78,3.35,3.15,4.71.74.74,1.49,1.47,2.27,2.17.39.35.83.32,1.37.21.59-.12,1.24-.35,1.88-.07.58.26,1.02-.05,1.5-.35.56-.35,1.19-.56,1.87-.29.69.28.76.25,1.13-.37.27-.45.64-.62,1.17-.69,1.37-.2,2.55.47,3.82.73,1.95.41,3.88.51,5.79-.16.8-.28,1.58-.64,2.11-1.35.64-.86.28-1.23-.31-1.87-.23-.25-.48-.48-.69-.73-.07-.08-.12-.23-.1-.34.16-.76.31-1.53.54-2.27.12-.39.25-.73.26-1.16.01-.36.24-.72.04-1.11-.03-.05.06-.16.09-.25.09-.35.18-.71.27-1.06.06-.24.15-.48.2-.73.03-.17,0-.35.01-.53.01-.23.03-.45.06-.67.04-.39.12-.78.14-1.17.02-.38-.04-.77-.01-1.16.02-.21.13-.53.45-.29.66.47,1.3.98,1.95,1.48-.03.27-.07.55-.09.82-.02.4.04.82-.05,1.2-.25,1.06-.36,2.11-.35,3.2,0,.7-.19,1.41-.34,2.1-.17.77-.28,1.53.22,2.21.48.65.38,1.27-.05,1.88-.9,1.3-2.23,1.97-3.64,2.5-1.76.66-3.63.59-5.46.78-.93.1-1.64.52-2.25,1.23-.5.58-.96,1.33-1.93,1.19-.08-.06-.16-.15-.25-.18-.7-.16-1.41-.28-2.1-.47-.86-.24-1.69-.39-2.55.05-.2.1-.53.06-.77,0-.63-.18-1.24-.44-1.87-.63-.27-.08-.57-.08-.85-.13-.24-.04-.53-.02-.71-.16-.8-.6-1.62-1.19-2.33-1.88-.79-.77-1.48-1.65-2.21-2.48-.13-.14-.25-.29-.37-.42-.13.15-.22.26-.32.36-.28-.53-.56-1.05-.84-1.58.4-.02.33-.29.19-.48-.81-1.19-1.29-2.52-1.72-3.87-.64-1.99-.81-4-.27-6.05.06-.21-.03-.46-.02-.69.04-.56-.03-1.18.18-1.67.28-.63.74-1.21,1.21-1.73.61-.7.65-.75.05-1.51.23-.21.44-.45.69-.64,1.52-1.15,3.14-2.11,4.95-2.71.42-.14.84-.29,1.27-.42.67-.2,1.34-.34,2.04-.08.26.09.56.08.85.08.77,0,1.36-.47,1.95-.87,1.69-1.14,3.4-2.25,5.3-3.03.84-.34,1.71-.59,2.57-.88Z"/>
      <path class="cls-17" d="M80.62,22.13c-.86.29-1.74.54-2.57.88-1.9.77-3.6,1.89-5.3,3.03-.59.4-1.18.87-1.95.87-.28,0-.59.02-.85-.08-.7-.25-1.37-.12-2.04.08-.43.13-.85.28-1.27.42-1.82.6-3.44,1.57-4.95,2.71-.25.19-.46.42-.69.64-.09.05-.21.07-.28.15-.64.72-1.31,1.43-1.91,2.18-.99,1.24-1.6,2.63-1.85,4.23-.23,1.42-.16,2.81.13,4.17.26,1.21.64,2.42,1.13,3.55.56,1.28,1.28,2.5,1.99,3.7.18.3.34.78.88.7.02.03.03.06.05.1,0,.07.01.13.02.2,0,0-.02.02-.01.03.01.02.03.03.04.04.03.12.07.25.1.37.08.41.16.81.23,1.22.36,1.09.85,2.11,1.63,2.98l1.12,1.28c.18.19.37.39.55.58.22.17.43.34.65.51.09.12.17.25.28.34.56.49,1.14.97,1.71,1.45-.78.04-1.41-.42-1.98-.81-1.26-.88-2.49-1.82-3.61-2.86-1.24-1.15-2.37-2.41-3.5-3.68-.53-.59-.94-1.3-1.4-1.95-.11-.16-.24-.32-.36-.47,0,0-.03,0-.04.02-.01.03-.01.06-.02.09-.08-.22-.16-.44-.24-.66-.16-.72-.33-1.43-.49-2.15-.13-.74-.26-1.48-.39-2.22-.02-.72-.04-1.44-.06-2.16.02-.77.04-1.53.06-2.3.06-.62.12-1.24.19-1.86,0-.24.01-.48.02-.72.1-.44.21-.87.31-1.31.02-.07.03-.13.05-.2.06-.25.12-.5.17-.75.01-.07.02-.15.03-.22.02-.05.04-.1.06-.15.02-.08.04-.17.06-.25h0c.02-.08.05-.17.07-.25.02-.05.04-.09.05-.14l.03-.36c.06-.07.12-.13.17-.2.06-.18.12-.35.17-.53v-.03c.04-.1.07-.19.11-.29h0c.03-.07.06-.16.08-.24v-.03c.07-.17.13-.33.19-.5-.01-.03,0-.05.02-.06.03-.06.05-.13.08-.19,0,0,0,0,0,0,.04-.09.07-.18.11-.27,0,0,0,0,0,0,.03-.07.05-.13.08-.2,0,0,0,0,0,0,.04-.09.07-.18.11-.27,0,0,0,0,0,0,.03-.06.06-.13.09-.19,0,0,0,0,0,0,.03-.07.06-.13.09-.2,0,0,0,0,0,0,.85-.66,1.65-1.39,2.55-1.97,1.03-.66,2.13-1.25,3.24-1.77,1-.46,2.06-.86,3.12-1.14,1.29-.34,2.61-.53,3.93-.75.18-.03.41.12.58.23.63.42,1.3.44,1.93.1,1.3-.71,2.55-1.49,3.85-2.2.96-.52,1.95-.98,2.94-1.45.17-.08.37-.1.56-.15.06.43.12.87.18,1.3Z"/>
      <path class="cls-17" d="M88,68.27c.22-.1.43-.19.72-.32-.42-.05-.78-.09-1.15-.15-2.6-.43-5.03-1.35-7.36-2.54-.21-.11-.46-.18-.38-.54.02-.08-.2-.25-.34-.33-.33-.18-.63-.33-.67-.8-.02-.28-.26-.53-.34-.81-.24-.75-.02-1.44.42-2.02.77-1.03,1.54-2.09,2.44-3,1.14-1.15,2.14-2.38,2.97-3.76.62-1.03,1.6-1.51,2.63-1.92,2.41-.97,4.6-2.27,6.32-4.25.85-.98,1.74-1.99,1.89-3.36.04-.41-.07-.89-.28-1.25-.15-.26-.18-.51-.26-.77-.23-.81-.06-1.5.36-2.19.16-.26.17-.61.25-.92,1.05.23,2.09.47,3.14.69.37.08.76.1,1.14.15-.12.34-.16.73-.36,1.03-1.05,1.58-2.09,3.16-3.21,4.68-1.08,1.48-2.38,2.78-3.87,3.84-1.22.86-2.56,1.54-3.83,2.32-.64.4-1.33.77-1.82,1.31-.56.61-.94,1.4-1.39,2.11-.59.92-1.21,1.83-1.74,2.78-.43.77-.78,1.6-1.12,2.42-.33.78.21,1.4.49,2.04.1.23.54.3.82.46.17.1.44.2.47.33.07.36.31.42.58.51,1.66.61,3.35,1.06,5.1,1.24,1.27.13,2.55.16,3.83.2.61.02,1.23-.07,1.85-.07.13,0,.26.12.4.19-.19.09-.37.18-.56.28-.8.37-1.61.75-2.41,1.12l-1.7.62h0c-.22.06-.44.12-.66.19h0c-.18.03-.36.08-.54.12-.61.12-1.22.25-1.83.37Z"/>
      <path class="cls-17" d="M76.53,54.21c.97.14,1.43-.61,1.93-1.19.61-.71,1.32-1.13,2.25-1.23,1.83-.19,3.7-.13,5.46-.78,1.41-.53,2.75-1.2,3.64-2.5.42-.61.53-1.22.05-1.88-.5-.68-.39-1.44-.22-2.21.16-.69.35-1.4.34-2.1,0-1.09.09-2.15.35-3.2.09-.38.03-.8.05-1.2.02-.28.06-.55.09-.82.74.4,1.49.81,2.23,1.21-.05.27-.12.53-.16.8-.14.8-.29,1.6-.38,2.41-.04.37.07.75.07,1.12,0,.34-.04.67-.08,1.01-.09.7.06,1.36.33,1.98.38.85.04,1.55-.42,2.19-1.33,1.82-3.18,2.93-5.25,3.71-.98.37-2.01.6-2.97,1.03-.68.3-1.34.67-1.75,1.42-.34.62-.93,1.11-1.41,1.64-.05.06-.17.09-.25.07-.58-.12-.9.3-1.28.59-.46.36-.93.7-1.41,1.05-.07.05-.16.13-.24.12-.98-.07-1.52.79-2.31,1.12-.1.04-.18.18-.26.17-.83-.05-1.3.57-1.84,1.02-.38.32-.76.3-1.15.2-1.08-.3-2.15-.64-3.22-.96-.33-.1-.65-.22-.97-.33-.55-.89-1.1-1.78-1.64-2.68-.02-.03-.05-.06-.07-.1-.07-.13-.14-.25-.21-.38-.02-.03-.05-.06-.07-.09-.02-.03-.03-.05-.03-.09-.02-.03-.05-.07-.07-.1l-.11-.2s-.04-.05-.06-.08c-.01-.03-.02-.06-.03-.1-.02-.03-.05-.06-.07-.09-.02-.03-.03-.05-.03-.09-.02-.03-.05-.07-.07-.1-.09-.21-.18-.42-.26-.63.16.04.33.05.46.13,1.09.66,2.19,1.31,3.26,2.01.67.44,1.31.62,2.12.34,1.08-.38,2.2-.62,3.3-.95.33-.1.66-.24.96-.41.48-.27.93-.58,1.4-.88Z"/>
      <path class="cls-17" d="M95.69,65.57c-.13-.07-.27-.19-.4-.19-.62,0-1.23.09-1.85.07-1.28-.04-2.56-.06-3.83-.2-1.75-.18-3.45-.64-5.1-1.24-.26-.1-.51-.15-.58-.51-.02-.14-.3-.24-.47-.33-.28-.16-.72-.23-.82-.46-.28-.64-.82-1.26-.49-2.04.35-.82.69-1.64,1.12-2.42.53-.95,1.16-1.86,1.74-2.78.45-.71.83-1.5,1.39-2.11.5-.54,1.19-.92,1.82-1.31,1.27-.79,2.62-1.46,3.83-2.32,1.49-1.06,2.78-2.36,3.87-3.84,1.12-1.53,2.17-3.11,3.21-4.68.19-.29.24-.68.36-1.03.31.03.62.06.93.09-.01.11.01.23-.04.32-.67,1.16-1.3,2.34-2.06,3.45-.93,1.36-1.95,2.67-3.18,3.78-1.27,1.15-2.57,2.25-4.05,3.13-.91.54-1.83,1.09-2.68,1.72-.63.47-1.08,1.12-1.36,1.88-.39,1.02-.83,2.03-1.23,3.04-.35.9-.59,1.82-.36,2.79.02.07,0,.18.05.22.41.3.84.59,1.25.89.1.07.18.15.28.22.22.17.42.42.67.48,2.07.46,4.17.75,6.28.56,1.51-.14,3.01-.43,4.48-.83,1.24-.33,2.41-.91,3.61-1.37.13-.05.26-.07.4-.1.02.05.03.1.05.14,0,0-.01,0-.01,0-.03.03-.05.05-.08.08,0,0-.01.01-.01.01-.03.03-.05.05-.08.08,0,0,0,.01,0,.01-.23.21-.45.42-.68.63-.45.4-.87.84-1.36,1.19-1.34.94-2.7,1.85-4.06,2.77,0,0,0,0,0,0-.18.07-.37.14-.55.21Z"/>
      <path class="cls-12" d="M102.53,60.58s-.03-.1-.05-.14c.16-.12.32-.25.48-.37-.08.12-.15.24-.23.36-.07.05-.13.1-.2.16Z"/>
      <path class="cls-31" d="M101.16,6.38c2.55,0,4.72.94,6.62,2.59,2.1,1.83,3.36,4.16,3.77,6.87.51,3.34-.17,6.47-2.39,9.11-1.56,1.86-3.56,3.03-6.02,3.32-3.24.39-5.96-.66-8.29-2.91-1.83-1.78-2.93-3.94-3.33-6.42-.39-2.42-.17-4.83.97-7.04,1.48-2.87,3.76-4.78,7-5.38.54-.1,1.1-.09,1.66-.14Z"/>
      <path class="cls-1" d="M115.52,16.41c0,.1,0,.21,0,.31-.04-.09-.09-.18-.14-.27-.03-.2,0-.45-.11-.6-.19-.25-.48-.42-.7-.65-.87-.89-1.72-1.79-2.59-2.67-.23-.23-.49-.42-.74-.63-.21-.25-.43-.5-.62-.77-.84-1.2-1.67-2.4-2.5-3.61-.09-.12-.15-.26-.23-.4-.01-.15.01-.32-.04-.46-.12-.3-.32-.57-.41-.87-.11-.38-.44-.72-.23-1.16.34.26.69.53,1.03.79.18.56.32,1.15.56,1.68.65,1.45,1.57,2.72,2.56,3.95.69.85,1.41,1.68,2.13,2.49.41.46.86.9,1.31,1.32.3.27.42.22.49-.15.06.44.13.87.19,1.31,0,.12.02.25.02.37Z"/>
      <path class="cls-28" d="M115.31,14.73c-.07.37-.2.42-.49.15-.45-.42-.9-.85-1.31-1.32-.73-.82-1.45-1.64-2.13-2.49-.99-1.23-1.91-2.5-2.56-3.95-.24-.54-.38-1.12-.56-1.68.34.26.68.52,1.02.78.12.5.16,1.05.39,1.5,1.08,2.08,2.51,3.92,4.14,5.59.37.38.82.67,1.23,1,.06,0,.11.01.17.02.04.14.07.27.11.41Z"/>
      <path class="cls-2" d="M115.03,14.31c-.41-.33-.87-.62-1.23-1-1.63-1.67-3.06-3.51-4.14-5.59-.23-.45-.26-1-.39-1.5.33.29.66.57,1,.86-.31.4-.01.75.15,1.06.97,1.91,2.29,3.56,3.82,5.05.33.32.89.5.8,1.12Z"/>
      <path class="cls-10" d="M115.03,14.31c.09-.63-.46-.8-.8-1.12-1.53-1.49-2.85-3.14-3.82-5.05-.16-.31-.45-.66-.15-1.06.38.34.75.68,1.13,1.02-.35.35-.02.65.11.91.8,1.65,2.09,2.92,3.36,4.19.09.28.17.56.26.84,0,.03,0,.06.03.08.01.07.03.14.04.21-.06,0-.11-.01-.17-.02Z"/>
      <path class="cls-27" d="M114.87,13.2c-1.27-1.28-2.57-2.54-3.36-4.19-.13-.26-.46-.57-.11-.91,1.53,1.45,2.81,3.07,3.47,5.11Z"/>
      <path class="cls-28" d="M111.24,11.91c.25.21.51.4.74.63.87.88,1.72,1.79,2.59,2.67.22.23.51.4.7.65.11.14.08.39.11.6-.06-.02-.13-.02-.17-.06-.71-.67-1.41-1.35-2.13-2.01-.17-.15-.4-.23-.6-.35-.39-.61-.79-1.22-1.18-1.83-.05-.08-.05-.2-.07-.3Z"/>
      <path class="cls-1" d="M115.57,17.28c0,.38.02.77,0,1.15,0,.14-.09.27-.14.4-.13-.09-.31-.15-.38-.27-.42-.71-.82-1.44-1.21-2.16-.12-.21-.2-.44-.3-.66.11.02.26,0,.33.08.42.4.82.82,1.24,1.22.12.11.3.16.46.24Z"/>
      <path class="cls-1" d="M115.57,17.28c-.15-.08-.34-.12-.46-.24-.42-.4-.82-.82-1.24-1.22-.07-.07-.22-.05-.33-.08-.35-.57-.71-1.14-1.06-1.71.2.11.44.2.6.35.72.66,1.42,1.34,2.13,2.01.04.04.11.04.17.06.05.09.09.18.14.27.02.18.04.37.06.55Z"/>
      <path class="cls-1" d="M107.21,4.65c-.22.44.11.79.23,1.16.09.3.29.57.41.87.06.14.03.31.04.46-.6-.8-1.19-1.6-1.79-2.41,0-.15,0-.3,0-.45,0-.13.03-.26.05-.38.26.19.53.37.79.56.05.03.1.06.14.09.04.03.08.06.12.09Z"/>
      <path class="cls-1" d="M106.16,3.91c-.02.13-.04.25-.05.38,0,.15,0,.3,0,.45-.04,0-.11,0-.13-.03-.48-.61-.95-1.22-1.35-1.91.51.37,1.02.74,1.54,1.11Z"/>
      <path class="cls-20" d="M115.52,16.41c0-.12-.02-.25-.02-.37,0,.12.02.25.02.37Z"/>
      <path class="cls-8" d="M107.09,4.55s-.1-.06-.14-.09c.05.03.1.06.14.09Z"/>
      <path class="cls-16" d="M115.16,14.12s-.03-.05-.03-.08c.01.03.02.05.03.08Z"/>
      <path class="cls-25" d="M102.53,60.58c.07-.05.13-.1.2-.16.09.02.18.03.34.06-.51.75-.96,1.49-1.47,2.17-1.04,1.38-2.08,2.76-3.18,4.09-.72.86-1.54,1.64-2.32,2.45-.38.4-.77.8-1.18,1.17-1.39,1.25-2.74,2.54-4.19,3.71-1.83,1.49-3.68,2.95-5.62,4.29-2.03,1.4-4.14,2.7-6.26,3.95-1.82,1.08-3.69,2.08-5.59,3.02-1.55.76-3.17,1.38-4.76,2.06-.88.37-1.76.75-2.66,1.07-1.51.54-3.02,1.07-4.55,1.54-1.87.57-3.75,1.15-5.65,1.59-1.94.45-3.92.79-5.89,1.09-1.65.25-3.33.41-4.99.56-1.09.1-2.19.21-3.28.17-1.55-.05-3.1-.24-4.65-.35-1.65-.12-3.27-.43-4.83-.95-3.16-1.04-6.23-2.28-8.78-4.52-.86-.76-1.76-1.48-2.56-2.31-.66-.68-1.23-1.46-1.77-2.25-.76-1.14-1.52-2.28-2.15-3.5-.47-.91-.73-1.92-1.06-2.89-.15-.44-.27-.88-.38-1.33-.35-1.39-.41-2.79-.26-4.22.15-1.44.26-2.89.75-4.25.63-1.72,1.27-3.44,2.36-4.95.64-.88,1.16-1.86,1.82-2.73.73-.97,1.53-1.89,2.35-2.79.77-.86,1.56-1.72,2.41-2.5,1.36-1.25,2.75-2.48,4.18-3.64,1.47-1.19,2.97-2.37,4.55-3.4,2.09-1.37,4.12-2.84,6.38-3.94.98-.48,1.86-1.15,2.82-1.67,1.28-.69,2.61-1.27,3.88-1.96.97-.53,1.93-1.1,2.8-1.77,1.41-1.09,2.76-2.27,4.11-3.44,1.06-.92,2.08-1.89,3.12-2.83.12-.11.27-.19.44-.3,0,.24,0,.42,0,.59,0,0,0,0,0,0-.07.18-.14.36-.21.54-.06.06-.12.13-.18.19-.16.08-.34.13-.47.25-.34.31-.65.67-1,.97-1.29,1.15-2.56,2.32-3.89,3.42-.97.8-2.01,1.53-3.07,2.21-.92.59-1.91,1.06-2.87,1.59-.7.39-1.39.8-2.09,1.18-.61.33-1.26.6-1.85.95-1.93,1.16-3.87,2.31-5.77,3.52-1.22.78-2.39,1.64-3.55,2.51-1.54,1.15-3.13,2.25-4.49,3.64-.76.78-1.61,1.49-2.4,2.25-.49.47-.96.95-1.4,1.46-.62.74-1.22,1.51-1.8,2.28-.76,1.01-1.53,2.01-2.22,3.07-.43.67-.73,1.42-1.08,2.14-.3.62-.71,1.22-.86,1.88-.34,1.43-1.08,2.78-.83,4.36.13.85-.05,1.75-.06,2.63-.01,1.34.29,2.63.73,3.88.41,1.16.93,2.29,1.5,3.38.81,1.57,1.85,2.99,3.08,4.26.64.66,1.29,1.34,2.01,1.9,1.14.89,2.31,1.75,3.53,2.52.91.57,1.91,1.01,2.89,1.46.84.38,1.68.8,2.56,1.02,1.68.41,3.4.71,5.11,1.02.82.15,1.65.29,2.47.28,1.91,0,3.83-.11,5.74-.17.5-.02,1-.01,1.5-.08,1.08-.14,2.16-.31,3.24-.48,1.43-.23,2.87-.39,4.27-.74,2.05-.51,4.07-1.14,6.08-1.77,2.1-.66,4.21-1.31,6.26-2.1,1.94-.74,3.85-1.6,5.72-2.52,2.06-1.02,4.05-2.19,6.07-3.29.97-.53,1.97-1.02,2.89-1.64,1.86-1.26,3.72-2.54,5.5-3.92,1.9-1.47,3.76-3,5.53-4.62,2.43-2.24,4.69-4.66,6.63-7.35.55-.76,1.05-1.55,1.57-2.32l.17-.15s.08-.08.12-.12c.08-.09.16-.19.24-.28,0,0,0-.01,0-.01.03-.03.05-.05.08-.08,0,0,.01-.01.01-.01.03-.03.05-.05.08-.08h.01Z"/>
      <path class="cls-23" d="M57.18,31.3c-.06.17-.12.33-.18.5.01-.09.02-.18.03-.27,0,0,0,0,0,0,.05-.08.1-.15.15-.23Z"/>
      <path class="cls-23" d="M57.56,30.32c-.04.09-.07.18-.11.27.04-.09.07-.18.11-.27Z"/>
      <path class="cls-23" d="M57.38,30.78c-.04.09-.07.18-.11.27.04-.09.07-.18.11-.27Z"/>
      <path class="cls-23" d="M57.28,31.05c-.03.06-.05.13-.08.19.03-.06.05-.13.08-.19Z"/>
      <path class="cls-23" d="M57.65,30.12c-.03.06-.06.13-.09.19.03-.06.06-.13.09-.19Z"/>
      <path class="cls-23" d="M57.73,29.93c-.03.07-.06.13-.09.2.03-.07.06-.13.09-.2Z"/>
      <path class="cls-23" d="M57.46,30.58c-.03.07-.05.13-.08.2.03-.07.05-.13.08-.2Z"/>
      <path class="cls-19" d="M75.65,29.39c-.13.93-.27,1.85-.37,2.79-.06.54-.05,1.09-.06,1.64,0,.47-.02.95,0,1.42.09,1.29.25,2.56.75,3.77.22.53.3,1.14.56,1.65.54,1.06.89,2.23,1.7,3.16.78.89,1.52,1.81,2.28,2.72.18.21.38.41.51.64.12.22.28.59.19.71-.17.23-.53.45-.79.44-.73-.04-1.48-.12-2.17-.35-1.27-.41-2.43-1.06-3.45-1.93-1.32-1.12-2.43-2.39-3.29-3.9-.53-.94-.94-1.91-1.2-2.95-.13-.5-.21-1.02-.28-1.54-.28-2.18-.1-4.31.88-6.3.67-1.35,1.58-2.56,3.05-3.15.32-.13.73-.13,1.08-.1.38.03.5.37.54.71.02.18,0,.37,0,.56.02,0,.03,0,.05,0Z"/>
      <path class="cls-20" d="M56.3,48.16c.08.22.16.44.24.66.42,1.19.85,2.37,1.27,3.56.05.14.09.29.14.44-.11,0-.29-.04-.33.02-.23.34-.65.61-.49.99-.14.25-.21.41-.32.53-.16.18-.36.48-.53.48-.59-.02-.65.27-.51.76-.64-.09-.68.27-.55.72-.72-.07-.95.25-.71.91.14.37-.07.87-.45.97-.37.1-.39.3-.32.62.08.38.13.78.1,1.16-.07.9-.38,1.77-.18,2.69.46,2.13,1.72,3.65,3.57,4.72,1.41.81,2.96,1.22,4.55,1.48.9.15,1.83.25,2.74.18,1.64-.11,3.29-.2,4.87-.71,1.22-.39,2.45-.75,3.71-1.14-.15-.19-.22-.28-.29-.38.74.28,1.46.6,2.21.82.71.21,1.46.33,2.19.49.09.02.17.06.26.09,0,.01-.02.02-.03.04,0,.01,0,.04,0,.04.22.07.44.14.66.22-.34.21-.69.4-1.03.62-1.63,1.05-3.35,1.92-5.14,2.66-1.73.72-3.54,1.19-5.37,1.55-1.1.22-2.22.41-3.33.46-1.89.07-3.79.07-5.67-.34-2.61-.56-5.05-1.46-7.14-3.18-1.58-1.3-2.79-2.85-3.29-4.86-.24-.98-.44-2-.43-3,.02-1.53.35-3.03,1.02-4.43.4-.82.66-1.74,1.48-2.31.18-.13.24-.44.35-.67.09-.19.14-.43.28-.58.94-.99,1.9-1.97,2.85-2.95.58-.6,1.17-1.19,1.73-1.81.53-.59,1.03-1.21,1.54-1.81.15.12.24.2.33.28Z"/>
      <path class="cls-21" d="M84.9,68.72c.59-.06,1.18-.12,1.77-.19.3.02.59.04,1.01.06-1.2,1.03-2.3,2.02-3.45,2.94-1.08.87-2.17,1.74-3.35,2.46-2.12,1.29-4.12,2.77-6.43,3.75-1.67.71-3.28,1.56-4.94,2.3-1.08.48-2.21.88-3.31,1.32-1,.4-1.98.84-2.99,1.19-.65.22-1.34.34-2.02.47-1.31.26-2.62.54-3.94.74-1.41.22-2.81.41-4.26.31-1.9-.14-3.8-.04-5.69-.54-1.61-.43-3.23-.76-4.77-1.42-2.42-1.04-4.62-2.42-6.53-4.24-1.63-1.55-2.91-3.36-3.8-5.43-.35-.82-.65-1.67-.86-2.54-.21-.86-.33-1.75-.39-2.64-.06-.95-.11-1.92.04-2.86.3-1.9.8-3.77,1.75-5.46.57-1.02,1.16-2.03,1.84-2.98.55-.76,1.23-1.43,1.89-2.1.79-.8,1.6-1.58,2.43-2.34.55-.51,1.12-1.01,1.72-1.45,1-.75,2.03-1.46,3.05-2.18.32-.23.65-.46.99-.66.25-.15.53-.26.77-.41,1.31-.83,2.62-1.66,3.92-2.51,1.52-1,3.02-2.02,4.54-3.03.44-.29.9-.56,1.35-.85,0,.5,0,.99,0,1.49-.06.02-.13.02-.17.05-.68.5-1.34,1.03-2.03,1.51-.81.56-1.65,1.07-2.47,1.61-.67.44-1.32.89-1.99,1.32-.35.22-.74.38-1.08.62-1.26.88-2.5,1.77-3.74,2.68-.59.44-1.17.9-1.73,1.39-.62.55-1.21,1.13-1.81,1.71-.41.39-.82.78-1.2,1.2-.49.55-.99,1.1-1.42,1.7-.78,1.1-1.45,2.25-2.03,3.47-.87,1.85-1.29,3.79-1.33,5.81-.03,1.92.3,3.79,1,5.6,1.05,2.69,2.77,4.89,5.03,6.63,1.23.94,2.63,1.65,3.97,2.43,1.28.74,2.67,1.21,4.09,1.56,1.03.25,2.08.43,3.13.55,1.48.16,2.98.3,4.47.3,1.21,0,2.42-.18,3.62-.36,1.53-.23,3.05-.54,4.58-.83.3-.06.59-.18.88-.26,1.09-.31,2.2-.57,3.28-.93,1.04-.35,2.06-.77,3.04-1.24,1.63-.77,3.26-1.55,4.84-2.43,1.4-.78,2.76-1.64,4.09-2.54,1.22-.83,2.4-1.73,3.56-2.64.82-.64,1.58-1.35,2.4-2.06-.49-.03-.9-.05-1.32-.07Z"/>
      <path class="cls-16" d="M55.23,40.45c-.45.28-.91.55-1.35.85-1.51,1.01-3.02,2.03-4.54,3.03-1.3.85-2.61,1.68-3.92,2.51-.25.16-.52.26-.77.41-.34.21-.67.44-.99.66-1.02.72-2.05,1.43-3.05,2.18-.6.45-1.17.95-1.72,1.45-.83.76-1.64,1.54-2.43,2.34-.66.67-1.34,1.34-1.89,2.1-.68.94-1.27,1.96-1.84,2.98-.95,1.7-1.44,3.56-1.75,5.46-.15.93-.1,1.91-.04,2.86.06.89.18,1.78.39,2.64.21.86.5,1.72.86,2.54.89,2.07,2.17,3.87,3.8,5.43,1.91,1.82,4.1,3.21,6.53,4.24,1.54.66,3.16.99,4.77,1.42,1.89.5,3.79.4,5.69.54,1.45.11,2.85-.09,4.26-.31,1.32-.2,2.63-.48,3.94-.74.68-.14,1.37-.25,2.02-.47,1.01-.35,1.99-.79,2.99-1.19,1.1-.44,2.23-.84,3.31-1.32,1.66-.74,3.27-1.6,4.94-2.3,2.31-.97,4.31-2.46,6.43-3.75,1.18-.72,2.27-1.59,3.35-2.46,1.15-.92,2.25-1.91,3.45-2.94-.41-.03-.71-.04-1.01-.06.41-.04.82-.08,1.23-.13.04,0,.07-.09.1-.14.61-.12,1.22-.25,1.83-.37.12.03.25.05.37.08-.09.14-.16.3-.28.41-.78.73-1.54,1.47-2.35,2.16-1.25,1.07-2.5,2.16-3.82,3.14-1.4,1.04-2.85,2.02-4.34,2.92-1.69,1.02-3.41,2-5.18,2.86-1.91.93-3.88,1.74-5.85,2.54-1.17.47-2.39.82-3.59,1.18-1.55.47-3.09.96-4.67,1.31-1.43.32-2.9.51-4.37.68-1.6.18-3.21.32-4.82.36-1.01.03-2.02-.14-3.03-.26-1.01-.11-2.02-.21-3.01-.41-.84-.17-1.66-.45-2.48-.71-1.58-.5-3.11-1.13-4.54-1.97-1.84-1.08-3.54-2.36-4.92-4-.77-.92-1.53-1.86-2.16-2.88-.67-1.06-1.27-2.18-1.56-3.43-.21-.89-.53-1.77-.67-2.67-.18-1.18-.24-2.38-.02-3.56.19-1.04.27-2.12.62-3.11.76-2.18,1.81-4.22,3.28-6.01.81-.99,1.68-1.93,2.57-2.85.61-.63,1.28-1.21,1.95-1.77,1.16-.96,2.32-1.94,3.55-2.81,1.06-.74,2.23-1.31,3.34-1.97,1.09-.66,2.17-1.34,3.25-2.02.92-.58,1.85-1.16,2.76-1.77,1.42-.95,2.83-1.93,4.24-2.89.35-.24.69-.48,1.13-.77v.8Z"/>
      <path class="cls-7" d="M78.11,68.53c-.22-.07-.44-.14-.66-.22,0,0,0-.03,0-.04,0-.01.02-.02.03-.04,1.3.19,2.6.39,3.89.58.25.03.49.05.74.08-.04.08-.06.19-.12.23-.91.69-1.79,1.42-2.75,2.03-1.26.81-2.56,1.56-3.87,2.26-1.44.77-2.88,1.58-4.4,2.15-1.85.7-3.7,1.39-5.69,1.71-1.89.31-3.77.57-5.68.62-1.69.04-3.38.02-5.07-.34-2.64-.56-5.13-1.47-7.42-2.9-1.29-.8-2.43-1.79-3.41-2.96-.98-1.16-1.76-2.43-2.27-3.85-.55-1.54-.73-3.14-.68-4.78.05-1.82.4-3.57,1.25-5.17.64-1.2,1.48-2.31,2.26-3.43.42-.61.83-1.26,1.38-1.72.87-.72,1.7-1.49,2.52-2.27.35-.34.73-.64,1.12-.93.23-.17.51-.27.74-.44.61-.46,1.2-.95,1.81-1.42.91-.71,1.82-1.42,2.73-2.13.29-.23.58-.46.96-.76.08.59.14,1.04.21,1.5-.26.22-.54.42-.78.65-1.1,1.04-2.19,2.1-3.29,3.14-.24.22-.54.37-.79.58-.49.44-.98.88-1.44,1.35-.36.37-.76.74-1.01,1.19-.22.39-.38.76-.84.91-.11.04-.22.12-.29.21-.99,1.19-1.82,2.48-2.45,3.9-.93,2.1-1.13,4.3-.79,6.53.36,2.34,1.51,4.33,3.14,6.02,1.34,1.4,2.96,2.41,4.72,3.21,2.36,1.07,4.83,1.69,7.42,1.76.98.03,1.97.01,2.94-.1,1.57-.18,3.15-.35,4.69-.69,2.37-.53,4.62-1.49,6.8-2.52,1.65-.78,3.2-1.8,4.78-2.73.42-.25.8-.58,1.2-.87-.01-.05-.03-.1-.04-.15-.51-.06-1.03-.12-1.54-.18Z"/>
      <path class="cls-11" d="M82.11,68.9c-.25-.03-.49-.05-.74-.08,1.18-.03,2.35-.07,3.53-.1.41.02.83.05,1.32.07-.82.71-1.59,1.42-2.4,2.06-1.16.91-2.34,1.81-3.56,2.64-1.33.9-2.68,1.77-4.09,2.54-1.58.87-3.21,1.66-4.84,2.43-.99.47-2.01.88-3.04,1.24-1.07.37-2.18.62-3.28.93-.3.08-.58.21-.88.26-1.52.29-3.04.59-4.58.83-1.2.18-2.41.36-3.62.36-1.49,0-2.98-.14-4.47-.3-1.05-.11-2.1-.29-3.13-.55-1.42-.35-2.82-.82-4.09-1.56-1.34-.78-2.75-1.49-3.97-2.43-2.26-1.74-3.98-3.93-5.03-6.63-.7-1.8-1.03-3.68-1-5.6.03-2.02.46-3.96,1.33-5.81.57-1.22,1.25-2.38,2.03-3.47.43-.6.93-1.15,1.42-1.7.38-.42.79-.81,1.2-1.2.6-.58,1.19-1.16,1.81-1.71.55-.49,1.13-.95,1.73-1.39,1.24-.91,2.49-1.8,3.74-2.68.34-.24.73-.39,1.08-.62.67-.43,1.33-.89,1.99-1.32.82-.54,1.66-1.06,2.47-1.61.69-.48,1.35-1.01,2.03-1.51.05-.03.12-.04.17-.05,0,.06.02.12.03.18.01,0,.03,0,.04,0l.04-.48c.02.72.04,1.44.06,2.16-.04-.26-.09-.53-.14-.85-.16.1-.29.17-.41.26-.73.55-1.44,1.11-2.18,1.64-.81.58-1.65,1.14-2.47,1.71-1.18.82-2.35,1.64-3.52,2.46-.09.06-.16.14-.24.21-.27.24-.54.5-.82.73-1.14.92-2.36,1.75-3.39,2.77-.87.86-1.69,1.77-2.44,2.78-1.2,1.61-1.92,3.41-2.57,5.26-.64,1.83-.72,3.74-.49,5.67.17,1.42.56,2.77,1.17,4.07.8,1.69,1.89,3.17,3.24,4.46,1.25,1.19,2.65,2.17,4.17,2.97,2,1.06,4.14,1.74,6.38,2.13.98.17,1.97.4,2.96.45,1.37.08,2.74.06,4.11,0,.9-.03,1.81-.15,2.7-.32,1.24-.24,2.47-.53,3.68-.89,1.71-.5,3.44-.99,5.1-1.65,1.69-.67,3.34-1.47,4.94-2.33,1.43-.77,2.81-1.67,4.16-2.58,1.27-.85,2.48-1.78,3.7-2.7.4-.3.75-.68,1.13-1.02l-.07-.12h-1.98Z"/>
      <path class="cls-6" d="M72.82,66.84c.07.1.15.19.29.38-1.26.38-2.49.75-3.71,1.14-1.59.5-3.24.6-4.87.71-.91.06-1.84-.04-2.74-.18-1.59-.26-3.14-.67-4.55-1.48-1.86-1.07-3.11-2.59-3.57-4.72-.2-.92.11-1.8.18-2.69.03-.38-.03-.78-.1-1.16-.07-.32-.05-.52.32-.62.38-.1.59-.6.45-.97-.25-.66-.02-.98.71-.91-.13-.45-.09-.81.55-.72-.14-.49-.08-.78.51-.76.17,0,.37-.3.53-.48.11-.12.18-.29.32-.53-.16-.38.26-.65.49-.99.04-.05.21-.01.33-.02,0,0,0,0,0,0,.03.06.06.13.1.19,0,0,0,0,0,0,.03.06.06.13.1.19,0,0,0,0,0,0,.04.07.07.14.11.21.25.45.49.91.74,1.36-.13.02-.37,0-.39.06-.18.59-.98,1-.57,1.78.02.04,0,.15-.03.17-.39.27-.2.59-.07.89-.59.23-.6.24-.29.77.14.24.13.42-.16.49-.45.11-.47.15-.18.55.28.38.25.8.07,1.19-.07.14-.37.18-.61.28-.07.31,0,.61.3.89.36.35.67.75.98,1.14.2.25.36.54.57.78,1.49,1.69,3.49,2.29,5.61,2.42,1.77.11,3.55-.02,5.32-.08.26,0,.51-.17.76-.27.41.15.81.31,1.22.46,0,0,0,0,0,0,.06.03.13.06.19.1,0,0,0,0,0,0,.22.09.44.19.66.28,0,0,0,0,0,0,.16.06.31.13.47.19h0Z"/>
      <path class="cls-3" d="M70.3,65.83c-.25.09-.51.26-.76.27-1.77.05-3.56.19-5.32.08-2.12-.14-4.13-.73-5.61-2.42-.21-.24-.37-.53-.57-.78-.31-.39-.62-.8-.98-1.14-.3-.28-.38-.58-.3-.89.24-.1.54-.13.61-.28.18-.38.21-.8-.07-1.19-.29-.4-.27-.44.18-.55.29-.07.29-.26.16-.49-.31-.52-.3-.54.29-.77-.13-.31-.31-.63.07-.89.04-.02.05-.13.03-.17-.41-.78.39-1.19.57-1.78.02-.05.25-.04.39-.06,0,0,0,0,0,0,.03.03.06.07.08.1.81,1.16,1.58,2.35,2.43,3.48,2.24,2.98,5.07,5.26,8.33,7.05.08.04.15.1.23.16.09.1.18.19.27.29Z"/>
      <path class="cls-13" d="M65.46,54.87s.02.06.03.09c.02.03.04.05.06.08.04.07.07.13.11.2.02.03.05.07.07.1,0,.03,0,.06.03.09.02.03.05.06.07.09.07.13.14.25.21.38.02.03.05.06.07.1.55.89,1.1,1.78,1.64,2.68-.05,0-.09.01-.14.02-.03-.05-.07-.09-.1-.14-.02-.02-.05-.05-.07-.07-.57-.48-1.14-.96-1.71-1.45-.11-.1-.19-.23-.28-.35-.07-.31-.1-.64-.22-.94-.25-.63-.53-1.25-.83-1.86-.77-1.57-1.71-3.03-2.9-4.32-.07-.08-.25-.06-.38-.09-.02-.03-.03-.06-.05-.1,0-.5.02-1,.03-1.5,0-.14,0-.28,0-.41.06.05.12.1.17.15.4.47.8.93,1.2,1.4.15.31.31.63.46.94.56,1.15,1.12,2.3,1.7,3.44.1.2.26.37.39.56.09.21.18.42.26.63.02.03.05.07.07.1,0,.03,0,.06.03.09.02.03.05.06.07.09Z"/>
      <path class="cls-20" d="M70.3,65.83c-.09-.1-.18-.19-.27-.29.5.25.99.5,1.49.74-.41-.15-.81-.31-1.22-.46Z"/>
      <path class="cls-20" d="M72.35,66.66c-.22-.09-.44-.19-.66-.28.22.09.44.19.66.28Z"/>
      <path class="cls-20" d="M72.82,66.85c-.16-.06-.31-.13-.47-.19.16.06.31.13.47.19Z"/>
      <path class="cls-20" d="M58.24,53.39c-.04-.07-.07-.14-.11-.21.04.07.07.14.11.21Z"/>
      <path class="cls-20" d="M58.13,53.19c-.03-.06-.06-.13-.1-.19.03.06.06.13.1.19Z"/>
      <path class="cls-6" d="M59.05,54.86s-.06-.07-.08-.1c.03.03.06.07.08.1Z"/>
      <path class="cls-20" d="M58.03,53c-.03-.06-.06-.13-.1-.19.03.06.06.13.1.19Z"/>
      <path class="cls-20" d="M71.7,66.38c-.06-.03-.13-.06-.19-.1.06.03.13.06.19.1Z"/>
      <path class="cls-4" d="M67.52,58.54s.07.09.1.14c-.03-.05-.07-.09-.1-.14Z"/>
      <path class="cls-15" d="M61.11,47.46c0,.14,0,.28,0,.41,0,.5-.02,1-.03,1.5-.53.08-.7-.4-.88-.7-.71-1.21-1.43-2.42-1.99-3.7-.49-1.13-.88-2.34-1.13-3.55-.29-1.36-.36-2.75-.13-4.17.26-1.6.86-2.99,1.85-4.23.6-.76,1.27-1.46,1.91-2.18.07-.07.18-.1.28-.15.6.77.56.81-.05,1.51-.46.53-.93,1.1-1.21,1.73-.21.49-.15,1.1-.18,1.67-.02.23.07.47.02.69-.54,2.05-.37,4.05.27,6.05.44,1.35.91,2.69,1.72,3.87.13.2.21.46-.19.48-.09.26-.18.52-.27.78Z"/>
      <path class="cls-17" d="M65.03,53.96c-.13-.18-.29-.36-.39-.56-.57-1.14-1.13-2.3-1.7-3.44-.15-.31-.31-.63-.46-.94-.09-.25-.18-.51-.27-.76.09-.1.18-.21.32-.36.12.14.24.28.37.42.73.83,1.42,1.71,2.21,2.48.71.69,1.53,1.28,2.33,1.88.18.13.47.12.71.16.28.05.58.05.85.13.63.19,1.24.45,1.87.63.24.07.56.11.77,0,.85-.44,1.69-.29,2.55-.05.69.19,1.4.31,2.1.47.09.02.17.12.25.18-.46.29-.92.61-1.4.88-.3.17-.63.31-.96.41-1.1.32-2.22.57-3.3.95-.81.28-1.45.1-2.12-.34-1.07-.7-2.17-1.35-3.26-2.01-.13-.08-.31-.09-.46-.13Z"/>
      <path class="cls-14" d="M62.21,48.26c.09.25.18.51.27.76-.4-.47-.8-.93-1.2-1.4-.05-.06-.11-.1-.17-.15.09-.26.18-.52.27-.78.28.53.56,1.05.84,1.58Z"/>
      <path class="cls-27" d="M56.15,34.49c-.06.25-.12.5-.17.75-.05-.12-.11-.23-.18-.38-.1.08-.17.13-.24.2-.79.73-1.56,1.48-2.38,2.18-.62.53-1.27,1.02-1.94,1.48-1.11.77-2.23,1.55-3.39,2.25-1.25.75-2.53,1.47-3.84,2.11-2.09,1.02-3.95,2.39-5.88,3.66-1.55,1.03-3.03,2.16-4.5,3.3-.99.78-1.95,1.61-2.84,2.5-1.16,1.15-2.26,2.37-3.35,3.58-.71.79-1.43,1.59-2,2.48-1.03,1.59-2.24,3.1-2.65,5.04-.15.7-.5,1.36-.72,2.05-.42,1.33-.63,2.7-.66,4.08-.01.47.25.93.34,1.41.13.68.16,1.38.33,2.04.38,1.46.92,2.87,1.65,4.2,1.17,2.14,2.61,4.07,4.46,5.66,1.3,1.11,2.6,2.25,4.04,3.14,1.29.79,2.75,1.33,4.2,1.81,1.5.49,3.06.79,4.61,1.14.58.13,1.19.18,1.78.22,1.43.1,2.86.23,4.29.23,1.09,0,2.18-.13,3.26-.26,1.91-.23,3.83-.4,5.7-.78,2.27-.47,4.52-1.09,6.75-1.74,1.63-.48,3.21-1.08,4.8-1.68,1.17-.44,2.32-.93,3.46-1.44,1.72-.78,3.46-1.52,5.1-2.43,2.25-1.25,4.45-2.6,6.62-4,1.41-.91,2.77-1.91,4.08-2.96,1.7-1.37,3.34-2.82,4.99-4.26.52-.45.98-.97,1.47-1.46.54-.54,1.11-1.07,1.63-1.64.34-.37.6-.81.9-1.21.12-.13.24-.26.37-.39,0,0,0,0,0,0,.17-.05.34-.1.51-.17.24-.09.47-.19.71-.29h0c-.03.07-.04.16-.08.21-1,1.13-1.96,2.31-3.02,3.38-1.24,1.25-2.55,2.43-3.86,3.6-1.01.9-2.03,1.81-3.11,2.62-1.82,1.36-3.64,2.71-5.54,3.93-2.72,1.74-5.49,3.4-8.28,5.03-1.24.72-2.55,1.33-3.88,1.87-1.89.77-3.81,1.44-5.73,2.12-2.15.76-4.3,1.49-6.56,1.92-2.33.44-4.6,1.14-6.98,1.3-1.55.1-3.09.38-4.64.42-1.83.04-3.68-.05-5.51-.18-1.28-.09-2.57-.29-3.83-.55-.87-.18-1.69-.57-2.54-.82-2.13-.62-4.04-1.64-5.87-2.9-1.77-1.22-3.37-2.6-4.75-4.23-1.46-1.74-2.65-3.66-3.52-5.79-.72-1.75-1.01-3.58-1.23-5.42-.21-1.71.24-3.38.55-5.03.21-1.1.69-2.19,1.21-3.19.67-1.28,1.53-2.46,2.27-3.7,1.07-1.77,2.49-3.25,3.92-4.71,1.11-1.14,2.31-2.18,3.5-3.24.84-.74,1.71-1.45,2.59-2.14.75-.59,1.54-1.14,2.33-1.67,1.25-.85,2.51-1.69,3.8-2.48.94-.59,1.93-1.1,2.9-1.65,1.81-1.03,3.62-2.05,5.42-3.08.66-.37,1.33-.72,1.97-1.12,2.5-1.57,4.61-3.61,6.74-5.62.14-.13.28-.26.47-.43.04.24.06.39.09.54,0,0,0,0,0,0-.05.08-.09.17-.14.25,0,.12-.01.25-.02.37Z"/>
      <path class="cls-8" d="M82.11,68.9h1.98l.07.12c-.37.34-.72.72-1.13,1.02-1.22.92-2.43,1.85-3.7,2.7-1.35.91-2.73,1.8-4.16,2.58-1.6.86-3.25,1.66-4.94,2.33-1.66.66-3.38,1.15-5.1,1.65-1.21.35-2.44.64-3.68.89-.89.18-1.8.29-2.7.32-1.37.05-2.75.07-4.11,0-.99-.06-1.98-.28-2.96-.45-2.23-.39-4.37-1.06-6.38-2.13-1.52-.81-2.92-1.78-4.17-2.97-1.36-1.3-2.45-2.77-3.24-4.46-.61-1.29-1-2.65-1.17-4.07-.23-1.93-.15-3.84.49-5.67.65-1.85,1.37-3.65,2.57-5.26.74-1,1.57-1.92,2.44-2.78,1.03-1.03,2.26-1.85,3.39-2.77.28-.23.55-.49.82-.73.08-.07.15-.15.24-.21,1.17-.82,2.35-1.64,3.52-2.46.82-.57,1.66-1.12,2.47-1.71.74-.53,1.45-1.09,2.18-1.64.12-.09.25-.16.41-.26.06.33.1.59.14.85.13.74.26,1.48.39,2.22-.03.1-.07.2-.1.3-.06-.45-.12-.91-.21-1.5-.38.3-.67.54-.96.76-.91.71-1.82,1.42-2.73,2.13-.6.47-1.2.96-1.81,1.42-.23.17-.51.27-.74.44-.39.29-.77.59-1.12.93-.81.78-1.64,1.55-2.52,2.27-.56.46-.96,1.12-1.38,1.72-.78,1.13-1.62,2.23-2.26,3.43-.85,1.59-1.2,3.35-1.25,5.17-.05,1.64.13,3.24.68,4.78.51,1.42,1.29,2.69,2.27,3.85.99,1.17,2.13,2.15,3.41,2.96,2.29,1.43,4.78,2.33,7.42,2.9,1.68.36,3.37.38,5.07.34,1.91-.05,3.79-.31,5.68-.62,1.99-.33,3.84-1.02,5.69-1.71,1.52-.57,2.96-1.38,4.4-2.15,1.32-.7,2.62-1.45,3.87-2.26.96-.61,1.84-1.34,2.75-2.03.06-.05.08-.15.12-.23Z"/>
      <path class="cls-10" d="M55.34,41.63l-.04.48s-.03,0-.04,0c0-.06-.02-.12-.03-.18,0-.5,0-.99,0-1.49,0-.23,0-.46,0-.8-.43.3-.78.54-1.13.77-1.41.97-2.82,1.94-4.24,2.89-.91.61-1.83,1.19-2.76,1.77-1.08.68-2.15,1.36-3.25,2.02-1.11.67-2.28,1.24-3.34,1.97-1.23.86-2.39,1.85-3.55,2.81-.68.56-1.34,1.14-1.95,1.77-.89.92-1.76,1.86-2.57,2.85-1.47,1.79-2.53,3.84-3.28,6.01-.34.99-.43,2.07-.62,3.11-.22,1.19-.16,2.39.02,3.56.14.9.46,1.78.67,2.67.29,1.25.89,2.37,1.56,3.43.64,1.01,1.39,1.96,2.16,2.88,1.38,1.64,3.07,2.92,4.92,4,1.43.84,2.96,1.47,4.54,1.97.82.26,1.64.54,2.48.71.99.2,2.01.29,3.01.41,1.01.11,2.02.28,3.03.26,1.61-.04,3.22-.18,4.82-.36,1.46-.16,2.93-.36,4.37-.68,1.58-.35,3.12-.85,4.67-1.31,1.21-.36,2.43-.71,3.59-1.18,1.97-.79,3.94-1.6,5.85-2.54,1.77-.86,3.49-1.84,5.18-2.86,1.49-.9,2.94-1.88,4.34-2.92,1.32-.98,2.57-2.07,3.82-3.14.81-.69,1.58-1.43,2.35-2.16.12-.11.19-.27.28-.41.06-.07.12-.14.18-.21,0,0,0,0,0,0,.22-.07.44-.13.66-.2,0,0,0,0,0,0,.12.02.25.05.44.08-.17.18-.27.3-.38.4-.81.76-1.61,1.53-2.45,2.26-1.24,1.07-2.46,2.16-3.77,3.13-1.83,1.36-3.71,2.65-5.63,3.88-1.35.86-2.78,1.6-4.2,2.35-1.78.93-3.58,1.8-5.37,2.69-.36.18-.75.27-1.12.43-.9.37-1.77.82-2.68,1.13-1.64.56-3.31,1.07-4.97,1.57-1,.3-2.02.58-3.04.78-1.25.24-2.52.38-3.78.58-1.81.29-3.63.45-5.46.36-1.8-.09-3.62.02-5.39-.54-.81-.26-1.7-.31-2.52-.56-1.7-.51-3.34-1.17-4.92-2.02-1.8-.97-3.45-2.14-4.84-3.61-1.06-1.11-1.98-2.36-2.87-3.61-.93-1.3-1.56-2.78-1.98-4.32-.27-.97-.43-1.98-.59-2.98-.09-.54-.13-1.11-.08-1.66.07-.87.22-1.73.35-2.6.24-1.6.84-3.09,1.51-4.54.38-.82.88-1.59,1.39-2.34.64-.94,1.33-1.84,2.05-2.73.45-.56.97-1.08,1.48-1.59.77-.77,1.54-1.55,2.36-2.27.74-.65,1.53-1.24,2.32-1.84.98-.75,1.94-1.52,2.97-2.19,1.29-.85,2.64-1.6,3.96-2.4.64-.39,1.27-.81,1.92-1.19.85-.5,1.73-.94,2.57-1.46,1.09-.68,2.16-1.42,3.22-2.14.62-.42,1.23-.87,1.84-1.32.67-.5,1.33-1.03,1.99-1.54.03.54.05,1.05.08,1.56-.02.77-.04,1.53-.06,2.3Z"/>
      <path class="cls-18" d="M95.87,65.74c-.3.41-.56.84-.9,1.21-.52.57-1.08,1.1-1.63,1.64-.49.49-.95,1.01-1.47,1.46-1.65,1.44-3.29,2.89-4.99,4.26-1.31,1.05-2.66,2.06-4.08,2.96-2.17,1.39-4.37,2.75-6.62,4-1.64.91-3.39,1.65-5.1,2.43-1.14.52-2.29,1-3.46,1.44-1.59.6-3.18,1.21-4.8,1.68-2.23.65-4.48,1.27-6.75,1.74-1.88.39-3.8.55-5.7.78-1.08.13-2.18.27-3.26.26-1.43,0-2.86-.13-4.29-.23-.6-.04-1.2-.09-1.78-.22-1.54-.35-3.11-.65-4.61-1.14-1.44-.48-2.91-1.02-4.2-1.81-1.45-.88-2.74-2.03-4.04-3.14-1.86-1.58-3.29-3.51-4.46-5.66-.73-1.34-1.27-2.74-1.65-4.2-.17-.66-.2-1.37-.33-2.04-.09-.48-.36-.94-.34-1.41.03-1.39.24-2.76.66-4.08.22-.69.57-1.35.72-2.05.41-1.94,1.61-3.45,2.65-5.04.57-.89,1.3-1.68,2-2.48,1.09-1.22,2.19-2.43,3.35-3.58.89-.89,1.85-1.73,2.84-2.5,1.47-1.14,2.95-2.27,4.5-3.3,1.92-1.28,3.79-2.64,5.88-3.66,1.31-.64,2.59-1.35,3.84-2.11,1.16-.7,2.27-1.48,3.39-2.25.67-.46,1.32-.95,1.94-1.48.82-.7,1.59-1.45,2.38-2.18.07-.06.14-.11.24-.2.07.14.12.26.18.38-.02.07-.03.13-.05.2-.1.44-.21.87-.31,1.31,0,.24-.01.48-.02.72-.05-.17-.09-.34-.15-.55-.44.35-.85.69-1.27,1.01-1.51,1.12-3.02,2.24-4.56,3.32-.64.45-1.36.78-2.03,1.17-.4.23-.79.47-1.19.7-.28.16-.55.33-.83.48-.31.17-.64.31-.94.49-.68.42-1.35.86-2.03,1.29-1.32.82-2.71,1.56-3.97,2.46-1.63,1.16-3.17,2.44-4.74,3.69-1.73,1.38-3.32,2.91-4.67,4.67-.86,1.12-1.73,2.24-2.51,3.42-.71,1.07-1.35,2.18-1.65,3.48-.24,1.06-.71,2.04-.82,3.16-.13,1.35-.28,2.68-.15,4.05.17,1.71.61,3.34,1.31,4.89,1.23,2.71,2.98,5.03,5.23,6.99,1.71,1.49,3.61,2.65,5.66,3.58.91.41,1.84.8,2.79,1.11.85.27,1.76.34,2.6.62,1.36.46,2.78.52,4.18.63,1.3.1,2.62.06,3.93,0,1-.04,2-.13,2.99-.27,1.81-.26,3.64-.47,5.41-.89,2.25-.53,4.46-1.2,6.66-1.9,1.54-.49,3.05-1.1,4.54-1.72,1.51-.63,2.99-1.32,4.47-2.01.95-.44,1.9-.88,2.81-1.4,1.29-.73,2.54-1.53,3.8-2.3,1.96-1.21,3.85-2.5,5.67-3.92,2.45-1.92,4.76-3.98,6.92-6.22.16-.17.28-.37.45-.61-.32.03-.55.05-.77.07.8-.37,1.61-.75,2.41-1.12.07.04.15.12.21.11.18-.05.36-.14.54-.21Z"/>
      <path class="cls-26" d="M56.29,33.88c-.02-.15-.05-.3-.09-.54-.19.18-.34.3-.47.43-2.13,2.02-4.24,4.05-6.74,5.62-.64.4-1.31.75-1.97,1.12-1.81,1.03-3.61,2.05-5.42,3.08-.97.55-1.96,1.06-2.9,1.65-1.28.8-2.54,1.64-3.8,2.48-.79.53-1.57,1.09-2.33,1.67-.88.69-1.75,1.39-2.59,2.14-1.19,1.05-2.39,2.1-3.5,3.24-1.43,1.46-2.85,2.94-3.92,4.71-.75,1.24-1.6,2.42-2.27,3.7-.53,1-1.01,2.09-1.21,3.19-.31,1.65-.76,3.32-.55,5.03.23,1.85.52,3.67,1.23,5.42.87,2.12,2.06,4.05,3.52,5.79,1.37,1.63,2.98,3.01,4.75,4.23,1.82,1.26,3.74,2.28,5.87,2.9.85.25,1.67.64,2.54.82,1.26.26,2.54.46,3.83.55,1.83.13,3.67.22,5.51.18,1.55-.03,3.09-.31,4.64-.42,2.38-.16,4.66-.86,6.98-1.3,2.25-.43,4.41-1.16,6.56-1.92,1.92-.68,3.84-1.35,5.73-2.12,1.33-.54,2.64-1.15,3.88-1.87,2.79-1.62,5.57-3.28,8.28-5.03,1.91-1.22,3.73-2.58,5.54-3.93,1.08-.81,2.1-1.71,3.11-2.62,1.31-1.17,2.63-2.35,3.86-3.6,1.06-1.07,2.02-2.25,3.02-3.38.05-.05.06-.14.08-.21.05-.04.09-.07.14-.11,0-.01-.02-.02-.03-.03-.04.05-.07.09-.11.14-.24.1-.47.2-.71.29-.17.06-.34.11-.51.17,1.35-.92,2.72-1.82,4.06-2.77.49-.35.91-.79,1.36-1.19.05-.03.1-.06.15-.08-.52.78-1.02,1.57-1.57,2.32-1.95,2.69-4.2,5.11-6.63,7.35-1.77,1.63-3.63,3.15-5.53,4.62-1.78,1.38-3.64,2.66-5.5,3.92-.91.62-1.92,1.1-2.89,1.64-2.02,1.11-4.01,2.27-6.07,3.29-1.86.93-3.77,1.78-5.72,2.52-2.05.79-4.16,1.44-6.26,2.1-2.01.63-4.04,1.25-6.08,1.77-1.4.35-2.84.51-4.27.74-1.08.17-2.16.34-3.24.48-.49.06-1,.06-1.5.08-1.91.06-3.83.16-5.74.17-.82,0-1.66-.14-2.47-.28-1.71-.31-3.42-.61-5.11-1.02-.89-.22-1.73-.64-2.56-1.02-.98-.45-1.98-.89-2.89-1.46-1.22-.77-2.39-1.63-3.53-2.52-.72-.57-1.37-1.24-2.01-1.9-1.22-1.27-2.27-2.69-3.08-4.26-.56-1.09-1.08-2.22-1.5-3.38-.44-1.24-.75-2.54-.73-3.88,0-.88.19-1.78.06-2.63-.25-1.58.49-2.92.83-4.36.16-.66.56-1.26.86-1.88.35-.72.65-1.48,1.08-2.14.69-1.06,1.46-2.06,2.22-3.07.58-.77,1.18-1.54,1.8-2.28.43-.52.91-1,1.4-1.46.79-.76,1.64-1.46,2.4-2.25,1.36-1.39,2.95-2.48,4.49-3.64,1.16-.87,2.33-1.73,3.55-2.51,1.9-1.21,3.83-2.37,5.77-3.52.6-.36,1.24-.62,1.85-.95.7-.38,1.39-.79,2.09-1.18.96-.53,1.95-1,2.87-1.59,1.06-.68,2.1-1.41,3.07-2.21,1.33-1.09,2.6-2.27,3.89-3.42.35-.31.65-.66,1-.97.13-.11.31-.17.47-.25,0,.12,0,.25,0,.37-.06.16-.12.32-.18.48l-.03.36s-.04.09-.05.14c-.02.09-.05.17-.07.26Z"/>
      <path class="cls-9" d="M92.71,66.97c.23-.02.45-.04.77-.07-.17.24-.29.44-.45.61-2.16,2.23-4.47,4.3-6.92,6.22-1.81,1.42-3.71,2.71-5.67,3.92-1.26.78-2.51,1.57-3.8,2.3-.91.52-1.86.96-2.81,1.4-1.48.69-2.96,1.38-4.47,2.01-1.49.62-3,1.23-4.54,1.72-2.2.7-4.42,1.37-6.66,1.9-1.77.42-3.6.63-5.41.89-.99.14-1.99.24-2.99.27-1.31.05-2.62.09-3.93,0-1.4-.11-2.82-.17-4.18-.63-.84-.28-1.75-.35-2.6-.62-.95-.3-1.88-.69-2.79-1.11-2.05-.93-3.95-2.09-5.66-3.58-2.25-1.96-4-4.28-5.23-6.99-.7-1.55-1.15-3.18-1.31-4.89-.13-1.36.02-2.7.15-4.05.11-1.12.57-2.1.82-3.16.3-1.3.95-2.4,1.65-3.48.78-1.18,1.65-2.3,2.51-3.42,1.35-1.76,2.94-3.29,4.67-4.67,1.56-1.25,3.11-2.53,4.74-3.69,1.27-.9,2.65-1.64,3.97-2.46.68-.42,1.35-.87,2.03-1.29.3-.18.63-.32.94-.49.28-.15.56-.32.83-.48.4-.23.79-.47,1.19-.7.68-.39,1.4-.72,2.03-1.17,1.54-1.08,3.05-2.2,4.56-3.32.43-.32.83-.66,1.27-1.01.06.21.1.38.15.55-.06.62-.12,1.24-.19,1.86-.02-.51-.05-1.02-.08-1.56-.66.51-1.32,1.04-1.99,1.54-.6.45-1.21.9-1.84,1.32-1.07.73-2.13,1.46-3.22,2.14-.83.52-1.72.96-2.57,1.46-.65.38-1.28.8-1.92,1.19-1.32.8-2.67,1.56-3.96,2.4-1.03.67-1.99,1.45-2.97,2.19-.78.6-1.58,1.19-2.32,1.84-.82.72-1.59,1.5-2.36,2.27-.51.51-1.03,1.03-1.48,1.59-.71.89-1.4,1.79-2.05,2.73-.51.75-1.01,1.52-1.39,2.34-.67,1.45-1.27,2.94-1.51,4.54-.13.86-.28,1.73-.35,2.6-.04.55,0,1.11.08,1.66.16,1,.32,2.01.59,2.98.43,1.54,1.05,3.01,1.98,4.32.89,1.25,1.82,2.5,2.87,3.61,1.4,1.47,3.05,2.64,4.84,3.61,1.57.85,3.21,1.51,4.92,2.02.82.24,1.7.29,2.52.56,1.76.57,3.58.46,5.39.54,1.83.09,3.65-.07,5.46-.36,1.26-.2,2.53-.34,3.78-.58,1.03-.2,2.04-.48,3.04-.78,1.67-.5,3.33-1,4.97-1.57.92-.31,1.79-.76,2.68-1.13.37-.15.76-.25,1.12-.43,1.8-.88,3.6-1.76,5.37-2.69,1.42-.74,2.85-1.48,4.2-2.35,1.92-1.23,3.8-2.53,5.63-3.88,1.31-.97,2.53-2.06,3.77-3.13.84-.73,1.64-1.5,2.45-2.26.11-.1.21-.22.38-.4-.19-.04-.32-.06-.44-.08.57-.21,1.13-.41,1.7-.62Z"/>
      <path class="cls-22" d="M55.7,46.31c.03-.1.07-.2.1-.3.16.72.33,1.43.49,2.15-.09-.08-.18-.15-.33-.28-.51.61-1.01,1.22-1.54,1.81-.56.62-1.15,1.21-1.73,1.81-.95.98-1.91,1.96-2.85,2.95-.14.15-.19.38-.28.58-.11.23-.17.54-.35.67-.83.57-1.09,1.49-1.48,2.31-.67,1.39-1,2.9-1.02,4.43,0,1,.19,2.02.43,3,.5,2.01,1.71,3.56,3.29,4.86,2.09,1.73,4.53,2.62,7.14,3.18,1.88.4,3.78.41,5.67.34,1.11-.04,2.23-.24,3.33-.46,1.83-.36,3.63-.83,5.37-1.55,1.79-.74,3.51-1.6,5.14-2.66.34-.22.69-.42,1.03-.62.51.06,1.03.12,1.54.18.01.05.03.1.04.15-.4.29-.78.62-1.2.87-1.58.93-3.12,1.95-4.78,2.73-2.19,1.03-4.43,1.99-6.8,2.52-1.54.34-3.12.52-4.69.69-.97.11-1.96.13-2.94.1-2.59-.08-5.06-.7-7.42-1.76-1.76-.8-3.38-1.81-4.72-3.21-1.63-1.7-2.78-3.68-3.14-6.02-.34-2.23-.14-4.43.79-6.53.63-1.42,1.46-2.71,2.45-3.9.08-.09.18-.18.29-.21.46-.15.62-.52.84-.91.25-.45.64-.82,1.01-1.19.46-.47.95-.92,1.44-1.35.24-.22.55-.36.79-.58,1.1-1.04,2.19-2.1,3.29-3.14.25-.23.52-.43.78-.65Z"/>
      <path class="cls-22" d="M61.13,49.47c.13.03.3.01.38.09,1.19,1.29,2.13,2.75,2.9,4.32.3.61.58,1.23.83,1.86.12.3.15.63.22.94-.22-.17-.43-.34-.65-.51-.16-.51-.24-1.05-.48-1.51-.61-1.17-1.26-2.32-1.95-3.44-.25-.41-.66-.73-1-1.09-.03,0-.06-.01-.1-.02-.03-.12-.07-.25-.1-.37,0-.03,0-.05-.03-.07,0-.07-.01-.13-.02-.2Z"/>
      <path class="cls-8" d="M61.28,50.11s.06.01.1.02c.08.19.11.42.24.56,1.27,1.42,2.09,3.08,2.65,4.89-.37-.43-.75-.85-1.12-1.28.02-.16.08-.33.04-.47-.08-.29-.18-.6-.34-.85-.39-.59-.62-1.31-1.32-1.66-.08-.41-.16-.81-.23-1.22Z"/>
      <path class="cls-7" d="M64.26,55.59c-.55-1.81-1.37-3.47-2.65-4.89-.13-.14-.16-.37-.24-.56.34.36.74.68,1,1.09.69,1.12,1.34,2.27,1.95,3.44.24.46.33,1,.48,1.51-.18-.19-.37-.39-.55-.58Z"/>
      <path class="cls-21" d="M61.51,51.33c.7.35.94,1.07,1.32,1.66.16.25.26.56.34.85.04.14-.02.31-.04.47-.78-.86-1.27-1.88-1.63-2.98Z"/>
      <path class="cls-27" d="M55.61,36.75c.1-.44.21-.87.31-1.31-.1.44-.21.87-.31,1.31Z"/>
      <path class="cls-24" d="M56.63,32.64c0-.12,0-.25,0-.37.06-.06.12-.13.18-.19,0,0,.02.02.02.02,0,.09-.01.18-.02.27,0,0-.01.03-.01.03-.05.09-.1.17-.15.26,0,0-.01,0-.01,0Z"/>
      <path class="cls-24" d="M57.03,31.53c-.01.09-.02.18-.03.27,0,0-.01.03-.01.03-.03.08-.06.16-.08.24,0,0,0,0,0,0-.02,0-.05.01-.07.02,0,0-.02-.02-.02-.02.07-.18.14-.36.21-.54Z"/>
      <path class="cls-24" d="M56.45,33.12c.06-.16.12-.32.18-.48,0,0,.01,0,.01,0,0,.09-.01.18-.02.27-.06.07-.12.13-.17.2Z"/>
      <path class="cls-23" d="M56.62,32.92c0-.09.01-.18.02-.27.05-.09.1-.17.15-.26-.06.18-.12.35-.17.53Z"/>
      <path class="cls-26" d="M56.15,34.49c0-.12.01-.25.02-.37h0s.01.1.02.14c-.01.07-.02.15-.03.22Z"/>
      <path class="cls-26" d="M56.17,34.13c.05-.08.09-.17.14-.25-.02.08-.04.17-.06.25-.02,0-.05,0-.07,0h0Z"/>
      <path class="cls-23" d="M56.83,32.09s.05-.02.07-.02c-.03.1-.06.19-.1.29,0-.09.01-.18.02-.27Z"/>
      <path class="cls-23" d="M56.9,32.08c.03-.08.06-.16.08-.24-.03.08-.06.16-.08.24Z"/>
      <path class="cls-17" d="M61.15,49.67s.03.04.03.07c-.01-.01-.03-.03-.04-.04,0,0,0-.02.01-.03Z"/>
      <path class="cls-27" d="M56.17,34.13s.05,0,.07,0c-.02.05-.04.1-.06.15,0-.05-.01-.1-.02-.14Z"/>
      <path class="cls-27" d="M56.37,33.62s.04-.09.05-.14c-.02.05-.04.09-.05.14Z"/>
      <path class="cls-26" d="M95.87,65.74c-.18.07-.35.16-.54.21-.05.02-.14-.07-.21-.11.19-.09.37-.18.56-.28.18-.07.37-.14.55-.21-.12.13-.24.26-.37.39Z"/>
      <path class="cls-9" d="M91.03,67.57c-.22.07-.44.13-.66.2.22-.07.44-.13.66-.2Z"/>
      <path class="cls-9" d="M90.38,67.76c-.06.07-.12.14-.18.21-.12-.03-.25-.05-.37-.08.18-.04.36-.09.54-.13Z"/>
      <path class="cls-5" d="M66.11,55.99s-.05-.06-.07-.1c.02.03.05.06.07.1Z"/>
      <path class="cls-5" d="M65.83,55.51s-.05-.06-.07-.09c.02.03.05.06.07.09Z"/>
      <path class="cls-5" d="M65.74,55.34s-.05-.07-.07-.1c.02.03.05.07.07.1Z"/>
      <path class="cls-5" d="M65.55,55.04s-.04-.05-.06-.08c.02.03.04.05.06.08Z"/>
      <path class="cls-5" d="M65.37,54.69s-.05-.07-.07-.1c.02.03.05.07.07.1Z"/>
      <path class="cls-5" d="M65.46,54.87s-.05-.06-.07-.09c.02.03.05.06.07.09Z"/>
      <path class="cls-12" d="M101.8,61.32c-.05.03-.1.06-.15.08.23-.21.45-.42.68-.63-.08.09-.16.19-.24.28-.04.04-.08.08-.12.12-.06.05-.11.1-.17.15Z"/>
      <path class="cls-12" d="M102.42,60.68s-.05.05-.08.08c.03-.03.05-.05.08-.08Z"/>
      <path class="cls-12" d="M102.52,60.59s-.05.05-.08.08c.03-.03.05-.05.08-.08Z"/>
      <path class="cls-24" d="M101.97,61.17s.08-.08.12-.12c-.04.04-.08.08-.12.12Z"/>
      <path class="cls-27" d="M97.45,64.9s.07-.09.11-.14c0,.01.02.02.03.03-.05.04-.09.07-.14.11h0Z"/>
    </g>
  </g>
</svg>