<?xml version="1.0" encoding="utf-8"?>
<!-- Generator: Adobe Illustrator 28.2.0, SVG Export Plug-In . SVG Version: 6.00 Build 0)  -->
<svg version="1.1" id="Layer_2_00000054944027484718580630000017145533697962402708_"
	 xmlns="http://www.w3.org/2000/svg" xmlns:xlink="http://www.w3.org/1999/xlink" x="0px" y="0px" viewBox="0 0 110.6 97.4"
	 style="enable-background:new 0 0 110.6 97.4;" xml:space="preserve">
<style type="text/css">
	.st0{fill:#C0D9B4;}
	.st1{fill:#9FA998;}
	.st2{fill:#DDE6D8;}
	.st3{fill:#FCFFFA;}
	.st4{fill:#47685D;}
	.st5{fill:#BFD4B4;}
	.st6{fill:#FEFEFE;}
	.st7{fill:#A5BB99;}
	.st8{fill:#EBEBEA;}
	.st9{fill:#74A8A8;}
	.st10{fill:#C9DFBD;}
	.st11{fill:#D9EBCF;}
	.st12{fill:#E9EEE5;}
	.st13{fill:#CCCBC9;}
	.st14{fill:#E0E0DE;}
	.st15{fill:#828282;}
	.st16{fill:#A1A19F;}
	.st17{fill:#C1C0BE;}
	.st18{fill:#537E73;}
	.st19{fill:#B8B7B5;}
	.st20{fill:#959594;}
	.st21{fill:#B1B0AD;}
	.st22{fill:#787878;}
	.st23{fill:#737372;}
	.st24{fill:#307465;}
	.st25{fill:#CCD9C3;}
	.st26{fill:#8A8A8A;}
	.st27{fill:#E5E4E3;}
	.st28{fill:#D4D3D0;}
</style>
<g id="Layer_1-2_00000150068941324781554690000013661816492627750291_">
	<g id="Layer_1-2">
		<g>
			<path class="st0" d="M91.3,0c0.6,0.1,1.1,0.2,1.7,0.3c1.5,0.2,2.9,0.7,4.3,1.3c1.4,0.6,2.7,1.2,3.9,2.1c1.3,0.9,2.5,1.9,3.6,3.1
				c1.5,1.6,2.7,3.4,3.7,5.4c0,0.3-0.1,0.6,0,0.9c0.2,1.4,0.5,2.8,0.7,4.1c0.2,1.6-0.1,3.3-0.4,4.9c-0.4,1.7-1,3.3-1.8,4.8
				c-1,1.7-2.2,3.3-3.8,4.5c-2,1.6-4.3,2.7-6.8,3.1c-1.6,0.3-3.3,0.3-4.9,0c-1.7-0.3-3.3-0.9-4.8-1.7c-1.8-1-3.5-2.3-4.8-3.9
				c-1.2-1.4-2.1-2.9-2.9-4.6c-0.8-2-1.4-4-1.5-6.1c-0.1-1.3,0.1-2.6,0.2-3.9c0.1-1.8,0.7-3.4,1.5-5c1.1-2.3,2.6-4.2,4.6-5.8
				c1.8-1.4,3.8-2.4,6.1-2.9c0.3-0.1,0.7-0.2,1-0.2c0,0,0-0.1,0-0.1c-0.2,0-0.4,0-0.6,0c-0.3,0-0.6-0.1-0.9-0.1L91.3,0L91.3,0
				L91.3,0z M92.4,1.3c-1.2,0-2.4,0.2-3.7,0.5c-2.9,0.8-5.2,2.5-7.1,4.9c-1.1,1.3-1.8,2.8-2.4,4.4c-0.6,1.6-0.9,3.2-0.9,4.9
				c0,1.3,0.1,2.5,0.3,3.8c0.3,2.2,1.2,4.3,2.3,6.2c1.1,1.9,2.6,3.4,4.4,4.7c2.4,1.8,5.1,2.7,8.1,2.8c1.4,0,2.7-0.1,4.1-0.5
				c3.8-1.1,6.6-3.5,8.5-6.8c1.8-3.3,2.4-6.8,1.9-10.5c-0.2-1.9-0.8-3.6-1.6-5.3c-1-2-2.3-3.8-4-5.3c-1.1-0.9-2.2-1.7-3.5-2.3
				C96.8,1.8,94.7,1.3,92.4,1.3L92.4,1.3L92.4,1.3z"/>
			<path class="st0" d="M89.1,0c0.3,0,0.6,0.1,0.9,0.1c0.2,0,0.4,0,0.6,0c0,0,0,0.1,0,0.1c-0.3,0.1-0.7,0.2-1,0.2
				c-2.2,0.5-4.3,1.4-6.1,2.9c-2,1.5-3.5,3.5-4.6,5.8c-0.8,1.6-1.3,3.3-1.5,5c-0.1,1.3-0.2,2.6-0.2,3.9c0.1,2.1,0.6,4.2,1.5,6.1
				c0.7,1.7,1.7,3.2,2.9,4.6c1.3,1.6,3,2.9,4.8,3.9c1.5,0.8,3.1,1.4,4.8,1.7c1.6,0.3,3.3,0.3,4.9,0c2.6-0.4,4.8-1.5,6.8-3.1
				c1.6-1.2,2.8-2.8,3.8-4.5c0.8-1.5,1.5-3.1,1.8-4.8c0.3-1.6,0.6-3.3,0.4-4.9c-0.1-1.4-0.4-2.8-0.7-4.1c0-0.3,0-0.6,0-0.9
				c0.4,1.1,0.8,2.2,1.2,3.3c0,0.1,0.1,0.2,0.1,0.3c-0.1,0.3-0.2,0.7-0.2,1c0,0.9,0,1.7,0,2.6c-0.1,2.1-0.6,4.2-1.4,6.1
				c-1.4,3.3-3.7,5.9-6.8,7.7c-2.8,1.7-5.9,2.3-9.1,2c-1.6-0.2-3.1-0.5-4.6-1.2c-3.3-1.4-5.8-3.6-7.8-6.5c-1.3-1.9-2.2-4-2.7-6.3
				c-0.6-2.4-0.7-4.8-0.3-7.2c0.4-2.4,1.2-4.6,2.4-6.6c0.9-1.5,2-2.8,3.3-3.9c1.1-0.9,2.3-1.7,3.6-2.3c0.3-0.1,0.4-0.4,0.7-0.6
				C87.4,0.2,88,0.1,88.5,0L89.1,0L89.1,0z"/>
			<path class="st1" d="M108.4,30.7c-0.9,1.8-2.1,3.4-3.6,4.8c-0.8,0.7-1.7,1.3-2.6,2c-0.1,0.1-0.2,0.2-0.3,0.3
				c-0.5,0.3-1.1,0.6-1.6,0.8c-0.1,0-0.3,0.1-0.4,0.1c-1.2,0.4-2.3,0.8-3.4,1.1c-1,0.2-2.1,0.3-3.1,0.5H92c-0.3,0-0.6-0.1-0.9-0.1
				c-0.4,0-0.8-0.1-1.1-0.2c-1.1-0.2-2.1-0.5-3.1-0.7c-0.8-0.3-1.7-0.7-2.5-1c-0.7-0.4-1.5-0.8-2.2-1.2c-0.7-0.5-1.3-1-1.9-1.5
				c-0.3-0.2-0.4,0.1-0.4,0.3c0,0.4,0,0.8,0,1.2s-0.1,0.8-0.1,1.2c0,0.2,0,0.5-0.1,0.7c0,0.2,0,0.4,0,0.5c-0.1,0.2-0.1,0.5-0.2,0.7
				c-0.1,0.3-0.2,0.7-0.3,1.1c0,0.1-0.1,0.2-0.1,0.2c0.2,0.4,0,0.8,0,1.1c0,0.4-0.1,0.8-0.3,1.2c-0.2,0.7-0.4,1.5-0.5,2.3
				c0,0.1,0,0.2,0.1,0.3c0.2,0.3,0.5,0.5,0.7,0.7c0.6,0.6,0.9,1,0.3,1.9c-0.5,0.7-1.3,1.1-2.1,1.3c-1.9,0.7-3.8,0.6-5.8,0.2
				c-1.3-0.3-2.4-0.9-3.8-0.7c-0.5,0.1-0.9,0.2-1.2,0.7c-0.4,0.6-0.4,0.6-1.1,0.4c-0.7-0.3-1.3-0.1-1.9,0.3
				c-0.5,0.3-0.9,0.6-1.5,0.3c-0.6-0.3-1.3,0-1.9,0.1c-0.5,0.1-1,0.1-1.4-0.2c-0.8-0.7-1.5-1.4-2.3-2.2c-1.4-1.4-2.3-3-3.2-4.7
				c-0.9-1.9-1.4-3.8-1.4-5.9c0-0.9,0.1-1.9,0.4-2.8c0.5-1.4,1.2-2.8,2.3-3.9c0.7-0.7,1.5-1.3,2.4-1.7c0.1,0,0.2-0.1,0.2-0.1
				c0.3-0.6,0.8-0.7,1.4-0.9c0.7-0.3,1.5-0.5,2.3-0.3c0.9,0.2,1.6-0.1,2.3-0.6c0.6-0.4,1.1-0.9,1.7-1.3c1.5-1.1,3.1-2.1,5.1-2.3
				c0.6-0.1,1.1,0.2,1.1,0.8c0,0.4-0.1,0.8,0,1.2c0,0.4,0,0.9,0.2,1.1c0.5,0.4,1.2,0.7,1.8,1c0.1,0.1,0.3,0.1,0.5,0.1
				c0.3,0,0.6,0.1,0.8,0.5c0.1,0.1,0.2,0.1,0.4,0.2c0-0.1,0.1-0.3,0.1-0.4c-0.2-0.5-0.4-0.9-0.5-1.3c-0.4-1-0.8-2-1.1-3.1
				c-0.3-0.8-0.4-1.7-0.6-2.5L72,20.9c0-0.5,0-1,0-1.5c0-0.9-0.1-1.8,0-2.7c0.1-1.1,0.4-2.2,0.6-3.3c0.6-1.9,1.3-3.8,2.5-5.5
				c0.5-0.7,1-1.3,1.5-2c0,0.2,0,0.5-0.1,0.7c-1.4,2.7-2.2,5.5-2.4,8.4c-0.1,2.1,0,4.3,0.5,6.4c0.5,2.3,1.4,4.4,2.6,6.4
				c1.4,2.4,3.2,4.4,5.4,6.1c1.9,1.4,4,2.5,6.3,3.2c1.6,0.5,3.2,0.7,4.9,0.7c0.9,0,1.8-0.1,2.7-0.3c2.4-0.3,4.6-1.1,6.5-2.5
				c1.2-0.8,2.3-1.7,3.3-2.6c0.7-0.6,1.3-1.4,1.9-2.1C108.4,30.6,108.4,30.7,108.4,30.7L108.4,30.7L108.4,30.7z M74.6,33.5
				c-0.7,0.1-0.7,0.1-0.8-0.5c0-0.2-0.1-0.3-0.3-0.3c-0.5,0.1-0.7-0.2-0.8-0.7c0-0.3-0.1-0.5-0.5-0.4c-0.1,0-0.4-0.2-0.4-0.3
				c-0.1-0.5-0.4-0.5-0.7-0.5c-0.3,0.1-0.4,0-0.5-0.2c-0.2-0.4-0.5-0.5-0.9-0.5c-0.1,0-0.3-0.1-0.3-0.2c-0.3-0.5-0.5-1-0.5-1.6
				c0.1-0.5,0-1,0-1.4c0-0.2-0.1-0.4-0.2-0.6c-0.3-0.4-0.8-0.3-1.2-0.2c-1.3,0.3-2.4,1-3.4,1.9c-0.9,0.8-1.7,1.8-2.6,2.6
				c-0.3,0.3-0.7,0.6-1.4,0.4c-1.1-0.4-2.1-0.2-2.9,0.7c-0.2,0.2-0.3,0.5-0.5,0.7c-0.5,0.6-1,1.1-1.5,1.8c-0.4,0.6-0.8,1.3-0.9,2.1
				c-0.2,1.7-0.2,3.3,0.2,5c0.5,2,1.4,3.8,2.6,5.5c0.2,0.2,0.5,0.6,0.7,0.3c0.3-0.4,0.6,0.2,0.9-0.1c0,0,0,0,0,0
				c0.3-0.3,0.6-0.3,1,0c0.3,0.2,0.8,0.1,1-0.2c0.1-0.2,0.3-0.3,0.5-0.4c0.3-0.1,0.7-0.1,0.6-0.6c0-0.1,0.1-0.1,0.2-0.2
				c0.2-0.2,0.3-0.4,0.5-0.5c0.1-0.1,0.2-0.1,0.3-0.1c0.4,0.2,0.8,0.3,1.2,0.6c0.7,0.4,1.2,1,1.9,1.4c2.5,1.8,5.2,3.1,8.4,2.9
				c0.7,0,1.4-0.2,2-0.6c0.6-0.3,0.7-1,0.2-1.5c-0.5-0.4-1-0.7-1.5-1.1c-0.9-0.6-1.7-1.2-2-2.4c0-0.2-0.1-0.3,0.2-0.3
				c0.2,0,0.4-0.2,0.6-0.3c-0.1-0.2-0.2-0.3-0.2-0.5c-0.1-0.1-0.1-0.3-0.1-0.4c0-0.1,0.2-0.2,0.2-0.2c0.4,0.2,0.5-0.2,0.7-0.3
				c-0.1-0.4-0.1-0.7-0.2-1c0.2,0,0.4,0,0.6,0c-0.1-0.3-0.3-0.7-0.2-0.9s0.4-0.5,0.7-0.7c-0.1-0.2-0.2-0.5-0.3-0.9
				c0.7-0.1,0.8-0.2,0.4-0.6c-0.4-0.5,0-1.1-0.1-1.7c0,0,0.2-0.1,0.2-0.1c0.1-0.1,0.2-0.2,0.2-0.4c0-0.2-0.1-0.4-0.2-0.7
				c-0.1,0.2-0.2,0.4-0.3,0.6C74.9,35.2,74.4,34.5,74.6,33.5L74.6,33.5L74.6,33.5z"/>
			<path class="st1" d="M92.1,40.3h1.3c0,0.2-0.1,0.4-0.1,0.5c-0.3,0.6-0.6,1.2-0.9,1.8c-1,1.8-2.2,3.5-3.7,4.9
				c-1.4,1.3-3,2.5-4.6,3.8c-1.1,0.8-1.9,1.7-1.6,3.2c0.1,0.6,0.1,1.2,0.5,1.7c0.2,0.2,0.4,0.5,0.6,0.5c0.6,0.1,1,0.5,1.5,0.5
				c0.7,0,1.5-0.1,2.2-0.3c1.5-0.3,2.9-0.7,4.3-1.4c1.9-1,3.5-2.2,4.9-3.8c1.3-1.5,2.3-3.2,3-5.1c0.8-2.2,1-4.6,0.9-7
				c0-0.3,0-0.7,0-1c0.5-0.3,1.1-0.6,1.6-0.8c0.3,2.2,0.3,4.5,0,6.7c-0.2,1.4-0.6,2.9-0.8,4.3c0,0.1,0,0.1,0,0.2
				c-0.2,0.5-0.3,1.1-0.5,1.6c0,0,0,0,0,0.1l-0.1,0.2c0,0.1-0.1,0.2-0.1,0.3c0,0.1-0.1,0.1-0.1,0.2l0,0v0c-0.1,0.1-0.1,0.3-0.2,0.4
				l0,0v0c0,0-0.1,0.1-0.1,0.1c0,0,0,0,0,0.1c-0.1,0.2-0.2,0.4-0.2,0.6c-0.1,0.2-0.2,0.4-0.3,0.5c0,0,0,0.1-0.1,0.1h0v0
				c-0.1,0.1-0.1,0.1-0.2,0.2c-1.2,2.5-2.7,4.7-4.6,6.7c-0.2,0.1-0.3,0.2-0.5,0.4c-0.1,0-0.3,0.1-0.4,0.1c-1.2,0.5-2.4,1-3.6,1.4
				c-1.5,0.4-3,0.7-4.5,0.8c-2.1,0.2-4.2-0.1-6.3-0.6c-0.2-0.1-0.4-0.3-0.7-0.5c-0.1-0.1-0.2-0.2-0.3-0.2c-0.4-0.3-0.8-0.6-1.2-0.9
				c-0.1,0,0-0.1-0.1-0.2c-0.2-1,0-1.9,0.4-2.8c0.4-1,0.8-2,1.2-3c0.3-0.8,0.7-1.4,1.4-1.9c0.8-0.6,1.8-1.2,2.7-1.7
				c1.5-0.9,2.8-2,4.1-3.1c1.2-1.1,2.2-2.4,3.2-3.8c0.8-1.1,1.4-2.3,2.1-3.5C92,40.5,92,40.4,92.1,40.3L92.1,40.3L92.1,40.3z"/>
			<path class="st0" d="M72.7,13.4c-0.2,1.1-0.5,2.2-0.6,3.3c-0.1,0.9,0,1.8,0,2.7v1.5c-0.2,0-0.4,0.1-0.6,0.1c-1,0.5-2,0.9-2.9,1.5
				c-1.3,0.7-2.6,1.5-3.8,2.2c-0.6,0.3-1.3,0.3-1.9-0.1c-0.2-0.1-0.4-0.3-0.6-0.2c-1.3,0.2-2.6,0.4-3.9,0.8
				c-1.1,0.3-2.1,0.7-3.1,1.1c-1.1,0.5-2.2,1.1-3.2,1.8c-0.9,0.6-1.7,1.3-2.5,2l0.3-0.7l0-0.2c0,0,0.1-0.1,0.1-0.1l0,0
				c0.2-0.3,0.3-0.6,0.5-0.9l0,0c0,0,0-0.1,0.1-0.1c0,0,0,0,0-0.1c0,0,0-0.1,0.1-0.1c0,0,0,0,0-0.1c0,0,0-0.1,0.1-0.1c0,0,0,0,0,0
				c0.1-0.1,0.1-0.2,0.2-0.3l0,0c0,0,0-0.1,0.1-0.1c0-0.1,0.1-0.2,0.1-0.2c0.1-0.1,0.1-0.2,0.2-0.3l0,0c0,0,0-0.1,0.1-0.1
				c0,0,0,0,0-0.1c1.1-1.4,2-2.9,3.2-4.2c3.6-3.9,8-6.5,13.1-7.9C69.2,13.8,70.9,13.4,72.7,13.4L72.7,13.4z"/>
			<path class="st2" d="M81.3,2.3c1.1-0.5,2.1-0.9,3.2-1.4c-0.1,0.2-0.2,0.5-0.3,0.6C83.6,2,83,2.4,82.4,2.8c-1.7,1.4-3,3.1-4,5
				c-1.3,2.3-1.9,4.9-2.1,7.5c-0.1,2,0,4,0.5,6c0.7,2.8,1.9,5.4,3.7,7.7c1.8,2.3,4,4.1,6.6,5.3c2.4,1.1,4.9,1.6,7.6,1.4
				c2.3-0.2,4.5-0.8,6.6-1.9c3-1.7,5.2-4,6.7-7c1.1-2.2,1.8-4.5,2-7c0-0.5,0.2-0.9,0.3-1.4c0.1,0.6,0.2,1.2,0.3,1.8c0,1,0,2,0,3.1
				c0,0.2-0.1,0.4-0.1,0.6c-0.3-0.1-0.4,0.1-0.4,0.3c-0.4,0.9-0.7,1.9-1.1,2.8c-1.2,2.3-2.7,4.4-4.8,6c-2.6,2.1-5.5,3.3-8.7,3.6
				c-1.8,0.2-3.7,0.1-5.5-0.4c-3.3-0.8-6.1-2.5-8.5-4.9c-1.7-1.7-3.1-3.7-4.1-5.9c-1.1-2.4-1.7-4.8-1.9-7.4c-0.1-1.9,0-3.7,0.4-5.6
				C76.5,9,78,5.9,80.5,3.3C80.8,3,81,2.6,81.3,2.3C81.2,2.3,81.3,2.3,81.3,2.3z"/>
			<path class="st0" d="M108.4,30.5c-0.6,0.7-1.2,1.5-1.9,2.1c-1.1,0.9-2.2,1.9-3.3,2.6c-2,1.3-4.2,2.1-6.5,2.5
				c-0.9,0.1-1.8,0.3-2.7,0.3c-1.7,0-3.3-0.2-4.9-0.7c-2.3-0.7-4.4-1.7-6.3-3.2c-2.2-1.7-4-3.7-5.4-6.1c-1.2-2-2-4.2-2.6-6.4
				c-0.5-2.1-0.6-4.2-0.5-6.4c0.2-3,1-5.8,2.4-8.4c0.1-0.2,0.1-0.5,0.1-0.7c0.8-0.8,1.7-1.5,2.5-2.3c0.2,0.4-0.1,0.6-0.3,0.8
				c-1,1.4-1.8,2.8-2.5,4.4c-0.7,1.9-1.3,3.8-1.4,5.8c-0.1,1.5-0.1,3.1,0,4.6c0.2,1.8,0.6,3.5,1.2,5.1c1,2.5,2.4,4.8,4.2,6.8
				c1.7,1.8,3.7,3.3,6,4.4c2,1,4.2,1.5,6.4,1.6c1.8,0.1,3.7-0.1,5.4-0.6c3.4-0.9,6.1-2.8,8.4-5.4c0.7-0.8,1.3-1.8,1.9-2.7
				c0.3-0.5,0.6-1.1,0.9-1.6c0.1,0.1,0.2,0.1,0.3,0.2l-0.1,0.3c-0.1,0.2-0.1,0.4-0.2,0.5l0,0c-0.1,0.2-0.1,0.4-0.2,0.5l0,0
				c0,0.1-0.1,0.1-0.1,0.2l0,0c0,0.1-0.1,0.1-0.1,0.2l-0.1,0.2c0,0.1-0.1,0.1-0.1,0.2c0,0,0,0,0,0c0,0.1-0.1,0.1-0.1,0.2l0,0
				c-0.4,0.1-0.2,0.4-0.3,0.6c0,0,0,0,0,0C108.6,30.2,108.5,30.4,108.4,30.5C108.4,30.5,108.4,30.5,108.4,30.5z"/>
			<path class="st3" d="M110.3,18.3c-0.1,0.5-0.3,0.9-0.3,1.4c-0.2,2.5-0.8,4.8-2,7c-1.6,3-3.8,5.4-6.7,7.1c-2,1.1-4.2,1.8-6.6,1.9
				c-2.7,0.2-5.2-0.3-7.6-1.4c-2.7-1.2-4.8-3-6.6-5.3c-1.8-2.3-3-4.9-3.7-7.7c-0.5-2-0.6-4-0.5-6c0.2-2.6,0.9-5.2,2.1-7.5
				c1-1.9,2.3-3.6,4-5C83,2.4,83.6,2,84.1,1.5c0.2-0.1,0.2-0.4,0.3-0.6c0.4-0.1,0.8-0.2,1.2-0.3c0.4-0.1,0.9-0.2,1.3-0.3
				c-0.2,0.2-0.4,0.5-0.7,0.6c-1.3,0.6-2.5,1.4-3.6,2.3c-1.3,1.1-2.4,2.5-3.3,3.9c-1.2,2-2,4.3-2.4,6.6c-0.4,2.4-0.3,4.9,0.3,7.2
				c0.5,2.3,1.4,4.4,2.7,6.3c2,2.9,4.5,5.2,7.8,6.5c1.5,0.6,3,1,4.6,1.2c3.2,0.3,6.3-0.3,9.1-2c3.1-1.8,5.3-4.4,6.8-7.7
				c0.9-2,1.3-4,1.4-6.1c0-0.9,0-1.7,0-2.6c0-0.3,0.1-0.7,0.2-1C109.9,16.6,110.1,17.5,110.3,18.3L110.3,18.3L110.3,18.3z"/>
			<path class="st1" d="M109.9,27c-0.1,0-0.2-0.1-0.3-0.2c-0.3,0.5-0.6,1.1-0.9,1.6c-0.6,0.9-1.2,1.9-1.9,2.7
				c-2.3,2.6-5,4.5-8.4,5.4c-1.8,0.5-3.6,0.7-5.4,0.6c-2.2-0.1-4.4-0.7-6.4-1.6c-2.3-1.1-4.3-2.5-6-4.4c-1.8-2-3.2-4.3-4.2-6.8
				c-0.6-1.6-1.1-3.4-1.2-5.1c-0.1-1.5-0.1-3,0-4.6c0.1-2,0.6-3.9,1.4-5.8c0.6-1.6,1.5-3,2.5-4.4c0.2-0.2,0.5-0.4,0.3-0.8
				c0.7-0.5,1.4-0.9,2.1-1.4c-0.2,0.4-0.4,0.8-0.7,1.1c-2.5,2.6-4,5.7-4.8,9.1c-0.4,1.8-0.5,3.7-0.4,5.6c0.2,2.6,0.8,5,1.9,7.4
				c1,2.2,2.4,4.2,4.1,5.9c2.4,2.4,5.2,4,8.5,4.8c1.8,0.5,3.7,0.6,5.5,0.4c3.2-0.3,6.2-1.5,8.7-3.6c2.1-1.6,3.6-3.7,4.8-6
				c0.4-0.9,0.8-1.9,1.1-2.8c0.1-0.2,0.2-0.4,0.4-0.3C110.3,24.9,110.1,25.9,109.9,27C109.9,27,109.9,27,109.9,27z"/>
			<path class="st4" d="M108.7,30.1c0-0.2-0.1-0.5,0.3-0.6C108.9,29.7,108.8,29.9,108.7,30.1z"/>
			<path class="st4" d="M108.4,30.5c0.1-0.1,0.2-0.2,0.3-0.4c-0.1,0.2-0.2,0.4-0.3,0.5C108.4,30.6,108.4,30.6,108.4,30.5L108.4,30.5
				L108.4,30.5z"/>
			<path class="st4" d="M109.6,27.8c0.1-0.2,0.1-0.4,0.2-0.5C109.7,27.4,109.7,27.6,109.6,27.8z"/>
			<path class="st4" d="M109.4,28.4c0.1-0.2,0.1-0.4,0.2-0.5C109.6,28,109.5,28.2,109.4,28.4z"/>
			<path class="st4" d="M109.3,28.6c0-0.1,0.1-0.1,0.1-0.2C109.4,28.4,109.4,28.5,109.3,28.6z"/>
			<path class="st4" d="M109,29.5c0-0.1,0.1-0.1,0.1-0.2C109,29.4,109,29.4,109,29.5z"/>
			<path class="st4" d="M109.1,29.2c0-0.1,0.1-0.1,0.1-0.2C109.1,29.1,109.1,29.2,109.1,29.2z"/>
			<path class="st4" d="M109.3,28.8c0-0.1,0.1-0.1,0.1-0.2C109.3,28.6,109.3,28.7,109.3,28.8z"/>
			<path class="st5" d="M92.4,1.3c2.3,0,4.4,0.5,6.3,1.4c1.3,0.6,2.4,1.4,3.5,2.3c1.7,1.5,3,3.3,4,5.3c0.8,1.7,1.4,3.4,1.6,5.3
				c0.5,3.7-0.1,7.2-1.9,10.5c-1.9,3.4-4.7,5.7-8.5,6.8c-1.3,0.4-2.7,0.6-4.1,0.5c-3-0.1-5.7-1-8.1-2.8c-1.8-1.3-3.2-2.8-4.4-4.7
				c-1.2-1.9-2.1-4-2.3-6.2c-0.2-1.2-0.3-2.5-0.3-3.8c0-1.7,0.3-3.3,0.9-4.9s1.4-3.1,2.4-4.4c1.8-2.3,4.2-4,7.1-4.9
				C90,1.5,91.2,1.3,92.4,1.3L92.4,1.3L92.4,1.3z M98.7,4.6c0,0-0.1-0.1-0.1-0.1c-0.3-0.2-0.5-0.4-0.8-0.6c-0.5-0.4-1-0.7-1.5-1.1
				c0.4,0.7,0.9,1.3,1.3,1.9c0,0,0.1,0,0.1,0c0.6,0.8,1.2,1.6,1.8,2.4c0.1,0.1,0.1,0.3,0.2,0.4c0.8,1.2,1.7,2.4,2.5,3.6
				c0.2,0.3,0.4,0.5,0.6,0.8c0,0.1,0,0.2,0.1,0.3c0.4,0.6,0.8,1.2,1.2,1.8c0.3,0.6,0.7,1.1,1.1,1.7c0.1,0.2,0.2,0.5,0.3,0.7
				c0.4,0.7,0.8,1.5,1.2,2.2c0.1,0.1,0.2,0.2,0.4,0.3c0.1-0.1,0.1-0.3,0.1-0.4c0-0.4,0-0.8,0-1.1c0-0.2,0-0.4-0.1-0.6v-0.3
				c0-0.1,0-0.2,0-0.4c-0.1-0.4-0.1-0.9-0.2-1.3c0-0.1-0.1-0.3-0.1-0.4c0-0.1,0-0.1,0-0.2c0,0,0-0.1,0-0.1c-0.1-0.3-0.2-0.6-0.3-0.8
				c-0.7-2-1.9-3.7-3.5-5.1c-0.4-0.3-0.8-0.7-1.1-1c-0.3-0.3-0.7-0.6-1-0.9c-0.3-0.3-0.7-0.5-1-0.8c-0.3-0.3-0.7-0.5-1-0.8
				C98.8,4.6,98.8,4.6,98.7,4.6L98.7,4.6L98.7,4.6z M92.8,6.4c-0.6,0-1.1,0-1.7,0.1c-3.2,0.6-5.5,2.5-7,5.4c-1.1,2.2-1.4,4.6-1,7
				c0.4,2.5,1.5,4.6,3.3,6.4c2.3,2.2,5,3.3,8.3,2.9c2.5-0.3,4.4-1.5,6-3.3c2.2-2.6,2.9-5.8,2.4-9.1c-0.4-2.7-1.7-5-3.8-6.9
				C97.5,7.3,95.3,6.4,92.8,6.4L92.8,6.4L92.8,6.4z"/>
			<path class="st6" d="M100.5,50.5c0.2-0.5,0.3-1.1,0.5-1.6c0,0.2,0,0.4-0.1,0.5C100.9,49.8,100.7,50.2,100.5,50.5z"/>
			<path class="st6" d="M50.2,28c-0.2,0.3-0.3,0.6-0.5,0.9C49.9,28.6,50,28.3,50.2,28z"/>
			<path class="st6" d="M99.7,52.5c0.1-0.2,0.2-0.4,0.2-0.6C99.9,52.2,99.8,52.3,99.7,52.5z"/>
			<path class="st6" d="M100.1,51.7c0.1-0.1,0.1-0.3,0.2-0.4C100.2,51.4,100.1,51.6,100.1,51.7z"/>
			<path class="st6" d="M51,26.5c-0.1,0.1-0.1,0.2-0.2,0.3C50.9,26.7,51,26.6,51,26.5z"/>
			<path class="st6" d="M50.7,27.2c-0.1,0.1-0.1,0.2-0.2,0.3C50.6,27.4,50.6,27.3,50.7,27.2z"/>
			<path class="st6" d="M100.2,51.2c0-0.1,0.1-0.1,0.1-0.2C100.3,51.1,100.3,51.2,100.2,51.2z"/>
			<path class="st6" d="M100.4,50.8l0.1-0.2L100.4,50.8z"/>
			<path class="st6" d="M50.4,27.7c0,0,0,0.1-0.1,0.1L50.4,27.7z"/>
			<path class="st6" d="M50.5,27.5c0,0,0,0.1-0.1,0.1C50.4,27.6,50.5,27.6,50.5,27.5z"/>
			<path class="st6" d="M50.3,27.9c0,0,0,0.1-0.1,0.1C50.2,28,50.2,28,50.3,27.9z"/>
			<path class="st6" d="M49.7,28.9c0,0-0.1,0.1-0.1,0.1C49.7,29,49.7,29,49.7,28.9z"/>
			<path class="st6" d="M100,51.9c0,0,0.1-0.1,0.1-0.1C100,51.8,100,51.9,100,51.9z"/>
			<path class="st7" d="M50.7,27.1c0,0,0,0.1-0.1,0.1C50.7,27.1,50.7,27.1,50.7,27.1z"/>
			<path class="st6" d="M51.1,26.4c0,0,0,0.1-0.1,0.1C51.1,26.5,51.1,26.5,51.1,26.4z"/>
			<path class="st8" d="M99.3,53.2C99.3,53.2,99.4,53.1,99.3,53.2C99.4,53.1,99.3,53.2,99.3,53.2z"/>
			<path class="st7" d="M74.6,33.5c-0.2,0.9,0.3,1.6,0.7,2.3c0.1-0.2,0.2-0.3,0.3-0.6c0.1,0.3,0.2,0.5,0.2,0.7
				c0,0.1-0.1,0.3-0.2,0.4c-0.1,0.1-0.3,0.1-0.2,0.1c0.1,0.5-0.3,1.1,0.1,1.7c0.4,0.5,0.3,0.5-0.4,0.6c0.1,0.3,0.2,0.7,0.3,0.9
				c-0.2,0.2-0.6,0.5-0.7,0.7s0.1,0.6,0.2,0.9c-0.2,0-0.4,0-0.6,0c0.1,0.3,0.1,0.6,0.2,1c-0.1,0.1-0.2,0.5-0.7,0.3
				c-0.1,0-0.2,0.1-0.2,0.2c0,0.1,0,0.3,0.1,0.4c0.1,0.2,0.2,0.3,0.2,0.5c-0.2,0.1-0.4,0.2-0.6,0.3c-0.3,0-0.2,0.1-0.2,0.3
				c0.2,1.1,1.1,1.8,2,2.4c0.5,0.3,1,0.7,1.5,1.1c0.5,0.4,0.4,1.1-0.2,1.5c-0.6,0.4-1.3,0.5-2,0.6c-3.2,0.2-5.9-1.2-8.4-2.9
				c-0.7-0.5-1.2-1-1.9-1.4c-0.3-0.2-0.8-0.4-1.2-0.6c-0.1,0-0.2,0-0.3,0.1c-0.2,0.2-0.3,0.3-0.5,0.5c-0.1,0.1-0.2,0.1-0.2,0.2
				c0,0.5-0.3,0.5-0.6,0.6c-0.2,0.1-0.4,0.2-0.5,0.4c-0.2,0.3-0.7,0.4-1,0.2c-0.3-0.3-0.7-0.3-1,0c-0.5,0.4,0,0,0,0
				c-0.2,0.3-0.5-0.3-0.9,0.1c-0.3,0.3-0.5,0-0.7-0.3c-1.3-1.6-2.1-3.5-2.6-5.5c-0.4-1.6-0.5-3.3-0.2-5c0.1-0.7,0.5-1.4,0.9-2.1
				c0.4-0.6,1-1.2,1.5-1.8c0.2-0.2,0.3-0.5,0.5-0.7c0.8-0.9,1.8-1.1,2.9-0.7c0.6,0.3,1-0.1,1.4-0.4c0.9-0.8,1.7-1.8,2.6-2.6
				c1-0.9,2.1-1.6,3.4-1.9c0.4-0.1,0.9-0.2,1.2,0.2c0.1,0.2,0.2,0.4,0.2,0.6c0,0.5,0.1,1,0,1.4c-0.1,0.6,0.2,1.1,0.5,1.6
				c0.1,0.1,0.2,0.2,0.3,0.2c0.4,0,0.7,0.1,0.9,0.5c0.1,0.2,0.2,0.3,0.5,0.2c0.3-0.1,0.7,0,0.7,0.5c0,0.1,0.3,0.4,0.4,0.3
				c0.4-0.1,0.4,0.1,0.5,0.4c0.1,0.5,0.3,0.7,0.8,0.7c0.3,0,0.3,0,0.3,0.3C73.9,33.6,73.9,33.6,74.6,33.5L74.6,33.5L74.6,33.5z
				 M67.3,29.4L67.3,29.4c-0.1-0.2,0-0.4-0.1-0.6c0-0.3-0.2-0.7-0.5-0.7c-0.4,0-0.8,0-1.1,0.1c-1.5,0.6-2.4,1.8-3,3.1
				c-1,2-1.2,4.1-0.9,6.3c0.1,0.5,0.2,1,0.3,1.5c0.3,1,0.7,2,1.2,3c0.8,1.5,2,2.8,3.3,3.9c1,0.9,2.2,1.5,3.4,1.9
				c0.7,0.2,1.4,0.3,2.2,0.3c0.3,0,0.6-0.2,0.8-0.4c0.1-0.1-0.1-0.5-0.2-0.7c-0.1-0.2-0.3-0.4-0.5-0.6c-0.8-0.9-1.5-1.8-2.3-2.7
				c-0.8-0.9-1.2-2.1-1.7-3.2c-0.3-0.5-0.3-1.1-0.6-1.7c-0.5-1.2-0.7-2.5-0.8-3.8c0-0.5,0-0.9,0-1.4c0-0.5,0-1.1,0.1-1.6
				C67,31.3,67.2,30.3,67.3,29.4L67.3,29.4L67.3,29.4z"/>
			<path class="st0" d="M84.3,38.3c0.8,0.3,1.7,0.7,2.5,1c-0.1,0.3-0.1,0.7-0.2,0.9c-0.4,0.7-0.6,1.4-0.4,2.2
				c0.1,0.3,0.1,0.5,0.3,0.8c0.2,0.4,0.3,0.8,0.3,1.2c-0.2,1.4-1,2.4-1.9,3.4c-1.7,2-3.9,3.3-6.3,4.2c-1,0.4-2,0.9-2.6,1.9
				c-0.8,1.4-1.8,2.6-3,3.8c-0.9,0.9-1.7,2-2.4,3c-0.4,0.6-0.7,1.3-0.4,2c0.1,0.3,0.3,0.5,0.3,0.8c0,0.5,0.3,0.6,0.7,0.8
				c0.1,0.1,0.3,0.2,0.3,0.3c-0.1,0.4,0.2,0.4,0.4,0.5c2.3,1.2,4.8,2.1,7.4,2.5c0.4,0.1,0.7,0.1,1.2,0.2c-0.3,0.1-0.5,0.2-0.7,0.3
				c0,0.1-0.1,0.1-0.1,0.1c-0.4,0.1-0.8,0.1-1.2,0.1c-0.6,0.1-1.2,0.1-1.8,0.2c-1.2,0-2.3,0.1-3.5,0.1c-1.3-0.2-2.6-0.4-3.9-0.6
				c-0.1,0-0.2-0.1-0.3-0.1c-0.7-0.2-1.5-0.3-2.2-0.5c-0.8-0.2-1.5-0.5-2.2-0.8l0,0c-0.2-0.1-0.3-0.1-0.5-0.2l0,0
				c-0.2-0.1-0.4-0.2-0.7-0.3l0,0c-0.1,0-0.1-0.1-0.2-0.1l0,0c-0.5-0.2-1-0.5-1.5-0.7c-0.1-0.1-0.2-0.1-0.2-0.2
				c-3.2-1.8-6.1-4.1-8.3-7c-0.8-1.1-1.6-2.3-2.4-3.5c0,0-0.1-0.1-0.1-0.1l0,0c-0.2-0.5-0.5-0.9-0.7-1.4c0-0.1-0.1-0.1-0.1-0.2l0,0
				c0-0.1-0.1-0.1-0.1-0.2l0,0c0-0.1-0.1-0.1-0.1-0.2l0,0c0-0.1-0.1-0.3-0.1-0.4c-0.4-1.2-0.8-2.4-1.3-3.6c0,0,0-0.1,0-0.1
				c0,0,0,0,0,0c0.1,0.2,0.2,0.3,0.4,0.5c0.5,0.7,0.9,1.3,1.4,2c1.1,1.3,2.3,2.5,3.5,3.7c1.1,1,2.4,2,3.6,2.9c0.6,0.4,1.2,0.8,2,0.8
				c0,0,0,0,0.1,0.1c0,0,0.1,0.1,0.1,0.1l0.1,0c0.3,0.1,0.6,0.2,1,0.3c1.1,0.3,2.1,0.7,3.2,1c0.4,0.1,0.8,0.1,1.1-0.2
				c0.5-0.5,1-1.1,1.8-1c0.1,0,0.2-0.1,0.3-0.2c0.8-0.3,1.3-1.2,2.3-1.1c0.1,0,0.2-0.1,0.2-0.1c0.5-0.3,0.9-0.7,1.4-1
				c0.4-0.3,0.7-0.7,1.3-0.6c0.1,0,0.2,0,0.2-0.1c0.5-0.5,1.1-1,1.4-1.6c0.4-0.8,1.1-1.1,1.8-1.4c0.9-0.4,2-0.7,3-1
				c2.1-0.8,3.9-1.9,5.2-3.7c0.5-0.6,0.8-1.3,0.4-2.2c-0.3-0.6-0.4-1.3-0.3-2c0-0.3,0.1-0.7,0.1-1c0-0.4-0.1-0.8-0.1-1.1
				c0.1-0.8,0.2-1.6,0.4-2.4C84.1,38.9,84.2,38.6,84.3,38.3L84.3,38.3L84.3,38.3z"/>
			<path class="st0" d="M100.3,38.6c0,0.3,0,0.7,0,1c0.1,2.4-0.1,4.7-0.9,7c-0.7,1.9-1.7,3.6-3,5.1c-1.4,1.6-3.1,2.9-4.9,3.8
				c-1.3,0.7-2.8,1.2-4.3,1.4c-0.7,0.1-1.5,0.3-2.2,0.3c-0.5,0-0.9-0.5-1.5-0.5c-0.2,0-0.4-0.3-0.6-0.5c-0.4-0.5-0.3-1.1-0.5-1.7
				c-0.3-1.5,0.6-2.3,1.6-3.2c1.6-1.2,3.1-2.4,4.6-3.8c1.5-1.4,2.8-3,3.7-4.9c0.3-0.6,0.6-1.2,0.9-1.8c0.1-0.2,0.1-0.3,0.1-0.5
				c1.1-0.2,2.1-0.2,3.1-0.5c1.2-0.3,2.3-0.7,3.4-1.1C100.1,38.7,100.2,38.6,100.3,38.6L100.3,38.6L100.3,38.6z"/>
			<path class="st0" d="M72.2,22.1c0.2,0.8,0.4,1.7,0.6,2.5c0.3,1,0.7,2.1,1.1,3.1c0.2,0.4,0.4,0.9,0.5,1.3c0,0.1-0.1,0.3-0.1,0.4
				c-0.1-0.1-0.3-0.1-0.4-0.2c-0.2-0.3-0.4-0.5-0.8-0.5c-0.2,0-0.3,0-0.5-0.1c-0.6-0.3-1.3-0.6-1.8-1c-0.2-0.2-0.2-0.7-0.2-1.1
				c0-0.4,0.1-0.8,0-1.2c-0.1-0.6-0.5-0.9-1.1-0.8c-2,0.2-3.5,1.2-5.1,2.3c-0.6,0.4-1.1,0.9-1.7,1.3c-0.7,0.5-1.4,0.9-2.3,0.6
				c-0.8-0.2-1.5,0-2.3,0.3c-0.5,0.2-1.1,0.3-1.4,0.9c0,0.1-0.2,0.1-0.2,0.1c-0.9,0.4-1.7,1-2.4,1.7c-1,1.1-1.8,2.5-2.3,3.9
				c-0.3,0.9-0.4,1.9-0.4,2.8c0.1,2,0.5,4,1.4,5.9c0.8,1.7,1.8,3.3,3.2,4.7c0.7,0.7,1.5,1.5,2.3,2.2c0.4,0.3,0.8,0.3,1.4,0.2
				c0.6-0.1,1.2-0.3,1.9-0.1c0.6,0.3,1,0,1.5-0.3c0.6-0.3,1.2-0.6,1.9-0.3c0.7,0.3,0.8,0.2,1.1-0.4c0.3-0.5,0.6-0.6,1.2-0.7
				c1.4-0.2,2.6,0.5,3.8,0.7c1.9,0.4,3.9,0.5,5.8-0.2c0.8-0.3,1.6-0.6,2.1-1.3c0.6-0.9,0.3-1.2-0.3-1.9c-0.2-0.2-0.5-0.5-0.7-0.7
				c-0.1-0.1-0.1-0.2-0.1-0.3c0.2-0.8,0.3-1.5,0.5-2.3c0.1-0.4,0.2-0.7,0.3-1.2c0-0.4,0.2-0.7,0-1.1c0,0,0.1-0.2,0.1-0.2
				c0.1-0.3,0.2-0.7,0.3-1.1c0.1-0.2,0.2-0.5,0.2-0.7c0-0.2,0-0.3,0-0.5c0-0.2,0-0.5,0.1-0.7c0-0.4,0.1-0.8,0.1-1.2
				c0-0.4,0-0.8,0-1.2c0-0.2,0.1-0.5,0.4-0.3c0.7,0.5,1.3,1,1.9,1.5c0,0.3-0.1,0.5-0.1,0.8c0,0.4,0,0.8-0.1,1.2
				c-0.2,1.1-0.4,2.1-0.3,3.2c0,0.7-0.2,1.4-0.3,2.1c-0.2,0.8-0.3,1.5,0.2,2.2c0.5,0.7,0.4,1.3-0.1,1.9c-0.9,1.3-2.2,2-3.6,2.5
				c-1.8,0.7-3.6,0.6-5.5,0.8c-0.9,0.1-1.6,0.5-2.2,1.2c-0.5,0.6-1,1.3-1.9,1.2C68.1,54.1,68,54,67.9,54c-0.7-0.2-1.4-0.3-2.1-0.5
				c-0.9-0.2-1.7-0.4-2.5,0c-0.2,0.1-0.5,0.1-0.8,0c-0.6-0.2-1.2-0.4-1.9-0.6c-0.3-0.1-0.6-0.1-0.8-0.1c-0.2,0-0.5,0-0.7-0.2
				c-0.8-0.6-1.6-1.2-2.3-1.9c-0.8-0.8-1.5-1.7-2.2-2.5c-0.1-0.1-0.2-0.3-0.4-0.4c-0.1,0.2-0.2,0.3-0.3,0.4c-0.3-0.5-0.6-1-0.8-1.6
				c0.4,0,0.3-0.3,0.2-0.5c-0.8-1.2-1.3-2.5-1.7-3.9c-0.6-2-0.8-4-0.3-6c0.1-0.2,0-0.5,0-0.7c0-0.6,0-1.2,0.2-1.7
				c0.3-0.6,0.7-1.2,1.2-1.7c0.6-0.7,0.7-0.8,0-1.5c0.2-0.2,0.4-0.5,0.7-0.6c1.5-1.1,3.1-2.1,5-2.7c0.4-0.1,0.8-0.3,1.3-0.4
				c0.7-0.2,1.3-0.3,2-0.1c0.3,0.1,0.6,0.1,0.8,0.1c0.8,0,1.4-0.5,2-0.9c1.7-1.1,3.4-2.2,5.3-3C70.5,22.7,71.4,22.4,72.2,22.1
				C72.3,22.1,72.2,22.1,72.2,22.1z"/>
			<path class="st7" d="M72.2,22.1c-0.9,0.3-1.7,0.5-2.6,0.9c-1.9,0.8-3.6,1.9-5.3,3c-0.6,0.4-1.2,0.9-2,0.9c-0.3,0-0.6,0-0.8-0.1
				c-0.7-0.2-1.4-0.1-2,0.1c-0.4,0.1-0.8,0.3-1.3,0.4c-1.8,0.6-3.4,1.6-5,2.7c-0.2,0.2-0.5,0.4-0.7,0.6c-0.1,0-0.2,0.1-0.3,0.1
				c-0.6,0.7-1.3,1.4-1.9,2.2c-1,1.2-1.6,2.6-1.8,4.2c-0.2,1.4-0.2,2.8,0.1,4.2c0.3,1.2,0.6,2.4,1.1,3.5c0.6,1.3,1.3,2.5,2,3.7
				c0.2,0.3,0.3,0.8,0.9,0.7c0,0,0,0.1,0,0.1c0,0.1,0,0.1,0,0.2c0,0,0,0,0,0c0,0,0,0,0,0c0,0.1,0.1,0.2,0.1,0.4
				c0.1,0.4,0.2,0.8,0.2,1.2c0.4,1.1,0.8,2.1,1.6,3l1.1,1.3c0.2,0.2,0.4,0.4,0.5,0.6c0.2,0.2,0.4,0.3,0.7,0.5
				c0.1,0.1,0.2,0.2,0.3,0.3c0.6,0.5,1.1,1,1.7,1.5c-0.8,0-1.4-0.4-2-0.8c-1.3-0.9-2.5-1.8-3.6-2.9c-1.2-1.2-2.4-2.4-3.5-3.7
				c-0.5-0.6-0.9-1.3-1.4-2c-0.1-0.2-0.2-0.3-0.4-0.5c0,0,0,0,0,0c0,0,0,0.1,0,0.1c-0.1-0.2-0.2-0.4-0.2-0.7
				c-0.2-0.7-0.3-1.4-0.5-2.2c-0.1-0.7-0.3-1.5-0.4-2.2c0-0.7,0-1.4-0.1-2.2c0-0.8,0-1.5,0.1-2.3c0.1-0.6,0.1-1.2,0.2-1.9
				c0-0.2,0-0.5,0-0.7c0.1-0.4,0.2-0.9,0.3-1.3c0-0.1,0-0.1,0-0.2c0.1-0.2,0.1-0.5,0.2-0.8c0-0.1,0-0.2,0-0.2c0,0,0-0.1,0.1-0.2
				c0-0.1,0-0.2,0.1-0.2l0,0c0-0.1,0-0.2,0.1-0.2c0,0,0-0.1,0-0.1l0-0.4c0.1-0.1,0.1-0.1,0.2-0.2c0.1-0.2,0.1-0.3,0.2-0.5v0
				c0-0.1,0.1-0.2,0.1-0.3l0,0c0-0.1,0.1-0.2,0.1-0.2v0c0.1-0.2,0.1-0.3,0.2-0.5c0,0,0,0,0-0.1c0-0.1,0-0.1,0.1-0.2l0,0
				c0-0.1,0.1-0.2,0.1-0.3l0,0c0-0.1,0-0.1,0.1-0.2l0,0c0-0.1,0.1-0.2,0.1-0.3l0,0c0-0.1,0.1-0.1,0.1-0.2l0,0c0-0.1,0.1-0.1,0.1-0.2
				l0,0c0.8-0.7,1.7-1.4,2.5-2c1-0.7,2.1-1.2,3.2-1.8c1-0.5,2.1-0.9,3.1-1.1c1.3-0.3,2.6-0.5,3.9-0.8c0.2,0,0.4,0.1,0.6,0.2
				c0.6,0.4,1.3,0.4,1.9,0.1c1.3-0.7,2.6-1.5,3.8-2.2c1-0.5,1.9-1,2.9-1.5c0.2-0.1,0.4-0.1,0.6-0.1C72.2,21.2,72.2,21.7,72.2,22.1
				L72.2,22.1L72.2,22.1z"/>
			<path class="st7" d="M79.6,68.3c0.2-0.1,0.4-0.2,0.7-0.3c-0.4-0.1-0.8-0.1-1.2-0.2c-2.6-0.4-5-1.3-7.4-2.5
				c-0.2-0.1-0.5-0.2-0.4-0.5c0-0.1-0.2-0.2-0.3-0.3c-0.3-0.2-0.6-0.3-0.7-0.8c0-0.3-0.3-0.5-0.3-0.8c-0.2-0.8,0-1.4,0.4-2
				c0.8-1,1.5-2.1,2.4-3c1.1-1.2,2.1-2.4,3-3.8c0.6-1,1.6-1.5,2.6-1.9c2.4-1,4.6-2.3,6.3-4.2c0.8-1,1.7-2,1.9-3.4
				c0-0.4-0.1-0.9-0.3-1.2c-0.2-0.3-0.2-0.5-0.3-0.8c-0.2-0.8-0.1-1.5,0.4-2.2c0.2-0.3,0.2-0.6,0.2-0.9c1.1,0.2,2.1,0.5,3.1,0.7
				c0.4,0.1,0.8,0.1,1.1,0.2c-0.1,0.3-0.2,0.7-0.4,1c-1.1,1.6-2.1,3.2-3.2,4.7c-1.1,1.5-2.4,2.8-3.9,3.8c-1.2,0.9-2.6,1.5-3.8,2.3
				c-0.6,0.4-1.3,0.8-1.8,1.3c-0.6,0.6-0.9,1.4-1.4,2.1c-0.6,0.9-1.2,1.8-1.7,2.8c-0.4,0.8-0.8,1.6-1.1,2.4c-0.3,0.8,0.2,1.4,0.5,2
				c0.1,0.2,0.5,0.3,0.8,0.5c0.2,0.1,0.4,0.2,0.5,0.3c0.1,0.4,0.3,0.4,0.6,0.5c1.7,0.6,3.3,1.1,5.1,1.2c1.3,0.1,2.6,0.2,3.8,0.2
				c0.6,0,1.2-0.1,1.8-0.1c0.1,0,0.3,0.1,0.4,0.2c-0.2,0.1-0.4,0.2-0.6,0.3c-0.8,0.4-1.6,0.8-2.4,1.1l-1.7,0.6l0,0
				c-0.2,0.1-0.4,0.1-0.7,0.2l0,0c-0.2,0-0.4,0.1-0.5,0.1C80.8,68,80.2,68.2,79.6,68.3L79.6,68.3L79.6,68.3z"/>
			<path class="st7" d="M68.2,54.2c1,0.1,1.4-0.6,1.9-1.2c0.6-0.7,1.3-1.1,2.2-1.2c1.8-0.2,3.7-0.1,5.5-0.8c1.4-0.5,2.8-1.2,3.6-2.5
				c0.4-0.6,0.5-1.2,0.1-1.9c-0.5-0.7-0.4-1.4-0.2-2.2c0.2-0.7,0.3-1.4,0.3-2.1c0-1.1,0.1-2.2,0.3-3.2c0.1-0.4,0-0.8,0.1-1.2
				c0-0.3,0.1-0.5,0.1-0.8c0.7,0.4,1.5,0.8,2.2,1.2c-0.1,0.3-0.1,0.5-0.2,0.8c-0.1,0.8-0.3,1.6-0.4,2.4c0,0.4,0.1,0.8,0.1,1.1
				c0,0.3,0,0.7-0.1,1c-0.1,0.7,0.1,1.4,0.3,2c0.4,0.8,0,1.5-0.4,2.2c-1.3,1.8-3.2,2.9-5.2,3.7c-1,0.4-2,0.6-3,1
				c-0.7,0.3-1.3,0.7-1.8,1.4c-0.3,0.6-0.9,1.1-1.4,1.6c-0.1,0.1-0.2,0.1-0.2,0.1c-0.6-0.1-0.9,0.3-1.3,0.6c-0.5,0.4-0.9,0.7-1.4,1
				c-0.1,0-0.2,0.1-0.2,0.1c-1-0.1-1.5,0.8-2.3,1.1c-0.1,0-0.2,0.2-0.3,0.2c-0.8,0-1.3,0.6-1.8,1c-0.4,0.3-0.8,0.3-1.2,0.2
				c-1.1-0.3-2.2-0.6-3.2-1c-0.3-0.1-0.7-0.2-1-0.3c-0.5-0.9-1.1-1.8-1.6-2.7c0,0,0-0.1-0.1-0.1c-0.1-0.1-0.1-0.2-0.2-0.4
				c0,0,0-0.1-0.1-0.1s0,0,0-0.1c0,0,0-0.1-0.1-0.1L57.2,55c0,0,0,0-0.1-0.1c0,0,0-0.1,0-0.1c0,0,0-0.1-0.1-0.1s0,0,0-0.1
				c0,0,0-0.1-0.1-0.1c-0.1-0.2-0.2-0.4-0.3-0.6c0.2,0,0.3,0,0.5,0.1c1.1,0.7,2.2,1.3,3.3,2c0.7,0.4,1.3,0.6,2.1,0.3
				c1.1-0.4,2.2-0.6,3.3-1c0.3-0.1,0.7-0.2,1-0.4C67.2,54.8,67.7,54.5,68.2,54.2L68.2,54.2L68.2,54.2z"/>
			<path class="st7" d="M87.3,65.6c-0.1-0.1-0.3-0.2-0.4-0.2c-0.6,0-1.2,0.1-1.8,0.1c-1.3,0-2.6-0.1-3.8-0.2
				c-1.8-0.2-3.4-0.6-5.1-1.2c-0.3-0.1-0.5-0.2-0.6-0.5c0-0.1-0.3-0.2-0.5-0.3c-0.3-0.2-0.7-0.2-0.8-0.5c-0.3-0.6-0.8-1.3-0.5-2
				c0.3-0.8,0.7-1.6,1.1-2.4c0.5-1,1.2-1.9,1.7-2.8c0.4-0.7,0.8-1.5,1.4-2.1c0.5-0.5,1.2-0.9,1.8-1.3c1.3-0.8,2.6-1.5,3.8-2.3
				c1.5-1.1,2.8-2.4,3.9-3.8c1.1-1.5,2.2-3.1,3.2-4.7c0.2-0.3,0.2-0.7,0.4-1c0.3,0,0.6,0.1,0.9,0.1c0,0.1,0,0.2,0,0.3
				c-0.7,1.2-1.3,2.3-2.1,3.5c-0.9,1.4-1.9,2.7-3.2,3.8c-1.3,1.2-2.6,2.2-4.1,3.1c-0.9,0.5-1.8,1.1-2.7,1.7
				c-0.6,0.5-1.1,1.1-1.4,1.9c-0.4,1-0.8,2-1.2,3c-0.3,0.9-0.6,1.8-0.4,2.8c0,0.1,0,0.2,0.1,0.2c0.4,0.3,0.8,0.6,1.2,0.9
				c0.1,0.1,0.2,0.2,0.3,0.2c0.2,0.2,0.4,0.4,0.7,0.5c2.1,0.5,4.2,0.8,6.3,0.6c1.5-0.1,3-0.4,4.5-0.8c1.2-0.3,2.4-0.9,3.6-1.4
				c0.1,0,0.3-0.1,0.4-0.1c0,0,0,0.1,0.1,0.1h0c0,0-0.1,0-0.1,0.1h0c0,0-0.1,0.1-0.1,0.1l0,0c-0.2,0.2-0.4,0.4-0.7,0.6
				c-0.4,0.4-0.9,0.8-1.4,1.2c-1.3,0.9-2.7,1.9-4.1,2.8l0,0C87.7,65.4,87.5,65.5,87.3,65.6L87.3,65.6L87.3,65.6z"/>
			<path class="st9" d="M94.2,60.6c0,0,0-0.1-0.1-0.1c0.2-0.1,0.3-0.2,0.5-0.4c-0.1,0.1-0.2,0.2-0.2,0.4
				C94.3,60.5,94.2,60.5,94.2,60.6L94.2,60.6L94.2,60.6z"/>
			<path class="st10" d="M92.8,6.4c2.6,0,4.7,0.9,6.6,2.6c2.1,1.8,3.4,4.2,3.8,6.9c0.5,3.3-0.2,6.5-2.4,9.1c-1.6,1.9-3.6,3-6,3.3
				c-3.2,0.4-6-0.7-8.3-2.9c-1.8-1.8-2.9-3.9-3.3-6.4c-0.4-2.4-0.2-4.8,1-7c1.5-2.9,3.8-4.8,7-5.4C91.7,6.4,92.2,6.4,92.8,6.4
				L92.8,6.4L92.8,6.4z"/>
			<path class="st11" d="M107.1,16.4v0.3c0-0.1-0.1-0.2-0.1-0.3c0-0.2,0-0.5-0.1-0.6c-0.2-0.2-0.5-0.4-0.7-0.6
				c-0.9-0.9-1.7-1.8-2.6-2.7c-0.2-0.2-0.5-0.4-0.7-0.6c-0.2-0.2-0.4-0.5-0.6-0.8c-0.8-1.2-1.7-2.4-2.5-3.6
				c-0.1-0.1-0.2-0.3-0.2-0.4c0-0.2,0-0.3,0-0.5c-0.1-0.3-0.3-0.6-0.4-0.9c-0.1-0.4-0.4-0.7-0.2-1.2c0.3,0.3,0.7,0.5,1,0.8
				c0.2,0.6,0.3,1.2,0.6,1.7c0.7,1.4,1.6,2.7,2.6,3.9c0.7,0.9,1.4,1.7,2.1,2.5c0.4,0.5,0.9,0.9,1.3,1.3c0.3,0.3,0.4,0.2,0.5-0.1
				c0.1,0.4,0.1,0.9,0.2,1.3C107.1,16.1,107.1,16.3,107.1,16.4L107.1,16.4L107.1,16.4z"/>
			<path class="st2" d="M106.9,14.7c-0.1,0.4-0.2,0.4-0.5,0.1c-0.4-0.4-0.9-0.9-1.3-1.3c-0.7-0.8-1.4-1.6-2.1-2.5
				c-1-1.2-1.9-2.5-2.6-3.9c-0.2-0.5-0.4-1.1-0.6-1.7c0.3,0.3,0.7,0.5,1,0.8c0.1,0.5,0.2,1.1,0.4,1.5c1.1,2.1,2.5,3.9,4.1,5.6
				c0.4,0.4,0.8,0.7,1.2,1c0.1,0,0.1,0,0.2,0C106.9,14.5,106.9,14.6,106.9,14.7L106.9,14.7L106.9,14.7z"/>
			<path class="st12" d="M106.7,14.3c-0.4-0.3-0.9-0.6-1.2-1c-1.6-1.7-3.1-3.5-4.1-5.6c-0.2-0.4-0.3-1-0.4-1.5
				c0.3,0.3,0.7,0.6,1,0.9c-0.3,0.4,0,0.8,0.2,1.1c1,1.9,2.3,3.6,3.8,5.1C106.2,13.5,106.8,13.7,106.7,14.3L106.7,14.3z"/>
			<path class="st13" d="M106.7,14.3c0.1-0.6-0.5-0.8-0.8-1.1c-1.5-1.5-2.8-3.1-3.8-5.1c-0.2-0.3-0.4-0.7-0.2-1.1
				c0.4,0.3,0.8,0.7,1.1,1c-0.3,0.4,0,0.6,0.1,0.9c0.8,1.6,2.1,2.9,3.4,4.2c0.1,0.3,0.2,0.6,0.3,0.8c0,0,0,0.1,0,0.1
				c0,0.1,0,0.1,0,0.2C106.8,14.3,106.7,14.3,106.7,14.3C106.6,14.3,106.7,14.3,106.7,14.3z"/>
			<path class="st14" d="M106.5,13.2c-1.3-1.3-2.6-2.5-3.4-4.2c-0.1-0.3-0.5-0.6-0.1-0.9C104.5,9.6,105.8,11.2,106.5,13.2
				L106.5,13.2L106.5,13.2z"/>
			<path class="st2" d="M102.9,11.9c0.2,0.2,0.5,0.4,0.7,0.6c0.9,0.9,1.7,1.8,2.6,2.7c0.2,0.2,0.5,0.4,0.7,0.6
				c0.1,0.1,0.1,0.4,0.1,0.6c-0.1,0-0.1,0-0.2-0.1c-0.7-0.7-1.4-1.4-2.1-2c-0.2-0.1-0.4-0.2-0.6-0.4c-0.4-0.6-0.8-1.2-1.2-1.8
				C102.9,12.1,102.9,12,102.9,11.9C102.8,11.9,102.9,11.9,102.9,11.9z"/>
			<path class="st11" d="M107.2,17.3c0,0.4,0,0.8,0,1.1c0,0.1-0.1,0.3-0.1,0.4c-0.1-0.1-0.3-0.1-0.4-0.3c-0.4-0.7-0.8-1.4-1.2-2.2
				c-0.1-0.2-0.2-0.4-0.3-0.7c0.1,0,0.3,0,0.3,0.1c0.4,0.4,0.8,0.8,1.2,1.2C106.9,17.2,107,17.2,107.2,17.3z"/>
			<path class="st11" d="M107.2,17.3c-0.2-0.1-0.3-0.1-0.5-0.2c-0.4-0.4-0.8-0.8-1.2-1.2c-0.1-0.1-0.2-0.1-0.3-0.1
				c-0.3-0.6-0.7-1.1-1.1-1.7c0.2,0.1,0.4,0.2,0.6,0.4c0.7,0.7,1.4,1.3,2.1,2c0,0,0.1,0,0.2,0.1c0.1,0.1,0.1,0.2,0.1,0.3
				C107.2,16.9,107.2,17.1,107.2,17.3L107.2,17.3L107.2,17.3z"/>
			<path class="st11" d="M98.8,4.7c-0.2,0.4,0.1,0.8,0.2,1.2c0.1,0.3,0.3,0.6,0.4,0.9c0.1,0.1,0,0.3,0,0.5c-0.6-0.8-1.2-1.6-1.8-2.4
				V4.3c0-0.1,0-0.3,0.1-0.4c0.3,0.2,0.5,0.4,0.8,0.6c0.1,0,0.1,0.1,0.1,0.1S98.8,4.6,98.8,4.7L98.8,4.7L98.8,4.7z"/>
			<path class="st11" d="M97.8,3.9c0,0.1,0,0.2-0.1,0.4v0.4c0,0-0.1,0-0.1,0c-0.5-0.6-0.9-1.2-1.3-1.9C96.8,3.2,97.3,3.5,97.8,3.9
				L97.8,3.9z"/>
			<path class="st15" d="M107.1,16.4c0-0.1,0-0.2,0-0.4C107.1,16.2,107.1,16.3,107.1,16.4z"/>
			<path class="st16" d="M98.7,4.6c0,0-0.1-0.1-0.1-0.1C98.6,4.5,98.7,4.5,98.7,4.6z"/>
			<path class="st17" d="M106.8,14.1C106.8,14.1,106.8,14.1,106.8,14.1C106.8,14.1,106.8,14.1,106.8,14.1z"/>
			<path class="st18" d="M48.8,31.3c-0.1,0.2-0.1,0.3-0.2,0.5c0-0.1,0-0.2,0-0.3l0,0C48.7,31.5,48.7,31.4,48.8,31.3z"/>
			<path class="st18" d="M49.2,30.3c0,0.1-0.1,0.2-0.1,0.3C49.1,30.5,49.1,30.4,49.2,30.3z"/>
			<path class="st18" d="M49,30.8c0,0.1-0.1,0.2-0.1,0.3C48.9,31,49,30.9,49,30.8z"/>
			<path class="st18" d="M48.9,31.1c0,0.1,0,0.1-0.1,0.2C48.8,31.2,48.9,31.1,48.9,31.1z"/>
			<path class="st18" d="M49.3,30.1c0,0.1-0.1,0.1-0.1,0.2C49.2,30.3,49.2,30.2,49.3,30.1z"/>
			<path class="st18" d="M49.3,29.9c0,0.1-0.1,0.1-0.1,0.2C49.3,30.1,49.3,30,49.3,29.9z"/>
			<path class="st18" d="M49.1,30.6c0,0.1,0,0.1-0.1,0.2C49,30.7,49,30.7,49.1,30.6z"/>
			<path class="st1" d="M67.3,29.4c-0.1,0.9-0.3,1.9-0.4,2.8c-0.1,0.5-0.1,1.1-0.1,1.6c0,0.5,0,1,0,1.4c0.1,1.3,0.2,2.6,0.8,3.8
				c0.2,0.5,0.3,1.1,0.6,1.7c0.5,1.1,0.9,2.2,1.7,3.2c0.8,0.9,1.5,1.8,2.3,2.7c0.2,0.2,0.4,0.4,0.5,0.6c0.1,0.2,0.3,0.6,0.2,0.7
				c-0.2,0.2-0.5,0.5-0.8,0.4c-0.7,0-1.5-0.1-2.2-0.3c-1.3-0.4-2.4-1.1-3.4-1.9c-1.3-1.1-2.4-2.4-3.3-3.9c-0.5-0.9-0.9-1.9-1.2-3
				c-0.1-0.5-0.2-1-0.3-1.5c-0.3-2.2-0.1-4.3,0.9-6.3c0.7-1.4,1.6-2.6,3.1-3.1c0.3-0.1,0.7-0.1,1.1-0.1c0.4,0,0.5,0.4,0.5,0.7
				C67.2,29,67.2,29.2,67.3,29.4L67.3,29.4L67.3,29.4z"/>
			<path class="st15" d="M47.9,48.2c0.1,0.2,0.2,0.4,0.2,0.7c0.4,1.2,0.8,2.4,1.3,3.6c0,0.1,0.1,0.3,0.1,0.4c-0.1,0-0.3,0-0.3,0
				c-0.2,0.3-0.7,0.6-0.5,1c-0.1,0.2-0.2,0.4-0.3,0.5c-0.2,0.2-0.4,0.5-0.5,0.5c-0.6,0-0.7,0.3-0.5,0.8c-0.6-0.1-0.7,0.3-0.5,0.7
				c-0.7-0.1-1,0.2-0.7,0.9c0.1,0.4-0.1,0.9-0.5,1c-0.4,0.1-0.4,0.3-0.3,0.6c0.1,0.4,0.1,0.8,0.1,1.2c-0.1,0.9-0.4,1.8-0.2,2.7
				c0.5,2.1,1.7,3.6,3.6,4.7c1.4,0.8,3,1.2,4.5,1.5c0.9,0.2,1.8,0.2,2.7,0.2c1.6-0.1,3.3-0.2,4.9-0.7c1.2-0.4,2.5-0.8,3.7-1.1
				c-0.2-0.2-0.2-0.3-0.3-0.4c0.7,0.3,1.5,0.6,2.2,0.8c0.7,0.2,1.5,0.3,2.2,0.5c0.1,0,0.2,0.1,0.3,0.1c0,0,0,0,0,0v0
				c0.2,0.1,0.4,0.1,0.7,0.2c-0.3,0.2-0.7,0.4-1,0.6c-1.6,1.1-3.3,1.9-5.1,2.7c-1.7,0.7-3.5,1.2-5.4,1.6c-1.1,0.2-2.2,0.4-3.3,0.5
				c-1.9,0.1-3.8,0.1-5.7-0.3c-2.6-0.6-5-1.5-7.1-3.2c-1.6-1.3-2.8-2.8-3.3-4.9c-0.2-1-0.4-2-0.4-3c0-1.5,0.3-3,1-4.4
				c0.4-0.8,0.7-1.7,1.5-2.3c0.2-0.1,0.2-0.4,0.3-0.7c0.1-0.2,0.1-0.4,0.3-0.6c0.9-1,1.9-2,2.8-3c0.6-0.6,1.2-1.2,1.7-1.8
				c0.5-0.6,1-1.2,1.5-1.8C47.7,48,47.8,48.1,47.9,48.2L47.9,48.2L47.9,48.2z"/>
			<path class="st19" d="M76.5,68.7c0.6-0.1,1.2-0.1,1.8-0.2c0.3,0,0.6,0,1,0.1c-1.2,1-2.3,2-3.4,2.9c-1.1,0.9-2.2,1.7-3.3,2.5
				c-2.1,1.3-4.1,2.8-6.4,3.8c-1.7,0.7-3.3,1.6-4.9,2.3c-1.1,0.5-2.2,0.9-3.3,1.3c-1,0.4-2,0.8-3,1.2c-0.7,0.2-1.3,0.3-2,0.5
				c-1.3,0.3-2.6,0.5-3.9,0.7c-1.4,0.2-2.8,0.4-4.3,0.3c-1.9-0.1-3.8,0-5.7-0.5c-1.6-0.4-3.2-0.8-4.8-1.4c-2.4-1-4.6-2.4-6.5-4.2
				c-1.6-1.6-2.9-3.4-3.8-5.4c-0.4-0.8-0.6-1.7-0.9-2.5c-0.2-0.9-0.3-1.8-0.4-2.6c-0.1-0.9-0.1-1.9,0-2.9c0.3-1.9,0.8-3.8,1.8-5.5
				c0.6-1,1.2-2,1.8-3c0.5-0.8,1.2-1.4,1.9-2.1c0.8-0.8,1.6-1.6,2.4-2.3c0.5-0.5,1.1-1,1.7-1.5c1-0.8,2-1.5,3-2.2
				c0.3-0.2,0.7-0.5,1-0.7c0.2-0.2,0.5-0.3,0.8-0.4c1.3-0.8,2.6-1.7,3.9-2.5c1.5-1,3-2,4.5-3c0.4-0.3,0.9-0.6,1.3-0.8v1.5
				c-0.1,0-0.1,0-0.2,0c-0.7,0.5-1.3,1-2,1.5c-0.8,0.6-1.7,1.1-2.5,1.6c-0.7,0.4-1.3,0.9-2,1.3c-0.3,0.2-0.7,0.4-1.1,0.6
				c-1.3,0.9-2.5,1.8-3.7,2.7c-0.6,0.4-1.2,0.9-1.7,1.4c-0.6,0.5-1.2,1.1-1.8,1.7c-0.4,0.4-0.8,0.8-1.2,1.2c-0.5,0.5-1,1.1-1.4,1.7
				c-0.8,1.1-1.5,2.2-2,3.5C26.3,61,25.9,63,25.9,65c0,1.9,0.3,3.8,1,5.6c1,2.7,2.8,4.9,5,6.6c1.2,0.9,2.6,1.7,4,2.4
				c1.3,0.7,2.7,1.2,4.1,1.6c1,0.2,2.1,0.4,3.1,0.6c1.5,0.2,3,0.3,4.5,0.3c1.2,0,2.4-0.2,3.6-0.4c1.5-0.2,3-0.5,4.6-0.8
				c0.3-0.1,0.6-0.2,0.9-0.3c1.1-0.3,2.2-0.6,3.3-0.9c1-0.3,2.1-0.8,3-1.2c1.6-0.8,3.3-1.6,4.8-2.4c1.4-0.8,2.8-1.6,4.1-2.5
				c1.2-0.8,2.4-1.7,3.6-2.6c0.8-0.6,1.6-1.3,2.4-2.1C77.4,68.8,76.9,68.7,76.5,68.7C76.5,68.7,76.5,68.7,76.5,68.7z"/>
			<path class="st17" d="M46.8,40.5c-0.5,0.3-0.9,0.5-1.3,0.8c-1.5,1-3,2-4.5,3c-1.3,0.8-2.6,1.7-3.9,2.5c-0.2,0.2-0.5,0.3-0.8,0.4
				c-0.3,0.2-0.7,0.4-1,0.7c-1,0.7-2,1.4-3,2.2c-0.6,0.5-1.2,1-1.7,1.5c-0.8,0.8-1.6,1.5-2.4,2.3c-0.7,0.7-1.3,1.3-1.9,2.1
				c-0.7,0.9-1.3,2-1.8,3c-1,1.7-1.4,3.6-1.8,5.5c-0.1,0.9-0.1,1.9,0,2.9c0.1,0.9,0.2,1.8,0.4,2.6s0.5,1.7,0.9,2.5
				c0.9,2.1,2.2,3.9,3.8,5.4c1.9,1.8,4.1,3.2,6.5,4.2c1.5,0.7,3.2,1,4.8,1.4c1.9,0.5,3.8,0.4,5.7,0.5c1.5,0.1,2.8-0.1,4.3-0.3
				c1.3-0.2,2.6-0.5,3.9-0.7c0.7-0.1,1.4-0.2,2-0.5c1-0.3,2-0.8,3-1.2c1.1-0.4,2.2-0.8,3.3-1.3c1.7-0.7,3.3-1.6,4.9-2.3
				c2.3-1,4.3-2.5,6.4-3.8c1.2-0.7,2.3-1.6,3.3-2.5c1.2-0.9,2.2-1.9,3.4-2.9c-0.4,0-0.7,0-1-0.1c0.4,0,0.8-0.1,1.2-0.1
				c0,0,0.1-0.1,0.1-0.1c0.6-0.1,1.2-0.2,1.8-0.4c0.1,0,0.2,0.1,0.4,0.1c-0.1,0.1-0.2,0.3-0.3,0.4c-0.8,0.7-1.5,1.5-2.3,2.2
				c-1.2,1.1-2.5,2.2-3.8,3.1c-1.4,1-2.8,2-4.3,2.9c-1.7,1-3.4,2-5.2,2.9C63.9,80.4,62,81.2,60,82c-1.2,0.5-2.4,0.8-3.6,1.2
				c-1.5,0.5-3.1,1-4.7,1.3c-1.4,0.3-2.9,0.5-4.4,0.7c-1.6,0.2-3.2,0.3-4.8,0.4c-1,0-2-0.1-3-0.3c-1-0.1-2-0.2-3-0.4
				c-0.8-0.2-1.7-0.4-2.5-0.7c-1.6-0.5-3.1-1.1-4.5-2c-1.8-1.1-3.5-2.4-4.9-4c-0.8-0.9-1.5-1.9-2.2-2.9c-0.7-1.1-1.3-2.2-1.6-3.4
				c-0.2-0.9-0.5-1.8-0.7-2.7c-0.2-1.2-0.2-2.4,0-3.6c0.2-1,0.3-2.1,0.6-3.1c0.8-2.2,1.8-4.2,3.3-6c0.8-1,1.7-1.9,2.6-2.8
				c0.6-0.6,1.3-1.2,2-1.8c1.2-1,2.3-1.9,3.6-2.8c1.1-0.7,2.2-1.3,3.3-2c1.1-0.7,2.2-1.3,3.2-2c0.9-0.6,1.8-1.2,2.8-1.8
				c1.4-1,2.8-1.9,4.2-2.9c0.3-0.2,0.7-0.5,1.1-0.8L46.8,40.5L46.8,40.5L46.8,40.5z"/>
			<path class="st20" d="M69.7,68.5c-0.2-0.1-0.4-0.1-0.7-0.2v0c0,0,0,0,0,0c1.3,0.2,2.6,0.4,3.9,0.6c0.2,0,0.5,0.1,0.7,0.1
				c0,0.1-0.1,0.2-0.1,0.2c-0.9,0.7-1.8,1.4-2.8,2c-1.3,0.8-2.6,1.6-3.9,2.3c-1.4,0.8-2.9,1.6-4.4,2.2c-1.8,0.7-3.7,1.4-5.7,1.7
				c-1.9,0.3-3.8,0.6-5.7,0.6c-1.7,0-3.4,0-5.1-0.3c-2.6-0.6-5.1-1.5-7.4-2.9c-1.3-0.8-2.4-1.8-3.4-3c-1-1.2-1.8-2.4-2.3-3.8
				c-0.5-1.5-0.7-3.1-0.7-4.8c0-1.8,0.4-3.6,1.2-5.2c0.6-1.2,1.5-2.3,2.3-3.4c0.4-0.6,0.8-1.3,1.4-1.7c0.9-0.7,1.7-1.5,2.5-2.3
				c0.3-0.3,0.7-0.6,1.1-0.9c0.2-0.2,0.5-0.3,0.7-0.4c0.6-0.5,1.2-1,1.8-1.4c0.9-0.7,1.8-1.4,2.7-2.1c0.3-0.2,0.6-0.5,1-0.8
				c0.1,0.6,0.1,1,0.2,1.5c-0.3,0.2-0.5,0.4-0.8,0.7c-1.1,1-2.2,2.1-3.3,3.1c-0.2,0.2-0.5,0.4-0.8,0.6c-0.5,0.4-1,0.9-1.4,1.3
				c-0.4,0.4-0.8,0.7-1,1.2c-0.2,0.4-0.4,0.8-0.8,0.9c-0.1,0-0.2,0.1-0.3,0.2c-1,1.2-1.8,2.5-2.5,3.9c-0.9,2.1-1.1,4.3-0.8,6.5
				c0.4,2.3,1.5,4.3,3.1,6c1.3,1.4,3,2.4,4.7,3.2c2.4,1.1,4.8,1.7,7.4,1.8c1,0,2,0,2.9-0.1c1.6-0.2,3.2-0.3,4.7-0.7
				c2.4-0.5,4.6-1.5,6.8-2.5c1.7-0.8,3.2-1.8,4.8-2.7c0.4-0.2,0.8-0.6,1.2-0.9c0-0.1,0-0.1,0-0.2C70.8,68.6,70.3,68.6,69.7,68.5
				L69.7,68.5L69.7,68.5z"/>
			<path class="st21" d="M73.7,68.9c-0.2,0-0.5-0.1-0.7-0.1c1.2,0,2.3-0.1,3.5-0.1c0.4,0,0.8,0.1,1.3,0.1c-0.8,0.7-1.6,1.4-2.4,2.1
				c-1.2,0.9-2.3,1.8-3.6,2.6c-1.3,0.9-2.7,1.8-4.1,2.5c-1.6,0.9-3.2,1.7-4.8,2.4c-1,0.5-2,0.9-3,1.2c-1.1,0.4-2.2,0.6-3.3,0.9
				c-0.3,0.1-0.6,0.2-0.9,0.3c-1.5,0.3-3,0.6-4.6,0.8c-1.2,0.2-2.4,0.4-3.6,0.4c-1.5,0-3-0.1-4.5-0.3c-1-0.1-2.1-0.3-3.1-0.6
				c-1.4-0.3-2.8-0.8-4.1-1.6c-1.3-0.8-2.8-1.5-4-2.4c-2.3-1.7-4-3.9-5-6.6c-0.7-1.8-1-3.7-1-5.6c0-2,0.5-4,1.3-5.8
				c0.6-1.2,1.2-2.4,2-3.5c0.4-0.6,0.9-1.2,1.4-1.7c0.4-0.4,0.8-0.8,1.2-1.2c0.6-0.6,1.2-1.2,1.8-1.7c0.5-0.5,1.1-1,1.7-1.4
				c1.2-0.9,2.5-1.8,3.7-2.7c0.3-0.2,0.7-0.4,1.1-0.6c0.7-0.4,1.3-0.9,2-1.3c0.8-0.5,1.7-1.1,2.5-1.6c0.7-0.5,1.3-1,2-1.5
				c0,0,0.1,0,0.2,0c0,0.1,0,0.1,0,0.2h0l0-0.5c0,0.7,0,1.4,0.1,2.2c0-0.3-0.1-0.5-0.1-0.8c-0.2,0.1-0.3,0.2-0.4,0.3
				c-0.7,0.5-1.4,1.1-2.2,1.6c-0.8,0.6-1.7,1.1-2.5,1.7c-1.2,0.8-2.3,1.6-3.5,2.5c-0.1,0.1-0.2,0.1-0.2,0.2
				c-0.3,0.2-0.5,0.5-0.8,0.7c-1.1,0.9-2.4,1.8-3.4,2.8c-0.9,0.9-1.7,1.8-2.4,2.8c-1.2,1.6-1.9,3.4-2.6,5.3
				c-0.6,1.8-0.7,3.7-0.5,5.7c0.2,1.4,0.6,2.8,1.2,4.1c0.8,1.7,1.9,3.2,3.2,4.5c1.2,1.2,2.7,2.2,4.2,3c2,1.1,4.1,1.7,6.4,2.1
				c1,0.2,2,0.4,3,0.4c1.4,0.1,2.7,0.1,4.1,0c0.9,0,1.8-0.2,2.7-0.3c1.2-0.2,2.5-0.5,3.7-0.9c1.7-0.5,3.4-1,5.1-1.7
				c1.7-0.7,3.3-1.5,4.9-2.3c1.4-0.8,2.8-1.7,4.2-2.6c1.3-0.8,2.5-1.8,3.7-2.7c0.4-0.3,0.8-0.7,1.1-1l-0.1-0.1L73.7,68.9L73.7,68.9z
				"/>
			<path class="st22" d="M64.4,66.8c0.1,0.1,0.2,0.2,0.3,0.4c-1.3,0.4-2.5,0.8-3.7,1.1c-1.6,0.5-3.2,0.6-4.9,0.7
				c-0.9,0.1-1.8,0-2.7-0.2c-1.6-0.3-3.1-0.7-4.5-1.5c-1.9-1.1-3.1-2.6-3.6-4.7c-0.2-0.9,0.1-1.8,0.2-2.7c0-0.4,0-0.8-0.1-1.2
				c-0.1-0.3,0-0.5,0.3-0.6c0.4-0.1,0.6-0.6,0.5-1c-0.2-0.7,0-1,0.7-0.9c-0.1-0.5-0.1-0.8,0.5-0.7c-0.1-0.5-0.1-0.8,0.5-0.8
				c0.2,0,0.4-0.3,0.5-0.5c0.1-0.1,0.2-0.3,0.3-0.5c-0.2-0.4,0.3-0.7,0.5-1c0,0,0.2,0,0.3,0l0,0c0,0.1,0.1,0.1,0.1,0.2l0,0
				c0,0.1,0.1,0.1,0.1,0.2l0,0c0,0.1,0.1,0.1,0.1,0.2c0.2,0.5,0.5,0.9,0.7,1.4c-0.1,0-0.4,0-0.4,0.1c-0.2,0.6-1,1-0.6,1.8
				c0,0,0,0.2,0,0.2c-0.4,0.3-0.2,0.6-0.1,0.9c-0.6,0.2-0.6,0.2-0.3,0.8c0.1,0.2,0.1,0.4-0.2,0.5c-0.5,0.1-0.5,0.2-0.2,0.5
				c0.3,0.4,0.2,0.8,0.1,1.2c-0.1,0.1-0.4,0.2-0.6,0.3c-0.1,0.3,0,0.6,0.3,0.9c0.4,0.3,0.7,0.8,1,1.1c0.2,0.2,0.4,0.5,0.6,0.8
				c1.5,1.7,3.5,2.3,5.6,2.4c1.8,0.1,3.5,0,5.3-0.1c0.3,0,0.5-0.2,0.8-0.3c0.4,0.2,0.8,0.3,1.2,0.5l0,0c0.1,0,0.1,0.1,0.2,0.1l0,0
				c0.2,0.1,0.4,0.2,0.7,0.3l0,0C64.2,66.8,64.3,66.8,64.4,66.8L64.4,66.8L64.4,66.8L64.4,66.8z"/>
			<path class="st23" d="M61.9,65.8c-0.2,0.1-0.5,0.3-0.8,0.3c-1.8,0.1-3.6,0.2-5.3,0.1c-2.1-0.1-4.1-0.7-5.6-2.4
				c-0.2-0.2-0.4-0.5-0.6-0.8c-0.3-0.4-0.6-0.8-1-1.1c-0.3-0.3-0.4-0.6-0.3-0.9c0.2-0.1,0.5-0.1,0.6-0.3c0.2-0.4,0.2-0.8-0.1-1.2
				c-0.3-0.4-0.3-0.4,0.2-0.5c0.3-0.1,0.3-0.3,0.2-0.5c-0.3-0.5-0.3-0.5,0.3-0.8c-0.1-0.3-0.3-0.6,0.1-0.9c0,0,0-0.1,0-0.2
				c-0.4-0.8,0.4-1.2,0.6-1.8c0,0,0.2,0,0.4-0.1l0,0c0,0,0.1,0.1,0.1,0.1c0.8,1.2,1.6,2.3,2.4,3.5c2.2,3,5.1,5.3,8.3,7.1
				c0.1,0,0.2,0.1,0.2,0.2C61.8,65.7,61.9,65.8,61.9,65.8L61.9,65.8L61.9,65.8z"/>
			<path class="st5" d="M57.1,54.9C57.1,54.9,57.1,54.9,57.1,54.9c0,0.1,0.1,0.1,0.1,0.2c0,0.1,0.1,0.1,0.1,0.2c0,0,0,0.1,0.1,0.1
				c0,0,0,0.1,0,0.1c0,0,0,0.1,0.1,0.1c0.1,0.1,0.1,0.2,0.2,0.4c0,0,0,0.1,0.1,0.1c0.5,0.9,1.1,1.8,1.6,2.7c0,0-0.1,0-0.1,0
				c0,0-0.1-0.1-0.1-0.1c0,0,0,0-0.1-0.1c-0.6-0.5-1.1-1-1.7-1.5c-0.1-0.1-0.2-0.2-0.3-0.3c-0.1-0.3-0.1-0.6-0.2-0.9
				c-0.2-0.6-0.5-1.2-0.8-1.9c-0.8-1.6-1.7-3-2.9-4.3c-0.1-0.1-0.2-0.1-0.4-0.1c0,0,0-0.1,0-0.1c0-0.5,0-1,0-1.5v-0.4
				c0.1,0,0.1,0.1,0.2,0.2c0.4,0.5,0.8,0.9,1.2,1.4c0.2,0.3,0.3,0.6,0.5,0.9c0.6,1.2,1.1,2.3,1.7,3.4c0.1,0.2,0.3,0.4,0.4,0.6
				c0.1,0.2,0.2,0.4,0.3,0.6c0,0,0,0.1,0.1,0.1C57,54.7,57,54.8,57.1,54.9C57,54.8,57,54.9,57.1,54.9L57.1,54.9L57.1,54.9z"/>
			<path class="st15" d="M61.9,65.8c-0.1-0.1-0.2-0.2-0.3-0.3c0.5,0.2,1,0.5,1.5,0.7C62.7,66.1,62.3,66,61.9,65.8L61.9,65.8
				L61.9,65.8z"/>
			<path class="st15" d="M64,66.7c-0.2-0.1-0.4-0.2-0.7-0.3C63.5,66.5,63.8,66.6,64,66.7z"/>
			<path class="st15" d="M64.4,66.9c-0.2-0.1-0.3-0.1-0.5-0.2C64.1,66.7,64.3,66.8,64.4,66.9z"/>
			<path class="st15" d="M49.9,53.4c0-0.1-0.1-0.1-0.1-0.2C49.8,53.3,49.8,53.3,49.9,53.4z"/>
			<path class="st15" d="M49.8,53.2c0-0.1-0.1-0.1-0.1-0.2C49.7,53.1,49.7,53.1,49.8,53.2z"/>
			<path class="st22" d="M50.7,54.9C50.7,54.9,50.6,54.8,50.7,54.9C50.6,54.8,50.6,54.8,50.7,54.9z"/>
			<path class="st15" d="M49.7,53c0-0.1-0.1-0.1-0.1-0.2C49.6,52.9,49.6,53,49.7,53z"/>
			<path class="st15" d="M63.3,66.4c-0.1,0-0.1-0.1-0.2-0.1C63.2,66.3,63.3,66.3,63.3,66.4z"/>
			<path class="st24" d="M59.1,58.5c0,0,0.1,0.1,0.1,0.1C59.2,58.6,59.2,58.6,59.1,58.5z"/>
			<path class="st0" d="M52.7,47.5v0.4c0,0.5,0,1,0,1.5c-0.5,0.1-0.7-0.4-0.9-0.7c-0.7-1.2-1.4-2.4-2-3.7c-0.5-1.1-0.9-2.3-1.1-3.5
				c-0.3-1.4-0.4-2.8-0.1-4.2c0.3-1.6,0.9-3,1.8-4.2c0.6-0.8,1.3-1.5,1.9-2.2c0.1-0.1,0.2-0.1,0.3-0.1c0.6,0.8,0.6,0.8,0,1.5
				c-0.5,0.5-0.9,1.1-1.2,1.7c-0.2,0.5-0.2,1.1-0.2,1.7c0,0.2,0.1,0.5,0,0.7c-0.5,2-0.4,4,0.3,6c0.4,1.3,0.9,2.7,1.7,3.9
				c0.1,0.2,0.2,0.5-0.2,0.5C52.9,47,52.8,47.2,52.7,47.5L52.7,47.5L52.7,47.5z"/>
			<path class="st7" d="M56.7,54c-0.1-0.2-0.3-0.4-0.4-0.6c-0.6-1.1-1.1-2.3-1.7-3.4c-0.2-0.3-0.3-0.6-0.5-0.9
				c-0.1-0.2-0.2-0.5-0.3-0.8c0.1-0.1,0.2-0.2,0.3-0.4c0.1,0.1,0.2,0.3,0.4,0.4c0.7,0.8,1.4,1.7,2.2,2.5c0.7,0.7,1.5,1.3,2.3,1.9
				c0.2,0.1,0.5,0.1,0.7,0.2c0.3,0,0.6,0,0.8,0.1c0.6,0.2,1.2,0.5,1.9,0.6c0.2,0.1,0.6,0.1,0.8,0c0.8-0.4,1.7-0.3,2.6,0
				c0.7,0.2,1.4,0.3,2.1,0.5c0.1,0,0.2,0.1,0.2,0.2c-0.5,0.3-0.9,0.6-1.4,0.9c-0.3,0.2-0.6,0.3-1,0.4c-1.1,0.3-2.2,0.6-3.3,1
				c-0.8,0.3-1.5,0.1-2.1-0.3c-1.1-0.7-2.2-1.3-3.3-2C57,54,56.8,54,56.7,54L56.7,54L56.7,54z"/>
			<path class="st25" d="M53.8,48.3c0.1,0.2,0.2,0.5,0.3,0.8c-0.4-0.5-0.8-0.9-1.2-1.4c0-0.1-0.1-0.1-0.2-0.2
				c0.1-0.3,0.2-0.5,0.3-0.8C53.3,47.2,53.6,47.7,53.8,48.3L53.8,48.3L53.8,48.3z"/>
			<path class="st16" d="M73.7,68.9h2l0.1,0.1c-0.4,0.3-0.7,0.7-1.1,1c-1.2,0.9-2.4,1.8-3.7,2.7c-1.3,0.9-2.7,1.8-4.2,2.6
				c-1.6,0.9-3.2,1.7-4.9,2.3c-1.7,0.7-3.4,1.2-5.1,1.7c-1.2,0.3-2.4,0.6-3.7,0.9c-0.9,0.2-1.8,0.3-2.7,0.3c-1.4,0.1-2.8,0.1-4.1,0
				c-1-0.1-2-0.3-3-0.4c-2.2-0.4-4.4-1.1-6.4-2.1c-1.5-0.8-2.9-1.8-4.2-3c-1.4-1.3-2.5-2.8-3.2-4.5c-0.6-1.3-1-2.7-1.2-4.1
				c-0.2-1.9-0.1-3.8,0.5-5.7c0.6-1.8,1.4-3.7,2.6-5.3c0.7-1,1.6-1.9,2.4-2.8c1-1,2.3-1.8,3.4-2.8c0.3-0.2,0.5-0.5,0.8-0.7
				c0.1-0.1,0.2-0.2,0.2-0.2c1.2-0.8,2.3-1.6,3.5-2.5c0.8-0.6,1.7-1.1,2.5-1.7c0.7-0.5,1.5-1.1,2.2-1.6c0.1-0.1,0.2-0.2,0.4-0.3
				c0.1,0.3,0.1,0.6,0.1,0.8c0.1,0.7,0.3,1.5,0.4,2.2c0,0.1-0.1,0.2-0.1,0.3c-0.1-0.5-0.1-0.9-0.2-1.5c-0.4,0.3-0.7,0.5-1,0.8
				c-0.9,0.7-1.8,1.4-2.7,2.1c-0.6,0.5-1.2,1-1.8,1.4c-0.2,0.2-0.5,0.3-0.7,0.4c-0.4,0.3-0.8,0.6-1.1,0.9c-0.8,0.8-1.6,1.5-2.5,2.3
				c-0.6,0.5-1,1.1-1.4,1.7c-0.8,1.1-1.6,2.2-2.3,3.4c-0.8,1.6-1.2,3.3-1.2,5.2c0,1.6,0.1,3.2,0.7,4.8c0.5,1.4,1.3,2.7,2.3,3.8
				c1,1.2,2.1,2.2,3.4,3c2.3,1.4,4.8,2.3,7.4,2.9c1.7,0.4,3.4,0.4,5.1,0.3c1.9-0.1,3.8-0.3,5.7-0.6c2-0.3,3.8-1,5.7-1.7
				c1.5-0.6,3-1.4,4.4-2.2c1.3-0.7,2.6-1.4,3.9-2.3c1-0.6,1.8-1.3,2.8-2C73.6,69.1,73.6,69,73.7,68.9L73.7,68.9L73.7,68.9z"/>
			<path class="st26" d="M47.3,46.3c0-0.1,0.1-0.2,0.1-0.3c0.2,0.7,0.3,1.4,0.5,2.2c-0.1-0.1-0.2-0.2-0.3-0.3
				c-0.5,0.6-1,1.2-1.5,1.8c-0.6,0.6-1.2,1.2-1.7,1.8c-1,1-1.9,2-2.8,3c-0.1,0.2-0.2,0.4-0.3,0.6c-0.1,0.2-0.2,0.5-0.3,0.7
				c-0.8,0.6-1.1,1.5-1.5,2.3c-0.7,1.4-1,2.9-1,4.4c0,1,0.2,2,0.4,3c0.5,2,1.7,3.6,3.3,4.9c2.1,1.7,4.5,2.6,7.1,3.2
				c1.9,0.4,3.8,0.4,5.7,0.3c1.1,0,2.2-0.2,3.3-0.5c1.8-0.4,3.6-0.8,5.4-1.6c1.8-0.7,3.5-1.6,5.1-2.7c0.3-0.2,0.7-0.4,1-0.6
				c0.5,0.1,1,0.1,1.5,0.2c0,0.1,0,0.1,0,0.2c-0.4,0.3-0.8,0.6-1.2,0.9c-1.6,0.9-3.1,1.9-4.8,2.7c-2.2,1-4.4,2-6.8,2.5
				c-1.5,0.3-3.1,0.5-4.7,0.7c-1,0.1-2,0.1-2.9,0.1c-2.6-0.1-5.1-0.7-7.4-1.8c-1.8-0.8-3.4-1.8-4.7-3.2c-1.6-1.7-2.8-3.7-3.1-6
				c-0.3-2.2-0.1-4.4,0.8-6.5c0.6-1.4,1.5-2.7,2.5-3.9c0.1-0.1,0.2-0.2,0.3-0.2c0.5-0.2,0.6-0.5,0.8-0.9c0.2-0.5,0.6-0.8,1-1.2
				c0.5-0.5,1-0.9,1.4-1.3c0.2-0.2,0.5-0.4,0.8-0.6c1.1-1,2.2-2.1,3.3-3.1C46.8,46.8,47,46.6,47.3,46.3L47.3,46.3L47.3,46.3z"/>
			<path class="st26" d="M52.8,49.5c0.1,0,0.3,0,0.4,0.1c1.2,1.3,2.1,2.8,2.9,4.3c0.3,0.6,0.6,1.2,0.8,1.9c0.1,0.3,0.2,0.6,0.2,0.9
				c-0.2-0.2-0.4-0.3-0.7-0.5c-0.2-0.5-0.2-1-0.5-1.5c-0.6-1.2-1.3-2.3-2-3.4c-0.2-0.4-0.7-0.7-1-1.1c0,0-0.1,0-0.1,0
				c0-0.1-0.1-0.2-0.1-0.4c0,0,0,0,0-0.1C52.8,49.6,52.8,49.6,52.8,49.5z"/>
			<path class="st16" d="M52.9,50.1C52.9,50.1,53,50.1,52.9,50.1c0.2,0.2,0.2,0.4,0.3,0.6c1.3,1.4,2.1,3.1,2.7,4.9
				c-0.4-0.4-0.8-0.8-1.1-1.3c0-0.2,0.1-0.3,0-0.5c-0.1-0.3-0.2-0.6-0.3-0.8c-0.4-0.6-0.6-1.3-1.3-1.7C53.1,50.9,53,50.5,52.9,50.1
				L52.9,50.1L52.9,50.1z"/>
			<path class="st20" d="M55.9,55.6c-0.5-1.8-1.4-3.5-2.7-4.9c-0.1-0.1-0.2-0.4-0.2-0.6c0.3,0.4,0.7,0.7,1,1.1
				c0.7,1.1,1.3,2.3,2,3.4c0.2,0.5,0.3,1,0.5,1.5C56.2,56,56,55.8,55.9,55.6L55.9,55.6L55.9,55.6z"/>
			<path class="st19" d="M53.1,51.3c0.7,0.3,0.9,1.1,1.3,1.7c0.2,0.2,0.3,0.6,0.3,0.8c0,0.1,0,0.3,0,0.5
				C54,53.5,53.5,52.4,53.1,51.3C53.1,51.3,53.1,51.3,53.1,51.3z"/>
			<path class="st14" d="M47.2,36.8c0.1-0.4,0.2-0.9,0.3-1.3C47.4,35.9,47.3,36.3,47.2,36.8z"/>
			<path class="st8" d="M48.2,32.7v-0.4c0.1-0.1,0.1-0.1,0.2-0.2l0,0c0,0.1,0,0.2,0,0.3v0C48.4,32.5,48.3,32.6,48.2,32.7L48.2,32.7
				L48.2,32.7L48.2,32.7z"/>
			<path class="st8" d="M48.7,31.5c0,0.1,0,0.2,0,0.3v0c0,0.1-0.1,0.2-0.1,0.2l0,0c0,0,0,0-0.1,0l0,0C48.5,31.9,48.6,31.7,48.7,31.5
				z"/>
			<path class="st8" d="M48.1,33.1c0.1-0.2,0.1-0.3,0.2-0.5l0,0c0,0.1,0,0.2,0,0.3C48.2,33,48.1,33.1,48.1,33.1L48.1,33.1L48.1,33.1
				z"/>
			<path class="st18" d="M48.2,32.9c0-0.1,0-0.2,0-0.3c0-0.1,0.1-0.2,0.2-0.3C48.4,32.6,48.3,32.8,48.2,32.9z"/>
			<path class="st27" d="M47.8,34.5c0-0.1,0-0.2,0-0.4l0,0c0,0,0,0.1,0,0.1C47.8,34.3,47.8,34.4,47.8,34.5L47.8,34.5L47.8,34.5z"/>
			<path class="st27" d="M47.8,34.1c0-0.1,0.1-0.2,0.1-0.2C47.9,34,47.9,34.1,47.8,34.1C47.9,34.1,47.8,34.1,47.8,34.1z"/>
			<path class="st18" d="M48.5,32.1C48.5,32.1,48.5,32.1,48.5,32.1c0,0.1,0,0.2,0,0.3C48.4,32.3,48.4,32.2,48.5,32.1L48.5,32.1
				L48.5,32.1z"/>
			<path class="st18" d="M48.5,32.1c0-0.1,0.1-0.2,0.1-0.2C48.6,31.9,48.5,32,48.5,32.1z"/>
			<path class="st7" d="M52.8,49.7C52.8,49.7,52.8,49.7,52.8,49.7L52.8,49.7C52.8,49.7,52.8,49.7,52.8,49.7z"/>
			<path class="st14" d="M47.8,34.1L47.8,34.1c0.1,0,0,0.1,0,0.2C47.8,34.2,47.8,34.2,47.8,34.1L47.8,34.1L47.8,34.1z"/>
			<path class="st14" d="M48,33.6c0,0,0-0.1,0-0.1C48,33.5,48,33.6,48,33.6z"/>
			<path class="st27" d="M87.5,65.8c-0.2,0.1-0.3,0.2-0.5,0.2c-0.1,0-0.1-0.1-0.2-0.1c0.2-0.1,0.4-0.2,0.6-0.3
				c0.2-0.1,0.4-0.1,0.6-0.2C87.7,65.5,87.6,65.6,87.5,65.8L87.5,65.8z"/>
			<path class="st28" d="M82.7,67.6c-0.2,0.1-0.4,0.1-0.7,0.2C82.2,67.7,82.4,67.7,82.7,67.6z"/>
			<path class="st28" d="M82,67.8c-0.1,0.1-0.1,0.1-0.2,0.2c-0.1,0-0.2-0.1-0.4-0.1C81.6,67.9,81.8,67.8,82,67.8L82,67.8z"/>
			<path class="st4" d="M57.7,56C57.7,56,57.7,55.9,57.7,56C57.7,55.9,57.7,56,57.7,56z"/>
			<path class="st4" d="M57.5,55.5C57.5,55.5,57.4,55.5,57.5,55.5C57.4,55.5,57.4,55.5,57.5,55.5z"/>
			<path class="st4" d="M57.4,55.3C57.4,55.3,57.3,55.3,57.4,55.3C57.3,55.3,57.3,55.3,57.4,55.3z"/>
			<path class="st4" d="M57.2,55C57.2,55,57.1,55,57.2,55C57.1,55,57.1,55,57.2,55z"/>
			<path class="st4" d="M57,54.7C57,54.7,56.9,54.6,57,54.7C56.9,54.6,57,54.7,57,54.7z"/>
			<path class="st4" d="M57.1,54.9C57.1,54.9,57,54.8,57.1,54.9C57,54.8,57.1,54.9,57.1,54.9z"/>
			<path class="st9" d="M93.4,61.3c-0.1,0-0.1,0.1-0.2,0.1c0.2-0.2,0.4-0.4,0.7-0.6c-0.1,0.1-0.2,0.2-0.2,0.3c0,0-0.1,0.1-0.1,0.1
				C93.5,61.2,93.5,61.3,93.4,61.3z"/>
			<path class="st9" d="M94,60.7C94,60.7,94,60.7,94,60.7C94,60.7,94,60.7,94,60.7z"/>
			<path class="st9" d="M94.1,60.6C94.1,60.6,94.1,60.6,94.1,60.6C94.1,60.7,94.1,60.6,94.1,60.6z"/>
			<path class="st8" d="M93.6,61.2c0,0,0.1-0.1,0.1-0.1C93.7,61.1,93.6,61.1,93.6,61.2z"/>
			<path class="st14" d="M89.1,64.9c0,0,0.1-0.1,0.1-0.1c0,0,0,0,0,0C89.2,64.8,89.1,64.9,89.1,64.9L89.1,64.9z"/>
		</g>
	</g>
</g>
</svg>
