<svg width="28" height="36" viewBox="0 0 28 36" fill="none" xmlns="http://www.w3.org/2000/svg">
<circle cx="14" cy="9" r="8.625" fill="#FFD3EB" stroke="black" stroke-width="0.75"/>
<path d="M0.388391 35.625H0.379383C0.56488 27.6977 6.61515 21.375 14 21.375C21.3848 21.375 27.4351 27.6977 27.6206 35.625H27.6116H27.6014H27.591H27.5806H27.57H27.5592H27.5484H27.5374H27.5263H27.5151H27.5037H27.4922H27.4806H27.4689H27.457H27.4451H27.433H27.4207H27.4084H27.3959H27.3833H27.3706H27.3577H27.3448H27.3317H27.3185H27.3051H27.2917H27.2781H27.2644H27.2506H27.2367H27.2226H27.2084H27.1941H27.1797H27.1651H27.1505H27.1357H27.1208H27.1058H27.0906H27.0754H27.06H27.0445H27.0289H27.0132H26.9973H26.9814H26.9653H26.9491H26.9328H26.9164H26.8998H26.8831H26.8664H26.8495H26.8325H26.8153H26.7981H26.7808H26.7633H26.7457H26.728H26.7102H26.6923H26.6742H26.6561H26.6378H26.6194H26.601H26.5824H26.5636H26.5448H26.5259H26.5068H26.4877H26.4684H26.449H26.4295H26.4099H26.3902H26.3704H26.3505H26.3304H26.3103H26.29H26.2696H26.2492H26.2286H26.2079H26.1871H26.1662H26.1452H26.124H26.1028H26.0815H26.06H26.0385H26.0168H25.995H25.9732H25.9512H25.9291H25.9069H25.8846H25.8622H25.8397H25.8171H25.7944H25.7716H25.7487H25.7257H25.7025H25.6793H25.656H25.6326H25.609H25.5854H25.5616H25.5378H25.5139H25.4898H25.4657H25.4414H25.4171H25.3926H25.3681H25.3434H25.3187H25.2938H25.2689H25.2438H25.2187H25.1935H25.1681H25.1427H25.1171H25.0915H25.0658H25.0399H25.014H24.988H24.9618H24.9356H24.9093H24.8829H24.8564H24.8298H24.8031H24.7763H24.7494H24.7224H24.6953H24.6682H24.6409H24.6135H24.5861H24.5585H24.5309H24.5031H24.4753H24.4474H24.4194H24.3913H24.3631H24.3348H24.3064H24.2779H24.2493H24.2207H24.1919H24.1631H24.1342H24.1051H24.076H24.0468H24.0175H23.9882H23.9587H23.9291H23.8995H23.8698H23.8399H23.81H23.78H23.7499H23.7198H23.6895H23.6592H23.6287H23.5982H23.5676H23.5369H23.5061H23.4753H23.4443H23.4133H23.3822H23.351H23.3197H23.2883H23.2568H23.2253H23.1937H23.162H23.1302H23.0983H23.0663H23.0343H23.0022H22.97H22.9377H22.9053H22.8728H22.8403H22.8077H22.775H22.7422H22.7094H22.6764H22.6434H22.6103H22.5771H22.5439H22.5106H22.4771H22.4436H22.4101H22.3764H22.3427H22.3089H22.275H22.241H22.207H22.1729H22.1387H22.1044H22.0701H22.0357H22.0012H21.9666H21.9319H21.8972H21.8624H21.8275H21.7926H21.7576H21.7225H21.6873H21.652H21.6167H21.5813H21.5459H21.5103H21.4747H21.439H21.4033H21.3674H21.3315H21.2956H21.2595H21.2234H21.1872H21.1509H21.1146H21.0782H21.0417H21.0052H20.9686H20.9319H20.8952H20.8584H20.8215H20.7845H20.7475H20.7104H20.6732H20.636H20.5987H20.5613H20.5239H20.4864H20.4489H20.4112H20.3735H20.3358H20.2979H20.26H20.2221H20.184H20.146H20.1078H20.0696H20.0313H19.9929H19.9545H19.9161H19.8775H19.8389H19.8002H19.7615H19.7227H19.6839H19.6449H19.606H19.5669H19.5278H19.4887H19.4494H19.4101H19.3708H19.3314H19.2919H19.2524H19.2128H19.1732H19.1334H19.0937H19.0539H19.014H18.974H18.934H18.894H18.8538H18.8137H18.7734H18.7331H18.6928H18.6524H18.6119H18.5714H18.5308H18.4902H18.4495H18.4088H18.368H18.3271H18.2862H18.2453H18.2042H18.1632H18.122H18.0809H18.0396H17.9983H17.957H17.9156H17.8742H17.8327H17.7911H17.7495H17.7079H17.6662H17.6244H17.5826H17.5407H17.4988H17.4569H17.4148H17.3728H17.3307H17.2885H17.2463H17.204H17.1617H17.1194H17.077H17.0345H16.992H16.9494H16.9068H16.8642H16.8215H16.7787H16.736H16.6931H16.6502H16.6073H16.5643H16.5213H16.4782H16.4351H16.392H16.3488H16.3055H16.2622H16.2189H16.1755H16.1321H16.0886H16.0451H16.0015H15.9579H15.9143H15.8706H15.8269H15.7831H15.7393H15.6954H15.6515H15.6076H15.5636H15.5196H15.4755H15.4314H15.3873H15.3431H15.2989H15.2546H15.2103H15.166H15.1216H15.0772H15.0327H14.9882H14.9437H14.8991H14.8545H14.8098H14.7652H14.7204H14.6757H14.6309H14.5861H14.5412H14.4963H14.4513H14.4064H14.3613H14.3163H14.2712H14.2261H14.1809H14.1358H14.0905H14.0453H14H13.9547H13.9095H13.8642H13.8191H13.7739H13.7288H13.6837H13.6387H13.5936H13.5487H13.5037H13.4588H13.4139H13.3691H13.3243H13.2796H13.2348H13.1902H13.1455H13.1009H13.0563H13.0118H12.9673H12.9228H12.8784H12.834H12.7897H12.7454H12.7011H12.6569H12.6127H12.5686H12.5245H12.4804H12.4364H12.3924H12.3485H12.3046H12.2607H12.2169H12.1731H12.1294H12.0857H12.0421H11.9985H11.9549H11.9114H11.8679H11.8245H11.7811H11.7378H11.6945H11.6512H11.608H11.5649H11.5218H11.4787H11.4357H11.3927H11.3498H11.3069H11.264H11.2213H11.1785H11.1358H11.0932H11.0506H11.008H10.9655H10.923H10.8806H10.8383H10.796H10.7537H10.7115H10.6693H10.6272H10.5852H10.5431H10.5012H10.4593H10.4174H10.3756H10.3338H10.2921H10.2505H10.2089H10.1673H10.1258H10.0844H10.043H10.0017H9.96037H9.91913H9.87795H9.83683H9.79576H9.75474H9.71378H9.67287H9.63202H9.59122H9.55048H9.50979H9.46916H9.42859H9.38807H9.34761H9.3072H9.26686H9.22656H9.18633H9.14615H9.10604H9.06598H9.02597H8.98603H8.94615H8.90632H8.86655H8.82684H8.7872H8.74761H8.70808H8.66861H8.6292H8.58986H8.55057H8.51134H8.47218H8.43307H8.39403H8.35505H8.31614H8.27728H8.23849H8.19976H8.16109H8.12249H8.08395H8.04547H8.00706H7.96871H7.93042H7.8922H7.85404H7.81595H7.77793H7.73997H7.70207H7.66424H7.62648H7.58878H7.55115H7.51359H7.47609H7.43866H7.40129H7.364H7.32677H7.28961H7.25252H7.21549H7.17854H7.14165H7.10483H7.06808H7.0314H6.99479H6.95825H6.92178H6.88538H6.84905H6.8128H6.77661H6.74049H6.70445H6.66847H6.63257H6.59674H6.56098H6.5253H6.48968H6.45414H6.41867H6.38328H6.34796H6.31271H6.27754H6.24244H6.20742H6.17247H6.13759H6.10279H6.06807H6.03342H5.99884H5.96434H5.92992H5.89558H5.86131H5.82711H5.793H5.75896H5.725H5.69111H5.65731H5.62358H5.58993H5.55635H5.52286H5.48945H5.45611H5.42286H5.38968H5.35658H5.32356H5.29063H5.25777H5.22499H5.1923H5.15969H5.12715H5.0947H5.06233H5.03004H4.99784H4.96571H4.93367H4.90171H4.86983H4.83804H4.80633H4.77471H4.74316H4.71171H4.68033H4.64904H4.61784H4.58672H4.55568H4.52473H4.49387H4.46309H4.43239H4.40179H4.37127H4.34083H4.31049H4.28023H4.25005H4.21997H4.18997H4.16006H4.13024H4.1005H4.07086H4.0413H4.01184H3.98246H3.95317H3.92397H3.89486H3.86584H3.83691H3.80807H3.77932H3.75066H3.7221H3.69362H3.66524H3.63695H3.60875H3.58064H3.55262H3.5247H3.49687H3.46913H3.44149H3.41394H3.38648H3.35912H3.33185H3.30467H3.27759H3.25061H3.22372H3.19692H3.17022H3.14361H3.11711H3.09069H3.06438H3.03816H3.01203H2.98601H2.96008H2.93424H2.90851H2.88287H2.85733H2.83189H2.80655H2.7813H2.75616H2.73111H2.70617H2.68132H2.65657H2.63192H2.60737H2.58293H2.55858H2.53433H2.51019H2.48614H2.4622H2.43836H2.41462H2.39098H2.36744H2.34401H2.32068H2.29745H2.27433H2.25131H2.22839H2.20558H2.18287H2.16026H2.13776H2.11536H2.09307H2.07088H2.0488H2.02683H2.00496H1.98319H1.96153H1.93998H1.91854H1.8972H1.87596H1.85484H1.83382H1.81291H1.79211H1.77142H1.75083H1.73035H1.70998H1.68972H1.66957H1.64953H1.6296H1.60978H1.59007H1.57046H1.55097H1.53159H1.51232H1.49316H1.47411H1.45518H1.43635H1.41764H1.39904H1.38055H1.36218H1.34391H1.32576H1.30773H1.2898H1.27199H1.2543H1.23671H1.21925H1.20189H1.18465H1.16753H1.15052H1.13363H1.11685H1.10019H1.08364H1.06721H1.0509H1.0347H1.01862H1.00266H0.986815H0.971087H0.955476H0.939984H0.924609H0.909353H0.894216H0.879197H0.864297H0.849516H0.834855H0.820314H0.805892H0.79159H0.777409H0.763348H0.749407H0.735588H0.72189H0.708313H0.694858H0.681524H0.668313H0.655223H0.642257H0.629412H0.616691H0.604092H0.591617H0.579266H0.567038H0.554934H0.542954H0.531099H0.519368H0.507762H0.49628H0.484924H0.473694H0.462589H0.45161H0.440757H0.43003H0.41943H0.408957H0.39861H0.388391Z" fill="#FFD3EB" stroke="black" stroke-width="0.75"/>
</svg>
