<svg width="121" height="62" viewBox="0 0 121 62" fill="none" xmlns="http://www.w3.org/2000/svg">
<path d="M54.1282 39.0867C54.7088 39.7928 55.2925 40.4989 55.8972 41.2323C56.4839 40.3353 56.9889 39.5625 57.5634 38.6867C56.2571 36.9745 54.9266 35.0653 52.8128 34.1198C51.6607 33.6047 50.2727 33.5774 48.9785 33.4501C48.0471 33.3592 47.0915 33.5259 46.1541 33.4683C44.1916 33.3501 42.9578 32.0894 42.8762 30.1196C42.8217 28.8408 42.8671 27.5589 42.8671 26.0528C43.1816 26.7407 43.4749 27.2801 43.6745 27.8559C43.8952 28.4953 44.0162 29.1711 44.1976 29.8257C44.8266 32.1106 46.4898 33.0228 48.7517 32.344C49.5016 32.1197 49.8977 31.7197 49.42 30.947C48.3888 29.2832 47.3395 27.6286 46.2811 25.98C45.386 24.583 44.497 23.1829 43.5475 21.8253C43.2179 21.3525 42.7673 20.9222 42.2895 20.598C39.6315 18.7918 39.7131 16.6432 41.2493 13.8128C41.4247 13.4916 41.4791 13.0764 41.4851 12.7036C41.4912 12.2885 41.3733 11.8703 41.2583 11.1369C41.8752 11.5187 42.2048 11.7218 42.6615 12.0036C43.2148 11.2005 43.7833 10.3793 44.3488 9.555C44.4577 9.61561 44.5665 9.67925 44.6754 9.73985C44.5484 10.1096 44.4063 10.4763 44.3004 10.8551C44.1492 11.3975 43.9376 11.946 43.9255 12.4945C43.9194 12.8521 44.1432 13.3915 44.4153 13.5188C44.6512 13.6279 45.2227 13.3703 45.4405 13.1067C46.2539 12.1188 46.9464 11.0339 47.7568 10.0459C48.292 9.39135 48.9513 8.83981 49.553 8.23978C49.6528 8.30948 49.7556 8.37918 49.8554 8.44888C49.6377 8.92163 49.4593 9.4156 49.1932 9.86107C48.2316 11.4854 47.2034 13.0673 46.272 14.7098C44.7389 17.413 44.5817 20.2434 46.1692 22.9132C47.7447 25.5649 49.4714 28.1529 51.4037 30.5469C52.4862 31.8894 54.1827 32.7167 55.492 33.8986C56.8256 35.1017 57.9414 35.9775 59.9977 35.0502C61.5278 34.3592 63.4238 34.7047 64.9872 35.8866C69.1814 31.6712 73.424 27.5741 75.9188 22.1011C76.5024 20.8192 76.8501 19.3797 77.0406 17.9736C77.3491 15.7129 76.5447 13.7522 74.9844 12.0854C74.2102 11.2611 73.4633 10.4035 72.795 9.49439C72.3898 8.94285 72.157 8.26402 71.8485 7.64581C71.9635 7.5549 72.0784 7.46399 72.1933 7.37307C72.5138 7.70945 72.9493 7.99128 73.1337 8.38827C73.7839 9.77319 75.0539 10.4823 76.206 11.3005C76.959 11.8369 77.6575 11.5218 77.9388 10.6157C78.347 9.30044 77.9781 8.08523 77.4398 6.89123C77.0437 6.01543 76.6808 5.12448 76.4389 4.18201C78.3803 5.40328 78.8762 7.36095 79.0002 9.40954C79.109 11.249 78.976 13.1037 78.9548 14.9553C78.9488 15.3826 78.9548 15.8068 79.0485 16.2402C79.8529 14.6522 78.5073 12.6733 79.9467 11.1278C80.4154 12.5673 80.9929 13.8704 81.2197 15.2371C81.3346 15.9371 81.0504 17.016 80.5424 17.4524C79.0274 18.7585 78.1535 20.4192 77.2463 22.1283C76.0125 24.4557 74.6094 26.6952 73.297 28.9832C73.0007 29.5014 72.789 30.0651 72.544 30.5954C74.0953 31.5955 76.4782 31.25 77.6606 29.6226C78.7522 28.1195 79.5082 26.377 80.3186 24.9103C81.0353 27.2346 79.1967 30.9409 76.5447 31.8682C75.6043 32.1985 74.5247 32.4864 73.5692 32.35C71.02 31.9894 69.3961 33.2168 68.0384 35.1047C67.3126 36.1169 66.5808 37.126 65.9277 38.1837C65.7583 38.4564 65.7644 38.9352 65.8702 39.2595C66.1393 40.0959 66.5083 40.899 66.9195 41.9263C67.739 42.096 68.4315 41.5444 68.9062 40.6565C69.3266 39.8686 69.6743 39.0443 70.1098 38.117C70.7539 39.8686 69.1542 42.7566 67.4185 43.0021C66.481 43.1324 66.1756 43.5476 65.9609 44.3628C65.3229 46.7992 64.7393 49.26 63.8774 51.6207C63.5055 52.6419 62.5167 53.445 61.7607 54.3087C61.7032 54.3754 61.1831 54.1966 61.041 54.0057C60.0824 52.748 59.024 51.648 58.8002 49.8509C58.5734 48.0205 57.5665 46.2992 57.0766 44.484C56.7198 43.1657 56.1996 42.096 55.0687 41.2565C54.476 40.8141 54.1615 39.9959 53.72 39.3474C53.8591 39.2625 53.9982 39.1746 54.1373 39.0898L54.1282 39.0867ZM42.855 16.128C42.0536 17.7796 42.3107 18.7918 43.5656 18.9252C43.3388 18.0251 43.1302 17.2069 42.855 16.128Z" fill="#E9F35A"/>
<path d="M49.1207 47.3023C51.4249 48.7509 50.1609 51.0904 50.8534 52.8389C50.7113 52.9329 50.681 52.9693 50.6478 52.9723C49.1156 53.0935 48.3314 52.3773 48.2951 50.8237C48.2921 50.6722 48.2861 50.5207 48.28 50.3722C48.2286 48.2781 47.8264 47.9326 45.5917 48.2236V52.9359H43.2754V41.2172C44.993 41.2172 46.6471 41.1353 48.2891 41.2475C49.3626 41.3202 50.179 41.9505 50.4935 43.0779C50.8473 44.3507 50.7657 45.5477 49.8978 46.6023C49.6892 46.8568 49.4049 47.0538 49.1237 47.3053L49.1207 47.3023ZM45.876 42.5112C45.7701 42.6384 45.6643 42.7657 45.5554 42.89V46.8599C46.5775 46.4477 47.6057 46.3417 47.9867 45.7871C48.3617 45.2386 48.3738 44.0446 48.0079 43.49C47.642 42.9354 46.6108 42.8172 45.873 42.5081L45.876 42.5112Z" fill="#E9F35A"/>
<path d="M110.831 45.484V40.9475H113.114V52.6359H110.84V47.4084H108.079V52.6359H105.826V40.9414H108.055C108.055 42.1263 108.115 43.2536 108.037 44.3688C107.973 45.3022 108.342 45.5841 109.204 45.4962C109.682 45.4477 110.172 45.4871 110.831 45.4871V45.484Z" fill="#E9F35A"/>
<path d="M79.2332 40.9141H81.48C81.48 41.7747 81.48 42.5899 81.48 43.4051C81.48 45.2537 81.4619 47.1023 81.4921 48.9508C81.5012 49.5084 81.5103 50.1357 81.7643 50.5964C81.9759 50.9782 82.5384 51.3509 82.9587 51.3691C83.3216 51.3843 83.8629 50.9752 84.0443 50.6115C84.2832 50.1357 84.3074 49.5206 84.3134 48.963C84.3407 46.775 84.3225 44.587 84.3255 42.399C84.3255 41.3505 84.8326 40.8393 85.8466 40.8656C86.031 40.8716 86.2125 40.8929 86.4604 40.911C86.5028 41.1474 86.5693 41.3595 86.5723 41.5717C86.5784 44.2506 86.6026 46.9295 86.5663 49.6084C86.536 51.8267 85.263 52.9874 82.9496 53.0056C80.5396 53.0238 79.2937 51.9813 79.2453 49.7418C79.1848 46.8416 79.2302 43.9415 79.2302 40.9171L79.2332 40.9141Z" fill="#E9F35A"/>
<path d="M25.1743 41.3384C25.1743 42.5354 25.1743 43.7718 25.1743 45.0052C25.1743 46.6659 25.2106 48.3266 25.1562 49.9873C25.0897 52.0571 23.7954 53.2208 21.6273 53.2571C19.1537 53.2965 17.8866 52.3268 17.811 50.1085C17.7173 47.3932 17.7869 44.6749 17.7687 41.9596C17.7657 41.3838 17.9895 41.1262 18.5701 41.1565C19.0116 41.1778 19.453 41.1596 20.0336 41.1596C20.0336 43.2385 20.0276 45.1901 20.0336 47.1417C20.0397 48.1963 20.0246 49.2569 20.1153 50.3055C20.1818 51.0752 20.5598 51.6783 21.467 51.6813C22.3802 51.6813 22.7703 51.0964 22.7915 50.3055C22.858 47.8569 22.8701 45.4052 22.8852 42.9536C22.8973 40.9717 23.0183 40.8717 25.1713 41.3384H25.1743Z" fill="#E9F35A"/>
<path d="M87.9119 49.2691H89.95C90.0135 49.5964 89.9742 50.0055 90.1587 50.2267C90.5337 50.6783 90.9903 51.2722 91.4892 51.351C91.9337 51.4237 92.7744 50.9843 92.9075 50.5904C93.0859 50.0631 92.9649 49.1236 92.593 48.7873C91.9549 48.2084 91.0326 47.9357 90.2071 47.5781C88.3867 46.7902 87.6337 45.4386 87.9694 43.5021C88.3141 41.5293 90.3462 40.4384 92.6474 40.9899C94.5464 41.4445 95.2329 42.3324 95.0031 44.1022C94.1019 44.1294 93.0859 44.6477 92.6867 43.1627C92.599 42.8324 91.8491 42.4597 91.4469 42.5021C91.0477 42.5445 90.4097 43.0749 90.3976 43.4082C90.3764 44.0022 90.579 44.8052 90.9933 45.1689C91.589 45.6901 92.4629 45.8992 93.2159 46.2417C94.4436 46.7993 95.4173 47.5357 95.4748 49.06C95.5474 50.9146 95.0303 51.9541 93.6241 52.5935C92.0275 53.3178 89.6204 53.0784 88.5923 52.0874C87.918 51.4389 87.7063 50.6116 87.9149 49.26L87.9119 49.2691Z" fill="#E9F35A"/>
<path d="M16.3114 44.3962C15.3135 44.4325 14.2823 44.878 13.9769 43.3567C13.9225 43.0779 13.112 42.7688 12.6766 42.8052C12.3046 42.8385 11.6878 43.3416 11.6878 43.6446C11.6817 44.2477 11.842 45.0871 12.2563 45.4114C13.0032 45.9993 13.9981 46.266 14.878 46.6932C16.1783 47.3236 16.9071 48.2873 16.8285 49.8237C16.7347 51.6662 15.9848 52.7663 14.1613 53.0602C13.1181 53.2299 12.0113 53.0814 10.9439 52.9693C10.578 52.9299 10.0669 52.6511 9.93085 52.342C9.57705 51.548 9.39259 50.6813 9.1416 49.8419C9.82804 49.6904 10.5145 49.5358 11.2765 49.3691C11.343 49.8419 11.3733 50.0934 11.4126 50.3419C11.5396 51.1541 11.9992 51.7571 12.8248 51.6359C13.36 51.5571 14.0646 51.1692 14.2823 50.7207C14.6089 50.0419 14.4819 49.1964 13.6624 48.7661C13.0334 48.4358 12.3591 48.1842 11.7029 47.9024C9.59519 47.0054 8.7999 45.4417 9.41073 43.4022C9.91573 41.7112 11.7361 40.8111 13.8106 41.2263C15.7761 41.6203 16.5291 42.5294 16.3174 44.3931L16.3114 44.3962Z" fill="#E9F35A"/>
<path d="M37.8231 42.999V46.0083H41.5638V47.8326H37.7627C37.7627 48.8296 37.7143 49.7297 37.7989 50.6176C37.8171 50.8176 38.2949 51.1146 38.5731 51.1267C39.695 51.1843 40.8229 51.151 42.0234 51.151V52.945H35.4766V41.1687C37.4693 41.1687 39.4198 41.1384 41.3672 41.1868C41.975 41.202 42.0294 41.5353 41.7422 42.996H37.8262L37.8231 42.999Z" fill="#E9F35A"/>
<path d="M104.027 44.8386H101.982C101.886 44.3658 101.91 43.8204 101.668 43.4507C101.393 43.0324 100.876 42.5173 100.464 42.5142C100.053 42.5142 99.3032 43.084 99.288 43.4325C99.1792 45.7538 99.1731 48.0812 99.2759 50.4025C99.2911 50.7601 100.041 51.3753 100.416 51.348C100.873 51.3177 101.441 50.8146 101.689 50.3661C101.964 49.8722 101.931 49.2085 102.046 48.5388H104.09C104.526 50.8207 103.47 52.5662 101.462 52.9511C99.0673 53.4117 97.1017 52.2784 96.8477 49.9873C96.627 47.9812 96.636 45.9144 96.8477 43.9082C97.0806 41.69 99.031 40.5111 101.341 40.8929C103.331 41.2233 104.284 42.5718 104.03 44.8356L104.027 44.8386Z" fill="#E9F35A"/>
<path d="M29.1087 52.9359H26.874V41.2354C28.4797 41.2354 30.1006 41.0778 31.676 41.2778C33.4148 41.499 34.201 42.9354 34.0559 45.0598C33.9349 46.8538 32.8161 47.9266 30.8807 48.0993C29.6994 48.2044 29.1087 48.863 29.1087 50.0752C29.1087 51.0086 29.1087 51.9389 29.1087 52.9329V52.9359ZM29.1178 46.372L29.4262 46.7326C30.0975 46.4599 31.0682 46.3629 31.3646 45.8659C31.7244 45.2659 31.676 44.284 31.5007 43.5385C31.3071 42.7112 30.4453 42.6718 29.7256 42.7748C29.4988 42.8082 29.1601 43.1476 29.145 43.3658C29.0815 44.3658 29.1178 45.3719 29.1178 46.375V46.372Z" fill="#E9F35A"/>
<path d="M75.771 52.5995C75.4504 52.6723 75.3446 52.7147 75.2357 52.7208C74.0524 52.7874 73.4607 52.2157 73.4607 51.0055C73.4607 48.7024 73.4607 46.3992 73.4607 44.0931C73.4607 43.69 73.4607 43.287 73.4607 42.796C72.5505 42.7536 71.7794 42.7172 70.9629 42.6778V40.9384H78.2052C78.2324 41.4566 78.2597 41.999 78.2929 42.6718C77.4281 42.7112 76.66 42.7475 75.771 42.79V52.5965V52.5995Z" fill="#E9F35A"/>
<path d="M42.8549 16.1281C43.13 17.2069 43.3357 18.0251 43.5655 18.9252C42.3106 18.7918 42.0535 17.7796 42.8549 16.1281Z" fill="#E9F35A"/>
<path d="M45.8761 42.5112C46.614 42.8203 47.6451 42.9385 48.011 43.4931C48.3769 44.0477 48.3648 45.2417 47.9898 45.7902C47.6088 46.3448 46.5777 46.4508 45.5586 46.863V42.8931C45.6644 42.7658 45.7703 42.6385 45.8791 42.5143L45.8761 42.5112Z" stroke="#E9F35A" stroke-miterlimit="10"/>
<path d="M29.1177 46.3719C29.1177 45.3688 29.0815 44.3627 29.145 43.3627C29.1571 43.1445 29.4988 42.8051 29.7256 42.7717C30.4483 42.6687 31.3071 42.7081 31.5006 43.5354C31.673 44.2809 31.7214 45.2628 31.3645 45.8628C31.0682 46.3598 30.0975 46.4568 29.4262 46.7295L29.1177 46.3689V46.3719Z" stroke="#E9F35A" stroke-miterlimit="10"/>
</svg>
