<svg width="122" height="63" viewBox="0 0 122 63" fill="none" xmlns="http://www.w3.org/2000/svg">
<path d="M54.1634 40.0278C54.744 40.7339 55.3276 41.44 55.9324 42.1733C56.5191 41.2763 57.024 40.5036 57.5986 39.6278C56.2923 37.9156 54.9617 36.0064 52.848 35.0609C51.6959 34.5457 50.3079 34.5184 49.0136 34.3911C48.0823 34.3002 47.1267 34.4669 46.1893 34.4093C44.2267 34.2911 42.993 33.0305 42.9113 31.0607C42.8569 29.7818 42.9022 28.4999 42.9022 26.9938C43.2167 27.6817 43.5101 28.2211 43.7096 28.7969C43.9304 29.4364 44.0513 30.1121 44.2328 30.7667C44.8618 33.0517 46.5249 33.9639 48.7868 33.285C49.5368 33.0608 49.9329 32.6608 49.4551 31.888C48.424 30.2243 47.3747 28.5696 46.3163 26.9211C45.4212 25.524 44.5321 24.124 43.5826 22.7663C43.253 22.2936 42.8025 21.8633 42.3247 21.539C39.6666 19.7329 39.7483 17.5843 41.2844 14.7538C41.4598 14.4326 41.5143 14.0174 41.5203 13.6447C41.5263 13.2295 41.4084 12.8113 41.2935 12.0779C41.9104 12.4598 42.24 12.6628 42.6966 12.9446C43.25 12.1416 43.8185 11.3203 44.384 10.496C44.4928 10.5566 44.6017 10.6203 44.7106 10.6809C44.5836 11.0506 44.4414 11.4173 44.3356 11.7961C44.1844 12.3386 43.9727 12.8871 43.9606 13.4356C43.9546 13.7932 44.1783 14.3326 44.4505 14.4599C44.6864 14.569 45.2579 14.3114 45.4756 14.0477C46.2891 13.0598 46.9815 11.9749 47.792 10.987C48.3272 10.3324 48.9864 9.78085 49.5882 9.18082C49.688 9.25052 49.7908 9.32022 49.8906 9.38992C49.6728 9.86267 49.4944 10.3566 49.2283 10.8021C48.2667 12.4264 47.2386 14.0083 46.3072 15.6508C44.7741 18.354 44.6168 21.1844 46.2044 23.8543C47.7799 26.5059 49.5065 29.0939 51.4388 31.488C52.5214 32.8305 54.2178 33.6578 55.5272 34.8397C56.8608 36.0427 57.9766 36.9185 60.0329 35.9912C61.563 35.3003 63.459 35.6458 65.0224 36.8276C69.2166 32.6123 73.4592 28.5151 75.9539 23.0421C76.5375 21.7602 76.8853 20.3208 77.0758 18.9146C77.3842 16.6539 76.5799 14.6932 75.0195 13.0265C74.2454 12.2022 73.4985 11.3446 72.8302 10.4354C72.425 9.88389 72.1921 9.20506 71.8837 8.58685C71.9986 8.49594 72.1135 8.40503 72.2284 8.31411C72.549 8.65049 72.9844 8.93232 73.1689 9.32931C73.819 10.7142 75.0891 11.4234 76.2412 12.2416C76.9942 12.778 77.6927 12.4628 77.9739 11.5567C78.3821 10.2415 78.0132 9.02627 77.475 7.83227C77.0788 6.95647 76.716 6.06552 76.474 5.12305C78.4154 6.34432 78.9113 8.30199 79.0353 10.3506C79.1442 12.1901 79.0111 14.0447 78.99 15.8963C78.9839 16.3236 78.99 16.7479 79.0837 17.1812C79.8881 15.5933 78.5424 13.6144 79.9818 12.0688C80.4505 13.5083 81.0281 14.8114 81.2549 16.1781C81.3698 16.8782 81.0856 17.957 80.5775 18.3934C79.0625 19.6995 78.1886 21.3602 77.2814 23.0694C76.0477 25.3968 74.6446 27.6363 73.3322 29.9243C73.0358 30.4425 72.8241 31.0061 72.5792 31.5365C74.1305 32.5365 76.5134 32.191 77.6957 30.5637C78.7874 29.0606 79.5433 27.3181 80.3538 25.8513C81.0704 28.1757 79.2319 31.8819 76.5799 32.8092C75.6394 33.1396 74.5599 33.4275 73.6043 33.2911C71.0551 32.9305 69.4313 34.1578 68.0735 36.0458C67.3478 37.0579 66.616 38.0671 65.9628 39.1247C65.7935 39.3974 65.7995 39.8763 65.9054 40.2005C66.1745 41.0369 66.5434 41.84 66.9547 42.8673C67.7742 43.037 68.4666 42.4855 68.9414 41.5976C69.3617 40.8096 69.7095 39.9854 70.1449 39.058C70.789 40.8096 69.1894 43.6977 67.4536 43.9431C66.5162 44.0734 66.2108 44.4886 65.9961 45.3038C65.358 47.7403 64.7744 50.201 63.9126 52.5617C63.5406 53.583 62.5518 54.3861 61.7958 55.2497C61.7384 55.3164 61.2183 55.1376 61.0761 54.9467C60.1175 53.6891 59.0592 52.589 58.8354 50.7919C58.6086 48.9616 57.6016 47.2403 57.1117 45.425C56.7549 44.1068 56.2348 43.037 55.1038 42.1976C54.5112 41.7551 54.1967 40.9369 53.7552 40.2884C53.8943 40.2035 54.0334 40.1157 54.1725 40.0308L54.1634 40.0278ZM42.8901 17.0691C42.0888 18.7207 42.3458 19.7329 43.6008 19.8662C43.374 18.9661 43.1653 18.1479 42.8901 17.0691Z" fill="#9BBEBB"/>
<path d="M49.1558 48.2431C51.4601 49.6917 50.1961 52.0312 50.8885 53.7797C50.7464 53.8737 50.7162 53.9101 50.6829 53.9131C49.1508 54.0343 48.3666 53.3181 48.3303 51.7645C48.3273 51.613 48.3212 51.4614 48.3152 51.313C48.2638 49.2189 47.8616 48.8734 45.6269 49.1644V53.8767H43.3105V42.158C45.0281 42.158 46.6822 42.0761 48.3242 42.1883C49.3977 42.261 50.2142 42.8913 50.5287 44.0187C50.8825 45.2914 50.8008 46.4885 49.933 47.5431C49.7243 47.7976 49.4401 47.9946 49.1588 48.2461L49.1558 48.2431ZM45.9111 43.452C45.8053 43.5792 45.6995 43.7065 45.5906 43.8308V47.8007C46.6127 47.3885 47.6408 47.2825 48.0218 46.7279C48.3968 46.1794 48.4089 44.9854 48.043 44.4308C47.6771 43.8762 46.646 43.758 45.9081 43.4489L45.9111 43.452Z" fill="#9BBEBB"/>
<path d="M110.866 46.425V41.8884H113.149V53.5768H110.875V48.3493H108.114V53.5768H105.861V41.8823H108.09C108.09 43.0672 108.15 44.1946 108.072 45.3098C108.008 46.2431 108.377 46.525 109.239 46.4371C109.717 46.3886 110.207 46.428 110.866 46.428V46.425Z" fill="#9BBEBB"/>
<path d="M79.2684 41.8551H81.5152C81.5152 42.7158 81.5152 43.531 81.5152 44.3461C81.5152 46.1947 81.497 48.0433 81.5273 49.8919C81.5363 50.4495 81.5454 51.0768 81.7994 51.5374C82.0111 51.9192 82.5735 52.292 82.9939 52.3102C83.3567 52.3253 83.898 51.9162 84.0795 51.5526C84.3184 51.0768 84.3426 50.4616 84.3486 49.904C84.3758 47.716 84.3577 45.528 84.3607 43.34C84.3607 42.2915 84.8677 41.7804 85.8817 41.8066C86.0662 41.8127 86.2476 41.8339 86.4956 41.8521C86.5379 42.0885 86.6045 42.3006 86.6075 42.5127C86.6135 45.1916 86.6377 47.8706 86.6014 50.5495C86.5712 52.7678 85.2981 53.9284 82.9848 53.9466C80.5747 53.9648 79.3289 52.9223 79.2805 50.6828C79.22 47.7827 79.2654 44.8825 79.2654 41.8581L79.2684 41.8551Z" fill="#9BBEBB"/>
<path d="M25.2095 42.2794C25.2095 43.4764 25.2095 44.7129 25.2095 45.9463C25.2095 47.6069 25.2458 49.2676 25.1914 50.9283C25.1248 52.9981 23.8306 54.1618 21.6624 54.1982C19.1888 54.2376 17.9218 53.2678 17.8462 51.0495C17.7525 48.3342 17.822 45.6159 17.8039 42.9007C17.8008 42.3249 18.0246 42.0673 18.6052 42.0976C19.0467 42.1188 19.4882 42.1006 20.0688 42.1006C20.0688 44.1795 20.0628 46.1311 20.0688 48.0827C20.0748 49.1373 20.0597 50.198 20.1504 51.2465C20.217 52.0162 20.595 52.6193 21.5021 52.6223C22.4154 52.6223 22.8055 52.0375 22.8266 51.2465C22.8932 48.7979 22.9053 46.3463 22.9204 43.8946C22.9325 41.9127 23.0534 41.8127 25.2065 42.2794H25.2095Z" fill="#9BBEBB"/>
<path d="M87.9471 50.21H89.9852C90.0487 50.5373 90.0094 50.9464 90.1939 51.1676C90.5688 51.6192 91.0254 52.2131 91.5244 52.2919C91.9689 52.3647 92.8096 51.9252 92.9426 51.5313C93.121 51.004 93.0001 50.0646 92.6281 49.7282C91.9901 49.1494 91.0678 48.8766 90.2422 48.519C88.4218 47.7311 87.6689 46.3795 88.0045 44.4431C88.3493 42.4702 90.3813 41.3793 92.6826 41.9308C94.5816 42.3854 95.268 43.2733 95.0382 45.0431C94.1371 45.0704 93.121 45.5886 92.7219 44.1036C92.6342 43.7733 91.8842 43.4006 91.4821 43.443C91.0829 43.4854 90.4448 44.0158 90.4327 44.3491C90.4116 44.9431 90.6142 45.7462 91.0285 46.1098C91.6242 46.631 92.4981 46.8401 93.2511 47.1826C94.4788 47.7402 95.4525 48.4766 95.5099 50.0009C95.5825 51.8555 95.0654 52.895 93.6593 53.5344C92.0626 54.2587 89.6556 54.0193 88.6275 53.0283C87.9531 52.3798 87.7414 51.5525 87.9501 50.2009L87.9471 50.21Z" fill="#9BBEBB"/>
<path d="M16.3465 45.337C15.3486 45.3733 14.3175 45.8188 14.012 44.2975C13.9576 44.0187 13.1472 43.7096 12.7117 43.746C12.3398 43.7793 11.7229 44.2824 11.7229 44.5854C11.7169 45.1885 11.8771 46.0279 12.2914 46.3522C13.0383 46.9401 14.0332 47.2068 14.9132 47.634C16.2135 48.2644 16.9422 49.2281 16.8636 50.7645C16.7699 52.607 16.0199 53.7071 14.1965 54.001C13.1532 54.1707 12.0465 54.0222 10.979 53.9101C10.6131 53.8707 10.1021 53.5919 9.96601 53.2828C9.61221 52.4888 9.42774 51.6221 9.17676 50.7827C9.86319 50.6312 10.5496 50.4766 11.3117 50.3099C11.3782 50.7827 11.4084 51.0342 11.4477 51.2827C11.5747 52.0949 12.0344 52.6979 12.8599 52.5767C13.3952 52.4979 14.0997 52.11 14.3175 51.6615C14.644 50.9827 14.517 50.1372 13.6976 49.7069C13.0686 49.3766 12.3942 49.125 11.738 48.8432C9.63035 47.9462 8.83505 46.3825 9.44589 44.343C9.95089 42.652 11.7713 41.7519 13.8457 42.1671C15.8113 42.5611 16.5642 43.4702 16.3526 45.3339L16.3465 45.337Z" fill="#9BBEBB"/>
<path d="M37.8583 43.9401V46.9493H41.5989V48.7737H37.7978C37.7978 49.7707 37.7494 50.6707 37.8341 51.5586C37.8522 51.7586 38.33 52.0556 38.6082 52.0678C39.7301 52.1253 40.858 52.092 42.0586 52.092V53.886H35.5117V42.1097C37.5045 42.1097 39.4549 42.0794 41.4024 42.1279C42.0102 42.143 42.0646 42.4764 41.7773 43.9371H37.8613L37.8583 43.9401Z" fill="#9BBEBB"/>
<path d="M104.062 45.7794H102.018C101.921 45.3066 101.945 44.7612 101.703 44.3914C101.428 43.9732 100.911 43.4581 100.5 43.455C100.088 43.455 99.3383 44.0248 99.3232 44.3733C99.2143 46.6946 99.2083 49.022 99.3111 51.3433C99.3262 51.7009 100.076 52.3161 100.451 52.2888C100.908 52.2585 101.476 51.7554 101.724 51.3069C101.999 50.813 101.966 50.1493 102.081 49.4796H104.125C104.561 51.7615 103.505 53.507 101.497 53.8919C99.1025 54.3525 97.1369 53.2191 96.8829 50.9281C96.6621 48.922 96.6712 46.8552 96.8829 44.849C97.1157 42.6308 99.0662 41.4519 101.376 41.8337C103.366 42.1641 104.319 43.5126 104.065 45.7764L104.062 45.7794Z" fill="#9BBEBB"/>
<path d="M29.1439 53.8767H26.9092V42.1762C28.5149 42.1762 30.1357 42.0186 31.7112 42.2186C33.45 42.4398 34.2362 43.8762 34.091 46.0006C33.9701 47.7946 32.8512 48.8674 30.9159 49.0401C29.7345 49.1452 29.1439 49.8038 29.1439 51.016C29.1439 51.9494 29.1439 52.8797 29.1439 53.8737V53.8767ZM29.1529 47.3128L29.4614 47.6734C30.1327 47.4007 31.1034 47.3037 31.3997 46.8067C31.7596 46.2067 31.7112 45.2248 31.5358 44.4793C31.3423 43.652 30.4805 43.6126 29.7608 43.7156C29.534 43.749 29.1953 44.0884 29.1802 44.3066C29.1167 45.3066 29.1529 46.3127 29.1529 47.3158V47.3128Z" fill="#9BBEBB"/>
<path d="M75.8061 53.5406C75.4856 53.6133 75.3797 53.6557 75.2709 53.6618C74.0875 53.7285 73.4958 53.1567 73.4958 51.9466C73.4958 49.6434 73.4958 47.3403 73.4958 45.0341C73.4958 44.631 73.4958 44.228 73.4958 43.7371C72.5856 43.6946 71.8145 43.6583 70.998 43.6189V41.8794H78.2404C78.2676 42.3976 78.2948 42.9401 78.3281 43.6128C77.4632 43.6522 76.6952 43.6886 75.8061 43.731V53.5375V53.5406Z" fill="#9BBEBB"/>
<path d="M42.89 17.0691C43.1652 18.1479 43.3708 18.9662 43.6007 19.8662C42.3457 19.7329 42.0887 18.7207 42.89 17.0691Z" fill="#9BBEBB"/>
<path d="M45.9113 43.4521C46.6491 43.7613 47.6803 43.8794 48.0462 44.434C48.4121 44.9886 48.4 46.1826 48.025 46.7311C47.644 47.2857 46.6128 47.3917 45.5938 47.8039V43.834C45.6996 43.7067 45.8054 43.5794 45.9143 43.4552L45.9113 43.4521Z" stroke="#9BBEBB" stroke-miterlimit="10"/>
<path d="M29.1529 47.313C29.1529 46.3099 29.1166 45.3038 29.1801 44.3037C29.1922 44.0855 29.5339 43.7461 29.7607 43.7128C30.4834 43.6097 31.3422 43.6491 31.5358 44.4765C31.7081 45.222 31.7565 46.2038 31.3997 46.8038C31.1033 47.3008 30.1327 47.3978 29.4613 47.6706L29.1529 47.3099V47.313Z" stroke="#9BBEBB" stroke-miterlimit="10"/>
</svg>
