<svg width="63" height="59" viewBox="0 0 63 59" fill="none" xmlns="http://www.w3.org/2000/svg">
<g clip-path="url(#clip0_242_50)">
<path d="M29.6833 22.6406C29.5379 23.1497 29.4756 23.4653 29.3601 23.7601C27.5201 28.4547 25.657 33.14 23.8423 37.8438C23.5053 38.7168 23.1059 39.0485 22.2609 38.4865C20.7695 37.4936 19.2757 36.5054 17.7912 35.5034C17.2672 35.1487 17.2372 34.7571 17.7058 34.2918C21.5036 30.5186 25.2922 26.734 29.0877 22.9585C29.1847 22.8618 29.337 22.8226 29.6833 22.6406Z" fill="#9BBEBB"/>
<path d="M32.0198 23.2996C32.6917 24.8291 33.3658 26.3563 34.0353 27.8881C35.4944 31.2144 36.9258 34.5499 38.4242 37.8577C38.849 38.7929 38.6804 39.2974 37.6715 39.5001C35.9885 39.8387 34.3055 40.1866 32.6178 40.5137C31.752 40.6818 31.5627 40.1704 31.565 39.4471C31.5743 37.3072 31.565 35.1672 31.565 33.025C31.565 30.1963 31.5627 27.3676 31.5673 24.5388C31.5673 24.1403 31.6158 23.7418 31.6435 23.3433C31.7682 23.3295 31.8906 23.3134 32.0152 23.2996H32.0198Z" fill="#9BBEBB"/>
<path d="M32.5898 17.9414C33.1763 16.405 33.6518 15.1289 34.1505 13.8619C35.5888 10.204 37.0318 6.54599 38.4793 2.89032C38.9942 1.59114 39.1188 1.48749 40.2709 2.18084C41.7392 3.06309 43.1267 4.07893 44.535 5.05562C45.0176 5.38963 45.1584 5.77431 44.6597 6.26957C40.8342 10.0634 37.0202 13.8688 33.1993 17.6673C33.1255 17.741 33.0008 17.7595 32.5922 17.9414H32.5898Z" fill="#9BBEBB"/>
<path d="M33.8597 19.6784C34.4231 19.3858 34.737 19.1992 35.0695 19.0541C39.5991 17.08 44.1288 15.1082 48.6608 13.141C49.9721 12.5721 50.1083 12.5859 50.4662 13.9979C50.8679 15.585 51.1357 17.2067 51.4174 18.8215C51.5351 19.4918 51.2673 19.9202 50.487 19.9179C45.1585 19.9064 39.8323 19.9064 34.5039 19.8995C34.3977 19.8995 34.2938 19.8304 33.8574 19.6784H33.8597Z" fill="#9BBEBB"/>
<path d="M28.8128 18.8584C27.8732 18.5175 27.1967 18.2917 26.5341 18.0314C22.2515 16.3591 17.9712 14.6821 13.6909 13.0029C12.4119 12.5007 12.3172 12.3855 13.0283 11.1946C13.8894 9.75494 14.8775 8.38896 15.8264 7.00225C16.182 6.48626 16.5744 6.29968 17.1239 6.85252C20.9032 10.6556 24.701 14.438 28.4896 18.2318C28.5635 18.3056 28.5935 18.4253 28.8105 18.8538L28.8128 18.8584Z" fill="#9BBEBB"/>
<path d="M33.4629 21.6825C34.361 22.0096 34.9936 22.2261 35.6169 22.468C39.9319 24.1541 44.2422 25.8449 48.5548 27.538C49.9724 28.0954 50.0393 28.1392 49.2497 29.4799C48.4186 30.8919 47.4513 32.2233 46.5209 33.5732C46.1561 34.103 45.7475 34.2182 45.2165 33.6838C41.4371 29.8876 37.6393 26.1075 33.8531 22.3206C33.7561 22.2238 33.7053 22.081 33.4629 21.6802V21.6825Z" fill="#9BBEBB"/>
<path d="M28.3194 21.0305C27.5021 21.4083 26.8603 21.7192 26.2069 22.0049C22.0305 23.8292 17.8495 25.6467 13.6707 27.4642C12.3963 28.0193 12.2832 28.0216 11.9346 26.6672C11.5167 25.0455 11.2397 23.387 10.9257 21.74C10.8195 21.1779 10.9765 20.7402 11.6714 20.7402C17.0761 20.7494 22.4784 20.7587 27.8831 20.7725C27.9454 20.7725 28.0077 20.8439 28.3194 21.0282V21.0305Z" fill="#9BBEBB"/>
<path d="M30.5261 17.5062C30.249 16.9903 30.0551 16.6839 29.912 16.3545C27.9173 11.8005 25.9502 7.23491 23.9255 2.69469C23.5307 1.81015 23.63 1.33793 24.6066 1.13292C26.2504 0.789693 27.8895 0.414221 29.5403 0.098641C30.2306 -0.0326589 30.7339 0.165443 30.7315 1.03847C30.7154 6.31581 30.7223 11.5931 30.7154 16.8705C30.7154 17.0018 30.6415 17.1331 30.5284 17.5039L30.5261 17.5062Z" fill="#9BBEBB"/>
<path d="M33.6732 18.4645C33.9941 18.1006 34.1996 17.838 34.4351 17.6053C37.9004 14.1408 41.3981 10.7063 44.8196 7.20038C45.6461 6.35499 46.1748 6.42179 46.775 7.31556C47.5854 8.52029 48.4004 9.72042 49.1992 10.9321C49.5293 11.4319 49.5016 11.8466 48.8713 12.1207C43.9515 14.2491 39.034 16.3868 34.1142 18.5175C34.0565 18.5428 33.971 18.5037 33.6709 18.4668L33.6732 18.4645Z" fill="#9BBEBB"/>
<path d="M31.6733 17.1884C31.6295 16.7047 31.574 16.3822 31.5717 16.062C31.5671 11.2039 31.5625 6.34578 31.5717 1.48769C31.5717 0.128619 31.768 -0.0856075 33.1278 0.117101C34.5246 0.324417 35.9028 0.669943 37.2858 0.971702C37.8606 1.09609 38.1561 1.39094 37.8999 2.04053C35.9444 6.98386 34.0028 11.9318 32.0519 16.8774C32.0289 16.9373 31.9411 16.9719 31.6756 17.1884H31.6733Z" fill="#9BBEBB"/>
<path d="M28.0052 19.8212C27.525 19.865 27.2017 19.9179 26.8785 19.9179C22.0095 19.9225 17.1428 19.9248 12.2737 19.9179C10.8747 19.9179 10.7731 19.8235 10.9993 18.3677C11.2163 16.9741 11.5119 15.5942 11.8027 14.2144C11.9182 13.6685 12.1929 13.3138 12.8624 13.5787C17.8123 15.5367 22.7667 17.4831 27.7189 19.4388C27.7789 19.4618 27.8089 19.554 28.0052 19.8189V19.8212Z" fill="#9BBEBB"/>
<path d="M28.6747 22.0947C28.273 22.5485 28.0537 22.8249 27.8043 23.076C24.3667 26.5105 20.9083 29.9243 17.4983 33.3888C16.7596 34.1398 16.2355 34.2457 15.6306 33.3243C14.8156 32.0804 13.9706 30.855 13.158 29.6088C12.8232 29.0951 12.9133 28.6989 13.5274 28.434C18.341 26.3493 23.1477 24.2531 27.959 22.1661C28.0837 22.1132 28.2407 22.1362 28.6747 22.097V22.0947Z" fill="#9BBEBB"/>
<path d="M32.9365 23.0323C37.0345 27.1188 40.98 31.0508 44.9971 35.0589C43.702 36.4226 42.0836 37.5375 40.2736 38.3783C39.4978 38.7399 39.3893 38.0028 39.1908 37.5559C37.8587 34.5522 36.5496 31.5369 35.2337 28.5262C34.5919 27.0566 33.9477 25.5846 33.3151 24.1104C33.1743 23.7833 33.0774 23.4378 32.9365 23.03V23.0323Z" fill="#9BBEBB"/>
<path d="M29.2796 17.6835C28.9564 17.3978 28.6955 17.1882 28.46 16.9533C24.9947 13.5026 21.5547 10.0266 18.057 6.60822C17.2813 5.85036 17.2305 5.33668 18.1424 4.74468C19.3891 3.93615 20.622 3.10458 21.871 2.29836C22.3304 2.0012 22.7206 2.01963 22.9722 2.60242C25.1032 7.53883 27.2433 12.4729 29.3766 17.4094C29.3881 17.4324 29.3558 17.4762 29.2796 17.6835Z" fill="#9BBEBB"/>
<path d="M34.4991 20.7288C35.4872 20.7288 36.4731 20.7288 37.4612 20.7288C41.6307 20.7288 45.8002 20.7265 49.9697 20.7312C51.4034 20.7312 51.5927 20.8901 51.3849 22.3275C51.191 23.6819 50.847 25.0157 50.5584 26.3563C50.4222 26.9944 50.099 27.2639 49.4087 26.9898C44.5373 25.064 39.6614 23.159 34.7877 21.2402C34.6584 21.1895 34.5568 21.0744 34.4414 20.9891C34.4599 20.9016 34.4783 20.8164 34.4968 20.7288H34.4991Z" fill="#9BBEBB"/>
<path d="M30.6483 23.4883C30.6829 23.9904 30.7245 24.3198 30.7245 24.6492C30.7291 29.4958 30.7314 34.3424 30.7245 39.189C30.7245 40.5434 30.6113 40.6609 29.2631 40.4375C27.834 40.2002 26.4188 39.8892 25.0012 39.5898C24.4748 39.4792 24.2024 39.1959 24.4402 38.5993C26.3957 33.6698 28.3419 28.738 30.2951 23.8062C30.3205 23.744 30.4036 23.7048 30.6483 23.4883Z" fill="#9BBEBB"/>
<path d="M29.0392 53.2127C29.0392 52.0656 29.0739 50.9184 29.0277 49.7736C28.9908 48.8223 29.3948 48.4675 30.3275 48.5205C31.2048 48.5712 32.0913 48.5021 32.9686 48.5412C35.1758 48.6426 36.2147 50.3656 35.3766 52.4019C35.2404 52.7336 35.2889 53.2703 35.469 53.5859C36.5702 55.5024 35.7506 57.4811 33.5666 57.8382C32.4446 58.0225 31.281 57.9487 30.1336 57.9948C29.3532 58.0271 29.0254 57.6401 29.0369 56.8799C29.0531 55.6568 29.0416 54.4336 29.0416 53.2104H29.0369L29.0392 53.2127ZM32.1029 56.1497C33.1303 56.1129 34.0306 56.2004 34.0214 55.0901C34.0122 53.89 33.0725 53.9453 32.2114 53.913C31.4357 53.8854 30.9231 53.9798 30.9093 54.9818C30.8931 56.1244 31.5188 56.2096 32.1006 56.1497H32.1029ZM32.2137 52.1992C32.8948 52.1762 33.7421 52.2683 33.7628 51.2939C33.7836 50.285 32.9525 50.2665 32.1929 50.2458C31.4865 50.2251 30.9139 50.2458 30.9208 51.2317C30.9278 52.2176 31.5072 52.243 32.2137 52.1992Z" fill="#9BBEBB"/>
<path d="M19.9111 51.9528C19.9111 53.5468 19.9065 55.1431 19.9111 56.7372C19.9134 57.3845 19.9157 57.9949 18.9992 57.9811C18.1519 57.9672 18.1519 57.3983 18.1519 56.7925C18.1565 54.4613 18.1288 52.1279 18.1796 49.7967C18.1888 49.3867 18.519 48.6426 18.7037 48.6426C19.2878 48.6403 20.0496 48.744 20.4213 49.1218C21.1255 49.8359 21.6057 50.7688 22.2822 51.7662C22.9055 50.831 23.4596 50.0662 23.9398 49.2554C24.4038 48.4745 25.1403 48.3524 25.8168 48.6357C26.1284 48.767 26.3316 49.4788 26.3432 49.9326C26.3939 52.2246 26.3616 54.5189 26.3709 56.8132C26.3732 57.4351 26.3362 57.9765 25.5005 57.9788C24.674 57.9811 24.6047 57.4559 24.6093 56.8247C24.6209 55.1961 24.6139 53.5675 24.3969 51.8699C23.7343 52.8143 23.0717 53.7587 22.2452 54.9358C21.4741 53.8048 20.8208 52.8489 20.1697 51.8929C20.0843 51.9113 19.9965 51.9298 19.9111 51.9482V51.9528Z" fill="#9BBEBB"/>
<path d="M41.4674 48.4976C43.9308 48.4953 45.7131 50.6007 45.6185 53.3971C45.5261 56.0968 43.8315 58.0272 41.5367 58.0525C39.1472 58.0778 37.4318 56.1844 37.3349 53.4155C37.2379 50.6053 39.0064 48.5022 41.4674 48.4976ZM43.723 53.2566C43.723 51.4852 42.7511 50.2137 41.4259 50.2482C40.1515 50.2805 39.2349 51.529 39.228 53.2428C39.2211 54.9635 40.2484 56.3249 41.5228 56.2857C42.7557 56.2466 43.723 54.9151 43.7207 53.2566H43.723Z" fill="#9BBEBB"/>
<path d="M12.0404 48.4607C14.5753 48.4561 16.4084 50.7251 16.1776 53.5814C15.9721 56.1337 14.4599 57.8867 12.3613 58.011C9.71321 58.1677 7.67463 55.8365 7.91704 52.9272C8.1456 50.1975 9.74322 48.4653 12.0404 48.4607ZM14.3098 53.0263C14.259 52.7798 14.2105 52.2799 14.0489 51.8215C13.7211 50.8955 13.1255 50.2206 12.0519 50.2206C10.9807 50.2206 10.3504 50.8886 10.0618 51.8215C9.87481 52.425 9.80325 53.0977 9.84018 53.7288C9.92561 55.1409 10.9437 56.2443 12.0519 56.2512C13.1439 56.2581 14.139 55.1317 14.2752 53.7334C14.289 53.5814 14.2913 53.4294 14.3098 53.0286V53.0263Z" fill="#9BBEBB"/>
<path d="M53.9359 57.7599C54.1783 56.9814 54.4046 56.2304 54.647 55.4818C55.2796 53.5215 55.9583 51.575 56.5378 49.5986C56.7964 48.7164 57.3089 48.5137 58.14 48.5137C58.9319 48.5137 59.4167 48.7233 59.6684 49.5387C60.4233 51.9804 61.2568 54.3991 62.0094 56.8408C62.1064 57.1518 61.9078 57.5526 61.8455 57.912C61.3445 57.7622 60.8458 57.6125 60.3448 57.4582C60.3218 57.4513 60.3171 57.3891 60.301 57.3568C60.0539 56.8547 59.8946 56.0139 59.5368 55.9217C58.678 55.696 57.7106 55.7213 56.8195 55.8596C56.5009 55.9079 56.1707 56.5345 56.0299 56.9583C55.6767 58.011 55.0348 58.1861 53.9336 57.7623L53.9359 57.7599ZM59.1882 53.943C58.8211 52.8258 58.5117 51.8883 58.2047 50.9531C58.1169 50.9554 58.0269 50.96 57.9392 50.9623C57.6483 51.9321 57.3551 52.9019 57.0088 54.0559C57.8468 54.0121 58.4217 53.9822 59.1882 53.943Z" fill="#9BBEBB"/>
<path d="M2.52368 54.1757C2.52368 53.4109 2.46827 52.6415 2.53522 51.8814C2.62988 50.8195 2.29281 50.2873 1.14077 50.4117C0.503572 50.4808 -0.103615 50.2804 0.0603026 49.4949C0.13649 49.1356 0.588994 48.5989 0.893741 48.5851C2.61372 48.4952 4.34293 48.4952 6.06522 48.5804C6.37458 48.5966 6.89866 49.1632 6.88711 49.4604C6.87557 49.7875 6.39998 50.3081 6.05367 50.3726C4.45144 50.6812 4.44221 50.6352 4.4399 52.2361C4.4399 53.7656 4.42835 55.2975 4.4399 56.827C4.44451 57.5457 4.22519 58.0064 3.39406 57.988C2.56524 57.9695 2.50983 57.4374 2.51906 56.8132C2.53061 55.9332 2.52137 55.0533 2.51906 54.1734L2.52368 54.1757Z" fill="#9BBEBB"/>
<path d="M47.6123 53.2774C47.6123 52.0543 47.6193 50.8288 47.6077 49.6056C47.6008 49.0021 47.7093 48.546 48.4642 48.5437C49.1915 48.5414 49.3693 48.9445 49.3646 49.5711C49.3554 51.331 49.4039 53.0908 49.3485 54.8484C49.3208 55.7767 49.614 56.2098 50.5859 56.113C51.0408 56.067 51.5048 56.1176 51.9642 56.1153C52.6037 56.113 52.8254 56.4447 52.83 57.0552C52.8346 57.684 52.5622 57.9812 51.9481 57.9835C50.7983 57.9881 49.6486 57.9881 48.4989 57.9835C47.8894 57.9835 47.5985 57.6909 47.6077 57.0621C47.6262 55.7998 47.6123 54.5374 47.6123 53.2751V53.2774Z" fill="#9BBEBB"/>
</g>
<defs>
<clipPath id="clip0_242_50">
<rect width="62" height="58" fill="white" transform="translate(0.0351562 0.0524902)"/>
</clipPath>
</defs>
</svg>
