<svg width="83" height="97" viewBox="0 0 83 97" fill="none" xmlns="http://www.w3.org/2000/svg">
<ellipse cx="41.5" cy="48.5" rx="41.5" ry="48.5" fill="white"/>
<path d="M61.2627 33.6265C61.2627 44.1721 52.3795 52.753 41.3813 52.753C30.3832 52.753 21.5 44.1721 21.5 33.6265C21.5 23.0808 30.3832 14.5 41.3813 14.5C52.3795 14.5 61.2627 23.0808 61.2627 33.6265Z" fill="white" stroke="#1ABEAE"/>
<path d="M59.6778 40.7053L42.2641 80.8067L23.2986 40.7048L59.6778 40.7053Z" fill="white" stroke="#1ABEAE"/>
<path d="M49.1851 29.0975C49.1851 32.9466 45.7373 36.1461 41.3816 36.1461C37.026 36.1461 33.5781 32.9466 33.5781 29.0975C33.5781 25.2484 37.026 22.0488 41.3816 22.0488C45.7373 22.0488 49.1851 25.2484 49.1851 29.0975Z" fill="white" stroke="#1ABEAE"/>
<path d="M24 40C26.167 40.8668 51.7086 37.9768 58.474 37.1916C59.3518 37.0897 60.1098 37.7773 60.1098 38.661V38.661C60.1098 38.8841 60.0592 39.1043 59.9618 39.305L56.8943 45.6266C56.0441 47.3787 54.2539 48.4777 52.3066 48.443L30.1184 48.0468C28.4784 48.0175 26.9531 47.1906 26.0927 45.7942C24.4944 43.2001 22.3139 39.3255 24 40Z" fill="white"/>
</svg>
