<?xml version="1.0" encoding="UTF-8"?><svg id="Layer_1" xmlns="http://www.w3.org/2000/svg" width="159.44" height="65.81" viewBox="0 0 159.44 65.81"><defs><style>.cls-1{fill:rgba(255,206,232,.69);}.cls-1,.cls-2{stroke-width:0px;}.cls-2{fill:#d1ebf3;}</style></defs><path class="cls-2" d="M157.48,56.23c.13-1.15,2.09-2.46,1.95-3.55-.7-6.3-1.73-2.15-2.7-4.58-.22-.54-2.12-2.15-2.85-3.35-.63-1.05-.88-2.51-1.45-3.82-.54-1.24-2.55-.35-3-1.74-.43-1.37-.73-2.82-1.03-4.23-.3-1.51-3.17-2.87-3.28-4.35-.12-1.55,1.7-3.37,1.87-4.8.2-1.62,2.57-4.05,2.96-5.5.4-1.5.53-3.17,1.08-4.48.55-1.42.52-3.52,1.11-4.71.3-.6-.06-.75.5-.87L0,14.82c.03.07.05.09.09.16.74,1.07,3.46,3.01,3.99,4.22.51,1.16-1.84,2.27-1.41,3.4.44,1.2.82,2.31,1.21,3.52.38,1.26,1.49,1.92,1.82,3.18.32,1.27.73,2.5,1.02,3.79.25,1.29,1.07,2.38,1.3,3.73.24,1.38-1.55,3.23-1.4,4.72.15,1.44-.37,2.85-.26,4.35.14,1.44,2.55,2.8,2.66,4.26.12,1.47-.37,3.05-.22,4.52.15,1.47.42,2.92.66,4.35.25,1.44,1.14,2.5,1.5,3.87.23.85.1,1.95.1,2.93l145.48-4.37c.38-1.27.66-2.78.82-4.1.04-.34.09-.73.13-1.11Z"/><polygon class="cls-1" points="97.21 18.52 97.44 19.36 37.12 24.6 37.14 24.28 37 23.13 36.11 22.07 36.09 20.9 36.19 19.72 35.81 18.47 35.92 17.3 36.7 16.19 36.99 15.14 36.44 13.93 36.57 12.81 36.83 11.74 37.04 10.64 37.85 9.32 37.09 8.32 36.96 7.11 37.07 5.99 37.7 4.84 37.73 4.39 88.2 0 88.22 .12 88.87 .87 89.4 1.61 89.8 2.54 90.39 2.71 90.96 3.03 91.59 3.55 91.74 3.16 92.25 4.03 92.76 4.8 92.63 5.9 93.24 6.64 92.67 7.74 93.11 8.69 95.19 9.74 95.55 10.77 96.15 11.58 96.41 12.71 96.57 13.91 97.16 14.88 97.31 16.09 97.25 17.32 97.21 18.52"/></svg>